G04 #@! TF.FileFunction,Legend,Bot*
%FSLAX46Y46*%
G04 Gerber Fmt 4.6, Leading zero omitted, Abs format (unit mm)*
G04 Created by KiCad (PCBNEW 4.0.3-stable) date 09/18/16 17:34:36*
%MOMM*%
%LPD*%
G01*
G04 APERTURE LIST*
%ADD10C,0.100000*%
%ADD11C,0.300000*%
%ADD12C,0.150000*%
%ADD13C,0.381000*%
%ADD14C,0.304800*%
G04 APERTURE END LIST*
D10*
D11*
X85792285Y-139108571D02*
X85792285Y-137608571D01*
X85149428Y-139037143D02*
X84935142Y-139108571D01*
X84577999Y-139108571D01*
X84435142Y-139037143D01*
X84363713Y-138965714D01*
X84292285Y-138822857D01*
X84292285Y-138680000D01*
X84363713Y-138537143D01*
X84435142Y-138465714D01*
X84577999Y-138394286D01*
X84863713Y-138322857D01*
X85006571Y-138251429D01*
X85077999Y-138180000D01*
X85149428Y-138037143D01*
X85149428Y-137894286D01*
X85077999Y-137751429D01*
X85006571Y-137680000D01*
X84863713Y-137608571D01*
X84506571Y-137608571D01*
X84292285Y-137680000D01*
X83649428Y-139108571D02*
X83649428Y-137608571D01*
X83078000Y-137608571D01*
X82935142Y-137680000D01*
X82863714Y-137751429D01*
X82792285Y-137894286D01*
X82792285Y-138108571D01*
X82863714Y-138251429D01*
X82935142Y-138322857D01*
X83078000Y-138394286D01*
X83649428Y-138394286D01*
D12*
X71882000Y-82042000D02*
X72644000Y-82042000D01*
X72644000Y-82042000D02*
X72644000Y-80518000D01*
X72644000Y-80518000D02*
X71882000Y-80518000D01*
X83058000Y-83566000D02*
X83058000Y-78994000D01*
X83058000Y-78994000D02*
X71882000Y-78994000D01*
X71882000Y-78994000D02*
X71882000Y-83566000D01*
X71882000Y-83566000D02*
X83058000Y-83566000D01*
X71882000Y-52832000D02*
X72644000Y-52832000D01*
X72644000Y-52832000D02*
X72644000Y-51308000D01*
X72644000Y-51308000D02*
X71882000Y-51308000D01*
X83058000Y-54356000D02*
X83058000Y-49784000D01*
X83058000Y-49784000D02*
X71882000Y-49784000D01*
X71882000Y-49784000D02*
X71882000Y-54356000D01*
X71882000Y-54356000D02*
X83058000Y-54356000D01*
X129935000Y-54645000D02*
X129935000Y-55845000D01*
X131685000Y-55845000D02*
X131685000Y-54645000D01*
X91835000Y-54645000D02*
X91835000Y-55845000D01*
X93585000Y-55845000D02*
X93585000Y-54645000D01*
X142635000Y-54645000D02*
X142635000Y-55845000D01*
X144385000Y-55845000D02*
X144385000Y-54645000D01*
X104535000Y-54645000D02*
X104535000Y-55845000D01*
X106285000Y-55845000D02*
X106285000Y-54645000D01*
X155335000Y-54645000D02*
X155335000Y-55845000D01*
X157085000Y-55845000D02*
X157085000Y-54645000D01*
X117235000Y-54645000D02*
X117235000Y-55845000D01*
X118985000Y-55845000D02*
X118985000Y-54645000D01*
X129935000Y-83855000D02*
X129935000Y-85055000D01*
X131685000Y-85055000D02*
X131685000Y-83855000D01*
X91835000Y-83855000D02*
X91835000Y-85055000D01*
X93585000Y-85055000D02*
X93585000Y-83855000D01*
X142635000Y-83855000D02*
X142635000Y-85055000D01*
X144385000Y-85055000D02*
X144385000Y-83855000D01*
X104535000Y-83855000D02*
X104535000Y-85055000D01*
X106285000Y-85055000D02*
X106285000Y-83855000D01*
X155335000Y-83855000D02*
X155335000Y-85055000D01*
X157085000Y-85055000D02*
X157085000Y-83855000D01*
X91835000Y-113065000D02*
X91835000Y-114265000D01*
X93585000Y-114265000D02*
X93585000Y-113065000D01*
X142635000Y-113065000D02*
X142635000Y-114265000D01*
X144385000Y-114265000D02*
X144385000Y-113065000D01*
X104535000Y-113065000D02*
X104535000Y-114265000D01*
X106285000Y-114265000D02*
X106285000Y-113065000D01*
X155335000Y-113065000D02*
X155335000Y-114265000D01*
X157085000Y-114265000D02*
X157085000Y-113065000D01*
X117235000Y-113065000D02*
X117235000Y-114265000D01*
X118985000Y-114265000D02*
X118985000Y-113065000D01*
X142732760Y-129286000D02*
G75*
G03X142732760Y-129286000I-1000760J0D01*
G01*
X147932140Y-129286000D02*
G75*
G03X147932140Y-129286000I-6200140J0D01*
G01*
X71882000Y-111252000D02*
X72644000Y-111252000D01*
X72644000Y-111252000D02*
X72644000Y-109728000D01*
X72644000Y-109728000D02*
X71882000Y-109728000D01*
X83058000Y-112776000D02*
X83058000Y-108204000D01*
X83058000Y-108204000D02*
X71882000Y-108204000D01*
X71882000Y-108204000D02*
X71882000Y-112776000D01*
X71882000Y-112776000D02*
X83058000Y-112776000D01*
X117235000Y-83855000D02*
X117235000Y-85055000D01*
X118985000Y-85055000D02*
X118985000Y-83855000D01*
X71335000Y-80780000D02*
X71335000Y-81780000D01*
X69635000Y-81780000D02*
X69635000Y-80780000D01*
X71335000Y-51570000D02*
X71335000Y-52570000D01*
X69635000Y-52570000D02*
X69635000Y-51570000D01*
X81915000Y-133985000D02*
X81915000Y-128905000D01*
X81635000Y-136805000D02*
X83185000Y-136805000D01*
X84455000Y-136525000D02*
X84455000Y-133985000D01*
X84455000Y-133985000D02*
X81915000Y-133985000D01*
X81915000Y-128905000D02*
X86995000Y-128905000D01*
X86995000Y-128905000D02*
X86995000Y-133985000D01*
X81635000Y-136805000D02*
X81635000Y-135255000D01*
X86995000Y-136525000D02*
X84455000Y-136525000D01*
X86995000Y-133985000D02*
X86995000Y-136525000D01*
D13*
X97774760Y-128475740D02*
X111775240Y-128475740D01*
X111775240Y-132974080D02*
X97774760Y-132974080D01*
X98275140Y-132476240D02*
X111274860Y-132476240D01*
X102877620Y-132476240D02*
X102877620Y-131975860D01*
X102877620Y-131975860D02*
X102679500Y-131975860D01*
X102679500Y-131975860D02*
X102679500Y-132476240D01*
X100677980Y-131975860D02*
X100677980Y-132476240D01*
X100876100Y-131975860D02*
X100677980Y-131975860D01*
X100876100Y-132476240D02*
X100876100Y-131975860D01*
X106677460Y-131975860D02*
X106677460Y-132476240D01*
X106875580Y-131975860D02*
X106677460Y-131975860D01*
X106875580Y-132476240D02*
X106875580Y-131975860D01*
X108678980Y-131975860D02*
X108678980Y-132476240D01*
X108877100Y-131975860D02*
X108678980Y-131975860D01*
X108877100Y-132476240D02*
X108877100Y-131975860D01*
X104876600Y-132476240D02*
X104876600Y-131975860D01*
X104876600Y-131975860D02*
X104678480Y-131975860D01*
X104678480Y-131975860D02*
X104678480Y-132476240D01*
X97774760Y-129674620D02*
X98275140Y-129674620D01*
X98275140Y-130975100D02*
X97774760Y-130975100D01*
X111277400Y-130975100D02*
X111777780Y-130975100D01*
X111277400Y-129674620D02*
X111777780Y-129674620D01*
X109278420Y-128475740D02*
X109278420Y-128976120D01*
X109278420Y-128976120D02*
X111277400Y-128976120D01*
X111277400Y-128976120D02*
X111277400Y-132476240D01*
X98275140Y-132476240D02*
X98275140Y-128976120D01*
X98275140Y-128976120D02*
X100274120Y-128976120D01*
X100274120Y-128976120D02*
X100274120Y-128475740D01*
X111777780Y-128475740D02*
X111777780Y-132974080D01*
X97774760Y-128475740D02*
X97774760Y-132974080D01*
X110078520Y-128475740D02*
X110078520Y-128275080D01*
X110078520Y-128275080D02*
X110378240Y-128275080D01*
X110378240Y-128275080D02*
X110378240Y-128475740D01*
D12*
X79959200Y-97384820D02*
X80660240Y-97384820D01*
X80660240Y-97384820D02*
X80660240Y-97135900D01*
X80660240Y-94585840D02*
X80660240Y-94385180D01*
X80660240Y-94385180D02*
X79959200Y-94385180D01*
X79959200Y-103734820D02*
X80660240Y-103734820D01*
X80660240Y-103734820D02*
X80660240Y-103485900D01*
X80660240Y-100935840D02*
X80660240Y-100735180D01*
X80660240Y-100735180D02*
X79959200Y-100735180D01*
X80415180Y-121234200D02*
X80415180Y-121935240D01*
X80415180Y-121935240D02*
X80664100Y-121935240D01*
X83214160Y-121935240D02*
X83414820Y-121935240D01*
X83414820Y-121935240D02*
X83414820Y-121234200D01*
X76784200Y-100559820D02*
X77485240Y-100559820D01*
X77485240Y-100559820D02*
X77485240Y-100310900D01*
X77485240Y-97760840D02*
X77485240Y-97560180D01*
X77485240Y-97560180D02*
X76784200Y-97560180D01*
X79959200Y-75159820D02*
X80660240Y-75159820D01*
X80660240Y-75159820D02*
X80660240Y-74910900D01*
X80660240Y-72360840D02*
X80660240Y-72160180D01*
X80660240Y-72160180D02*
X79959200Y-72160180D01*
X82499200Y-45949820D02*
X83200240Y-45949820D01*
X83200240Y-45949820D02*
X83200240Y-45700900D01*
X83200240Y-43150840D02*
X83200240Y-42950180D01*
X83200240Y-42950180D02*
X82499200Y-42950180D01*
X76784200Y-71349820D02*
X77485240Y-71349820D01*
X77485240Y-71349820D02*
X77485240Y-71100900D01*
X77485240Y-68550840D02*
X77485240Y-68350180D01*
X77485240Y-68350180D02*
X76784200Y-68350180D01*
X79959200Y-68174820D02*
X80660240Y-68174820D01*
X80660240Y-68174820D02*
X80660240Y-67925900D01*
X80660240Y-65375840D02*
X80660240Y-65175180D01*
X80660240Y-65175180D02*
X79959200Y-65175180D01*
X87720180Y-57734200D02*
X87720180Y-58435240D01*
X87720180Y-58435240D02*
X87969100Y-58435240D01*
X90519160Y-58435240D02*
X90719820Y-58435240D01*
X90719820Y-58435240D02*
X90719820Y-57734200D01*
X100100180Y-57734200D02*
X100100180Y-58435240D01*
X100100180Y-58435240D02*
X100349100Y-58435240D01*
X102899160Y-58435240D02*
X103099820Y-58435240D01*
X103099820Y-58435240D02*
X103099820Y-57734200D01*
X112800180Y-57734200D02*
X112800180Y-58435240D01*
X112800180Y-58435240D02*
X113049100Y-58435240D01*
X115599160Y-58435240D02*
X115799820Y-58435240D01*
X115799820Y-58435240D02*
X115799820Y-57734200D01*
X125500180Y-57734200D02*
X125500180Y-58435240D01*
X125500180Y-58435240D02*
X125749100Y-58435240D01*
X128299160Y-58435240D02*
X128499820Y-58435240D01*
X128499820Y-58435240D02*
X128499820Y-57734200D01*
X138200180Y-57734200D02*
X138200180Y-58435240D01*
X138200180Y-58435240D02*
X138449100Y-58435240D01*
X140999160Y-58435240D02*
X141199820Y-58435240D01*
X141199820Y-58435240D02*
X141199820Y-57734200D01*
X150900180Y-57734200D02*
X150900180Y-58435240D01*
X150900180Y-58435240D02*
X151149100Y-58435240D01*
X153699160Y-58435240D02*
X153899820Y-58435240D01*
X153899820Y-58435240D02*
X153899820Y-57734200D01*
X88035180Y-86944200D02*
X88035180Y-87645240D01*
X88035180Y-87645240D02*
X88284100Y-87645240D01*
X90834160Y-87645240D02*
X91034820Y-87645240D01*
X91034820Y-87645240D02*
X91034820Y-86944200D01*
X100100180Y-86944200D02*
X100100180Y-87645240D01*
X100100180Y-87645240D02*
X100349100Y-87645240D01*
X102899160Y-87645240D02*
X103099820Y-87645240D01*
X103099820Y-87645240D02*
X103099820Y-86944200D01*
X112800180Y-86944200D02*
X112800180Y-87645240D01*
X112800180Y-87645240D02*
X113049100Y-87645240D01*
X115599160Y-87645240D02*
X115799820Y-87645240D01*
X115799820Y-87645240D02*
X115799820Y-86944200D01*
X125500180Y-86944200D02*
X125500180Y-87645240D01*
X125500180Y-87645240D02*
X125749100Y-87645240D01*
X128299160Y-87645240D02*
X128499820Y-87645240D01*
X128499820Y-87645240D02*
X128499820Y-86944200D01*
X138200180Y-86944200D02*
X138200180Y-87645240D01*
X138200180Y-87645240D02*
X138449100Y-87645240D01*
X140999160Y-87645240D02*
X141199820Y-87645240D01*
X141199820Y-87645240D02*
X141199820Y-86944200D01*
X150900180Y-86944200D02*
X150900180Y-87645240D01*
X150900180Y-87645240D02*
X151149100Y-87645240D01*
X153699160Y-87645240D02*
X153899820Y-87645240D01*
X153899820Y-87645240D02*
X153899820Y-86944200D01*
X88035180Y-116154200D02*
X88035180Y-116855240D01*
X88035180Y-116855240D02*
X88284100Y-116855240D01*
X90834160Y-116855240D02*
X91034820Y-116855240D01*
X91034820Y-116855240D02*
X91034820Y-116154200D01*
X100100180Y-116154200D02*
X100100180Y-116855240D01*
X100100180Y-116855240D02*
X100349100Y-116855240D01*
X102899160Y-116855240D02*
X103099820Y-116855240D01*
X103099820Y-116855240D02*
X103099820Y-116154200D01*
X112800180Y-116154200D02*
X112800180Y-116855240D01*
X112800180Y-116855240D02*
X113049100Y-116855240D01*
X115599160Y-116855240D02*
X115799820Y-116855240D01*
X115799820Y-116855240D02*
X115799820Y-116154200D01*
X125500180Y-116154200D02*
X125500180Y-116855240D01*
X125500180Y-116855240D02*
X125749100Y-116855240D01*
X128299160Y-116855240D02*
X128499820Y-116855240D01*
X128499820Y-116855240D02*
X128499820Y-116154200D01*
X138200180Y-116154200D02*
X138200180Y-116855240D01*
X138200180Y-116855240D02*
X138449100Y-116855240D01*
X140999160Y-116855240D02*
X141199820Y-116855240D01*
X141199820Y-116855240D02*
X141199820Y-116154200D01*
X150900180Y-116154200D02*
X150900180Y-116855240D01*
X150900180Y-116855240D02*
X151149100Y-116855240D01*
X153699160Y-116855240D02*
X153899820Y-116855240D01*
X153899820Y-116855240D02*
X153899820Y-116154200D01*
X129935000Y-113065000D02*
X129935000Y-114265000D01*
X131685000Y-114265000D02*
X131685000Y-113065000D01*
X70700000Y-109990000D02*
X70700000Y-110990000D01*
X69000000Y-110990000D02*
X69000000Y-109990000D01*
X84850000Y-54645000D02*
X84850000Y-55845000D01*
X86600000Y-55845000D02*
X86600000Y-54645000D01*
X97550000Y-54645000D02*
X97550000Y-55845000D01*
X99300000Y-55845000D02*
X99300000Y-54645000D01*
X110250000Y-54645000D02*
X110250000Y-55845000D01*
X112000000Y-55845000D02*
X112000000Y-54645000D01*
X122950000Y-54645000D02*
X122950000Y-55845000D01*
X124700000Y-55845000D02*
X124700000Y-54645000D01*
X135650000Y-54645000D02*
X135650000Y-55845000D01*
X137400000Y-55845000D02*
X137400000Y-54645000D01*
X148350000Y-54645000D02*
X148350000Y-55845000D01*
X150100000Y-55845000D02*
X150100000Y-54645000D01*
X85485000Y-83855000D02*
X85485000Y-85055000D01*
X87235000Y-85055000D02*
X87235000Y-83855000D01*
X97550000Y-83855000D02*
X97550000Y-85055000D01*
X99300000Y-85055000D02*
X99300000Y-83855000D01*
X110250000Y-83855000D02*
X110250000Y-85055000D01*
X112000000Y-85055000D02*
X112000000Y-83855000D01*
X122950000Y-83855000D02*
X122950000Y-85055000D01*
X124700000Y-85055000D02*
X124700000Y-83855000D01*
X135650000Y-83855000D02*
X135650000Y-85055000D01*
X137400000Y-85055000D02*
X137400000Y-83855000D01*
X148350000Y-83855000D02*
X148350000Y-85055000D01*
X150100000Y-85055000D02*
X150100000Y-83855000D01*
X85485000Y-113065000D02*
X85485000Y-114265000D01*
X87235000Y-114265000D02*
X87235000Y-113065000D01*
X97550000Y-113065000D02*
X97550000Y-114265000D01*
X99300000Y-114265000D02*
X99300000Y-113065000D01*
X110250000Y-113065000D02*
X110250000Y-114265000D01*
X112000000Y-114265000D02*
X112000000Y-113065000D01*
X122950000Y-113065000D02*
X122950000Y-114265000D01*
X124700000Y-114265000D02*
X124700000Y-113065000D01*
X135015000Y-113065000D02*
X135015000Y-114265000D01*
X136765000Y-114265000D02*
X136765000Y-113065000D01*
X147715000Y-113065000D02*
X147715000Y-114265000D01*
X149465000Y-114265000D02*
X149465000Y-113065000D01*
X84581905Y-83907381D02*
X84581905Y-84716905D01*
X84534286Y-84812143D01*
X84486667Y-84859762D01*
X84391429Y-84907381D01*
X84200952Y-84907381D01*
X84105714Y-84859762D01*
X84058095Y-84812143D01*
X84010476Y-84716905D01*
X84010476Y-83907381D01*
X83629524Y-83907381D02*
X83010476Y-83907381D01*
X83343810Y-84288333D01*
X83200952Y-84288333D01*
X83105714Y-84335952D01*
X83058095Y-84383571D01*
X83010476Y-84478810D01*
X83010476Y-84716905D01*
X83058095Y-84812143D01*
X83105714Y-84859762D01*
X83200952Y-84907381D01*
X83486667Y-84907381D01*
X83581905Y-84859762D01*
X83629524Y-84812143D01*
X72135905Y-55078381D02*
X72135905Y-55887905D01*
X72088286Y-55983143D01*
X72040667Y-56030762D01*
X71945429Y-56078381D01*
X71754952Y-56078381D01*
X71659714Y-56030762D01*
X71612095Y-55983143D01*
X71564476Y-55887905D01*
X71564476Y-55078381D01*
X71135905Y-55173619D02*
X71088286Y-55126000D01*
X70993048Y-55078381D01*
X70754952Y-55078381D01*
X70659714Y-55126000D01*
X70612095Y-55173619D01*
X70564476Y-55268857D01*
X70564476Y-55364095D01*
X70612095Y-55506952D01*
X71183524Y-56078381D01*
X70564476Y-56078381D01*
X130849666Y-52522381D02*
X131183000Y-52046190D01*
X131421095Y-52522381D02*
X131421095Y-51522381D01*
X131040142Y-51522381D01*
X130944904Y-51570000D01*
X130897285Y-51617619D01*
X130849666Y-51712857D01*
X130849666Y-51855714D01*
X130897285Y-51950952D01*
X130944904Y-51998571D01*
X131040142Y-52046190D01*
X131421095Y-52046190D01*
X130468714Y-51617619D02*
X130421095Y-51570000D01*
X130325857Y-51522381D01*
X130087761Y-51522381D01*
X129992523Y-51570000D01*
X129944904Y-51617619D01*
X129897285Y-51712857D01*
X129897285Y-51808095D01*
X129944904Y-51950952D01*
X130516333Y-52522381D01*
X129897285Y-52522381D01*
X92876666Y-52268381D02*
X93210000Y-51792190D01*
X93448095Y-52268381D02*
X93448095Y-51268381D01*
X93067142Y-51268381D01*
X92971904Y-51316000D01*
X92924285Y-51363619D01*
X92876666Y-51458857D01*
X92876666Y-51601714D01*
X92924285Y-51696952D01*
X92971904Y-51744571D01*
X93067142Y-51792190D01*
X93448095Y-51792190D01*
X92543333Y-51268381D02*
X91924285Y-51268381D01*
X92257619Y-51649333D01*
X92114761Y-51649333D01*
X92019523Y-51696952D01*
X91971904Y-51744571D01*
X91924285Y-51839810D01*
X91924285Y-52077905D01*
X91971904Y-52173143D01*
X92019523Y-52220762D01*
X92114761Y-52268381D01*
X92400476Y-52268381D01*
X92495714Y-52220762D01*
X92543333Y-52173143D01*
X143549666Y-52522381D02*
X143883000Y-52046190D01*
X144121095Y-52522381D02*
X144121095Y-51522381D01*
X143740142Y-51522381D01*
X143644904Y-51570000D01*
X143597285Y-51617619D01*
X143549666Y-51712857D01*
X143549666Y-51855714D01*
X143597285Y-51950952D01*
X143644904Y-51998571D01*
X143740142Y-52046190D01*
X144121095Y-52046190D01*
X142692523Y-51855714D02*
X142692523Y-52522381D01*
X142930619Y-51474762D02*
X143168714Y-52189048D01*
X142549666Y-52189048D01*
X105703666Y-52522381D02*
X106037000Y-52046190D01*
X106275095Y-52522381D02*
X106275095Y-51522381D01*
X105894142Y-51522381D01*
X105798904Y-51570000D01*
X105751285Y-51617619D01*
X105703666Y-51712857D01*
X105703666Y-51855714D01*
X105751285Y-51950952D01*
X105798904Y-51998571D01*
X105894142Y-52046190D01*
X106275095Y-52046190D01*
X104798904Y-51522381D02*
X105275095Y-51522381D01*
X105322714Y-51998571D01*
X105275095Y-51950952D01*
X105179857Y-51903333D01*
X104941761Y-51903333D01*
X104846523Y-51950952D01*
X104798904Y-51998571D01*
X104751285Y-52093810D01*
X104751285Y-52331905D01*
X104798904Y-52427143D01*
X104846523Y-52474762D01*
X104941761Y-52522381D01*
X105179857Y-52522381D01*
X105275095Y-52474762D01*
X105322714Y-52427143D01*
X156503666Y-52522381D02*
X156837000Y-52046190D01*
X157075095Y-52522381D02*
X157075095Y-51522381D01*
X156694142Y-51522381D01*
X156598904Y-51570000D01*
X156551285Y-51617619D01*
X156503666Y-51712857D01*
X156503666Y-51855714D01*
X156551285Y-51950952D01*
X156598904Y-51998571D01*
X156694142Y-52046190D01*
X157075095Y-52046190D01*
X155646523Y-51522381D02*
X155837000Y-51522381D01*
X155932238Y-51570000D01*
X155979857Y-51617619D01*
X156075095Y-51760476D01*
X156122714Y-51950952D01*
X156122714Y-52331905D01*
X156075095Y-52427143D01*
X156027476Y-52474762D01*
X155932238Y-52522381D01*
X155741761Y-52522381D01*
X155646523Y-52474762D01*
X155598904Y-52427143D01*
X155551285Y-52331905D01*
X155551285Y-52093810D01*
X155598904Y-51998571D01*
X155646523Y-51950952D01*
X155741761Y-51903333D01*
X155932238Y-51903333D01*
X156027476Y-51950952D01*
X156075095Y-51998571D01*
X156122714Y-52093810D01*
X118149666Y-52522381D02*
X118483000Y-52046190D01*
X118721095Y-52522381D02*
X118721095Y-51522381D01*
X118340142Y-51522381D01*
X118244904Y-51570000D01*
X118197285Y-51617619D01*
X118149666Y-51712857D01*
X118149666Y-51855714D01*
X118197285Y-51950952D01*
X118244904Y-51998571D01*
X118340142Y-52046190D01*
X118721095Y-52046190D01*
X117816333Y-51522381D02*
X117149666Y-51522381D01*
X117578238Y-52522381D01*
X130976666Y-81732381D02*
X131310000Y-81256190D01*
X131548095Y-81732381D02*
X131548095Y-80732381D01*
X131167142Y-80732381D01*
X131071904Y-80780000D01*
X131024285Y-80827619D01*
X130976666Y-80922857D01*
X130976666Y-81065714D01*
X131024285Y-81160952D01*
X131071904Y-81208571D01*
X131167142Y-81256190D01*
X131548095Y-81256190D01*
X130405238Y-81160952D02*
X130500476Y-81113333D01*
X130548095Y-81065714D01*
X130595714Y-80970476D01*
X130595714Y-80922857D01*
X130548095Y-80827619D01*
X130500476Y-80780000D01*
X130405238Y-80732381D01*
X130214761Y-80732381D01*
X130119523Y-80780000D01*
X130071904Y-80827619D01*
X130024285Y-80922857D01*
X130024285Y-80970476D01*
X130071904Y-81065714D01*
X130119523Y-81113333D01*
X130214761Y-81160952D01*
X130405238Y-81160952D01*
X130500476Y-81208571D01*
X130548095Y-81256190D01*
X130595714Y-81351429D01*
X130595714Y-81541905D01*
X130548095Y-81637143D01*
X130500476Y-81684762D01*
X130405238Y-81732381D01*
X130214761Y-81732381D01*
X130119523Y-81684762D01*
X130071904Y-81637143D01*
X130024285Y-81541905D01*
X130024285Y-81351429D01*
X130071904Y-81256190D01*
X130119523Y-81208571D01*
X130214761Y-81160952D01*
X92876666Y-81732381D02*
X93210000Y-81256190D01*
X93448095Y-81732381D02*
X93448095Y-80732381D01*
X93067142Y-80732381D01*
X92971904Y-80780000D01*
X92924285Y-80827619D01*
X92876666Y-80922857D01*
X92876666Y-81065714D01*
X92924285Y-81160952D01*
X92971904Y-81208571D01*
X93067142Y-81256190D01*
X93448095Y-81256190D01*
X92400476Y-81732381D02*
X92210000Y-81732381D01*
X92114761Y-81684762D01*
X92067142Y-81637143D01*
X91971904Y-81494286D01*
X91924285Y-81303810D01*
X91924285Y-80922857D01*
X91971904Y-80827619D01*
X92019523Y-80780000D01*
X92114761Y-80732381D01*
X92305238Y-80732381D01*
X92400476Y-80780000D01*
X92448095Y-80827619D01*
X92495714Y-80922857D01*
X92495714Y-81160952D01*
X92448095Y-81256190D01*
X92400476Y-81303810D01*
X92305238Y-81351429D01*
X92114761Y-81351429D01*
X92019523Y-81303810D01*
X91971904Y-81256190D01*
X91924285Y-81160952D01*
X144152857Y-81732381D02*
X144486191Y-81256190D01*
X144724286Y-81732381D02*
X144724286Y-80732381D01*
X144343333Y-80732381D01*
X144248095Y-80780000D01*
X144200476Y-80827619D01*
X144152857Y-80922857D01*
X144152857Y-81065714D01*
X144200476Y-81160952D01*
X144248095Y-81208571D01*
X144343333Y-81256190D01*
X144724286Y-81256190D01*
X143200476Y-81732381D02*
X143771905Y-81732381D01*
X143486191Y-81732381D02*
X143486191Y-80732381D01*
X143581429Y-80875238D01*
X143676667Y-80970476D01*
X143771905Y-81018095D01*
X142581429Y-80732381D02*
X142486190Y-80732381D01*
X142390952Y-80780000D01*
X142343333Y-80827619D01*
X142295714Y-80922857D01*
X142248095Y-81113333D01*
X142248095Y-81351429D01*
X142295714Y-81541905D01*
X142343333Y-81637143D01*
X142390952Y-81684762D01*
X142486190Y-81732381D01*
X142581429Y-81732381D01*
X142676667Y-81684762D01*
X142724286Y-81637143D01*
X142771905Y-81541905D01*
X142819524Y-81351429D01*
X142819524Y-81113333D01*
X142771905Y-80922857D01*
X142724286Y-80827619D01*
X142676667Y-80780000D01*
X142581429Y-80732381D01*
X106052857Y-81732381D02*
X106386191Y-81256190D01*
X106624286Y-81732381D02*
X106624286Y-80732381D01*
X106243333Y-80732381D01*
X106148095Y-80780000D01*
X106100476Y-80827619D01*
X106052857Y-80922857D01*
X106052857Y-81065714D01*
X106100476Y-81160952D01*
X106148095Y-81208571D01*
X106243333Y-81256190D01*
X106624286Y-81256190D01*
X105100476Y-81732381D02*
X105671905Y-81732381D01*
X105386191Y-81732381D02*
X105386191Y-80732381D01*
X105481429Y-80875238D01*
X105576667Y-80970476D01*
X105671905Y-81018095D01*
X104148095Y-81732381D02*
X104719524Y-81732381D01*
X104433810Y-81732381D02*
X104433810Y-80732381D01*
X104529048Y-80875238D01*
X104624286Y-80970476D01*
X104719524Y-81018095D01*
X156852857Y-81732381D02*
X157186191Y-81256190D01*
X157424286Y-81732381D02*
X157424286Y-80732381D01*
X157043333Y-80732381D01*
X156948095Y-80780000D01*
X156900476Y-80827619D01*
X156852857Y-80922857D01*
X156852857Y-81065714D01*
X156900476Y-81160952D01*
X156948095Y-81208571D01*
X157043333Y-81256190D01*
X157424286Y-81256190D01*
X155900476Y-81732381D02*
X156471905Y-81732381D01*
X156186191Y-81732381D02*
X156186191Y-80732381D01*
X156281429Y-80875238D01*
X156376667Y-80970476D01*
X156471905Y-81018095D01*
X155519524Y-80827619D02*
X155471905Y-80780000D01*
X155376667Y-80732381D01*
X155138571Y-80732381D01*
X155043333Y-80780000D01*
X154995714Y-80827619D01*
X154948095Y-80922857D01*
X154948095Y-81018095D01*
X154995714Y-81160952D01*
X155567143Y-81732381D01*
X154948095Y-81732381D01*
X93352857Y-110942381D02*
X93686191Y-110466190D01*
X93924286Y-110942381D02*
X93924286Y-109942381D01*
X93543333Y-109942381D01*
X93448095Y-109990000D01*
X93400476Y-110037619D01*
X93352857Y-110132857D01*
X93352857Y-110275714D01*
X93400476Y-110370952D01*
X93448095Y-110418571D01*
X93543333Y-110466190D01*
X93924286Y-110466190D01*
X92400476Y-110942381D02*
X92971905Y-110942381D01*
X92686191Y-110942381D02*
X92686191Y-109942381D01*
X92781429Y-110085238D01*
X92876667Y-110180476D01*
X92971905Y-110228095D01*
X91495714Y-109942381D02*
X91971905Y-109942381D01*
X92019524Y-110418571D01*
X91971905Y-110370952D01*
X91876667Y-110323333D01*
X91638571Y-110323333D01*
X91543333Y-110370952D01*
X91495714Y-110418571D01*
X91448095Y-110513810D01*
X91448095Y-110751905D01*
X91495714Y-110847143D01*
X91543333Y-110894762D01*
X91638571Y-110942381D01*
X91876667Y-110942381D01*
X91971905Y-110894762D01*
X92019524Y-110847143D01*
X144152857Y-110942381D02*
X144486191Y-110466190D01*
X144724286Y-110942381D02*
X144724286Y-109942381D01*
X144343333Y-109942381D01*
X144248095Y-109990000D01*
X144200476Y-110037619D01*
X144152857Y-110132857D01*
X144152857Y-110275714D01*
X144200476Y-110370952D01*
X144248095Y-110418571D01*
X144343333Y-110466190D01*
X144724286Y-110466190D01*
X143200476Y-110942381D02*
X143771905Y-110942381D01*
X143486191Y-110942381D02*
X143486191Y-109942381D01*
X143581429Y-110085238D01*
X143676667Y-110180476D01*
X143771905Y-110228095D01*
X142343333Y-109942381D02*
X142533810Y-109942381D01*
X142629048Y-109990000D01*
X142676667Y-110037619D01*
X142771905Y-110180476D01*
X142819524Y-110370952D01*
X142819524Y-110751905D01*
X142771905Y-110847143D01*
X142724286Y-110894762D01*
X142629048Y-110942381D01*
X142438571Y-110942381D01*
X142343333Y-110894762D01*
X142295714Y-110847143D01*
X142248095Y-110751905D01*
X142248095Y-110513810D01*
X142295714Y-110418571D01*
X142343333Y-110370952D01*
X142438571Y-110323333D01*
X142629048Y-110323333D01*
X142724286Y-110370952D01*
X142771905Y-110418571D01*
X142819524Y-110513810D01*
X106052857Y-110942381D02*
X106386191Y-110466190D01*
X106624286Y-110942381D02*
X106624286Y-109942381D01*
X106243333Y-109942381D01*
X106148095Y-109990000D01*
X106100476Y-110037619D01*
X106052857Y-110132857D01*
X106052857Y-110275714D01*
X106100476Y-110370952D01*
X106148095Y-110418571D01*
X106243333Y-110466190D01*
X106624286Y-110466190D01*
X105100476Y-110942381D02*
X105671905Y-110942381D01*
X105386191Y-110942381D02*
X105386191Y-109942381D01*
X105481429Y-110085238D01*
X105576667Y-110180476D01*
X105671905Y-110228095D01*
X104767143Y-109942381D02*
X104100476Y-109942381D01*
X104529048Y-110942381D01*
X156852857Y-110942381D02*
X157186191Y-110466190D01*
X157424286Y-110942381D02*
X157424286Y-109942381D01*
X157043333Y-109942381D01*
X156948095Y-109990000D01*
X156900476Y-110037619D01*
X156852857Y-110132857D01*
X156852857Y-110275714D01*
X156900476Y-110370952D01*
X156948095Y-110418571D01*
X157043333Y-110466190D01*
X157424286Y-110466190D01*
X155900476Y-110942381D02*
X156471905Y-110942381D01*
X156186191Y-110942381D02*
X156186191Y-109942381D01*
X156281429Y-110085238D01*
X156376667Y-110180476D01*
X156471905Y-110228095D01*
X155329048Y-110370952D02*
X155424286Y-110323333D01*
X155471905Y-110275714D01*
X155519524Y-110180476D01*
X155519524Y-110132857D01*
X155471905Y-110037619D01*
X155424286Y-109990000D01*
X155329048Y-109942381D01*
X155138571Y-109942381D01*
X155043333Y-109990000D01*
X154995714Y-110037619D01*
X154948095Y-110132857D01*
X154948095Y-110180476D01*
X154995714Y-110275714D01*
X155043333Y-110323333D01*
X155138571Y-110370952D01*
X155329048Y-110370952D01*
X155424286Y-110418571D01*
X155471905Y-110466190D01*
X155519524Y-110561429D01*
X155519524Y-110751905D01*
X155471905Y-110847143D01*
X155424286Y-110894762D01*
X155329048Y-110942381D01*
X155138571Y-110942381D01*
X155043333Y-110894762D01*
X154995714Y-110847143D01*
X154948095Y-110751905D01*
X154948095Y-110561429D01*
X154995714Y-110466190D01*
X155043333Y-110418571D01*
X155138571Y-110370952D01*
X118752857Y-110942381D02*
X119086191Y-110466190D01*
X119324286Y-110942381D02*
X119324286Y-109942381D01*
X118943333Y-109942381D01*
X118848095Y-109990000D01*
X118800476Y-110037619D01*
X118752857Y-110132857D01*
X118752857Y-110275714D01*
X118800476Y-110370952D01*
X118848095Y-110418571D01*
X118943333Y-110466190D01*
X119324286Y-110466190D01*
X117800476Y-110942381D02*
X118371905Y-110942381D01*
X118086191Y-110942381D02*
X118086191Y-109942381D01*
X118181429Y-110085238D01*
X118276667Y-110180476D01*
X118371905Y-110228095D01*
X117324286Y-110942381D02*
X117133810Y-110942381D01*
X117038571Y-110894762D01*
X116990952Y-110847143D01*
X116895714Y-110704286D01*
X116848095Y-110513810D01*
X116848095Y-110132857D01*
X116895714Y-110037619D01*
X116943333Y-109990000D01*
X117038571Y-109942381D01*
X117229048Y-109942381D01*
X117324286Y-109990000D01*
X117371905Y-110037619D01*
X117419524Y-110132857D01*
X117419524Y-110370952D01*
X117371905Y-110466190D01*
X117324286Y-110513810D01*
X117229048Y-110561429D01*
X117038571Y-110561429D01*
X116943333Y-110513810D01*
X116895714Y-110466190D01*
X116848095Y-110370952D01*
X142612952Y-136326571D02*
X142470095Y-136374190D01*
X142422476Y-136421810D01*
X142374857Y-136517048D01*
X142374857Y-136659905D01*
X142422476Y-136755143D01*
X142470095Y-136802762D01*
X142565333Y-136850381D01*
X142946286Y-136850381D01*
X142946286Y-135850381D01*
X142612952Y-135850381D01*
X142517714Y-135898000D01*
X142470095Y-135945619D01*
X142422476Y-136040857D01*
X142422476Y-136136095D01*
X142470095Y-136231333D01*
X142517714Y-136278952D01*
X142612952Y-136326571D01*
X142946286Y-136326571D01*
X142041524Y-135850381D02*
X141374857Y-135850381D01*
X142041524Y-136850381D01*
X141374857Y-136850381D01*
X140470095Y-136850381D02*
X141041524Y-136850381D01*
X140755810Y-136850381D02*
X140755810Y-135850381D01*
X140851048Y-135993238D01*
X140946286Y-136088476D01*
X141041524Y-136136095D01*
X138302952Y-131897429D02*
X137541047Y-131897429D01*
X137921999Y-132278381D02*
X137921999Y-131516476D01*
X84581905Y-113117381D02*
X84581905Y-113926905D01*
X84534286Y-114022143D01*
X84486667Y-114069762D01*
X84391429Y-114117381D01*
X84200952Y-114117381D01*
X84105714Y-114069762D01*
X84058095Y-114022143D01*
X84010476Y-113926905D01*
X84010476Y-113117381D01*
X83105714Y-113450714D02*
X83105714Y-114117381D01*
X83343810Y-113069762D02*
X83581905Y-113784048D01*
X82962857Y-113784048D01*
X118752857Y-81732381D02*
X119086191Y-81256190D01*
X119324286Y-81732381D02*
X119324286Y-80732381D01*
X118943333Y-80732381D01*
X118848095Y-80780000D01*
X118800476Y-80827619D01*
X118752857Y-80922857D01*
X118752857Y-81065714D01*
X118800476Y-81160952D01*
X118848095Y-81208571D01*
X118943333Y-81256190D01*
X119324286Y-81256190D01*
X117800476Y-81732381D02*
X118371905Y-81732381D01*
X118086191Y-81732381D02*
X118086191Y-80732381D01*
X118181429Y-80875238D01*
X118276667Y-80970476D01*
X118371905Y-81018095D01*
X117467143Y-80732381D02*
X116848095Y-80732381D01*
X117181429Y-81113333D01*
X117038571Y-81113333D01*
X116943333Y-81160952D01*
X116895714Y-81208571D01*
X116848095Y-81303810D01*
X116848095Y-81541905D01*
X116895714Y-81637143D01*
X116943333Y-81684762D01*
X117038571Y-81732381D01*
X117324286Y-81732381D01*
X117419524Y-81684762D01*
X117467143Y-81637143D01*
X68937143Y-81113334D02*
X68984762Y-81065715D01*
X69032381Y-80922858D01*
X69032381Y-80827620D01*
X68984762Y-80684762D01*
X68889524Y-80589524D01*
X68794286Y-80541905D01*
X68603810Y-80494286D01*
X68460952Y-80494286D01*
X68270476Y-80541905D01*
X68175238Y-80589524D01*
X68080000Y-80684762D01*
X68032381Y-80827620D01*
X68032381Y-80922858D01*
X68080000Y-81065715D01*
X68127619Y-81113334D01*
X68365714Y-81970477D02*
X69032381Y-81970477D01*
X67984762Y-81732381D02*
X68699048Y-81494286D01*
X68699048Y-82113334D01*
X68937143Y-51903334D02*
X68984762Y-51855715D01*
X69032381Y-51712858D01*
X69032381Y-51617620D01*
X68984762Y-51474762D01*
X68889524Y-51379524D01*
X68794286Y-51331905D01*
X68603810Y-51284286D01*
X68460952Y-51284286D01*
X68270476Y-51331905D01*
X68175238Y-51379524D01*
X68080000Y-51474762D01*
X68032381Y-51617620D01*
X68032381Y-51712858D01*
X68080000Y-51855715D01*
X68127619Y-51903334D01*
X68032381Y-52760477D02*
X68032381Y-52570000D01*
X68080000Y-52474762D01*
X68127619Y-52427143D01*
X68270476Y-52331905D01*
X68460952Y-52284286D01*
X68841905Y-52284286D01*
X68937143Y-52331905D01*
X68984762Y-52379524D01*
X69032381Y-52474762D01*
X69032381Y-52665239D01*
X68984762Y-52760477D01*
X68937143Y-52808096D01*
X68841905Y-52855715D01*
X68603810Y-52855715D01*
X68508571Y-52808096D01*
X68460952Y-52760477D01*
X68413333Y-52665239D01*
X68413333Y-52474762D01*
X68460952Y-52379524D01*
X68508571Y-52331905D01*
X68603810Y-52284286D01*
X80748095Y-135580381D02*
X80748095Y-134580381D01*
X80367142Y-134580381D01*
X80271904Y-134628000D01*
X80224285Y-134675619D01*
X80176666Y-134770857D01*
X80176666Y-134913714D01*
X80224285Y-135008952D01*
X80271904Y-135056571D01*
X80367142Y-135104190D01*
X80748095Y-135104190D01*
X79224285Y-135580381D02*
X79795714Y-135580381D01*
X79510000Y-135580381D02*
X79510000Y-134580381D01*
X79605238Y-134723238D01*
X79700476Y-134818476D01*
X79795714Y-134866095D01*
D14*
X105899857Y-127864689D02*
X105899857Y-126340689D01*
X105319285Y-126340689D01*
X105174143Y-126413260D01*
X105101571Y-126485831D01*
X105029000Y-126630974D01*
X105029000Y-126848689D01*
X105101571Y-126993831D01*
X105174143Y-127066403D01*
X105319285Y-127138974D01*
X105899857Y-127138974D01*
X104448428Y-126485831D02*
X104375857Y-126413260D01*
X104230714Y-126340689D01*
X103867857Y-126340689D01*
X103722714Y-126413260D01*
X103650143Y-126485831D01*
X103577571Y-126630974D01*
X103577571Y-126776117D01*
X103650143Y-126993831D01*
X104521000Y-127864689D01*
X103577571Y-127864689D01*
D12*
X76112619Y-95789762D02*
X76065000Y-95694524D01*
X75969762Y-95599286D01*
X75826905Y-95456429D01*
X75779286Y-95361190D01*
X75779286Y-95265952D01*
X76017381Y-95313571D02*
X75969762Y-95218333D01*
X75874524Y-95123095D01*
X75684048Y-95075476D01*
X75350714Y-95075476D01*
X75160238Y-95123095D01*
X75065000Y-95218333D01*
X75017381Y-95313571D01*
X75017381Y-95504048D01*
X75065000Y-95599286D01*
X75160238Y-95694524D01*
X75350714Y-95742143D01*
X75684048Y-95742143D01*
X75874524Y-95694524D01*
X75969762Y-95599286D01*
X76017381Y-95504048D01*
X76017381Y-95313571D01*
X75112619Y-96123095D02*
X75065000Y-96170714D01*
X75017381Y-96265952D01*
X75017381Y-96504048D01*
X75065000Y-96599286D01*
X75112619Y-96646905D01*
X75207857Y-96694524D01*
X75303095Y-96694524D01*
X75445952Y-96646905D01*
X76017381Y-96075476D01*
X76017381Y-96694524D01*
X76747619Y-102139762D02*
X76700000Y-102044524D01*
X76604762Y-101949286D01*
X76461905Y-101806429D01*
X76414286Y-101711190D01*
X76414286Y-101615952D01*
X76652381Y-101663571D02*
X76604762Y-101568333D01*
X76509524Y-101473095D01*
X76319048Y-101425476D01*
X75985714Y-101425476D01*
X75795238Y-101473095D01*
X75700000Y-101568333D01*
X75652381Y-101663571D01*
X75652381Y-101854048D01*
X75700000Y-101949286D01*
X75795238Y-102044524D01*
X75985714Y-102092143D01*
X76319048Y-102092143D01*
X76509524Y-102044524D01*
X76604762Y-101949286D01*
X76652381Y-101854048D01*
X76652381Y-101663571D01*
X75652381Y-102425476D02*
X75652381Y-103044524D01*
X76033333Y-102711190D01*
X76033333Y-102854048D01*
X76080952Y-102949286D01*
X76128571Y-102996905D01*
X76223810Y-103044524D01*
X76461905Y-103044524D01*
X76557143Y-102996905D01*
X76604762Y-102949286D01*
X76652381Y-102854048D01*
X76652381Y-102568333D01*
X76604762Y-102473095D01*
X76557143Y-102425476D01*
X82010238Y-118022619D02*
X82105476Y-117975000D01*
X82200714Y-117879762D01*
X82343571Y-117736905D01*
X82438810Y-117689286D01*
X82534048Y-117689286D01*
X82486429Y-117927381D02*
X82581667Y-117879762D01*
X82676905Y-117784524D01*
X82724524Y-117594048D01*
X82724524Y-117260714D01*
X82676905Y-117070238D01*
X82581667Y-116975000D01*
X82486429Y-116927381D01*
X82295952Y-116927381D01*
X82200714Y-116975000D01*
X82105476Y-117070238D01*
X82057857Y-117260714D01*
X82057857Y-117594048D01*
X82105476Y-117784524D01*
X82200714Y-117879762D01*
X82295952Y-117927381D01*
X82486429Y-117927381D01*
X81200714Y-117260714D02*
X81200714Y-117927381D01*
X81438810Y-116879762D02*
X81676905Y-117594048D01*
X81057857Y-117594048D01*
X73572619Y-98964762D02*
X73525000Y-98869524D01*
X73429762Y-98774286D01*
X73286905Y-98631429D01*
X73239286Y-98536190D01*
X73239286Y-98440952D01*
X73477381Y-98488571D02*
X73429762Y-98393333D01*
X73334524Y-98298095D01*
X73144048Y-98250476D01*
X72810714Y-98250476D01*
X72620238Y-98298095D01*
X72525000Y-98393333D01*
X72477381Y-98488571D01*
X72477381Y-98679048D01*
X72525000Y-98774286D01*
X72620238Y-98869524D01*
X72810714Y-98917143D01*
X73144048Y-98917143D01*
X73334524Y-98869524D01*
X73429762Y-98774286D01*
X73477381Y-98679048D01*
X73477381Y-98488571D01*
X72477381Y-99821905D02*
X72477381Y-99345714D01*
X72953571Y-99298095D01*
X72905952Y-99345714D01*
X72858333Y-99440952D01*
X72858333Y-99679048D01*
X72905952Y-99774286D01*
X72953571Y-99821905D01*
X73048810Y-99869524D01*
X73286905Y-99869524D01*
X73382143Y-99821905D01*
X73429762Y-99774286D01*
X73477381Y-99679048D01*
X73477381Y-99440952D01*
X73429762Y-99345714D01*
X73382143Y-99298095D01*
X76747619Y-73564762D02*
X76700000Y-73469524D01*
X76604762Y-73374286D01*
X76461905Y-73231429D01*
X76414286Y-73136190D01*
X76414286Y-73040952D01*
X76652381Y-73088571D02*
X76604762Y-72993333D01*
X76509524Y-72898095D01*
X76319048Y-72850476D01*
X75985714Y-72850476D01*
X75795238Y-72898095D01*
X75700000Y-72993333D01*
X75652381Y-73088571D01*
X75652381Y-73279048D01*
X75700000Y-73374286D01*
X75795238Y-73469524D01*
X75985714Y-73517143D01*
X76319048Y-73517143D01*
X76509524Y-73469524D01*
X76604762Y-73374286D01*
X76652381Y-73279048D01*
X76652381Y-73088571D01*
X75652381Y-74374286D02*
X75652381Y-74183809D01*
X75700000Y-74088571D01*
X75747619Y-74040952D01*
X75890476Y-73945714D01*
X76080952Y-73898095D01*
X76461905Y-73898095D01*
X76557143Y-73945714D01*
X76604762Y-73993333D01*
X76652381Y-74088571D01*
X76652381Y-74279048D01*
X76604762Y-74374286D01*
X76557143Y-74421905D01*
X76461905Y-74469524D01*
X76223810Y-74469524D01*
X76128571Y-74421905D01*
X76080952Y-74374286D01*
X76033333Y-74279048D01*
X76033333Y-74088571D01*
X76080952Y-73993333D01*
X76128571Y-73945714D01*
X76223810Y-73898095D01*
X79287619Y-44354762D02*
X79240000Y-44259524D01*
X79144762Y-44164286D01*
X79001905Y-44021429D01*
X78954286Y-43926190D01*
X78954286Y-43830952D01*
X79192381Y-43878571D02*
X79144762Y-43783333D01*
X79049524Y-43688095D01*
X78859048Y-43640476D01*
X78525714Y-43640476D01*
X78335238Y-43688095D01*
X78240000Y-43783333D01*
X78192381Y-43878571D01*
X78192381Y-44069048D01*
X78240000Y-44164286D01*
X78335238Y-44259524D01*
X78525714Y-44307143D01*
X78859048Y-44307143D01*
X79049524Y-44259524D01*
X79144762Y-44164286D01*
X79192381Y-44069048D01*
X79192381Y-43878571D01*
X78192381Y-44640476D02*
X78192381Y-45307143D01*
X79192381Y-44878571D01*
X73572619Y-69754762D02*
X73525000Y-69659524D01*
X73429762Y-69564286D01*
X73286905Y-69421429D01*
X73239286Y-69326190D01*
X73239286Y-69230952D01*
X73477381Y-69278571D02*
X73429762Y-69183333D01*
X73334524Y-69088095D01*
X73144048Y-69040476D01*
X72810714Y-69040476D01*
X72620238Y-69088095D01*
X72525000Y-69183333D01*
X72477381Y-69278571D01*
X72477381Y-69469048D01*
X72525000Y-69564286D01*
X72620238Y-69659524D01*
X72810714Y-69707143D01*
X73144048Y-69707143D01*
X73334524Y-69659524D01*
X73429762Y-69564286D01*
X73477381Y-69469048D01*
X73477381Y-69278571D01*
X72905952Y-70278571D02*
X72858333Y-70183333D01*
X72810714Y-70135714D01*
X72715476Y-70088095D01*
X72667857Y-70088095D01*
X72572619Y-70135714D01*
X72525000Y-70183333D01*
X72477381Y-70278571D01*
X72477381Y-70469048D01*
X72525000Y-70564286D01*
X72572619Y-70611905D01*
X72667857Y-70659524D01*
X72715476Y-70659524D01*
X72810714Y-70611905D01*
X72858333Y-70564286D01*
X72905952Y-70469048D01*
X72905952Y-70278571D01*
X72953571Y-70183333D01*
X73001190Y-70135714D01*
X73096429Y-70088095D01*
X73286905Y-70088095D01*
X73382143Y-70135714D01*
X73429762Y-70183333D01*
X73477381Y-70278571D01*
X73477381Y-70469048D01*
X73429762Y-70564286D01*
X73382143Y-70611905D01*
X73286905Y-70659524D01*
X73096429Y-70659524D01*
X73001190Y-70611905D01*
X72953571Y-70564286D01*
X72905952Y-70469048D01*
X76747619Y-66579762D02*
X76700000Y-66484524D01*
X76604762Y-66389286D01*
X76461905Y-66246429D01*
X76414286Y-66151190D01*
X76414286Y-66055952D01*
X76652381Y-66103571D02*
X76604762Y-66008333D01*
X76509524Y-65913095D01*
X76319048Y-65865476D01*
X75985714Y-65865476D01*
X75795238Y-65913095D01*
X75700000Y-66008333D01*
X75652381Y-66103571D01*
X75652381Y-66294048D01*
X75700000Y-66389286D01*
X75795238Y-66484524D01*
X75985714Y-66532143D01*
X76319048Y-66532143D01*
X76509524Y-66484524D01*
X76604762Y-66389286D01*
X76652381Y-66294048D01*
X76652381Y-66103571D01*
X76652381Y-67008333D02*
X76652381Y-67198809D01*
X76604762Y-67294048D01*
X76557143Y-67341667D01*
X76414286Y-67436905D01*
X76223810Y-67484524D01*
X75842857Y-67484524D01*
X75747619Y-67436905D01*
X75700000Y-67389286D01*
X75652381Y-67294048D01*
X75652381Y-67103571D01*
X75700000Y-67008333D01*
X75747619Y-66960714D01*
X75842857Y-66913095D01*
X76080952Y-66913095D01*
X76176190Y-66960714D01*
X76223810Y-67008333D01*
X76271429Y-67103571D01*
X76271429Y-67294048D01*
X76223810Y-67389286D01*
X76176190Y-67436905D01*
X76080952Y-67484524D01*
X89471428Y-54903619D02*
X89566666Y-54856000D01*
X89661904Y-54760762D01*
X89804761Y-54617905D01*
X89900000Y-54570286D01*
X89995238Y-54570286D01*
X89947619Y-54808381D02*
X90042857Y-54760762D01*
X90138095Y-54665524D01*
X90185714Y-54475048D01*
X90185714Y-54141714D01*
X90138095Y-53951238D01*
X90042857Y-53856000D01*
X89947619Y-53808381D01*
X89757142Y-53808381D01*
X89661904Y-53856000D01*
X89566666Y-53951238D01*
X89519047Y-54141714D01*
X89519047Y-54475048D01*
X89566666Y-54665524D01*
X89661904Y-54760762D01*
X89757142Y-54808381D01*
X89947619Y-54808381D01*
X88566666Y-54808381D02*
X89138095Y-54808381D01*
X88852381Y-54808381D02*
X88852381Y-53808381D01*
X88947619Y-53951238D01*
X89042857Y-54046476D01*
X89138095Y-54094095D01*
X87947619Y-53808381D02*
X87852380Y-53808381D01*
X87757142Y-53856000D01*
X87709523Y-53903619D01*
X87661904Y-53998857D01*
X87614285Y-54189333D01*
X87614285Y-54427429D01*
X87661904Y-54617905D01*
X87709523Y-54713143D01*
X87757142Y-54760762D01*
X87852380Y-54808381D01*
X87947619Y-54808381D01*
X88042857Y-54760762D01*
X88090476Y-54713143D01*
X88138095Y-54617905D01*
X88185714Y-54427429D01*
X88185714Y-54189333D01*
X88138095Y-53998857D01*
X88090476Y-53903619D01*
X88042857Y-53856000D01*
X87947619Y-53808381D01*
X102171428Y-54903619D02*
X102266666Y-54856000D01*
X102361904Y-54760762D01*
X102504761Y-54617905D01*
X102600000Y-54570286D01*
X102695238Y-54570286D01*
X102647619Y-54808381D02*
X102742857Y-54760762D01*
X102838095Y-54665524D01*
X102885714Y-54475048D01*
X102885714Y-54141714D01*
X102838095Y-53951238D01*
X102742857Y-53856000D01*
X102647619Y-53808381D01*
X102457142Y-53808381D01*
X102361904Y-53856000D01*
X102266666Y-53951238D01*
X102219047Y-54141714D01*
X102219047Y-54475048D01*
X102266666Y-54665524D01*
X102361904Y-54760762D01*
X102457142Y-54808381D01*
X102647619Y-54808381D01*
X101266666Y-54808381D02*
X101838095Y-54808381D01*
X101552381Y-54808381D02*
X101552381Y-53808381D01*
X101647619Y-53951238D01*
X101742857Y-54046476D01*
X101838095Y-54094095D01*
X100314285Y-54808381D02*
X100885714Y-54808381D01*
X100600000Y-54808381D02*
X100600000Y-53808381D01*
X100695238Y-53951238D01*
X100790476Y-54046476D01*
X100885714Y-54094095D01*
X114871428Y-54903619D02*
X114966666Y-54856000D01*
X115061904Y-54760762D01*
X115204761Y-54617905D01*
X115300000Y-54570286D01*
X115395238Y-54570286D01*
X115347619Y-54808381D02*
X115442857Y-54760762D01*
X115538095Y-54665524D01*
X115585714Y-54475048D01*
X115585714Y-54141714D01*
X115538095Y-53951238D01*
X115442857Y-53856000D01*
X115347619Y-53808381D01*
X115157142Y-53808381D01*
X115061904Y-53856000D01*
X114966666Y-53951238D01*
X114919047Y-54141714D01*
X114919047Y-54475048D01*
X114966666Y-54665524D01*
X115061904Y-54760762D01*
X115157142Y-54808381D01*
X115347619Y-54808381D01*
X113966666Y-54808381D02*
X114538095Y-54808381D01*
X114252381Y-54808381D02*
X114252381Y-53808381D01*
X114347619Y-53951238D01*
X114442857Y-54046476D01*
X114538095Y-54094095D01*
X113585714Y-53903619D02*
X113538095Y-53856000D01*
X113442857Y-53808381D01*
X113204761Y-53808381D01*
X113109523Y-53856000D01*
X113061904Y-53903619D01*
X113014285Y-53998857D01*
X113014285Y-54094095D01*
X113061904Y-54236952D01*
X113633333Y-54808381D01*
X113014285Y-54808381D01*
X127571428Y-54903619D02*
X127666666Y-54856000D01*
X127761904Y-54760762D01*
X127904761Y-54617905D01*
X128000000Y-54570286D01*
X128095238Y-54570286D01*
X128047619Y-54808381D02*
X128142857Y-54760762D01*
X128238095Y-54665524D01*
X128285714Y-54475048D01*
X128285714Y-54141714D01*
X128238095Y-53951238D01*
X128142857Y-53856000D01*
X128047619Y-53808381D01*
X127857142Y-53808381D01*
X127761904Y-53856000D01*
X127666666Y-53951238D01*
X127619047Y-54141714D01*
X127619047Y-54475048D01*
X127666666Y-54665524D01*
X127761904Y-54760762D01*
X127857142Y-54808381D01*
X128047619Y-54808381D01*
X126666666Y-54808381D02*
X127238095Y-54808381D01*
X126952381Y-54808381D02*
X126952381Y-53808381D01*
X127047619Y-53951238D01*
X127142857Y-54046476D01*
X127238095Y-54094095D01*
X126333333Y-53808381D02*
X125714285Y-53808381D01*
X126047619Y-54189333D01*
X125904761Y-54189333D01*
X125809523Y-54236952D01*
X125761904Y-54284571D01*
X125714285Y-54379810D01*
X125714285Y-54617905D01*
X125761904Y-54713143D01*
X125809523Y-54760762D01*
X125904761Y-54808381D01*
X126190476Y-54808381D01*
X126285714Y-54760762D01*
X126333333Y-54713143D01*
X140271428Y-54903619D02*
X140366666Y-54856000D01*
X140461904Y-54760762D01*
X140604761Y-54617905D01*
X140700000Y-54570286D01*
X140795238Y-54570286D01*
X140747619Y-54808381D02*
X140842857Y-54760762D01*
X140938095Y-54665524D01*
X140985714Y-54475048D01*
X140985714Y-54141714D01*
X140938095Y-53951238D01*
X140842857Y-53856000D01*
X140747619Y-53808381D01*
X140557142Y-53808381D01*
X140461904Y-53856000D01*
X140366666Y-53951238D01*
X140319047Y-54141714D01*
X140319047Y-54475048D01*
X140366666Y-54665524D01*
X140461904Y-54760762D01*
X140557142Y-54808381D01*
X140747619Y-54808381D01*
X139366666Y-54808381D02*
X139938095Y-54808381D01*
X139652381Y-54808381D02*
X139652381Y-53808381D01*
X139747619Y-53951238D01*
X139842857Y-54046476D01*
X139938095Y-54094095D01*
X138509523Y-54141714D02*
X138509523Y-54808381D01*
X138747619Y-53760762D02*
X138985714Y-54475048D01*
X138366666Y-54475048D01*
X152971428Y-54522619D02*
X153066666Y-54475000D01*
X153161904Y-54379762D01*
X153304761Y-54236905D01*
X153400000Y-54189286D01*
X153495238Y-54189286D01*
X153447619Y-54427381D02*
X153542857Y-54379762D01*
X153638095Y-54284524D01*
X153685714Y-54094048D01*
X153685714Y-53760714D01*
X153638095Y-53570238D01*
X153542857Y-53475000D01*
X153447619Y-53427381D01*
X153257142Y-53427381D01*
X153161904Y-53475000D01*
X153066666Y-53570238D01*
X153019047Y-53760714D01*
X153019047Y-54094048D01*
X153066666Y-54284524D01*
X153161904Y-54379762D01*
X153257142Y-54427381D01*
X153447619Y-54427381D01*
X152066666Y-54427381D02*
X152638095Y-54427381D01*
X152352381Y-54427381D02*
X152352381Y-53427381D01*
X152447619Y-53570238D01*
X152542857Y-53665476D01*
X152638095Y-53713095D01*
X151161904Y-53427381D02*
X151638095Y-53427381D01*
X151685714Y-53903571D01*
X151638095Y-53855952D01*
X151542857Y-53808333D01*
X151304761Y-53808333D01*
X151209523Y-53855952D01*
X151161904Y-53903571D01*
X151114285Y-53998810D01*
X151114285Y-54236905D01*
X151161904Y-54332143D01*
X151209523Y-54379762D01*
X151304761Y-54427381D01*
X151542857Y-54427381D01*
X151638095Y-54379762D01*
X151685714Y-54332143D01*
X89471428Y-83732619D02*
X89566666Y-83685000D01*
X89661904Y-83589762D01*
X89804761Y-83446905D01*
X89900000Y-83399286D01*
X89995238Y-83399286D01*
X89947619Y-83637381D02*
X90042857Y-83589762D01*
X90138095Y-83494524D01*
X90185714Y-83304048D01*
X90185714Y-82970714D01*
X90138095Y-82780238D01*
X90042857Y-82685000D01*
X89947619Y-82637381D01*
X89757142Y-82637381D01*
X89661904Y-82685000D01*
X89566666Y-82780238D01*
X89519047Y-82970714D01*
X89519047Y-83304048D01*
X89566666Y-83494524D01*
X89661904Y-83589762D01*
X89757142Y-83637381D01*
X89947619Y-83637381D01*
X88566666Y-83637381D02*
X89138095Y-83637381D01*
X88852381Y-83637381D02*
X88852381Y-82637381D01*
X88947619Y-82780238D01*
X89042857Y-82875476D01*
X89138095Y-82923095D01*
X87709523Y-82637381D02*
X87900000Y-82637381D01*
X87995238Y-82685000D01*
X88042857Y-82732619D01*
X88138095Y-82875476D01*
X88185714Y-83065952D01*
X88185714Y-83446905D01*
X88138095Y-83542143D01*
X88090476Y-83589762D01*
X87995238Y-83637381D01*
X87804761Y-83637381D01*
X87709523Y-83589762D01*
X87661904Y-83542143D01*
X87614285Y-83446905D01*
X87614285Y-83208810D01*
X87661904Y-83113571D01*
X87709523Y-83065952D01*
X87804761Y-83018333D01*
X87995238Y-83018333D01*
X88090476Y-83065952D01*
X88138095Y-83113571D01*
X88185714Y-83208810D01*
X102171428Y-83732619D02*
X102266666Y-83685000D01*
X102361904Y-83589762D01*
X102504761Y-83446905D01*
X102600000Y-83399286D01*
X102695238Y-83399286D01*
X102647619Y-83637381D02*
X102742857Y-83589762D01*
X102838095Y-83494524D01*
X102885714Y-83304048D01*
X102885714Y-82970714D01*
X102838095Y-82780238D01*
X102742857Y-82685000D01*
X102647619Y-82637381D01*
X102457142Y-82637381D01*
X102361904Y-82685000D01*
X102266666Y-82780238D01*
X102219047Y-82970714D01*
X102219047Y-83304048D01*
X102266666Y-83494524D01*
X102361904Y-83589762D01*
X102457142Y-83637381D01*
X102647619Y-83637381D01*
X101266666Y-83637381D02*
X101838095Y-83637381D01*
X101552381Y-83637381D02*
X101552381Y-82637381D01*
X101647619Y-82780238D01*
X101742857Y-82875476D01*
X101838095Y-82923095D01*
X100933333Y-82637381D02*
X100266666Y-82637381D01*
X100695238Y-83637381D01*
X114871428Y-83732619D02*
X114966666Y-83685000D01*
X115061904Y-83589762D01*
X115204761Y-83446905D01*
X115300000Y-83399286D01*
X115395238Y-83399286D01*
X115347619Y-83637381D02*
X115442857Y-83589762D01*
X115538095Y-83494524D01*
X115585714Y-83304048D01*
X115585714Y-82970714D01*
X115538095Y-82780238D01*
X115442857Y-82685000D01*
X115347619Y-82637381D01*
X115157142Y-82637381D01*
X115061904Y-82685000D01*
X114966666Y-82780238D01*
X114919047Y-82970714D01*
X114919047Y-83304048D01*
X114966666Y-83494524D01*
X115061904Y-83589762D01*
X115157142Y-83637381D01*
X115347619Y-83637381D01*
X113966666Y-83637381D02*
X114538095Y-83637381D01*
X114252381Y-83637381D02*
X114252381Y-82637381D01*
X114347619Y-82780238D01*
X114442857Y-82875476D01*
X114538095Y-82923095D01*
X113395238Y-83065952D02*
X113490476Y-83018333D01*
X113538095Y-82970714D01*
X113585714Y-82875476D01*
X113585714Y-82827857D01*
X113538095Y-82732619D01*
X113490476Y-82685000D01*
X113395238Y-82637381D01*
X113204761Y-82637381D01*
X113109523Y-82685000D01*
X113061904Y-82732619D01*
X113014285Y-82827857D01*
X113014285Y-82875476D01*
X113061904Y-82970714D01*
X113109523Y-83018333D01*
X113204761Y-83065952D01*
X113395238Y-83065952D01*
X113490476Y-83113571D01*
X113538095Y-83161190D01*
X113585714Y-83256429D01*
X113585714Y-83446905D01*
X113538095Y-83542143D01*
X113490476Y-83589762D01*
X113395238Y-83637381D01*
X113204761Y-83637381D01*
X113109523Y-83589762D01*
X113061904Y-83542143D01*
X113014285Y-83446905D01*
X113014285Y-83256429D01*
X113061904Y-83161190D01*
X113109523Y-83113571D01*
X113204761Y-83065952D01*
X127571428Y-83732619D02*
X127666666Y-83685000D01*
X127761904Y-83589762D01*
X127904761Y-83446905D01*
X128000000Y-83399286D01*
X128095238Y-83399286D01*
X128047619Y-83637381D02*
X128142857Y-83589762D01*
X128238095Y-83494524D01*
X128285714Y-83304048D01*
X128285714Y-82970714D01*
X128238095Y-82780238D01*
X128142857Y-82685000D01*
X128047619Y-82637381D01*
X127857142Y-82637381D01*
X127761904Y-82685000D01*
X127666666Y-82780238D01*
X127619047Y-82970714D01*
X127619047Y-83304048D01*
X127666666Y-83494524D01*
X127761904Y-83589762D01*
X127857142Y-83637381D01*
X128047619Y-83637381D01*
X126666666Y-83637381D02*
X127238095Y-83637381D01*
X126952381Y-83637381D02*
X126952381Y-82637381D01*
X127047619Y-82780238D01*
X127142857Y-82875476D01*
X127238095Y-82923095D01*
X126190476Y-83637381D02*
X126000000Y-83637381D01*
X125904761Y-83589762D01*
X125857142Y-83542143D01*
X125761904Y-83399286D01*
X125714285Y-83208810D01*
X125714285Y-82827857D01*
X125761904Y-82732619D01*
X125809523Y-82685000D01*
X125904761Y-82637381D01*
X126095238Y-82637381D01*
X126190476Y-82685000D01*
X126238095Y-82732619D01*
X126285714Y-82827857D01*
X126285714Y-83065952D01*
X126238095Y-83161190D01*
X126190476Y-83208810D01*
X126095238Y-83256429D01*
X125904761Y-83256429D01*
X125809523Y-83208810D01*
X125761904Y-83161190D01*
X125714285Y-83065952D01*
X140271428Y-83859619D02*
X140366666Y-83812000D01*
X140461904Y-83716762D01*
X140604761Y-83573905D01*
X140700000Y-83526286D01*
X140795238Y-83526286D01*
X140747619Y-83764381D02*
X140842857Y-83716762D01*
X140938095Y-83621524D01*
X140985714Y-83431048D01*
X140985714Y-83097714D01*
X140938095Y-82907238D01*
X140842857Y-82812000D01*
X140747619Y-82764381D01*
X140557142Y-82764381D01*
X140461904Y-82812000D01*
X140366666Y-82907238D01*
X140319047Y-83097714D01*
X140319047Y-83431048D01*
X140366666Y-83621524D01*
X140461904Y-83716762D01*
X140557142Y-83764381D01*
X140747619Y-83764381D01*
X139938095Y-82859619D02*
X139890476Y-82812000D01*
X139795238Y-82764381D01*
X139557142Y-82764381D01*
X139461904Y-82812000D01*
X139414285Y-82859619D01*
X139366666Y-82954857D01*
X139366666Y-83050095D01*
X139414285Y-83192952D01*
X139985714Y-83764381D01*
X139366666Y-83764381D01*
X138747619Y-82764381D02*
X138652380Y-82764381D01*
X138557142Y-82812000D01*
X138509523Y-82859619D01*
X138461904Y-82954857D01*
X138414285Y-83145333D01*
X138414285Y-83383429D01*
X138461904Y-83573905D01*
X138509523Y-83669143D01*
X138557142Y-83716762D01*
X138652380Y-83764381D01*
X138747619Y-83764381D01*
X138842857Y-83716762D01*
X138890476Y-83669143D01*
X138938095Y-83573905D01*
X138985714Y-83383429D01*
X138985714Y-83145333D01*
X138938095Y-82954857D01*
X138890476Y-82859619D01*
X138842857Y-82812000D01*
X138747619Y-82764381D01*
X152971428Y-83732619D02*
X153066666Y-83685000D01*
X153161904Y-83589762D01*
X153304761Y-83446905D01*
X153400000Y-83399286D01*
X153495238Y-83399286D01*
X153447619Y-83637381D02*
X153542857Y-83589762D01*
X153638095Y-83494524D01*
X153685714Y-83304048D01*
X153685714Y-82970714D01*
X153638095Y-82780238D01*
X153542857Y-82685000D01*
X153447619Y-82637381D01*
X153257142Y-82637381D01*
X153161904Y-82685000D01*
X153066666Y-82780238D01*
X153019047Y-82970714D01*
X153019047Y-83304048D01*
X153066666Y-83494524D01*
X153161904Y-83589762D01*
X153257142Y-83637381D01*
X153447619Y-83637381D01*
X152638095Y-82732619D02*
X152590476Y-82685000D01*
X152495238Y-82637381D01*
X152257142Y-82637381D01*
X152161904Y-82685000D01*
X152114285Y-82732619D01*
X152066666Y-82827857D01*
X152066666Y-82923095D01*
X152114285Y-83065952D01*
X152685714Y-83637381D01*
X152066666Y-83637381D01*
X151114285Y-83637381D02*
X151685714Y-83637381D01*
X151400000Y-83637381D02*
X151400000Y-82637381D01*
X151495238Y-82780238D01*
X151590476Y-82875476D01*
X151685714Y-82923095D01*
X89471428Y-112942619D02*
X89566666Y-112895000D01*
X89661904Y-112799762D01*
X89804761Y-112656905D01*
X89900000Y-112609286D01*
X89995238Y-112609286D01*
X89947619Y-112847381D02*
X90042857Y-112799762D01*
X90138095Y-112704524D01*
X90185714Y-112514048D01*
X90185714Y-112180714D01*
X90138095Y-111990238D01*
X90042857Y-111895000D01*
X89947619Y-111847381D01*
X89757142Y-111847381D01*
X89661904Y-111895000D01*
X89566666Y-111990238D01*
X89519047Y-112180714D01*
X89519047Y-112514048D01*
X89566666Y-112704524D01*
X89661904Y-112799762D01*
X89757142Y-112847381D01*
X89947619Y-112847381D01*
X89138095Y-111942619D02*
X89090476Y-111895000D01*
X88995238Y-111847381D01*
X88757142Y-111847381D01*
X88661904Y-111895000D01*
X88614285Y-111942619D01*
X88566666Y-112037857D01*
X88566666Y-112133095D01*
X88614285Y-112275952D01*
X89185714Y-112847381D01*
X88566666Y-112847381D01*
X88185714Y-111942619D02*
X88138095Y-111895000D01*
X88042857Y-111847381D01*
X87804761Y-111847381D01*
X87709523Y-111895000D01*
X87661904Y-111942619D01*
X87614285Y-112037857D01*
X87614285Y-112133095D01*
X87661904Y-112275952D01*
X88233333Y-112847381D01*
X87614285Y-112847381D01*
X102171428Y-112942619D02*
X102266666Y-112895000D01*
X102361904Y-112799762D01*
X102504761Y-112656905D01*
X102600000Y-112609286D01*
X102695238Y-112609286D01*
X102647619Y-112847381D02*
X102742857Y-112799762D01*
X102838095Y-112704524D01*
X102885714Y-112514048D01*
X102885714Y-112180714D01*
X102838095Y-111990238D01*
X102742857Y-111895000D01*
X102647619Y-111847381D01*
X102457142Y-111847381D01*
X102361904Y-111895000D01*
X102266666Y-111990238D01*
X102219047Y-112180714D01*
X102219047Y-112514048D01*
X102266666Y-112704524D01*
X102361904Y-112799762D01*
X102457142Y-112847381D01*
X102647619Y-112847381D01*
X101838095Y-111942619D02*
X101790476Y-111895000D01*
X101695238Y-111847381D01*
X101457142Y-111847381D01*
X101361904Y-111895000D01*
X101314285Y-111942619D01*
X101266666Y-112037857D01*
X101266666Y-112133095D01*
X101314285Y-112275952D01*
X101885714Y-112847381D01*
X101266666Y-112847381D01*
X100933333Y-111847381D02*
X100314285Y-111847381D01*
X100647619Y-112228333D01*
X100504761Y-112228333D01*
X100409523Y-112275952D01*
X100361904Y-112323571D01*
X100314285Y-112418810D01*
X100314285Y-112656905D01*
X100361904Y-112752143D01*
X100409523Y-112799762D01*
X100504761Y-112847381D01*
X100790476Y-112847381D01*
X100885714Y-112799762D01*
X100933333Y-112752143D01*
X114871428Y-112942619D02*
X114966666Y-112895000D01*
X115061904Y-112799762D01*
X115204761Y-112656905D01*
X115300000Y-112609286D01*
X115395238Y-112609286D01*
X115347619Y-112847381D02*
X115442857Y-112799762D01*
X115538095Y-112704524D01*
X115585714Y-112514048D01*
X115585714Y-112180714D01*
X115538095Y-111990238D01*
X115442857Y-111895000D01*
X115347619Y-111847381D01*
X115157142Y-111847381D01*
X115061904Y-111895000D01*
X114966666Y-111990238D01*
X114919047Y-112180714D01*
X114919047Y-112514048D01*
X114966666Y-112704524D01*
X115061904Y-112799762D01*
X115157142Y-112847381D01*
X115347619Y-112847381D01*
X114538095Y-111942619D02*
X114490476Y-111895000D01*
X114395238Y-111847381D01*
X114157142Y-111847381D01*
X114061904Y-111895000D01*
X114014285Y-111942619D01*
X113966666Y-112037857D01*
X113966666Y-112133095D01*
X114014285Y-112275952D01*
X114585714Y-112847381D01*
X113966666Y-112847381D01*
X113109523Y-112180714D02*
X113109523Y-112847381D01*
X113347619Y-111799762D02*
X113585714Y-112514048D01*
X112966666Y-112514048D01*
X127571428Y-112942619D02*
X127666666Y-112895000D01*
X127761904Y-112799762D01*
X127904761Y-112656905D01*
X128000000Y-112609286D01*
X128095238Y-112609286D01*
X128047619Y-112847381D02*
X128142857Y-112799762D01*
X128238095Y-112704524D01*
X128285714Y-112514048D01*
X128285714Y-112180714D01*
X128238095Y-111990238D01*
X128142857Y-111895000D01*
X128047619Y-111847381D01*
X127857142Y-111847381D01*
X127761904Y-111895000D01*
X127666666Y-111990238D01*
X127619047Y-112180714D01*
X127619047Y-112514048D01*
X127666666Y-112704524D01*
X127761904Y-112799762D01*
X127857142Y-112847381D01*
X128047619Y-112847381D01*
X127238095Y-111942619D02*
X127190476Y-111895000D01*
X127095238Y-111847381D01*
X126857142Y-111847381D01*
X126761904Y-111895000D01*
X126714285Y-111942619D01*
X126666666Y-112037857D01*
X126666666Y-112133095D01*
X126714285Y-112275952D01*
X127285714Y-112847381D01*
X126666666Y-112847381D01*
X125761904Y-111847381D02*
X126238095Y-111847381D01*
X126285714Y-112323571D01*
X126238095Y-112275952D01*
X126142857Y-112228333D01*
X125904761Y-112228333D01*
X125809523Y-112275952D01*
X125761904Y-112323571D01*
X125714285Y-112418810D01*
X125714285Y-112656905D01*
X125761904Y-112752143D01*
X125809523Y-112799762D01*
X125904761Y-112847381D01*
X126142857Y-112847381D01*
X126238095Y-112799762D01*
X126285714Y-112752143D01*
X140271428Y-112942619D02*
X140366666Y-112895000D01*
X140461904Y-112799762D01*
X140604761Y-112656905D01*
X140700000Y-112609286D01*
X140795238Y-112609286D01*
X140747619Y-112847381D02*
X140842857Y-112799762D01*
X140938095Y-112704524D01*
X140985714Y-112514048D01*
X140985714Y-112180714D01*
X140938095Y-111990238D01*
X140842857Y-111895000D01*
X140747619Y-111847381D01*
X140557142Y-111847381D01*
X140461904Y-111895000D01*
X140366666Y-111990238D01*
X140319047Y-112180714D01*
X140319047Y-112514048D01*
X140366666Y-112704524D01*
X140461904Y-112799762D01*
X140557142Y-112847381D01*
X140747619Y-112847381D01*
X139938095Y-111942619D02*
X139890476Y-111895000D01*
X139795238Y-111847381D01*
X139557142Y-111847381D01*
X139461904Y-111895000D01*
X139414285Y-111942619D01*
X139366666Y-112037857D01*
X139366666Y-112133095D01*
X139414285Y-112275952D01*
X139985714Y-112847381D01*
X139366666Y-112847381D01*
X138509523Y-111847381D02*
X138700000Y-111847381D01*
X138795238Y-111895000D01*
X138842857Y-111942619D01*
X138938095Y-112085476D01*
X138985714Y-112275952D01*
X138985714Y-112656905D01*
X138938095Y-112752143D01*
X138890476Y-112799762D01*
X138795238Y-112847381D01*
X138604761Y-112847381D01*
X138509523Y-112799762D01*
X138461904Y-112752143D01*
X138414285Y-112656905D01*
X138414285Y-112418810D01*
X138461904Y-112323571D01*
X138509523Y-112275952D01*
X138604761Y-112228333D01*
X138795238Y-112228333D01*
X138890476Y-112275952D01*
X138938095Y-112323571D01*
X138985714Y-112418810D01*
X152971428Y-112942619D02*
X153066666Y-112895000D01*
X153161904Y-112799762D01*
X153304761Y-112656905D01*
X153400000Y-112609286D01*
X153495238Y-112609286D01*
X153447619Y-112847381D02*
X153542857Y-112799762D01*
X153638095Y-112704524D01*
X153685714Y-112514048D01*
X153685714Y-112180714D01*
X153638095Y-111990238D01*
X153542857Y-111895000D01*
X153447619Y-111847381D01*
X153257142Y-111847381D01*
X153161904Y-111895000D01*
X153066666Y-111990238D01*
X153019047Y-112180714D01*
X153019047Y-112514048D01*
X153066666Y-112704524D01*
X153161904Y-112799762D01*
X153257142Y-112847381D01*
X153447619Y-112847381D01*
X152638095Y-111942619D02*
X152590476Y-111895000D01*
X152495238Y-111847381D01*
X152257142Y-111847381D01*
X152161904Y-111895000D01*
X152114285Y-111942619D01*
X152066666Y-112037857D01*
X152066666Y-112133095D01*
X152114285Y-112275952D01*
X152685714Y-112847381D01*
X152066666Y-112847381D01*
X151733333Y-111847381D02*
X151066666Y-111847381D01*
X151495238Y-112847381D01*
X131452857Y-110942381D02*
X131786191Y-110466190D01*
X132024286Y-110942381D02*
X132024286Y-109942381D01*
X131643333Y-109942381D01*
X131548095Y-109990000D01*
X131500476Y-110037619D01*
X131452857Y-110132857D01*
X131452857Y-110275714D01*
X131500476Y-110370952D01*
X131548095Y-110418571D01*
X131643333Y-110466190D01*
X132024286Y-110466190D01*
X130500476Y-110942381D02*
X131071905Y-110942381D01*
X130786191Y-110942381D02*
X130786191Y-109942381D01*
X130881429Y-110085238D01*
X130976667Y-110180476D01*
X131071905Y-110228095D01*
X129643333Y-110275714D02*
X129643333Y-110942381D01*
X129881429Y-109894762D02*
X130119524Y-110609048D01*
X129500476Y-110609048D01*
X68429143Y-109847143D02*
X68476762Y-109799524D01*
X68524381Y-109656667D01*
X68524381Y-109561429D01*
X68476762Y-109418571D01*
X68381524Y-109323333D01*
X68286286Y-109275714D01*
X68095810Y-109228095D01*
X67952952Y-109228095D01*
X67762476Y-109275714D01*
X67667238Y-109323333D01*
X67572000Y-109418571D01*
X67524381Y-109561429D01*
X67524381Y-109656667D01*
X67572000Y-109799524D01*
X67619619Y-109847143D01*
X68524381Y-110799524D02*
X68524381Y-110228095D01*
X68524381Y-110513809D02*
X67524381Y-110513809D01*
X67667238Y-110418571D01*
X67762476Y-110323333D01*
X67810095Y-110228095D01*
X67524381Y-111418571D02*
X67524381Y-111513810D01*
X67572000Y-111609048D01*
X67619619Y-111656667D01*
X67714857Y-111704286D01*
X67905333Y-111751905D01*
X68143429Y-111751905D01*
X68333905Y-111704286D01*
X68429143Y-111656667D01*
X68476762Y-111609048D01*
X68524381Y-111513810D01*
X68524381Y-111418571D01*
X68476762Y-111323333D01*
X68429143Y-111275714D01*
X68333905Y-111228095D01*
X68143429Y-111180476D01*
X67905333Y-111180476D01*
X67714857Y-111228095D01*
X67619619Y-111275714D01*
X67572000Y-111323333D01*
X67524381Y-111418571D01*
X86240857Y-52268381D02*
X86574191Y-51792190D01*
X86812286Y-52268381D02*
X86812286Y-51268381D01*
X86431333Y-51268381D01*
X86336095Y-51316000D01*
X86288476Y-51363619D01*
X86240857Y-51458857D01*
X86240857Y-51601714D01*
X86288476Y-51696952D01*
X86336095Y-51744571D01*
X86431333Y-51792190D01*
X86812286Y-51792190D01*
X85859905Y-51363619D02*
X85812286Y-51316000D01*
X85717048Y-51268381D01*
X85478952Y-51268381D01*
X85383714Y-51316000D01*
X85336095Y-51363619D01*
X85288476Y-51458857D01*
X85288476Y-51554095D01*
X85336095Y-51696952D01*
X85907524Y-52268381D01*
X85288476Y-52268381D01*
X84717048Y-51696952D02*
X84812286Y-51649333D01*
X84859905Y-51601714D01*
X84907524Y-51506476D01*
X84907524Y-51458857D01*
X84859905Y-51363619D01*
X84812286Y-51316000D01*
X84717048Y-51268381D01*
X84526571Y-51268381D01*
X84431333Y-51316000D01*
X84383714Y-51363619D01*
X84336095Y-51458857D01*
X84336095Y-51506476D01*
X84383714Y-51601714D01*
X84431333Y-51649333D01*
X84526571Y-51696952D01*
X84717048Y-51696952D01*
X84812286Y-51744571D01*
X84859905Y-51792190D01*
X84907524Y-51887429D01*
X84907524Y-52077905D01*
X84859905Y-52173143D01*
X84812286Y-52220762D01*
X84717048Y-52268381D01*
X84526571Y-52268381D01*
X84431333Y-52220762D01*
X84383714Y-52173143D01*
X84336095Y-52077905D01*
X84336095Y-51887429D01*
X84383714Y-51792190D01*
X84431333Y-51744571D01*
X84526571Y-51696952D01*
X98940857Y-52522381D02*
X99274191Y-52046190D01*
X99512286Y-52522381D02*
X99512286Y-51522381D01*
X99131333Y-51522381D01*
X99036095Y-51570000D01*
X98988476Y-51617619D01*
X98940857Y-51712857D01*
X98940857Y-51855714D01*
X98988476Y-51950952D01*
X99036095Y-51998571D01*
X99131333Y-52046190D01*
X99512286Y-52046190D01*
X98559905Y-51617619D02*
X98512286Y-51570000D01*
X98417048Y-51522381D01*
X98178952Y-51522381D01*
X98083714Y-51570000D01*
X98036095Y-51617619D01*
X97988476Y-51712857D01*
X97988476Y-51808095D01*
X98036095Y-51950952D01*
X98607524Y-52522381D01*
X97988476Y-52522381D01*
X97512286Y-52522381D02*
X97321810Y-52522381D01*
X97226571Y-52474762D01*
X97178952Y-52427143D01*
X97083714Y-52284286D01*
X97036095Y-52093810D01*
X97036095Y-51712857D01*
X97083714Y-51617619D01*
X97131333Y-51570000D01*
X97226571Y-51522381D01*
X97417048Y-51522381D01*
X97512286Y-51570000D01*
X97559905Y-51617619D01*
X97607524Y-51712857D01*
X97607524Y-51950952D01*
X97559905Y-52046190D01*
X97512286Y-52093810D01*
X97417048Y-52141429D01*
X97226571Y-52141429D01*
X97131333Y-52093810D01*
X97083714Y-52046190D01*
X97036095Y-51950952D01*
X111894857Y-52522381D02*
X112228191Y-52046190D01*
X112466286Y-52522381D02*
X112466286Y-51522381D01*
X112085333Y-51522381D01*
X111990095Y-51570000D01*
X111942476Y-51617619D01*
X111894857Y-51712857D01*
X111894857Y-51855714D01*
X111942476Y-51950952D01*
X111990095Y-51998571D01*
X112085333Y-52046190D01*
X112466286Y-52046190D01*
X111561524Y-51522381D02*
X110942476Y-51522381D01*
X111275810Y-51903333D01*
X111132952Y-51903333D01*
X111037714Y-51950952D01*
X110990095Y-51998571D01*
X110942476Y-52093810D01*
X110942476Y-52331905D01*
X110990095Y-52427143D01*
X111037714Y-52474762D01*
X111132952Y-52522381D01*
X111418667Y-52522381D01*
X111513905Y-52474762D01*
X111561524Y-52427143D01*
X110323429Y-51522381D02*
X110228190Y-51522381D01*
X110132952Y-51570000D01*
X110085333Y-51617619D01*
X110037714Y-51712857D01*
X109990095Y-51903333D01*
X109990095Y-52141429D01*
X110037714Y-52331905D01*
X110085333Y-52427143D01*
X110132952Y-52474762D01*
X110228190Y-52522381D01*
X110323429Y-52522381D01*
X110418667Y-52474762D01*
X110466286Y-52427143D01*
X110513905Y-52331905D01*
X110561524Y-52141429D01*
X110561524Y-51903333D01*
X110513905Y-51712857D01*
X110466286Y-51617619D01*
X110418667Y-51570000D01*
X110323429Y-51522381D01*
X124340857Y-52522381D02*
X124674191Y-52046190D01*
X124912286Y-52522381D02*
X124912286Y-51522381D01*
X124531333Y-51522381D01*
X124436095Y-51570000D01*
X124388476Y-51617619D01*
X124340857Y-51712857D01*
X124340857Y-51855714D01*
X124388476Y-51950952D01*
X124436095Y-51998571D01*
X124531333Y-52046190D01*
X124912286Y-52046190D01*
X124007524Y-51522381D02*
X123388476Y-51522381D01*
X123721810Y-51903333D01*
X123578952Y-51903333D01*
X123483714Y-51950952D01*
X123436095Y-51998571D01*
X123388476Y-52093810D01*
X123388476Y-52331905D01*
X123436095Y-52427143D01*
X123483714Y-52474762D01*
X123578952Y-52522381D01*
X123864667Y-52522381D01*
X123959905Y-52474762D01*
X124007524Y-52427143D01*
X122436095Y-52522381D02*
X123007524Y-52522381D01*
X122721810Y-52522381D02*
X122721810Y-51522381D01*
X122817048Y-51665238D01*
X122912286Y-51760476D01*
X123007524Y-51808095D01*
X137040857Y-52522381D02*
X137374191Y-52046190D01*
X137612286Y-52522381D02*
X137612286Y-51522381D01*
X137231333Y-51522381D01*
X137136095Y-51570000D01*
X137088476Y-51617619D01*
X137040857Y-51712857D01*
X137040857Y-51855714D01*
X137088476Y-51950952D01*
X137136095Y-51998571D01*
X137231333Y-52046190D01*
X137612286Y-52046190D01*
X136707524Y-51522381D02*
X136088476Y-51522381D01*
X136421810Y-51903333D01*
X136278952Y-51903333D01*
X136183714Y-51950952D01*
X136136095Y-51998571D01*
X136088476Y-52093810D01*
X136088476Y-52331905D01*
X136136095Y-52427143D01*
X136183714Y-52474762D01*
X136278952Y-52522381D01*
X136564667Y-52522381D01*
X136659905Y-52474762D01*
X136707524Y-52427143D01*
X135707524Y-51617619D02*
X135659905Y-51570000D01*
X135564667Y-51522381D01*
X135326571Y-51522381D01*
X135231333Y-51570000D01*
X135183714Y-51617619D01*
X135136095Y-51712857D01*
X135136095Y-51808095D01*
X135183714Y-51950952D01*
X135755143Y-52522381D01*
X135136095Y-52522381D01*
X149740857Y-52522381D02*
X150074191Y-52046190D01*
X150312286Y-52522381D02*
X150312286Y-51522381D01*
X149931333Y-51522381D01*
X149836095Y-51570000D01*
X149788476Y-51617619D01*
X149740857Y-51712857D01*
X149740857Y-51855714D01*
X149788476Y-51950952D01*
X149836095Y-51998571D01*
X149931333Y-52046190D01*
X150312286Y-52046190D01*
X149407524Y-51522381D02*
X148788476Y-51522381D01*
X149121810Y-51903333D01*
X148978952Y-51903333D01*
X148883714Y-51950952D01*
X148836095Y-51998571D01*
X148788476Y-52093810D01*
X148788476Y-52331905D01*
X148836095Y-52427143D01*
X148883714Y-52474762D01*
X148978952Y-52522381D01*
X149264667Y-52522381D01*
X149359905Y-52474762D01*
X149407524Y-52427143D01*
X148455143Y-51522381D02*
X147836095Y-51522381D01*
X148169429Y-51903333D01*
X148026571Y-51903333D01*
X147931333Y-51950952D01*
X147883714Y-51998571D01*
X147836095Y-52093810D01*
X147836095Y-52331905D01*
X147883714Y-52427143D01*
X147931333Y-52474762D01*
X148026571Y-52522381D01*
X148312286Y-52522381D01*
X148407524Y-52474762D01*
X148455143Y-52427143D01*
X87002857Y-81732381D02*
X87336191Y-81256190D01*
X87574286Y-81732381D02*
X87574286Y-80732381D01*
X87193333Y-80732381D01*
X87098095Y-80780000D01*
X87050476Y-80827619D01*
X87002857Y-80922857D01*
X87002857Y-81065714D01*
X87050476Y-81160952D01*
X87098095Y-81208571D01*
X87193333Y-81256190D01*
X87574286Y-81256190D01*
X86669524Y-80732381D02*
X86050476Y-80732381D01*
X86383810Y-81113333D01*
X86240952Y-81113333D01*
X86145714Y-81160952D01*
X86098095Y-81208571D01*
X86050476Y-81303810D01*
X86050476Y-81541905D01*
X86098095Y-81637143D01*
X86145714Y-81684762D01*
X86240952Y-81732381D01*
X86526667Y-81732381D01*
X86621905Y-81684762D01*
X86669524Y-81637143D01*
X85193333Y-81065714D02*
X85193333Y-81732381D01*
X85431429Y-80684762D02*
X85669524Y-81399048D01*
X85050476Y-81399048D01*
X99067857Y-81732381D02*
X99401191Y-81256190D01*
X99639286Y-81732381D02*
X99639286Y-80732381D01*
X99258333Y-80732381D01*
X99163095Y-80780000D01*
X99115476Y-80827619D01*
X99067857Y-80922857D01*
X99067857Y-81065714D01*
X99115476Y-81160952D01*
X99163095Y-81208571D01*
X99258333Y-81256190D01*
X99639286Y-81256190D01*
X98734524Y-80732381D02*
X98115476Y-80732381D01*
X98448810Y-81113333D01*
X98305952Y-81113333D01*
X98210714Y-81160952D01*
X98163095Y-81208571D01*
X98115476Y-81303810D01*
X98115476Y-81541905D01*
X98163095Y-81637143D01*
X98210714Y-81684762D01*
X98305952Y-81732381D01*
X98591667Y-81732381D01*
X98686905Y-81684762D01*
X98734524Y-81637143D01*
X97210714Y-80732381D02*
X97686905Y-80732381D01*
X97734524Y-81208571D01*
X97686905Y-81160952D01*
X97591667Y-81113333D01*
X97353571Y-81113333D01*
X97258333Y-81160952D01*
X97210714Y-81208571D01*
X97163095Y-81303810D01*
X97163095Y-81541905D01*
X97210714Y-81637143D01*
X97258333Y-81684762D01*
X97353571Y-81732381D01*
X97591667Y-81732381D01*
X97686905Y-81684762D01*
X97734524Y-81637143D01*
X111767857Y-81732381D02*
X112101191Y-81256190D01*
X112339286Y-81732381D02*
X112339286Y-80732381D01*
X111958333Y-80732381D01*
X111863095Y-80780000D01*
X111815476Y-80827619D01*
X111767857Y-80922857D01*
X111767857Y-81065714D01*
X111815476Y-81160952D01*
X111863095Y-81208571D01*
X111958333Y-81256190D01*
X112339286Y-81256190D01*
X111434524Y-80732381D02*
X110815476Y-80732381D01*
X111148810Y-81113333D01*
X111005952Y-81113333D01*
X110910714Y-81160952D01*
X110863095Y-81208571D01*
X110815476Y-81303810D01*
X110815476Y-81541905D01*
X110863095Y-81637143D01*
X110910714Y-81684762D01*
X111005952Y-81732381D01*
X111291667Y-81732381D01*
X111386905Y-81684762D01*
X111434524Y-81637143D01*
X109958333Y-80732381D02*
X110148810Y-80732381D01*
X110244048Y-80780000D01*
X110291667Y-80827619D01*
X110386905Y-80970476D01*
X110434524Y-81160952D01*
X110434524Y-81541905D01*
X110386905Y-81637143D01*
X110339286Y-81684762D01*
X110244048Y-81732381D01*
X110053571Y-81732381D01*
X109958333Y-81684762D01*
X109910714Y-81637143D01*
X109863095Y-81541905D01*
X109863095Y-81303810D01*
X109910714Y-81208571D01*
X109958333Y-81160952D01*
X110053571Y-81113333D01*
X110244048Y-81113333D01*
X110339286Y-81160952D01*
X110386905Y-81208571D01*
X110434524Y-81303810D01*
X124467857Y-81732381D02*
X124801191Y-81256190D01*
X125039286Y-81732381D02*
X125039286Y-80732381D01*
X124658333Y-80732381D01*
X124563095Y-80780000D01*
X124515476Y-80827619D01*
X124467857Y-80922857D01*
X124467857Y-81065714D01*
X124515476Y-81160952D01*
X124563095Y-81208571D01*
X124658333Y-81256190D01*
X125039286Y-81256190D01*
X124134524Y-80732381D02*
X123515476Y-80732381D01*
X123848810Y-81113333D01*
X123705952Y-81113333D01*
X123610714Y-81160952D01*
X123563095Y-81208571D01*
X123515476Y-81303810D01*
X123515476Y-81541905D01*
X123563095Y-81637143D01*
X123610714Y-81684762D01*
X123705952Y-81732381D01*
X123991667Y-81732381D01*
X124086905Y-81684762D01*
X124134524Y-81637143D01*
X123182143Y-80732381D02*
X122515476Y-80732381D01*
X122944048Y-81732381D01*
X137167857Y-81732381D02*
X137501191Y-81256190D01*
X137739286Y-81732381D02*
X137739286Y-80732381D01*
X137358333Y-80732381D01*
X137263095Y-80780000D01*
X137215476Y-80827619D01*
X137167857Y-80922857D01*
X137167857Y-81065714D01*
X137215476Y-81160952D01*
X137263095Y-81208571D01*
X137358333Y-81256190D01*
X137739286Y-81256190D01*
X136834524Y-80732381D02*
X136215476Y-80732381D01*
X136548810Y-81113333D01*
X136405952Y-81113333D01*
X136310714Y-81160952D01*
X136263095Y-81208571D01*
X136215476Y-81303810D01*
X136215476Y-81541905D01*
X136263095Y-81637143D01*
X136310714Y-81684762D01*
X136405952Y-81732381D01*
X136691667Y-81732381D01*
X136786905Y-81684762D01*
X136834524Y-81637143D01*
X135644048Y-81160952D02*
X135739286Y-81113333D01*
X135786905Y-81065714D01*
X135834524Y-80970476D01*
X135834524Y-80922857D01*
X135786905Y-80827619D01*
X135739286Y-80780000D01*
X135644048Y-80732381D01*
X135453571Y-80732381D01*
X135358333Y-80780000D01*
X135310714Y-80827619D01*
X135263095Y-80922857D01*
X135263095Y-80970476D01*
X135310714Y-81065714D01*
X135358333Y-81113333D01*
X135453571Y-81160952D01*
X135644048Y-81160952D01*
X135739286Y-81208571D01*
X135786905Y-81256190D01*
X135834524Y-81351429D01*
X135834524Y-81541905D01*
X135786905Y-81637143D01*
X135739286Y-81684762D01*
X135644048Y-81732381D01*
X135453571Y-81732381D01*
X135358333Y-81684762D01*
X135310714Y-81637143D01*
X135263095Y-81541905D01*
X135263095Y-81351429D01*
X135310714Y-81256190D01*
X135358333Y-81208571D01*
X135453571Y-81160952D01*
X149867857Y-81732381D02*
X150201191Y-81256190D01*
X150439286Y-81732381D02*
X150439286Y-80732381D01*
X150058333Y-80732381D01*
X149963095Y-80780000D01*
X149915476Y-80827619D01*
X149867857Y-80922857D01*
X149867857Y-81065714D01*
X149915476Y-81160952D01*
X149963095Y-81208571D01*
X150058333Y-81256190D01*
X150439286Y-81256190D01*
X149534524Y-80732381D02*
X148915476Y-80732381D01*
X149248810Y-81113333D01*
X149105952Y-81113333D01*
X149010714Y-81160952D01*
X148963095Y-81208571D01*
X148915476Y-81303810D01*
X148915476Y-81541905D01*
X148963095Y-81637143D01*
X149010714Y-81684762D01*
X149105952Y-81732381D01*
X149391667Y-81732381D01*
X149486905Y-81684762D01*
X149534524Y-81637143D01*
X148439286Y-81732381D02*
X148248810Y-81732381D01*
X148153571Y-81684762D01*
X148105952Y-81637143D01*
X148010714Y-81494286D01*
X147963095Y-81303810D01*
X147963095Y-80922857D01*
X148010714Y-80827619D01*
X148058333Y-80780000D01*
X148153571Y-80732381D01*
X148344048Y-80732381D01*
X148439286Y-80780000D01*
X148486905Y-80827619D01*
X148534524Y-80922857D01*
X148534524Y-81160952D01*
X148486905Y-81256190D01*
X148439286Y-81303810D01*
X148344048Y-81351429D01*
X148153571Y-81351429D01*
X148058333Y-81303810D01*
X148010714Y-81256190D01*
X147963095Y-81160952D01*
X87002857Y-110942381D02*
X87336191Y-110466190D01*
X87574286Y-110942381D02*
X87574286Y-109942381D01*
X87193333Y-109942381D01*
X87098095Y-109990000D01*
X87050476Y-110037619D01*
X87002857Y-110132857D01*
X87002857Y-110275714D01*
X87050476Y-110370952D01*
X87098095Y-110418571D01*
X87193333Y-110466190D01*
X87574286Y-110466190D01*
X86145714Y-110275714D02*
X86145714Y-110942381D01*
X86383810Y-109894762D02*
X86621905Y-110609048D01*
X86002857Y-110609048D01*
X85431429Y-109942381D02*
X85336190Y-109942381D01*
X85240952Y-109990000D01*
X85193333Y-110037619D01*
X85145714Y-110132857D01*
X85098095Y-110323333D01*
X85098095Y-110561429D01*
X85145714Y-110751905D01*
X85193333Y-110847143D01*
X85240952Y-110894762D01*
X85336190Y-110942381D01*
X85431429Y-110942381D01*
X85526667Y-110894762D01*
X85574286Y-110847143D01*
X85621905Y-110751905D01*
X85669524Y-110561429D01*
X85669524Y-110323333D01*
X85621905Y-110132857D01*
X85574286Y-110037619D01*
X85526667Y-109990000D01*
X85431429Y-109942381D01*
X99067857Y-110942381D02*
X99401191Y-110466190D01*
X99639286Y-110942381D02*
X99639286Y-109942381D01*
X99258333Y-109942381D01*
X99163095Y-109990000D01*
X99115476Y-110037619D01*
X99067857Y-110132857D01*
X99067857Y-110275714D01*
X99115476Y-110370952D01*
X99163095Y-110418571D01*
X99258333Y-110466190D01*
X99639286Y-110466190D01*
X98210714Y-110275714D02*
X98210714Y-110942381D01*
X98448810Y-109894762D02*
X98686905Y-110609048D01*
X98067857Y-110609048D01*
X97163095Y-110942381D02*
X97734524Y-110942381D01*
X97448810Y-110942381D02*
X97448810Y-109942381D01*
X97544048Y-110085238D01*
X97639286Y-110180476D01*
X97734524Y-110228095D01*
X111767857Y-110942381D02*
X112101191Y-110466190D01*
X112339286Y-110942381D02*
X112339286Y-109942381D01*
X111958333Y-109942381D01*
X111863095Y-109990000D01*
X111815476Y-110037619D01*
X111767857Y-110132857D01*
X111767857Y-110275714D01*
X111815476Y-110370952D01*
X111863095Y-110418571D01*
X111958333Y-110466190D01*
X112339286Y-110466190D01*
X110910714Y-110275714D02*
X110910714Y-110942381D01*
X111148810Y-109894762D02*
X111386905Y-110609048D01*
X110767857Y-110609048D01*
X110434524Y-110037619D02*
X110386905Y-109990000D01*
X110291667Y-109942381D01*
X110053571Y-109942381D01*
X109958333Y-109990000D01*
X109910714Y-110037619D01*
X109863095Y-110132857D01*
X109863095Y-110228095D01*
X109910714Y-110370952D01*
X110482143Y-110942381D01*
X109863095Y-110942381D01*
X124467857Y-110942381D02*
X124801191Y-110466190D01*
X125039286Y-110942381D02*
X125039286Y-109942381D01*
X124658333Y-109942381D01*
X124563095Y-109990000D01*
X124515476Y-110037619D01*
X124467857Y-110132857D01*
X124467857Y-110275714D01*
X124515476Y-110370952D01*
X124563095Y-110418571D01*
X124658333Y-110466190D01*
X125039286Y-110466190D01*
X123610714Y-110275714D02*
X123610714Y-110942381D01*
X123848810Y-109894762D02*
X124086905Y-110609048D01*
X123467857Y-110609048D01*
X123182143Y-109942381D02*
X122563095Y-109942381D01*
X122896429Y-110323333D01*
X122753571Y-110323333D01*
X122658333Y-110370952D01*
X122610714Y-110418571D01*
X122563095Y-110513810D01*
X122563095Y-110751905D01*
X122610714Y-110847143D01*
X122658333Y-110894762D01*
X122753571Y-110942381D01*
X123039286Y-110942381D01*
X123134524Y-110894762D01*
X123182143Y-110847143D01*
X136532857Y-110942381D02*
X136866191Y-110466190D01*
X137104286Y-110942381D02*
X137104286Y-109942381D01*
X136723333Y-109942381D01*
X136628095Y-109990000D01*
X136580476Y-110037619D01*
X136532857Y-110132857D01*
X136532857Y-110275714D01*
X136580476Y-110370952D01*
X136628095Y-110418571D01*
X136723333Y-110466190D01*
X137104286Y-110466190D01*
X135675714Y-110275714D02*
X135675714Y-110942381D01*
X135913810Y-109894762D02*
X136151905Y-110609048D01*
X135532857Y-110609048D01*
X134723333Y-110275714D02*
X134723333Y-110942381D01*
X134961429Y-109894762D02*
X135199524Y-110609048D01*
X134580476Y-110609048D01*
X149232857Y-110942381D02*
X149566191Y-110466190D01*
X149804286Y-110942381D02*
X149804286Y-109942381D01*
X149423333Y-109942381D01*
X149328095Y-109990000D01*
X149280476Y-110037619D01*
X149232857Y-110132857D01*
X149232857Y-110275714D01*
X149280476Y-110370952D01*
X149328095Y-110418571D01*
X149423333Y-110466190D01*
X149804286Y-110466190D01*
X148375714Y-110275714D02*
X148375714Y-110942381D01*
X148613810Y-109894762D02*
X148851905Y-110609048D01*
X148232857Y-110609048D01*
X147375714Y-109942381D02*
X147851905Y-109942381D01*
X147899524Y-110418571D01*
X147851905Y-110370952D01*
X147756667Y-110323333D01*
X147518571Y-110323333D01*
X147423333Y-110370952D01*
X147375714Y-110418571D01*
X147328095Y-110513810D01*
X147328095Y-110751905D01*
X147375714Y-110847143D01*
X147423333Y-110894762D01*
X147518571Y-110942381D01*
X147756667Y-110942381D01*
X147851905Y-110894762D01*
X147899524Y-110847143D01*
M02*
