%TF.GenerationSoftware,KiCad,Pcbnew,(6.0.4)*%
%TF.CreationDate,2022-07-31T14:49:55+02:00*%
%TF.ProjectId,HPDriver,48504472-6976-4657-922e-6b696361645f,1.0*%
%TF.SameCoordinates,Original*%
%TF.FileFunction,Paste,Bot*%
%TF.FilePolarity,Positive*%
%FSLAX46Y46*%
G04 Gerber Fmt 4.6, Leading zero omitted, Abs format (unit mm)*
G04 Created by KiCad (PCBNEW (6.0.4)) date 2022-07-31 14:49:55*
%MOMM*%
%LPD*%
G01*
G04 APERTURE LIST*
G04 Aperture macros list*
%AMRoundRect*
0 Rectangle with rounded corners*
0 $1 Rounding radius*
0 $2 $3 $4 $5 $6 $7 $8 $9 X,Y pos of 4 corners*
0 Add a 4 corners polygon primitive as box body*
4,1,4,$2,$3,$4,$5,$6,$7,$8,$9,$2,$3,0*
0 Add four circle primitives for the rounded corners*
1,1,$1+$1,$2,$3*
1,1,$1+$1,$4,$5*
1,1,$1+$1,$6,$7*
1,1,$1+$1,$8,$9*
0 Add four rect primitives between the rounded corners*
20,1,$1+$1,$2,$3,$4,$5,0*
20,1,$1+$1,$4,$5,$6,$7,0*
20,1,$1+$1,$6,$7,$8,$9,0*
20,1,$1+$1,$8,$9,$2,$3,0*%
G04 Aperture macros list end*
%ADD10R,1.800000X2.500000*%
%ADD11R,2.750000X3.050000*%
%ADD12R,1.200000X2.200000*%
%ADD13RoundRect,0.250000X-0.450000X0.262500X-0.450000X-0.262500X0.450000X-0.262500X0.450000X0.262500X0*%
%ADD14RoundRect,0.250000X-0.262500X-0.450000X0.262500X-0.450000X0.262500X0.450000X-0.262500X0.450000X0*%
G04 APERTURE END LIST*
D10*
X154178000Y-125190000D03*
X154178000Y-121190000D03*
D11*
X104775000Y-108664000D03*
X104775000Y-112014000D03*
X107825000Y-108664000D03*
X107825000Y-112014000D03*
D12*
X104020000Y-104039000D03*
X108580000Y-104039000D03*
D11*
X111887000Y-112014000D03*
X111887000Y-108664000D03*
X114937000Y-112014000D03*
X114937000Y-108664000D03*
D12*
X111132000Y-104039000D03*
X115692000Y-104039000D03*
D11*
X124839000Y-121872000D03*
X124839000Y-125222000D03*
X127889000Y-121872000D03*
X127889000Y-125222000D03*
D12*
X124084000Y-117247000D03*
X128644000Y-117247000D03*
D11*
X131953000Y-121872000D03*
X135003000Y-125222000D03*
X131953000Y-125222000D03*
X135003000Y-121872000D03*
D12*
X131198000Y-117247000D03*
X135758000Y-117247000D03*
D11*
X102999000Y-125187000D03*
X102999000Y-121837000D03*
X99949000Y-125187000D03*
X99949000Y-121837000D03*
D12*
X99194000Y-117212000D03*
X103754000Y-117212000D03*
X110865000Y-117212000D03*
X106305000Y-117212000D03*
D11*
X107060000Y-125187000D03*
X110110000Y-125187000D03*
X110110000Y-121837000D03*
X107060000Y-121837000D03*
D12*
X123820000Y-104039000D03*
X119260000Y-104039000D03*
D11*
X123065000Y-108664000D03*
X123065000Y-112014000D03*
X120015000Y-112014000D03*
X120015000Y-108664000D03*
D13*
X133350000Y-130706500D03*
X133350000Y-128881500D03*
D14*
X101115500Y-112522000D03*
X99290500Y-112522000D03*
X129643500Y-128778000D03*
X131468500Y-128778000D03*
D13*
X101346000Y-108815500D03*
X101346000Y-110640500D03*
D12*
X130932000Y-104039000D03*
X126372000Y-104039000D03*
D11*
X130177000Y-112014000D03*
X127127000Y-108664000D03*
X130177000Y-108664000D03*
X127127000Y-112014000D03*
D13*
X99314000Y-110640500D03*
X99314000Y-108815500D03*
D14*
X131468500Y-130810000D03*
X129643500Y-130810000D03*
D10*
X140843000Y-121190000D03*
X140843000Y-125190000D03*
X145288000Y-121190000D03*
X145288000Y-125190000D03*
X158623000Y-121190000D03*
X158623000Y-125190000D03*
X149733000Y-121190000D03*
X149733000Y-125190000D03*
M02*
