G04 #@! TF.GenerationSoftware,KiCad,Pcbnew,(5.1.0)-1*
G04 #@! TF.CreationDate,2019-09-29T21:15:55+02:00*
G04 #@! TF.ProjectId,HPDriver,48504472-6976-4657-922e-6b696361645f,rev?*
G04 #@! TF.SameCoordinates,Original*
G04 #@! TF.FileFunction,Legend,Bot*
G04 #@! TF.FilePolarity,Positive*
%FSLAX46Y46*%
G04 Gerber Fmt 4.6, Leading zero omitted, Abs format (unit mm)*
G04 Created by KiCad (PCBNEW (5.1.0)-1) date 2019-09-29 21:15:55*
%MOMM*%
%LPD*%
G04 APERTURE LIST*
%ADD10C,0.120000*%
%ADD11C,0.150000*%
%ADD12C,3.902000*%
%ADD13O,2.102000X3.702000*%
%ADD14C,0.100000*%
%ADD15C,2.102000*%
%ADD16O,1.829200X1.829200*%
%ADD17R,1.829200X1.829200*%
%ADD18C,4.502000*%
%ADD19R,5.902000X6.502000*%
%ADD20R,1.302000X2.302000*%
%ADD21O,2.102000X2.102000*%
%ADD22R,2.102000X2.102000*%
%ADD23C,1.102000*%
%ADD24O,1.702000X1.702000*%
%ADD25R,1.702000X1.702000*%
G04 APERTURE END LIST*
D10*
X131832000Y-105769000D02*
X131832000Y-104669000D01*
X132102000Y-105769000D02*
X131832000Y-105769000D01*
X132102000Y-107269000D02*
X132102000Y-105769000D01*
X125472000Y-105769000D02*
X125472000Y-102939000D01*
X125202000Y-105769000D02*
X125472000Y-105769000D01*
X125202000Y-107269000D02*
X125202000Y-105769000D01*
X124720000Y-105769000D02*
X124720000Y-104669000D01*
X124990000Y-105769000D02*
X124720000Y-105769000D01*
X124990000Y-107269000D02*
X124990000Y-105769000D01*
X118360000Y-105769000D02*
X118360000Y-102939000D01*
X118090000Y-105769000D02*
X118360000Y-105769000D01*
X118090000Y-107269000D02*
X118090000Y-105769000D01*
X111765000Y-118942000D02*
X111765000Y-117842000D01*
X112035000Y-118942000D02*
X111765000Y-118942000D01*
X112035000Y-120442000D02*
X112035000Y-118942000D01*
X105405000Y-118942000D02*
X105405000Y-116112000D01*
X105135000Y-118942000D02*
X105405000Y-118942000D01*
X105135000Y-120442000D02*
X105135000Y-118942000D01*
X104654000Y-118942000D02*
X104654000Y-117842000D01*
X104924000Y-118942000D02*
X104654000Y-118942000D01*
X104924000Y-120442000D02*
X104924000Y-118942000D01*
X98294000Y-118942000D02*
X98294000Y-116112000D01*
X98024000Y-118942000D02*
X98294000Y-118942000D01*
X98024000Y-120442000D02*
X98024000Y-118942000D01*
X136658000Y-118977000D02*
X136658000Y-117877000D01*
X136928000Y-118977000D02*
X136658000Y-118977000D01*
X136928000Y-120477000D02*
X136928000Y-118977000D01*
X130298000Y-118977000D02*
X130298000Y-116147000D01*
X130028000Y-118977000D02*
X130298000Y-118977000D01*
X130028000Y-120477000D02*
X130028000Y-118977000D01*
X129544000Y-118977000D02*
X129544000Y-117877000D01*
X129814000Y-118977000D02*
X129544000Y-118977000D01*
X129814000Y-120477000D02*
X129814000Y-118977000D01*
X123184000Y-118977000D02*
X123184000Y-116147000D01*
X122914000Y-118977000D02*
X123184000Y-118977000D01*
X122914000Y-120477000D02*
X122914000Y-118977000D01*
X116592000Y-105769000D02*
X116592000Y-104669000D01*
X116862000Y-105769000D02*
X116592000Y-105769000D01*
X116862000Y-107269000D02*
X116862000Y-105769000D01*
X110232000Y-105769000D02*
X110232000Y-102939000D01*
X109962000Y-105769000D02*
X110232000Y-105769000D01*
X109962000Y-107269000D02*
X109962000Y-105769000D01*
X109480000Y-105769000D02*
X109480000Y-104669000D01*
X109750000Y-105769000D02*
X109480000Y-105769000D01*
X109750000Y-107269000D02*
X109750000Y-105769000D01*
X103120000Y-105769000D02*
X103120000Y-102939000D01*
X102850000Y-105769000D02*
X103120000Y-105769000D01*
X102850000Y-107269000D02*
X102850000Y-105769000D01*
D11*
X127730238Y-101893619D02*
X127825476Y-101846000D01*
X127920714Y-101750761D01*
X128063571Y-101607904D01*
X128158809Y-101560285D01*
X128254047Y-101560285D01*
X128206428Y-101798380D02*
X128301666Y-101750761D01*
X128396904Y-101655523D01*
X128444523Y-101465047D01*
X128444523Y-101131714D01*
X128396904Y-100941238D01*
X128301666Y-100846000D01*
X128206428Y-100798380D01*
X128015952Y-100798380D01*
X127920714Y-100846000D01*
X127825476Y-100941238D01*
X127777857Y-101131714D01*
X127777857Y-101465047D01*
X127825476Y-101655523D01*
X127920714Y-101750761D01*
X128015952Y-101798380D01*
X128206428Y-101798380D01*
X127206428Y-101226952D02*
X127301666Y-101179333D01*
X127349285Y-101131714D01*
X127396904Y-101036476D01*
X127396904Y-100988857D01*
X127349285Y-100893619D01*
X127301666Y-100846000D01*
X127206428Y-100798380D01*
X127015952Y-100798380D01*
X126920714Y-100846000D01*
X126873095Y-100893619D01*
X126825476Y-100988857D01*
X126825476Y-101036476D01*
X126873095Y-101131714D01*
X126920714Y-101179333D01*
X127015952Y-101226952D01*
X127206428Y-101226952D01*
X127301666Y-101274571D01*
X127349285Y-101322190D01*
X127396904Y-101417428D01*
X127396904Y-101607904D01*
X127349285Y-101703142D01*
X127301666Y-101750761D01*
X127206428Y-101798380D01*
X127015952Y-101798380D01*
X126920714Y-101750761D01*
X126873095Y-101703142D01*
X126825476Y-101607904D01*
X126825476Y-101417428D01*
X126873095Y-101322190D01*
X126920714Y-101274571D01*
X127015952Y-101226952D01*
X121634238Y-102020619D02*
X121729476Y-101973000D01*
X121824714Y-101877761D01*
X121967571Y-101734904D01*
X122062809Y-101687285D01*
X122158047Y-101687285D01*
X122110428Y-101925380D02*
X122205666Y-101877761D01*
X122300904Y-101782523D01*
X122348523Y-101592047D01*
X122348523Y-101258714D01*
X122300904Y-101068238D01*
X122205666Y-100973000D01*
X122110428Y-100925380D01*
X121919952Y-100925380D01*
X121824714Y-100973000D01*
X121729476Y-101068238D01*
X121681857Y-101258714D01*
X121681857Y-101592047D01*
X121729476Y-101782523D01*
X121824714Y-101877761D01*
X121919952Y-101925380D01*
X122110428Y-101925380D01*
X121348523Y-100925380D02*
X120681857Y-100925380D01*
X121110428Y-101925380D01*
X108680238Y-128563619D02*
X108775476Y-128516000D01*
X108870714Y-128420761D01*
X109013571Y-128277904D01*
X109108809Y-128230285D01*
X109204047Y-128230285D01*
X109156428Y-128468380D02*
X109251666Y-128420761D01*
X109346904Y-128325523D01*
X109394523Y-128135047D01*
X109394523Y-127801714D01*
X109346904Y-127611238D01*
X109251666Y-127516000D01*
X109156428Y-127468380D01*
X108965952Y-127468380D01*
X108870714Y-127516000D01*
X108775476Y-127611238D01*
X108727857Y-127801714D01*
X108727857Y-128135047D01*
X108775476Y-128325523D01*
X108870714Y-128420761D01*
X108965952Y-128468380D01*
X109156428Y-128468380D01*
X107870714Y-127468380D02*
X108061190Y-127468380D01*
X108156428Y-127516000D01*
X108204047Y-127563619D01*
X108299285Y-127706476D01*
X108346904Y-127896952D01*
X108346904Y-128277904D01*
X108299285Y-128373142D01*
X108251666Y-128420761D01*
X108156428Y-128468380D01*
X107965952Y-128468380D01*
X107870714Y-128420761D01*
X107823095Y-128373142D01*
X107775476Y-128277904D01*
X107775476Y-128039809D01*
X107823095Y-127944571D01*
X107870714Y-127896952D01*
X107965952Y-127849333D01*
X108156428Y-127849333D01*
X108251666Y-127896952D01*
X108299285Y-127944571D01*
X108346904Y-128039809D01*
X101568238Y-128690619D02*
X101663476Y-128643000D01*
X101758714Y-128547761D01*
X101901571Y-128404904D01*
X101996809Y-128357285D01*
X102092047Y-128357285D01*
X102044428Y-128595380D02*
X102139666Y-128547761D01*
X102234904Y-128452523D01*
X102282523Y-128262047D01*
X102282523Y-127928714D01*
X102234904Y-127738238D01*
X102139666Y-127643000D01*
X102044428Y-127595380D01*
X101853952Y-127595380D01*
X101758714Y-127643000D01*
X101663476Y-127738238D01*
X101615857Y-127928714D01*
X101615857Y-128262047D01*
X101663476Y-128452523D01*
X101758714Y-128547761D01*
X101853952Y-128595380D01*
X102044428Y-128595380D01*
X100711095Y-127595380D02*
X101187285Y-127595380D01*
X101234904Y-128071571D01*
X101187285Y-128023952D01*
X101092047Y-127976333D01*
X100853952Y-127976333D01*
X100758714Y-128023952D01*
X100711095Y-128071571D01*
X100663476Y-128166809D01*
X100663476Y-128404904D01*
X100711095Y-128500142D01*
X100758714Y-128547761D01*
X100853952Y-128595380D01*
X101092047Y-128595380D01*
X101187285Y-128547761D01*
X101234904Y-128500142D01*
X133572238Y-128563619D02*
X133667476Y-128516000D01*
X133762714Y-128420761D01*
X133905571Y-128277904D01*
X134000809Y-128230285D01*
X134096047Y-128230285D01*
X134048428Y-128468380D02*
X134143666Y-128420761D01*
X134238904Y-128325523D01*
X134286523Y-128135047D01*
X134286523Y-127801714D01*
X134238904Y-127611238D01*
X134143666Y-127516000D01*
X134048428Y-127468380D01*
X133857952Y-127468380D01*
X133762714Y-127516000D01*
X133667476Y-127611238D01*
X133619857Y-127801714D01*
X133619857Y-128135047D01*
X133667476Y-128325523D01*
X133762714Y-128420761D01*
X133857952Y-128468380D01*
X134048428Y-128468380D01*
X132762714Y-127801714D02*
X132762714Y-128468380D01*
X133000809Y-127420761D02*
X133238904Y-128135047D01*
X132619857Y-128135047D01*
X126460238Y-128563619D02*
X126555476Y-128516000D01*
X126650714Y-128420761D01*
X126793571Y-128277904D01*
X126888809Y-128230285D01*
X126984047Y-128230285D01*
X126936428Y-128468380D02*
X127031666Y-128420761D01*
X127126904Y-128325523D01*
X127174523Y-128135047D01*
X127174523Y-127801714D01*
X127126904Y-127611238D01*
X127031666Y-127516000D01*
X126936428Y-127468380D01*
X126745952Y-127468380D01*
X126650714Y-127516000D01*
X126555476Y-127611238D01*
X126507857Y-127801714D01*
X126507857Y-128135047D01*
X126555476Y-128325523D01*
X126650714Y-128420761D01*
X126745952Y-128468380D01*
X126936428Y-128468380D01*
X126174523Y-127468380D02*
X125555476Y-127468380D01*
X125888809Y-127849333D01*
X125745952Y-127849333D01*
X125650714Y-127896952D01*
X125603095Y-127944571D01*
X125555476Y-128039809D01*
X125555476Y-128277904D01*
X125603095Y-128373142D01*
X125650714Y-128420761D01*
X125745952Y-128468380D01*
X126031666Y-128468380D01*
X126126904Y-128420761D01*
X126174523Y-128373142D01*
X113506238Y-102020619D02*
X113601476Y-101973000D01*
X113696714Y-101877761D01*
X113839571Y-101734904D01*
X113934809Y-101687285D01*
X114030047Y-101687285D01*
X113982428Y-101925380D02*
X114077666Y-101877761D01*
X114172904Y-101782523D01*
X114220523Y-101592047D01*
X114220523Y-101258714D01*
X114172904Y-101068238D01*
X114077666Y-100973000D01*
X113982428Y-100925380D01*
X113791952Y-100925380D01*
X113696714Y-100973000D01*
X113601476Y-101068238D01*
X113553857Y-101258714D01*
X113553857Y-101592047D01*
X113601476Y-101782523D01*
X113696714Y-101877761D01*
X113791952Y-101925380D01*
X113982428Y-101925380D01*
X113172904Y-101020619D02*
X113125285Y-100973000D01*
X113030047Y-100925380D01*
X112791952Y-100925380D01*
X112696714Y-100973000D01*
X112649095Y-101020619D01*
X112601476Y-101115857D01*
X112601476Y-101211095D01*
X112649095Y-101353952D01*
X113220523Y-101925380D01*
X112601476Y-101925380D01*
X106394238Y-102020619D02*
X106489476Y-101973000D01*
X106584714Y-101877761D01*
X106727571Y-101734904D01*
X106822809Y-101687285D01*
X106918047Y-101687285D01*
X106870428Y-101925380D02*
X106965666Y-101877761D01*
X107060904Y-101782523D01*
X107108523Y-101592047D01*
X107108523Y-101258714D01*
X107060904Y-101068238D01*
X106965666Y-100973000D01*
X106870428Y-100925380D01*
X106679952Y-100925380D01*
X106584714Y-100973000D01*
X106489476Y-101068238D01*
X106441857Y-101258714D01*
X106441857Y-101592047D01*
X106489476Y-101782523D01*
X106584714Y-101877761D01*
X106679952Y-101925380D01*
X106870428Y-101925380D01*
X105489476Y-101925380D02*
X106060904Y-101925380D01*
X105775190Y-101925380D02*
X105775190Y-100925380D01*
X105870428Y-101068238D01*
X105965666Y-101163476D01*
X106060904Y-101211095D01*
%LPC*%
D12*
X130937000Y-135890000D03*
D13*
X162160000Y-130810000D03*
X157160000Y-130810000D03*
X152160000Y-130810000D03*
X147160000Y-130810000D03*
X142160000Y-130810000D03*
D14*
G36*
X137974004Y-128960265D02*
G01*
X137999510Y-128964049D01*
X138024522Y-128970314D01*
X138048800Y-128979001D01*
X138072109Y-128990025D01*
X138094226Y-129003281D01*
X138114937Y-129018642D01*
X138134042Y-129035958D01*
X138151358Y-129055063D01*
X138166719Y-129075774D01*
X138179975Y-129097891D01*
X138190999Y-129121200D01*
X138199686Y-129145478D01*
X138205951Y-129170490D01*
X138209735Y-129195996D01*
X138211000Y-129221750D01*
X138211000Y-132398250D01*
X138209735Y-132424004D01*
X138205951Y-132449510D01*
X138199686Y-132474522D01*
X138190999Y-132498800D01*
X138179975Y-132522109D01*
X138166719Y-132544226D01*
X138151358Y-132564937D01*
X138134042Y-132584042D01*
X138114937Y-132601358D01*
X138094226Y-132616719D01*
X138072109Y-132629975D01*
X138048800Y-132640999D01*
X138024522Y-132649686D01*
X137999510Y-132655951D01*
X137974004Y-132659735D01*
X137948250Y-132661000D01*
X136371750Y-132661000D01*
X136345996Y-132659735D01*
X136320490Y-132655951D01*
X136295478Y-132649686D01*
X136271200Y-132640999D01*
X136247891Y-132629975D01*
X136225774Y-132616719D01*
X136205063Y-132601358D01*
X136185958Y-132584042D01*
X136168642Y-132564937D01*
X136153281Y-132544226D01*
X136140025Y-132522109D01*
X136129001Y-132498800D01*
X136120314Y-132474522D01*
X136114049Y-132449510D01*
X136110265Y-132424004D01*
X136109000Y-132398250D01*
X136109000Y-129221750D01*
X136110265Y-129195996D01*
X136114049Y-129170490D01*
X136120314Y-129145478D01*
X136129001Y-129121200D01*
X136140025Y-129097891D01*
X136153281Y-129075774D01*
X136168642Y-129055063D01*
X136185958Y-129035958D01*
X136205063Y-129018642D01*
X136225774Y-129003281D01*
X136247891Y-128990025D01*
X136271200Y-128979001D01*
X136295478Y-128970314D01*
X136320490Y-128964049D01*
X136345996Y-128960265D01*
X136371750Y-128959000D01*
X137948250Y-128959000D01*
X137974004Y-128960265D01*
X137974004Y-128960265D01*
G37*
D15*
X137160000Y-130810000D03*
D13*
X124728000Y-130810000D03*
X119728000Y-130810000D03*
X114728000Y-130810000D03*
D14*
G36*
X110542004Y-128960265D02*
G01*
X110567510Y-128964049D01*
X110592522Y-128970314D01*
X110616800Y-128979001D01*
X110640109Y-128990025D01*
X110662226Y-129003281D01*
X110682937Y-129018642D01*
X110702042Y-129035958D01*
X110719358Y-129055063D01*
X110734719Y-129075774D01*
X110747975Y-129097891D01*
X110758999Y-129121200D01*
X110767686Y-129145478D01*
X110773951Y-129170490D01*
X110777735Y-129195996D01*
X110779000Y-129221750D01*
X110779000Y-132398250D01*
X110777735Y-132424004D01*
X110773951Y-132449510D01*
X110767686Y-132474522D01*
X110758999Y-132498800D01*
X110747975Y-132522109D01*
X110734719Y-132544226D01*
X110719358Y-132564937D01*
X110702042Y-132584042D01*
X110682937Y-132601358D01*
X110662226Y-132616719D01*
X110640109Y-132629975D01*
X110616800Y-132640999D01*
X110592522Y-132649686D01*
X110567510Y-132655951D01*
X110542004Y-132659735D01*
X110516250Y-132661000D01*
X108939750Y-132661000D01*
X108913996Y-132659735D01*
X108888490Y-132655951D01*
X108863478Y-132649686D01*
X108839200Y-132640999D01*
X108815891Y-132629975D01*
X108793774Y-132616719D01*
X108773063Y-132601358D01*
X108753958Y-132584042D01*
X108736642Y-132564937D01*
X108721281Y-132544226D01*
X108708025Y-132522109D01*
X108697001Y-132498800D01*
X108688314Y-132474522D01*
X108682049Y-132449510D01*
X108678265Y-132424004D01*
X108677000Y-132398250D01*
X108677000Y-129221750D01*
X108678265Y-129195996D01*
X108682049Y-129170490D01*
X108688314Y-129145478D01*
X108697001Y-129121200D01*
X108708025Y-129097891D01*
X108721281Y-129075774D01*
X108736642Y-129055063D01*
X108753958Y-129035958D01*
X108773063Y-129018642D01*
X108793774Y-129003281D01*
X108815891Y-128990025D01*
X108839200Y-128979001D01*
X108863478Y-128970314D01*
X108888490Y-128964049D01*
X108913996Y-128960265D01*
X108939750Y-128959000D01*
X110516250Y-128959000D01*
X110542004Y-128960265D01*
X110542004Y-128960265D01*
G37*
D15*
X109728000Y-130810000D03*
D13*
X93646000Y-130810000D03*
D14*
G36*
X89460004Y-128960265D02*
G01*
X89485510Y-128964049D01*
X89510522Y-128970314D01*
X89534800Y-128979001D01*
X89558109Y-128990025D01*
X89580226Y-129003281D01*
X89600937Y-129018642D01*
X89620042Y-129035958D01*
X89637358Y-129055063D01*
X89652719Y-129075774D01*
X89665975Y-129097891D01*
X89676999Y-129121200D01*
X89685686Y-129145478D01*
X89691951Y-129170490D01*
X89695735Y-129195996D01*
X89697000Y-129221750D01*
X89697000Y-132398250D01*
X89695735Y-132424004D01*
X89691951Y-132449510D01*
X89685686Y-132474522D01*
X89676999Y-132498800D01*
X89665975Y-132522109D01*
X89652719Y-132544226D01*
X89637358Y-132564937D01*
X89620042Y-132584042D01*
X89600937Y-132601358D01*
X89580226Y-132616719D01*
X89558109Y-132629975D01*
X89534800Y-132640999D01*
X89510522Y-132649686D01*
X89485510Y-132655951D01*
X89460004Y-132659735D01*
X89434250Y-132661000D01*
X87857750Y-132661000D01*
X87831996Y-132659735D01*
X87806490Y-132655951D01*
X87781478Y-132649686D01*
X87757200Y-132640999D01*
X87733891Y-132629975D01*
X87711774Y-132616719D01*
X87691063Y-132601358D01*
X87671958Y-132584042D01*
X87654642Y-132564937D01*
X87639281Y-132544226D01*
X87626025Y-132522109D01*
X87615001Y-132498800D01*
X87606314Y-132474522D01*
X87600049Y-132449510D01*
X87596265Y-132424004D01*
X87595000Y-132398250D01*
X87595000Y-129221750D01*
X87596265Y-129195996D01*
X87600049Y-129170490D01*
X87606314Y-129145478D01*
X87615001Y-129121200D01*
X87626025Y-129097891D01*
X87639281Y-129075774D01*
X87654642Y-129055063D01*
X87671958Y-129035958D01*
X87691063Y-129018642D01*
X87711774Y-129003281D01*
X87733891Y-128990025D01*
X87757200Y-128979001D01*
X87781478Y-128970314D01*
X87806490Y-128964049D01*
X87831996Y-128960265D01*
X87857750Y-128959000D01*
X89434250Y-128959000D01*
X89460004Y-128960265D01*
X89460004Y-128960265D01*
G37*
D15*
X88646000Y-130810000D03*
D16*
X165100000Y-74295000D03*
X165100000Y-71755000D03*
X167640000Y-74295000D03*
X167640000Y-71755000D03*
X170180000Y-74295000D03*
D17*
X170180000Y-71755000D03*
D18*
X180340000Y-68326000D03*
X88392000Y-68580000D03*
X141478000Y-96520000D03*
X180848000Y-127762000D03*
X101600000Y-135890000D03*
D19*
X128652000Y-110339000D03*
D20*
X130932000Y-104039000D03*
X126372000Y-104039000D03*
D19*
X121540000Y-110339000D03*
D20*
X123820000Y-104039000D03*
X119260000Y-104039000D03*
D19*
X108585000Y-123512000D03*
D20*
X110865000Y-117212000D03*
X106305000Y-117212000D03*
D19*
X101474000Y-123512000D03*
D20*
X103754000Y-117212000D03*
X99194000Y-117212000D03*
D19*
X133478000Y-123547000D03*
D20*
X135758000Y-117247000D03*
X131198000Y-117247000D03*
D19*
X126364000Y-123547000D03*
D20*
X128644000Y-117247000D03*
X124084000Y-117247000D03*
D19*
X113412000Y-110339000D03*
D20*
X115692000Y-104039000D03*
X111132000Y-104039000D03*
D19*
X106300000Y-110339000D03*
D20*
X108580000Y-104039000D03*
X104020000Y-104039000D03*
D21*
X112014000Y-68580000D03*
D22*
X112014000Y-81280000D03*
D23*
X176825000Y-134620000D03*
X172425000Y-134620000D03*
D24*
X148082000Y-81407000D03*
D25*
X148082000Y-89027000D03*
M02*
