%TF.GenerationSoftware,KiCad,Pcbnew,(6.0.4)*%
%TF.CreationDate,2022-08-06T13:41:48+02:00*%
%TF.ProjectId,HPDriver,48504472-6976-4657-922e-6b696361645f,1.0*%
%TF.SameCoordinates,Original*%
%TF.FileFunction,Legend,Bot*%
%TF.FilePolarity,Positive*%
%FSLAX46Y46*%
G04 Gerber Fmt 4.6, Leading zero omitted, Abs format (unit mm)*
G04 Created by KiCad (PCBNEW (6.0.4)) date 2022-08-06 13:41:48*
%MOMM*%
%LPD*%
G01*
G04 APERTURE LIST*
G04 Aperture macros list*
%AMRoundRect*
0 Rectangle with rounded corners*
0 $1 Rounding radius*
0 $2 $3 $4 $5 $6 $7 $8 $9 X,Y pos of 4 corners*
0 Add a 4 corners polygon primitive as box body*
4,1,4,$2,$3,$4,$5,$6,$7,$8,$9,$2,$3,0*
0 Add four circle primitives for the rounded corners*
1,1,$1+$1,$2,$3*
1,1,$1+$1,$4,$5*
1,1,$1+$1,$6,$7*
1,1,$1+$1,$8,$9*
0 Add four rect primitives between the rounded corners*
20,1,$1+$1,$2,$3,$4,$5,0*
20,1,$1+$1,$4,$5,$6,$7,0*
20,1,$1+$1,$6,$7,$8,$9,0*
20,1,$1+$1,$8,$9,$2,$3,0*%
G04 Aperture macros list end*
%ADD10C,0.300000*%
%ADD11C,0.150000*%
%ADD12C,0.120000*%
%ADD13RoundRect,0.250000X-0.750000X-1.550000X0.750000X-1.550000X0.750000X1.550000X-0.750000X1.550000X0*%
%ADD14O,2.000000X3.600000*%
%ADD15C,1.000000*%
%ADD16C,4.400000*%
%ADD17C,3.800000*%
%ADD18RoundRect,0.250000X0.600000X-0.600000X0.600000X0.600000X-0.600000X0.600000X-0.600000X-0.600000X0*%
%ADD19C,1.700000*%
%ADD20R,1.200000X2.200000*%
%ADD21R,5.800000X6.400000*%
%ADD22RoundRect,0.250000X-0.450000X0.262500X-0.450000X-0.262500X0.450000X-0.262500X0.450000X0.262500X0*%
%ADD23RoundRect,0.250000X-0.262500X-0.450000X0.262500X-0.450000X0.262500X0.450000X-0.262500X0.450000X0*%
%ADD24R,1.800000X2.500000*%
%ADD25C,0.800000*%
G04 APERTURE END LIST*
D10*
X110406571Y-134096428D02*
X108906571Y-134096428D01*
X109978000Y-134596428D01*
X108906571Y-135096428D01*
X110406571Y-135096428D01*
X110549428Y-135453571D02*
X110549428Y-136596428D01*
X109978000Y-136882142D02*
X109978000Y-137596428D01*
X110406571Y-136739285D02*
X108906571Y-137239285D01*
X110406571Y-137739285D01*
X110406571Y-139025000D02*
X110406571Y-138167857D01*
X110406571Y-138596428D02*
X108906571Y-138596428D01*
X109120857Y-138453571D01*
X109263714Y-138310714D01*
X109335142Y-138167857D01*
X161429000Y-135382142D02*
X161357571Y-135239285D01*
X161357571Y-135025000D01*
X161429000Y-134810714D01*
X161571857Y-134667857D01*
X161714714Y-134596428D01*
X162000428Y-134525000D01*
X162214714Y-134525000D01*
X162500428Y-134596428D01*
X162643285Y-134667857D01*
X162786142Y-134810714D01*
X162857571Y-135025000D01*
X162857571Y-135167857D01*
X162786142Y-135382142D01*
X162714714Y-135453571D01*
X162214714Y-135453571D01*
X162214714Y-135167857D01*
X162857571Y-136096428D02*
X161357571Y-136096428D01*
X162857571Y-136953571D01*
X161357571Y-136953571D01*
X162857571Y-137667857D02*
X161357571Y-137667857D01*
X161357571Y-138025000D01*
X161429000Y-138239285D01*
X161571857Y-138382142D01*
X161714714Y-138453571D01*
X162000428Y-138525000D01*
X162214714Y-138525000D01*
X162500428Y-138453571D01*
X162643285Y-138382142D01*
X162786142Y-138239285D01*
X162857571Y-138025000D01*
X162857571Y-137667857D01*
X137767142Y-134052857D02*
X137838571Y-134267142D01*
X137838571Y-134624285D01*
X137767142Y-134767142D01*
X137695714Y-134838571D01*
X137552857Y-134910000D01*
X137410000Y-134910000D01*
X137267142Y-134838571D01*
X137195714Y-134767142D01*
X137124285Y-134624285D01*
X137052857Y-134338571D01*
X136981428Y-134195714D01*
X136910000Y-134124285D01*
X136767142Y-134052857D01*
X136624285Y-134052857D01*
X136481428Y-134124285D01*
X136410000Y-134195714D01*
X136338571Y-134338571D01*
X136338571Y-134695714D01*
X136410000Y-134910000D01*
X136838571Y-135338571D02*
X136838571Y-135910000D01*
X136338571Y-135552857D02*
X137624285Y-135552857D01*
X137767142Y-135624285D01*
X137838571Y-135767142D01*
X137838571Y-135910000D01*
X137767142Y-136981428D02*
X137838571Y-136838571D01*
X137838571Y-136552857D01*
X137767142Y-136410000D01*
X137624285Y-136338571D01*
X137052857Y-136338571D01*
X136910000Y-136410000D01*
X136838571Y-136552857D01*
X136838571Y-136838571D01*
X136910000Y-136981428D01*
X137052857Y-137052857D01*
X137195714Y-137052857D01*
X137338571Y-136338571D01*
X136838571Y-137695714D02*
X138338571Y-137695714D01*
X136910000Y-137695714D02*
X136838571Y-137838571D01*
X136838571Y-138124285D01*
X136910000Y-138267142D01*
X136981428Y-138338571D01*
X137124285Y-138410000D01*
X137552857Y-138410000D01*
X137695714Y-138338571D01*
X137767142Y-138267142D01*
X137838571Y-138124285D01*
X137838571Y-137838571D01*
X137767142Y-137695714D01*
X136838571Y-140195714D02*
X137267142Y-139052857D01*
X137695714Y-140195714D01*
X142791571Y-134826714D02*
X141291571Y-134826714D01*
X141291571Y-135183857D01*
X141363000Y-135398142D01*
X141505857Y-135541000D01*
X141648714Y-135612428D01*
X141934428Y-135683857D01*
X142148714Y-135683857D01*
X142434428Y-135612428D01*
X142577285Y-135541000D01*
X142720142Y-135398142D01*
X142791571Y-135183857D01*
X142791571Y-134826714D01*
X142791571Y-136326714D02*
X141791571Y-136326714D01*
X141291571Y-136326714D02*
X141363000Y-136255285D01*
X141434428Y-136326714D01*
X141363000Y-136398142D01*
X141291571Y-136326714D01*
X141434428Y-136326714D01*
X142791571Y-137041000D02*
X141791571Y-137041000D01*
X142077285Y-137041000D02*
X141934428Y-137112428D01*
X141863000Y-137183857D01*
X141791571Y-137326714D01*
X141791571Y-137469571D01*
X141791571Y-140255285D02*
X142220142Y-139112428D01*
X142648714Y-140255285D01*
X147085857Y-134160000D02*
X147085857Y-134660000D01*
X147871571Y-134874285D02*
X147871571Y-134160000D01*
X146371571Y-134160000D01*
X146371571Y-134874285D01*
X146871571Y-135517142D02*
X147871571Y-135517142D01*
X147014428Y-135517142D02*
X146943000Y-135588571D01*
X146871571Y-135731428D01*
X146871571Y-135945714D01*
X146943000Y-136088571D01*
X147085857Y-136160000D01*
X147871571Y-136160000D01*
X147871571Y-136874285D02*
X146371571Y-136874285D01*
X146943000Y-136874285D02*
X146871571Y-137017142D01*
X146871571Y-137302857D01*
X146943000Y-137445714D01*
X147014428Y-137517142D01*
X147157285Y-137588571D01*
X147585857Y-137588571D01*
X147728714Y-137517142D01*
X147800142Y-137445714D01*
X147871571Y-137302857D01*
X147871571Y-137017142D01*
X147800142Y-136874285D01*
X147871571Y-138445714D02*
X147800142Y-138302857D01*
X147657285Y-138231428D01*
X146371571Y-138231428D01*
X146871571Y-140160000D02*
X147300142Y-139017142D01*
X147728714Y-140160000D01*
X152880142Y-133910000D02*
X152951571Y-134124285D01*
X152951571Y-134481428D01*
X152880142Y-134624285D01*
X152808714Y-134695714D01*
X152665857Y-134767142D01*
X152523000Y-134767142D01*
X152380142Y-134695714D01*
X152308714Y-134624285D01*
X152237285Y-134481428D01*
X152165857Y-134195714D01*
X152094428Y-134052857D01*
X152023000Y-133981428D01*
X151880142Y-133910000D01*
X151737285Y-133910000D01*
X151594428Y-133981428D01*
X151523000Y-134052857D01*
X151451571Y-134195714D01*
X151451571Y-134552857D01*
X151523000Y-134767142D01*
X151951571Y-135195714D02*
X151951571Y-135767142D01*
X151451571Y-135410000D02*
X152737285Y-135410000D01*
X152880142Y-135481428D01*
X152951571Y-135624285D01*
X152951571Y-135767142D01*
X152951571Y-136910000D02*
X152165857Y-136910000D01*
X152023000Y-136838571D01*
X151951571Y-136695714D01*
X151951571Y-136410000D01*
X152023000Y-136267142D01*
X152880142Y-136910000D02*
X152951571Y-136767142D01*
X152951571Y-136410000D01*
X152880142Y-136267142D01*
X152737285Y-136195714D01*
X152594428Y-136195714D01*
X152451571Y-136267142D01*
X152380142Y-136410000D01*
X152380142Y-136767142D01*
X152308714Y-136910000D01*
X152951571Y-137838571D02*
X152880142Y-137695714D01*
X152737285Y-137624285D01*
X151451571Y-137624285D01*
X152951571Y-138624285D02*
X152880142Y-138481428D01*
X152737285Y-138410000D01*
X151451571Y-138410000D01*
X151951571Y-139195714D02*
X152380142Y-140338571D01*
X152808714Y-139195714D01*
X157904571Y-134874285D02*
X157190285Y-134374285D01*
X157904571Y-134017142D02*
X156404571Y-134017142D01*
X156404571Y-134588571D01*
X156476000Y-134731428D01*
X156547428Y-134802857D01*
X156690285Y-134874285D01*
X156904571Y-134874285D01*
X157047428Y-134802857D01*
X157118857Y-134731428D01*
X157190285Y-134588571D01*
X157190285Y-134017142D01*
X157904571Y-136160000D02*
X156404571Y-136160000D01*
X157833142Y-136160000D02*
X157904571Y-136017142D01*
X157904571Y-135731428D01*
X157833142Y-135588571D01*
X157761714Y-135517142D01*
X157618857Y-135445714D01*
X157190285Y-135445714D01*
X157047428Y-135517142D01*
X156976000Y-135588571D01*
X156904571Y-135731428D01*
X156904571Y-136017142D01*
X156976000Y-136160000D01*
X156904571Y-136731428D02*
X157904571Y-137088571D01*
X156904571Y-137445714D02*
X157904571Y-137088571D01*
X158261714Y-136945714D01*
X158333142Y-136874285D01*
X158404571Y-136731428D01*
X156904571Y-139160000D02*
X157333142Y-140302857D01*
X157761714Y-139160000D01*
X115486571Y-134096428D02*
X113986571Y-134096428D01*
X115058000Y-134596428D01*
X113986571Y-135096428D01*
X115486571Y-135096428D01*
X115629428Y-135453571D02*
X115629428Y-136596428D01*
X115058000Y-136882142D02*
X115058000Y-137596428D01*
X115486571Y-136739285D02*
X113986571Y-137239285D01*
X115486571Y-137739285D01*
X114129428Y-138167857D02*
X114058000Y-138239285D01*
X113986571Y-138382142D01*
X113986571Y-138739285D01*
X114058000Y-138882142D01*
X114129428Y-138953571D01*
X114272285Y-139025000D01*
X114415142Y-139025000D01*
X114629428Y-138953571D01*
X115486571Y-138096428D01*
X115486571Y-139025000D01*
X120439571Y-133989285D02*
X118939571Y-133989285D01*
X120011000Y-134489285D01*
X118939571Y-134989285D01*
X120439571Y-134989285D01*
X120582428Y-135346428D02*
X120582428Y-136489285D01*
X119653857Y-137346428D02*
X119725285Y-137560714D01*
X119796714Y-137632142D01*
X119939571Y-137703571D01*
X120153857Y-137703571D01*
X120296714Y-137632142D01*
X120368142Y-137560714D01*
X120439571Y-137417857D01*
X120439571Y-136846428D01*
X118939571Y-136846428D01*
X118939571Y-137346428D01*
X119011000Y-137489285D01*
X119082428Y-137560714D01*
X119225285Y-137632142D01*
X119368142Y-137632142D01*
X119511000Y-137560714D01*
X119582428Y-137489285D01*
X119653857Y-137346428D01*
X119653857Y-136846428D01*
X120439571Y-139132142D02*
X120439571Y-138275000D01*
X120439571Y-138703571D02*
X118939571Y-138703571D01*
X119153857Y-138560714D01*
X119296714Y-138417857D01*
X119368142Y-138275000D01*
X125519571Y-133989285D02*
X124019571Y-133989285D01*
X125091000Y-134489285D01*
X124019571Y-134989285D01*
X125519571Y-134989285D01*
X125662428Y-135346428D02*
X125662428Y-136489285D01*
X124733857Y-137346428D02*
X124805285Y-137560714D01*
X124876714Y-137632142D01*
X125019571Y-137703571D01*
X125233857Y-137703571D01*
X125376714Y-137632142D01*
X125448142Y-137560714D01*
X125519571Y-137417857D01*
X125519571Y-136846428D01*
X124019571Y-136846428D01*
X124019571Y-137346428D01*
X124091000Y-137489285D01*
X124162428Y-137560714D01*
X124305285Y-137632142D01*
X124448142Y-137632142D01*
X124591000Y-137560714D01*
X124662428Y-137489285D01*
X124733857Y-137346428D01*
X124733857Y-136846428D01*
X124162428Y-138275000D02*
X124091000Y-138346428D01*
X124019571Y-138489285D01*
X124019571Y-138846428D01*
X124091000Y-138989285D01*
X124162428Y-139060714D01*
X124305285Y-139132142D01*
X124448142Y-139132142D01*
X124662428Y-139060714D01*
X125519571Y-138203571D01*
X125519571Y-139132142D01*
X176517857Y-128654071D02*
X176517857Y-129868357D01*
X176446428Y-130011214D01*
X176375000Y-130082642D01*
X176232142Y-130154071D01*
X175946428Y-130154071D01*
X175803571Y-130082642D01*
X175732142Y-130011214D01*
X175660714Y-129868357D01*
X175660714Y-128654071D01*
X175017857Y-130082642D02*
X174803571Y-130154071D01*
X174446428Y-130154071D01*
X174303571Y-130082642D01*
X174232142Y-130011214D01*
X174160714Y-129868357D01*
X174160714Y-129725500D01*
X174232142Y-129582642D01*
X174303571Y-129511214D01*
X174446428Y-129439785D01*
X174732142Y-129368357D01*
X174875000Y-129296928D01*
X174946428Y-129225500D01*
X175017857Y-129082642D01*
X175017857Y-128939785D01*
X174946428Y-128796928D01*
X174875000Y-128725500D01*
X174732142Y-128654071D01*
X174375000Y-128654071D01*
X174160714Y-128725500D01*
X173017857Y-129368357D02*
X172803571Y-129439785D01*
X172732142Y-129511214D01*
X172660714Y-129654071D01*
X172660714Y-129868357D01*
X172732142Y-130011214D01*
X172803571Y-130082642D01*
X172946428Y-130154071D01*
X173517857Y-130154071D01*
X173517857Y-128654071D01*
X173017857Y-128654071D01*
X172875000Y-128725500D01*
X172803571Y-128796928D01*
X172732142Y-128939785D01*
X172732142Y-129082642D01*
X172803571Y-129225500D01*
X172875000Y-129296928D01*
X173017857Y-129368357D01*
X173517857Y-129368357D01*
X178732142Y-132569071D02*
X178732142Y-131069071D01*
X178089285Y-132497642D02*
X177946428Y-132569071D01*
X177660714Y-132569071D01*
X177517857Y-132497642D01*
X177446428Y-132354785D01*
X177446428Y-132283357D01*
X177517857Y-132140500D01*
X177660714Y-132069071D01*
X177875000Y-132069071D01*
X178017857Y-131997642D01*
X178089285Y-131854785D01*
X178089285Y-131783357D01*
X178017857Y-131640500D01*
X177875000Y-131569071D01*
X177660714Y-131569071D01*
X177517857Y-131640500D01*
X176589285Y-132569071D02*
X176732142Y-132497642D01*
X176803571Y-132426214D01*
X176875000Y-132283357D01*
X176875000Y-131854785D01*
X176803571Y-131711928D01*
X176732142Y-131640500D01*
X176589285Y-131569071D01*
X176375000Y-131569071D01*
X176232142Y-131640500D01*
X176160714Y-131711928D01*
X176089285Y-131854785D01*
X176089285Y-132283357D01*
X176160714Y-132426214D01*
X176232142Y-132497642D01*
X176375000Y-132569071D01*
X176589285Y-132569071D01*
X175232142Y-132569071D02*
X175375000Y-132497642D01*
X175446428Y-132354785D01*
X175446428Y-131069071D01*
X174017857Y-132569071D02*
X174017857Y-131783357D01*
X174089285Y-131640500D01*
X174232142Y-131569071D01*
X174517857Y-131569071D01*
X174660714Y-131640500D01*
X174017857Y-132497642D02*
X174160714Y-132569071D01*
X174517857Y-132569071D01*
X174660714Y-132497642D01*
X174732142Y-132354785D01*
X174732142Y-132211928D01*
X174660714Y-132069071D01*
X174517857Y-131997642D01*
X174160714Y-131997642D01*
X174017857Y-131926214D01*
X173517857Y-131569071D02*
X172946428Y-131569071D01*
X173303571Y-131069071D02*
X173303571Y-132354785D01*
X173232142Y-132497642D01*
X173089285Y-132569071D01*
X172946428Y-132569071D01*
X171875000Y-132497642D02*
X172017857Y-132569071D01*
X172303571Y-132569071D01*
X172446428Y-132497642D01*
X172517857Y-132354785D01*
X172517857Y-131783357D01*
X172446428Y-131640500D01*
X172303571Y-131569071D01*
X172017857Y-131569071D01*
X171875000Y-131640500D01*
X171803571Y-131783357D01*
X171803571Y-131926214D01*
X172517857Y-132069071D01*
X170517857Y-132569071D02*
X170517857Y-131069071D01*
X170517857Y-132497642D02*
X170660714Y-132569071D01*
X170946428Y-132569071D01*
X171089285Y-132497642D01*
X171160714Y-132426214D01*
X171232142Y-132283357D01*
X171232142Y-131854785D01*
X171160714Y-131711928D01*
X171089285Y-131640500D01*
X170946428Y-131569071D01*
X170660714Y-131569071D01*
X170517857Y-131640500D01*
X89788857Y-137045000D02*
X89931714Y-136973571D01*
X90146000Y-136973571D01*
X90360285Y-137045000D01*
X90503142Y-137187857D01*
X90574571Y-137330714D01*
X90646000Y-137616428D01*
X90646000Y-137830714D01*
X90574571Y-138116428D01*
X90503142Y-138259285D01*
X90360285Y-138402142D01*
X90146000Y-138473571D01*
X90003142Y-138473571D01*
X89788857Y-138402142D01*
X89717428Y-138330714D01*
X89717428Y-137830714D01*
X90003142Y-137830714D01*
X89074571Y-138473571D02*
X89074571Y-136973571D01*
X88217428Y-138473571D01*
X88217428Y-136973571D01*
X87503142Y-138473571D02*
X87503142Y-136973571D01*
X87146000Y-136973571D01*
X86931714Y-137045000D01*
X86788857Y-137187857D01*
X86717428Y-137330714D01*
X86646000Y-137616428D01*
X86646000Y-137830714D01*
X86717428Y-138116428D01*
X86788857Y-138259285D01*
X86931714Y-138402142D01*
X87146000Y-138473571D01*
X87503142Y-138473571D01*
X154280857Y-117542571D02*
X154995142Y-117542571D01*
X155066571Y-118256857D01*
X154995142Y-118185428D01*
X154852285Y-118114000D01*
X154495142Y-118114000D01*
X154352285Y-118185428D01*
X154280857Y-118256857D01*
X154209428Y-118399714D01*
X154209428Y-118756857D01*
X154280857Y-118899714D01*
X154352285Y-118971142D01*
X154495142Y-119042571D01*
X154852285Y-119042571D01*
X154995142Y-118971142D01*
X155066571Y-118899714D01*
X153566571Y-118471142D02*
X152423714Y-118471142D01*
X150923714Y-119042571D02*
X151780857Y-119042571D01*
X151352285Y-119042571D02*
X151352285Y-117542571D01*
X151495142Y-117756857D01*
X151638000Y-117899714D01*
X151780857Y-117971142D01*
X150352285Y-117685428D02*
X150280857Y-117614000D01*
X150138000Y-117542571D01*
X149780857Y-117542571D01*
X149638000Y-117614000D01*
X149566571Y-117685428D01*
X149495142Y-117828285D01*
X149495142Y-117971142D01*
X149566571Y-118185428D01*
X150423714Y-119042571D01*
X149495142Y-119042571D01*
X149066571Y-117542571D02*
X148566571Y-119042571D01*
X148066571Y-117542571D01*
X121903571Y-118216071D02*
X121903571Y-116716071D01*
X121903571Y-117430357D02*
X121046428Y-117430357D01*
X121046428Y-118216071D02*
X121046428Y-116716071D01*
X119760714Y-118144642D02*
X119903571Y-118216071D01*
X120189285Y-118216071D01*
X120332142Y-118144642D01*
X120403571Y-118001785D01*
X120403571Y-117430357D01*
X120332142Y-117287500D01*
X120189285Y-117216071D01*
X119903571Y-117216071D01*
X119760714Y-117287500D01*
X119689285Y-117430357D01*
X119689285Y-117573214D01*
X120403571Y-117716071D01*
X118403571Y-118216071D02*
X118403571Y-117430357D01*
X118475000Y-117287500D01*
X118617857Y-117216071D01*
X118903571Y-117216071D01*
X119046428Y-117287500D01*
X118403571Y-118144642D02*
X118546428Y-118216071D01*
X118903571Y-118216071D01*
X119046428Y-118144642D01*
X119117857Y-118001785D01*
X119117857Y-117858928D01*
X119046428Y-117716071D01*
X118903571Y-117644642D01*
X118546428Y-117644642D01*
X118403571Y-117573214D01*
X117903571Y-117216071D02*
X117332142Y-117216071D01*
X117689285Y-116716071D02*
X117689285Y-118001785D01*
X117617857Y-118144642D01*
X117475000Y-118216071D01*
X117332142Y-118216071D01*
X116903571Y-118144642D02*
X116760714Y-118216071D01*
X116475000Y-118216071D01*
X116332142Y-118144642D01*
X116260714Y-118001785D01*
X116260714Y-117930357D01*
X116332142Y-117787500D01*
X116475000Y-117716071D01*
X116689285Y-117716071D01*
X116832142Y-117644642D01*
X116903571Y-117501785D01*
X116903571Y-117430357D01*
X116832142Y-117287500D01*
X116689285Y-117216071D01*
X116475000Y-117216071D01*
X116332142Y-117287500D01*
X115617857Y-118216071D02*
X115617857Y-117216071D01*
X115617857Y-116716071D02*
X115689285Y-116787500D01*
X115617857Y-116858928D01*
X115546428Y-116787500D01*
X115617857Y-116716071D01*
X115617857Y-116858928D01*
X114903571Y-117216071D02*
X114903571Y-118216071D01*
X114903571Y-117358928D02*
X114832142Y-117287500D01*
X114689285Y-117216071D01*
X114475000Y-117216071D01*
X114332142Y-117287500D01*
X114260714Y-117430357D01*
X114260714Y-118216071D01*
X113546428Y-118216071D02*
X113546428Y-116716071D01*
X113403571Y-117644642D02*
X112975000Y-118216071D01*
X112975000Y-117216071D02*
X113546428Y-117787500D01*
X122082142Y-120631071D02*
X122082142Y-119631071D01*
X122082142Y-119916785D02*
X122010714Y-119773928D01*
X121939285Y-119702500D01*
X121796428Y-119631071D01*
X121653571Y-119631071D01*
X120582142Y-120559642D02*
X120725000Y-120631071D01*
X121010714Y-120631071D01*
X121153571Y-120559642D01*
X121225000Y-120416785D01*
X121225000Y-119845357D01*
X121153571Y-119702500D01*
X121010714Y-119631071D01*
X120725000Y-119631071D01*
X120582142Y-119702500D01*
X120510714Y-119845357D01*
X120510714Y-119988214D01*
X121225000Y-120131071D01*
X119225000Y-119631071D02*
X119225000Y-121131071D01*
X119225000Y-120559642D02*
X119367857Y-120631071D01*
X119653571Y-120631071D01*
X119796428Y-120559642D01*
X119867857Y-120488214D01*
X119939285Y-120345357D01*
X119939285Y-119916785D01*
X119867857Y-119773928D01*
X119796428Y-119702500D01*
X119653571Y-119631071D01*
X119367857Y-119631071D01*
X119225000Y-119702500D01*
X117867857Y-119631071D02*
X117867857Y-120631071D01*
X118510714Y-119631071D02*
X118510714Y-120416785D01*
X118439285Y-120559642D01*
X118296428Y-120631071D01*
X118082142Y-120631071D01*
X117939285Y-120559642D01*
X117867857Y-120488214D01*
X117153571Y-120631071D02*
X117153571Y-119631071D01*
X117153571Y-119131071D02*
X117225000Y-119202500D01*
X117153571Y-119273928D01*
X117082142Y-119202500D01*
X117153571Y-119131071D01*
X117153571Y-119273928D01*
X116439285Y-120631071D02*
X116439285Y-119631071D01*
X116439285Y-119916785D02*
X116367857Y-119773928D01*
X116296428Y-119702500D01*
X116153571Y-119631071D01*
X116010714Y-119631071D01*
X114939285Y-120559642D02*
X115082142Y-120631071D01*
X115367857Y-120631071D01*
X115510714Y-120559642D01*
X115582142Y-120416785D01*
X115582142Y-119845357D01*
X115510714Y-119702500D01*
X115367857Y-119631071D01*
X115082142Y-119631071D01*
X114939285Y-119702500D01*
X114867857Y-119845357D01*
X114867857Y-119988214D01*
X115582142Y-120131071D01*
X113582142Y-120631071D02*
X113582142Y-119131071D01*
X113582142Y-120559642D02*
X113725000Y-120631071D01*
X114010714Y-120631071D01*
X114153571Y-120559642D01*
X114225000Y-120488214D01*
X114296428Y-120345357D01*
X114296428Y-119916785D01*
X114225000Y-119773928D01*
X114153571Y-119702500D01*
X114010714Y-119631071D01*
X113725000Y-119631071D01*
X113582142Y-119702500D01*
X112867857Y-120488214D02*
X112796428Y-120559642D01*
X112867857Y-120631071D01*
X112939285Y-120559642D01*
X112867857Y-120488214D01*
X112867857Y-120631071D01*
X112867857Y-120059642D02*
X112939285Y-119202500D01*
X112867857Y-119131071D01*
X112796428Y-119202500D01*
X112867857Y-120059642D01*
X112867857Y-119131071D01*
D11*
X180622380Y-71993523D02*
X179622380Y-71993523D01*
X179622380Y-72231619D01*
X179670000Y-72374476D01*
X179765238Y-72469714D01*
X179860476Y-72517333D01*
X180050952Y-72564952D01*
X180193809Y-72564952D01*
X180384285Y-72517333D01*
X180479523Y-72469714D01*
X180574761Y-72374476D01*
X180622380Y-72231619D01*
X180622380Y-71993523D01*
X180527142Y-72993523D02*
X180574761Y-73041142D01*
X180622380Y-72993523D01*
X180574761Y-72945904D01*
X180527142Y-72993523D01*
X180622380Y-72993523D01*
X179622380Y-74136380D02*
X180622380Y-74374476D01*
X179908095Y-74564952D01*
X180622380Y-74755428D01*
X179622380Y-74993523D01*
X180622380Y-75803047D02*
X180098571Y-75803047D01*
X180003333Y-75755428D01*
X179955714Y-75660190D01*
X179955714Y-75469714D01*
X180003333Y-75374476D01*
X180574761Y-75803047D02*
X180622380Y-75707809D01*
X180622380Y-75469714D01*
X180574761Y-75374476D01*
X180479523Y-75326857D01*
X180384285Y-75326857D01*
X180289047Y-75374476D01*
X180241428Y-75469714D01*
X180241428Y-75707809D01*
X180193809Y-75803047D01*
X180622380Y-76422095D02*
X180574761Y-76326857D01*
X180479523Y-76279238D01*
X179622380Y-76279238D01*
X179955714Y-76660190D02*
X179955714Y-77041142D01*
X179622380Y-76803047D02*
X180479523Y-76803047D01*
X180574761Y-76850666D01*
X180622380Y-76945904D01*
X180622380Y-77041142D01*
X180574761Y-77755428D02*
X180622380Y-77660190D01*
X180622380Y-77469714D01*
X180574761Y-77374476D01*
X180479523Y-77326857D01*
X180098571Y-77326857D01*
X180003333Y-77374476D01*
X179955714Y-77469714D01*
X179955714Y-77660190D01*
X180003333Y-77755428D01*
X180098571Y-77803047D01*
X180193809Y-77803047D01*
X180289047Y-77326857D01*
X180622380Y-78231619D02*
X179955714Y-78231619D01*
X180146190Y-78231619D02*
X180050952Y-78279238D01*
X180003333Y-78326857D01*
X179955714Y-78422095D01*
X179955714Y-78517333D01*
X181232380Y-73660190D02*
X182232380Y-73993523D01*
X181232380Y-74326857D01*
X182232380Y-75184000D02*
X182232380Y-74612571D01*
X182232380Y-74898285D02*
X181232380Y-74898285D01*
X181375238Y-74803047D01*
X181470476Y-74707809D01*
X181518095Y-74612571D01*
X182137142Y-75612571D02*
X182184761Y-75660190D01*
X182232380Y-75612571D01*
X182184761Y-75564952D01*
X182137142Y-75612571D01*
X182232380Y-75612571D01*
X181232380Y-76279238D02*
X181232380Y-76374476D01*
X181280000Y-76469714D01*
X181327619Y-76517333D01*
X181422857Y-76564952D01*
X181613333Y-76612571D01*
X181851428Y-76612571D01*
X182041904Y-76564952D01*
X182137142Y-76517333D01*
X182184761Y-76469714D01*
X182232380Y-76374476D01*
X182232380Y-76279238D01*
X182184761Y-76184000D01*
X182137142Y-76136380D01*
X182041904Y-76088761D01*
X181851428Y-76041142D01*
X181613333Y-76041142D01*
X181422857Y-76088761D01*
X181327619Y-76136380D01*
X181280000Y-76184000D01*
X181232380Y-76279238D01*
D10*
X94813285Y-135869071D02*
X95670428Y-135869071D01*
X95241857Y-135869071D02*
X95241857Y-134369071D01*
X95384714Y-134583357D01*
X95527571Y-134726214D01*
X95670428Y-134797642D01*
X94241857Y-134511928D02*
X94170428Y-134440500D01*
X94027571Y-134369071D01*
X93670428Y-134369071D01*
X93527571Y-134440500D01*
X93456142Y-134511928D01*
X93384714Y-134654785D01*
X93384714Y-134797642D01*
X93456142Y-135011928D01*
X94313285Y-135869071D01*
X93384714Y-135869071D01*
X92741857Y-135297642D02*
X91599000Y-135297642D01*
X94670428Y-136784071D02*
X94956142Y-136784071D01*
X95099000Y-136855500D01*
X95170428Y-136926928D01*
X95313285Y-137141214D01*
X95384714Y-137426928D01*
X95384714Y-137998357D01*
X95313285Y-138141214D01*
X95241857Y-138212642D01*
X95099000Y-138284071D01*
X94813285Y-138284071D01*
X94670428Y-138212642D01*
X94599000Y-138141214D01*
X94527571Y-137998357D01*
X94527571Y-137641214D01*
X94599000Y-137498357D01*
X94670428Y-137426928D01*
X94813285Y-137355500D01*
X95099000Y-137355500D01*
X95241857Y-137426928D01*
X95313285Y-137498357D01*
X95384714Y-137641214D01*
X93599000Y-136784071D02*
X93456142Y-136784071D01*
X93313285Y-136855500D01*
X93241857Y-136926928D01*
X93170428Y-137069785D01*
X93099000Y-137355500D01*
X93099000Y-137712642D01*
X93170428Y-137998357D01*
X93241857Y-138141214D01*
X93313285Y-138212642D01*
X93456142Y-138284071D01*
X93599000Y-138284071D01*
X93741857Y-138212642D01*
X93813285Y-138141214D01*
X93884714Y-137998357D01*
X93956142Y-137712642D01*
X93956142Y-137355500D01*
X93884714Y-137069785D01*
X93813285Y-136926928D01*
X93741857Y-136855500D01*
X93599000Y-136784071D01*
X92670428Y-136784071D02*
X92170428Y-138284071D01*
X91670428Y-136784071D01*
D11*
X109156428Y-128563619D02*
X109251666Y-128516000D01*
X109346904Y-128420761D01*
X109489761Y-128277904D01*
X109585000Y-128230285D01*
X109680238Y-128230285D01*
X109632619Y-128468380D02*
X109727857Y-128420761D01*
X109823095Y-128325523D01*
X109870714Y-128135047D01*
X109870714Y-127801714D01*
X109823095Y-127611238D01*
X109727857Y-127516000D01*
X109632619Y-127468380D01*
X109442142Y-127468380D01*
X109346904Y-127516000D01*
X109251666Y-127611238D01*
X109204047Y-127801714D01*
X109204047Y-128135047D01*
X109251666Y-128325523D01*
X109346904Y-128420761D01*
X109442142Y-128468380D01*
X109632619Y-128468380D01*
X108251666Y-128468380D02*
X108823095Y-128468380D01*
X108537380Y-128468380D02*
X108537380Y-127468380D01*
X108632619Y-127611238D01*
X108727857Y-127706476D01*
X108823095Y-127754095D01*
X107918333Y-127468380D02*
X107299285Y-127468380D01*
X107632619Y-127849333D01*
X107489761Y-127849333D01*
X107394523Y-127896952D01*
X107346904Y-127944571D01*
X107299285Y-128039809D01*
X107299285Y-128277904D01*
X107346904Y-128373142D01*
X107394523Y-128420761D01*
X107489761Y-128468380D01*
X107775476Y-128468380D01*
X107870714Y-128420761D01*
X107918333Y-128373142D01*
X102044428Y-128690619D02*
X102139666Y-128643000D01*
X102234904Y-128547761D01*
X102377761Y-128404904D01*
X102473000Y-128357285D01*
X102568238Y-128357285D01*
X102520619Y-128595380D02*
X102615857Y-128547761D01*
X102711095Y-128452523D01*
X102758714Y-128262047D01*
X102758714Y-127928714D01*
X102711095Y-127738238D01*
X102615857Y-127643000D01*
X102520619Y-127595380D01*
X102330142Y-127595380D01*
X102234904Y-127643000D01*
X102139666Y-127738238D01*
X102092047Y-127928714D01*
X102092047Y-128262047D01*
X102139666Y-128452523D01*
X102234904Y-128547761D01*
X102330142Y-128595380D01*
X102520619Y-128595380D01*
X101139666Y-128595380D02*
X101711095Y-128595380D01*
X101425380Y-128595380D02*
X101425380Y-127595380D01*
X101520619Y-127738238D01*
X101615857Y-127833476D01*
X101711095Y-127881095D01*
X100758714Y-127690619D02*
X100711095Y-127643000D01*
X100615857Y-127595380D01*
X100377761Y-127595380D01*
X100282523Y-127643000D01*
X100234904Y-127690619D01*
X100187285Y-127785857D01*
X100187285Y-127881095D01*
X100234904Y-128023952D01*
X100806333Y-128595380D01*
X100187285Y-128595380D01*
X121634238Y-102020619D02*
X121729476Y-101973000D01*
X121824714Y-101877761D01*
X121967571Y-101734904D01*
X122062809Y-101687285D01*
X122158047Y-101687285D01*
X122110428Y-101925380D02*
X122205666Y-101877761D01*
X122300904Y-101782523D01*
X122348523Y-101592047D01*
X122348523Y-101258714D01*
X122300904Y-101068238D01*
X122205666Y-100973000D01*
X122110428Y-100925380D01*
X121919952Y-100925380D01*
X121824714Y-100973000D01*
X121729476Y-101068238D01*
X121681857Y-101258714D01*
X121681857Y-101592047D01*
X121729476Y-101782523D01*
X121824714Y-101877761D01*
X121919952Y-101925380D01*
X122110428Y-101925380D01*
X120824714Y-100925380D02*
X121015190Y-100925380D01*
X121110428Y-100973000D01*
X121158047Y-101020619D01*
X121253285Y-101163476D01*
X121300904Y-101353952D01*
X121300904Y-101734904D01*
X121253285Y-101830142D01*
X121205666Y-101877761D01*
X121110428Y-101925380D01*
X120919952Y-101925380D01*
X120824714Y-101877761D01*
X120777095Y-101830142D01*
X120729476Y-101734904D01*
X120729476Y-101496809D01*
X120777095Y-101401571D01*
X120824714Y-101353952D01*
X120919952Y-101306333D01*
X121110428Y-101306333D01*
X121205666Y-101353952D01*
X121253285Y-101401571D01*
X121300904Y-101496809D01*
X113506238Y-102020619D02*
X113601476Y-101973000D01*
X113696714Y-101877761D01*
X113839571Y-101734904D01*
X113934809Y-101687285D01*
X114030047Y-101687285D01*
X113982428Y-101925380D02*
X114077666Y-101877761D01*
X114172904Y-101782523D01*
X114220523Y-101592047D01*
X114220523Y-101258714D01*
X114172904Y-101068238D01*
X114077666Y-100973000D01*
X113982428Y-100925380D01*
X113791952Y-100925380D01*
X113696714Y-100973000D01*
X113601476Y-101068238D01*
X113553857Y-101258714D01*
X113553857Y-101592047D01*
X113601476Y-101782523D01*
X113696714Y-101877761D01*
X113791952Y-101925380D01*
X113982428Y-101925380D01*
X113077666Y-101925380D02*
X112887190Y-101925380D01*
X112791952Y-101877761D01*
X112744333Y-101830142D01*
X112649095Y-101687285D01*
X112601476Y-101496809D01*
X112601476Y-101115857D01*
X112649095Y-101020619D01*
X112696714Y-100973000D01*
X112791952Y-100925380D01*
X112982428Y-100925380D01*
X113077666Y-100973000D01*
X113125285Y-101020619D01*
X113172904Y-101115857D01*
X113172904Y-101353952D01*
X113125285Y-101449190D01*
X113077666Y-101496809D01*
X112982428Y-101544428D01*
X112791952Y-101544428D01*
X112696714Y-101496809D01*
X112649095Y-101449190D01*
X112601476Y-101353952D01*
X106394238Y-102020619D02*
X106489476Y-101973000D01*
X106584714Y-101877761D01*
X106727571Y-101734904D01*
X106822809Y-101687285D01*
X106918047Y-101687285D01*
X106870428Y-101925380D02*
X106965666Y-101877761D01*
X107060904Y-101782523D01*
X107108523Y-101592047D01*
X107108523Y-101258714D01*
X107060904Y-101068238D01*
X106965666Y-100973000D01*
X106870428Y-100925380D01*
X106679952Y-100925380D01*
X106584714Y-100973000D01*
X106489476Y-101068238D01*
X106441857Y-101258714D01*
X106441857Y-101592047D01*
X106489476Y-101782523D01*
X106584714Y-101877761D01*
X106679952Y-101925380D01*
X106870428Y-101925380D01*
X105870428Y-101353952D02*
X105965666Y-101306333D01*
X106013285Y-101258714D01*
X106060904Y-101163476D01*
X106060904Y-101115857D01*
X106013285Y-101020619D01*
X105965666Y-100973000D01*
X105870428Y-100925380D01*
X105679952Y-100925380D01*
X105584714Y-100973000D01*
X105537095Y-101020619D01*
X105489476Y-101115857D01*
X105489476Y-101163476D01*
X105537095Y-101258714D01*
X105584714Y-101306333D01*
X105679952Y-101353952D01*
X105870428Y-101353952D01*
X105965666Y-101401571D01*
X106013285Y-101449190D01*
X106060904Y-101544428D01*
X106060904Y-101734904D01*
X106013285Y-101830142D01*
X105965666Y-101877761D01*
X105870428Y-101925380D01*
X105679952Y-101925380D01*
X105584714Y-101877761D01*
X105537095Y-101830142D01*
X105489476Y-101734904D01*
X105489476Y-101544428D01*
X105537095Y-101449190D01*
X105584714Y-101401571D01*
X105679952Y-101353952D01*
X122237428Y-126912619D02*
X122332666Y-126865000D01*
X122427904Y-126769761D01*
X122570761Y-126626904D01*
X122666000Y-126579285D01*
X122761238Y-126579285D01*
X122713619Y-126817380D02*
X122808857Y-126769761D01*
X122904095Y-126674523D01*
X122951714Y-126484047D01*
X122951714Y-126150714D01*
X122904095Y-125960238D01*
X122808857Y-125865000D01*
X122713619Y-125817380D01*
X122523142Y-125817380D01*
X122427904Y-125865000D01*
X122332666Y-125960238D01*
X122285047Y-126150714D01*
X122285047Y-126484047D01*
X122332666Y-126674523D01*
X122427904Y-126769761D01*
X122523142Y-126817380D01*
X122713619Y-126817380D01*
X121332666Y-126817380D02*
X121904095Y-126817380D01*
X121618380Y-126817380D02*
X121618380Y-125817380D01*
X121713619Y-125960238D01*
X121808857Y-126055476D01*
X121904095Y-126103095D01*
X120713619Y-125817380D02*
X120618380Y-125817380D01*
X120523142Y-125865000D01*
X120475523Y-125912619D01*
X120427904Y-126007857D01*
X120380285Y-126198333D01*
X120380285Y-126436428D01*
X120427904Y-126626904D01*
X120475523Y-126722142D01*
X120523142Y-126769761D01*
X120618380Y-126817380D01*
X120713619Y-126817380D01*
X120808857Y-126769761D01*
X120856476Y-126722142D01*
X120904095Y-126626904D01*
X120951714Y-126436428D01*
X120951714Y-126198333D01*
X120904095Y-126007857D01*
X120856476Y-125912619D01*
X120808857Y-125865000D01*
X120713619Y-125817380D01*
X135953428Y-128182619D02*
X136048666Y-128135000D01*
X136143904Y-128039761D01*
X136286761Y-127896904D01*
X136382000Y-127849285D01*
X136477238Y-127849285D01*
X136429619Y-128087380D02*
X136524857Y-128039761D01*
X136620095Y-127944523D01*
X136667714Y-127754047D01*
X136667714Y-127420714D01*
X136620095Y-127230238D01*
X136524857Y-127135000D01*
X136429619Y-127087380D01*
X136239142Y-127087380D01*
X136143904Y-127135000D01*
X136048666Y-127230238D01*
X136001047Y-127420714D01*
X136001047Y-127754047D01*
X136048666Y-127944523D01*
X136143904Y-128039761D01*
X136239142Y-128087380D01*
X136429619Y-128087380D01*
X135048666Y-128087380D02*
X135620095Y-128087380D01*
X135334380Y-128087380D02*
X135334380Y-127087380D01*
X135429619Y-127230238D01*
X135524857Y-127325476D01*
X135620095Y-127373095D01*
X134096285Y-128087380D02*
X134667714Y-128087380D01*
X134382000Y-128087380D02*
X134382000Y-127087380D01*
X134477238Y-127230238D01*
X134572476Y-127325476D01*
X134667714Y-127373095D01*
X135580380Y-129151142D02*
X135104190Y-128817809D01*
X135580380Y-128579714D02*
X134580380Y-128579714D01*
X134580380Y-128960666D01*
X134628000Y-129055904D01*
X134675619Y-129103523D01*
X134770857Y-129151142D01*
X134913714Y-129151142D01*
X135008952Y-129103523D01*
X135056571Y-129055904D01*
X135104190Y-128960666D01*
X135104190Y-128579714D01*
X134580380Y-130055904D02*
X134580380Y-129579714D01*
X135056571Y-129532095D01*
X135008952Y-129579714D01*
X134961333Y-129674952D01*
X134961333Y-129913047D01*
X135008952Y-130008285D01*
X135056571Y-130055904D01*
X135151809Y-130103523D01*
X135389904Y-130103523D01*
X135485142Y-130055904D01*
X135532761Y-130008285D01*
X135580380Y-129913047D01*
X135580380Y-129674952D01*
X135532761Y-129579714D01*
X135485142Y-129532095D01*
X135580380Y-131055904D02*
X135580380Y-130484476D01*
X135580380Y-130770190D02*
X134580380Y-130770190D01*
X134723238Y-130674952D01*
X134818476Y-130579714D01*
X134866095Y-130484476D01*
X97670857Y-112974380D02*
X98004190Y-112498190D01*
X98242285Y-112974380D02*
X98242285Y-111974380D01*
X97861333Y-111974380D01*
X97766095Y-112022000D01*
X97718476Y-112069619D01*
X97670857Y-112164857D01*
X97670857Y-112307714D01*
X97718476Y-112402952D01*
X97766095Y-112450571D01*
X97861333Y-112498190D01*
X98242285Y-112498190D01*
X96813714Y-112307714D02*
X96813714Y-112974380D01*
X97051809Y-111926761D02*
X97289904Y-112641047D01*
X96670857Y-112641047D01*
X96242285Y-112974380D02*
X96051809Y-112974380D01*
X95956571Y-112926761D01*
X95908952Y-112879142D01*
X95813714Y-112736285D01*
X95766095Y-112545809D01*
X95766095Y-112164857D01*
X95813714Y-112069619D01*
X95861333Y-112022000D01*
X95956571Y-111974380D01*
X96147047Y-111974380D01*
X96242285Y-112022000D01*
X96289904Y-112069619D01*
X96337523Y-112164857D01*
X96337523Y-112402952D01*
X96289904Y-112498190D01*
X96242285Y-112545809D01*
X96147047Y-112593428D01*
X95956571Y-112593428D01*
X95861333Y-112545809D01*
X95813714Y-112498190D01*
X95766095Y-112402952D01*
X128666714Y-128230380D02*
X128095285Y-128230380D01*
X128381000Y-129230380D02*
X128381000Y-128230380D01*
X127761952Y-129230380D02*
X127761952Y-128230380D01*
X127761952Y-128706571D02*
X127190523Y-128706571D01*
X127190523Y-129230380D02*
X127190523Y-128230380D01*
X126761952Y-128325619D02*
X126714333Y-128278000D01*
X126619095Y-128230380D01*
X126381000Y-128230380D01*
X126285761Y-128278000D01*
X126238142Y-128325619D01*
X126190523Y-128420857D01*
X126190523Y-128516095D01*
X126238142Y-128658952D01*
X126809571Y-129230380D01*
X126190523Y-129230380D01*
X96988380Y-108442285D02*
X96988380Y-109013714D01*
X97988380Y-108728000D02*
X96988380Y-108728000D01*
X97988380Y-109347047D02*
X96988380Y-109347047D01*
X97464571Y-109347047D02*
X97464571Y-109918476D01*
X97988380Y-109918476D02*
X96988380Y-109918476D01*
X97988380Y-110918476D02*
X97988380Y-110347047D01*
X97988380Y-110632761D02*
X96988380Y-110632761D01*
X97131238Y-110537523D01*
X97226476Y-110442285D01*
X97274095Y-110347047D01*
X128746238Y-102020619D02*
X128841476Y-101973000D01*
X128936714Y-101877761D01*
X129079571Y-101734904D01*
X129174809Y-101687285D01*
X129270047Y-101687285D01*
X129222428Y-101925380D02*
X129317666Y-101877761D01*
X129412904Y-101782523D01*
X129460523Y-101592047D01*
X129460523Y-101258714D01*
X129412904Y-101068238D01*
X129317666Y-100973000D01*
X129222428Y-100925380D01*
X129031952Y-100925380D01*
X128936714Y-100973000D01*
X128841476Y-101068238D01*
X128793857Y-101258714D01*
X128793857Y-101592047D01*
X128841476Y-101782523D01*
X128936714Y-101877761D01*
X129031952Y-101925380D01*
X129222428Y-101925380D01*
X128460523Y-100925380D02*
X127793857Y-100925380D01*
X128222428Y-101925380D01*
X96718380Y-109085142D02*
X96242190Y-108751809D01*
X96718380Y-108513714D02*
X95718380Y-108513714D01*
X95718380Y-108894666D01*
X95766000Y-108989904D01*
X95813619Y-109037523D01*
X95908857Y-109085142D01*
X96051714Y-109085142D01*
X96146952Y-109037523D01*
X96194571Y-108989904D01*
X96242190Y-108894666D01*
X96242190Y-108513714D01*
X95718380Y-109989904D02*
X95718380Y-109513714D01*
X96194571Y-109466095D01*
X96146952Y-109513714D01*
X96099333Y-109608952D01*
X96099333Y-109847047D01*
X96146952Y-109942285D01*
X96194571Y-109989904D01*
X96289809Y-110037523D01*
X96527904Y-110037523D01*
X96623142Y-109989904D01*
X96670761Y-109942285D01*
X96718380Y-109847047D01*
X96718380Y-109608952D01*
X96670761Y-109513714D01*
X96623142Y-109466095D01*
X95718380Y-110656571D02*
X95718380Y-110751809D01*
X95766000Y-110847047D01*
X95813619Y-110894666D01*
X95908857Y-110942285D01*
X96099333Y-110989904D01*
X96337428Y-110989904D01*
X96527904Y-110942285D01*
X96623142Y-110894666D01*
X96670761Y-110847047D01*
X96718380Y-110751809D01*
X96718380Y-110656571D01*
X96670761Y-110561333D01*
X96623142Y-110513714D01*
X96527904Y-110466095D01*
X96337428Y-110418476D01*
X96099333Y-110418476D01*
X95908857Y-110466095D01*
X95813619Y-110513714D01*
X95766000Y-110561333D01*
X95718380Y-110656571D01*
X128150857Y-131262380D02*
X128484190Y-130786190D01*
X128722285Y-131262380D02*
X128722285Y-130262380D01*
X128341333Y-130262380D01*
X128246095Y-130310000D01*
X128198476Y-130357619D01*
X128150857Y-130452857D01*
X128150857Y-130595714D01*
X128198476Y-130690952D01*
X128246095Y-130738571D01*
X128341333Y-130786190D01*
X128722285Y-130786190D01*
X127246095Y-130262380D02*
X127722285Y-130262380D01*
X127769904Y-130738571D01*
X127722285Y-130690952D01*
X127627047Y-130643333D01*
X127388952Y-130643333D01*
X127293714Y-130690952D01*
X127246095Y-130738571D01*
X127198476Y-130833809D01*
X127198476Y-131071904D01*
X127246095Y-131167142D01*
X127293714Y-131214761D01*
X127388952Y-131262380D01*
X127627047Y-131262380D01*
X127722285Y-131214761D01*
X127769904Y-131167142D01*
X126817523Y-130357619D02*
X126769904Y-130310000D01*
X126674666Y-130262380D01*
X126436571Y-130262380D01*
X126341333Y-130310000D01*
X126293714Y-130357619D01*
X126246095Y-130452857D01*
X126246095Y-130548095D01*
X126293714Y-130690952D01*
X126865142Y-131262380D01*
X126246095Y-131262380D01*
X142057285Y-127960380D02*
X142057285Y-126960380D01*
X141819190Y-126960380D01*
X141676333Y-127008000D01*
X141581095Y-127103238D01*
X141533476Y-127198476D01*
X141485857Y-127388952D01*
X141485857Y-127531809D01*
X141533476Y-127722285D01*
X141581095Y-127817523D01*
X141676333Y-127912761D01*
X141819190Y-127960380D01*
X142057285Y-127960380D01*
X140533476Y-127960380D02*
X141104904Y-127960380D01*
X140819190Y-127960380D02*
X140819190Y-126960380D01*
X140914428Y-127103238D01*
X141009666Y-127198476D01*
X141104904Y-127246095D01*
X139628714Y-126960380D02*
X140104904Y-126960380D01*
X140152523Y-127436571D01*
X140104904Y-127388952D01*
X140009666Y-127341333D01*
X139771571Y-127341333D01*
X139676333Y-127388952D01*
X139628714Y-127436571D01*
X139581095Y-127531809D01*
X139581095Y-127769904D01*
X139628714Y-127865142D01*
X139676333Y-127912761D01*
X139771571Y-127960380D01*
X140009666Y-127960380D01*
X140104904Y-127912761D01*
X140152523Y-127865142D01*
X146502285Y-127960380D02*
X146502285Y-126960380D01*
X146264190Y-126960380D01*
X146121333Y-127008000D01*
X146026095Y-127103238D01*
X145978476Y-127198476D01*
X145930857Y-127388952D01*
X145930857Y-127531809D01*
X145978476Y-127722285D01*
X146026095Y-127817523D01*
X146121333Y-127912761D01*
X146264190Y-127960380D01*
X146502285Y-127960380D01*
X144978476Y-127960380D02*
X145549904Y-127960380D01*
X145264190Y-127960380D02*
X145264190Y-126960380D01*
X145359428Y-127103238D01*
X145454666Y-127198476D01*
X145549904Y-127246095D01*
X144121333Y-126960380D02*
X144311809Y-126960380D01*
X144407047Y-127008000D01*
X144454666Y-127055619D01*
X144549904Y-127198476D01*
X144597523Y-127388952D01*
X144597523Y-127769904D01*
X144549904Y-127865142D01*
X144502285Y-127912761D01*
X144407047Y-127960380D01*
X144216571Y-127960380D01*
X144121333Y-127912761D01*
X144073714Y-127865142D01*
X144026095Y-127769904D01*
X144026095Y-127531809D01*
X144073714Y-127436571D01*
X144121333Y-127388952D01*
X144216571Y-127341333D01*
X144407047Y-127341333D01*
X144502285Y-127388952D01*
X144549904Y-127436571D01*
X144597523Y-127531809D01*
X155392285Y-127960380D02*
X155392285Y-126960380D01*
X155154190Y-126960380D01*
X155011333Y-127008000D01*
X154916095Y-127103238D01*
X154868476Y-127198476D01*
X154820857Y-127388952D01*
X154820857Y-127531809D01*
X154868476Y-127722285D01*
X154916095Y-127817523D01*
X155011333Y-127912761D01*
X155154190Y-127960380D01*
X155392285Y-127960380D01*
X153868476Y-127960380D02*
X154439904Y-127960380D01*
X154154190Y-127960380D02*
X154154190Y-126960380D01*
X154249428Y-127103238D01*
X154344666Y-127198476D01*
X154439904Y-127246095D01*
X153011333Y-127293714D02*
X153011333Y-127960380D01*
X153249428Y-126912761D02*
X153487523Y-127627047D01*
X152868476Y-127627047D01*
X159837285Y-127960380D02*
X159837285Y-126960380D01*
X159599190Y-126960380D01*
X159456333Y-127008000D01*
X159361095Y-127103238D01*
X159313476Y-127198476D01*
X159265857Y-127388952D01*
X159265857Y-127531809D01*
X159313476Y-127722285D01*
X159361095Y-127817523D01*
X159456333Y-127912761D01*
X159599190Y-127960380D01*
X159837285Y-127960380D01*
X158313476Y-127960380D02*
X158884904Y-127960380D01*
X158599190Y-127960380D02*
X158599190Y-126960380D01*
X158694428Y-127103238D01*
X158789666Y-127198476D01*
X158884904Y-127246095D01*
X157980142Y-126960380D02*
X157313476Y-126960380D01*
X157742047Y-127960380D01*
X150947285Y-127960380D02*
X150947285Y-126960380D01*
X150709190Y-126960380D01*
X150566333Y-127008000D01*
X150471095Y-127103238D01*
X150423476Y-127198476D01*
X150375857Y-127388952D01*
X150375857Y-127531809D01*
X150423476Y-127722285D01*
X150471095Y-127817523D01*
X150566333Y-127912761D01*
X150709190Y-127960380D01*
X150947285Y-127960380D01*
X149423476Y-127960380D02*
X149994904Y-127960380D01*
X149709190Y-127960380D02*
X149709190Y-126960380D01*
X149804428Y-127103238D01*
X149899666Y-127198476D01*
X149994904Y-127246095D01*
X148852047Y-127388952D02*
X148947285Y-127341333D01*
X148994904Y-127293714D01*
X149042523Y-127198476D01*
X149042523Y-127150857D01*
X148994904Y-127055619D01*
X148947285Y-127008000D01*
X148852047Y-126960380D01*
X148661571Y-126960380D01*
X148566333Y-127008000D01*
X148518714Y-127055619D01*
X148471095Y-127150857D01*
X148471095Y-127198476D01*
X148518714Y-127293714D01*
X148566333Y-127341333D01*
X148661571Y-127388952D01*
X148852047Y-127388952D01*
X148947285Y-127436571D01*
X148994904Y-127484190D01*
X149042523Y-127579428D01*
X149042523Y-127769904D01*
X148994904Y-127865142D01*
X148947285Y-127912761D01*
X148852047Y-127960380D01*
X148661571Y-127960380D01*
X148566333Y-127912761D01*
X148518714Y-127865142D01*
X148471095Y-127769904D01*
X148471095Y-127579428D01*
X148518714Y-127484190D01*
X148566333Y-127436571D01*
X148661571Y-127388952D01*
D12*
X105135000Y-118942000D02*
X105405000Y-118942000D01*
X105405000Y-118942000D02*
X105405000Y-116112000D01*
X111765000Y-118942000D02*
X111765000Y-117842000D01*
X112035000Y-120442000D02*
X112035000Y-118942000D01*
X112035000Y-118942000D02*
X111765000Y-118942000D01*
X105135000Y-120442000D02*
X105135000Y-118942000D01*
X104924000Y-120442000D02*
X104924000Y-118942000D01*
X98024000Y-118942000D02*
X98294000Y-118942000D01*
X104654000Y-118942000D02*
X104654000Y-117842000D01*
X98294000Y-118942000D02*
X98294000Y-116112000D01*
X104924000Y-118942000D02*
X104654000Y-118942000D01*
X98024000Y-120442000D02*
X98024000Y-118942000D01*
X118360000Y-105769000D02*
X118360000Y-102939000D01*
X118090000Y-107269000D02*
X118090000Y-105769000D01*
X124990000Y-107269000D02*
X124990000Y-105769000D01*
X118090000Y-105769000D02*
X118360000Y-105769000D01*
X124720000Y-105769000D02*
X124720000Y-104669000D01*
X124990000Y-105769000D02*
X124720000Y-105769000D01*
X116592000Y-105769000D02*
X116592000Y-104669000D01*
X116862000Y-105769000D02*
X116592000Y-105769000D01*
X109962000Y-107269000D02*
X109962000Y-105769000D01*
X109962000Y-105769000D02*
X110232000Y-105769000D01*
X116862000Y-107269000D02*
X116862000Y-105769000D01*
X110232000Y-105769000D02*
X110232000Y-102939000D01*
X109750000Y-107269000D02*
X109750000Y-105769000D01*
X109750000Y-105769000D02*
X109480000Y-105769000D01*
X109480000Y-105769000D02*
X109480000Y-104669000D01*
X102850000Y-107269000D02*
X102850000Y-105769000D01*
X102850000Y-105769000D02*
X103120000Y-105769000D01*
X103120000Y-105769000D02*
X103120000Y-102939000D01*
X129814000Y-118977000D02*
X129544000Y-118977000D01*
X122914000Y-118977000D02*
X123184000Y-118977000D01*
X129814000Y-120477000D02*
X129814000Y-118977000D01*
X123184000Y-118977000D02*
X123184000Y-116147000D01*
X129544000Y-118977000D02*
X129544000Y-117877000D01*
X122914000Y-120477000D02*
X122914000Y-118977000D01*
X130028000Y-120477000D02*
X130028000Y-118977000D01*
X136658000Y-118977000D02*
X136658000Y-117877000D01*
X130028000Y-118977000D02*
X130298000Y-118977000D01*
X130298000Y-118977000D02*
X130298000Y-116147000D01*
X136928000Y-118977000D02*
X136658000Y-118977000D01*
X136928000Y-120477000D02*
X136928000Y-118977000D01*
X134085000Y-129566936D02*
X134085000Y-130021064D01*
X132615000Y-129566936D02*
X132615000Y-130021064D01*
X99975936Y-111787000D02*
X100430064Y-111787000D01*
X99975936Y-113257000D02*
X100430064Y-113257000D01*
X130328936Y-129513000D02*
X130783064Y-129513000D01*
X130328936Y-128043000D02*
X130783064Y-128043000D01*
X102081000Y-109500936D02*
X102081000Y-109955064D01*
X100611000Y-109500936D02*
X100611000Y-109955064D01*
X131832000Y-105769000D02*
X131832000Y-104669000D01*
X125202000Y-107269000D02*
X125202000Y-105769000D01*
X125202000Y-105769000D02*
X125472000Y-105769000D01*
X132102000Y-105769000D02*
X131832000Y-105769000D01*
X125472000Y-105769000D02*
X125472000Y-102939000D01*
X132102000Y-107269000D02*
X132102000Y-105769000D01*
X100049000Y-109500936D02*
X100049000Y-109955064D01*
X98579000Y-109500936D02*
X98579000Y-109955064D01*
X130328936Y-130075000D02*
X130783064Y-130075000D01*
X130328936Y-131545000D02*
X130783064Y-131545000D01*
X142493000Y-126590000D02*
X139193000Y-126590000D01*
X142493000Y-126590000D02*
X142493000Y-121190000D01*
X139193000Y-126590000D02*
X139193000Y-121190000D01*
X143638000Y-126590000D02*
X143638000Y-121190000D01*
X146938000Y-126590000D02*
X146938000Y-121190000D01*
X146938000Y-126590000D02*
X143638000Y-126590000D01*
X152528000Y-126590000D02*
X152528000Y-121190000D01*
X155828000Y-126590000D02*
X152528000Y-126590000D01*
X155828000Y-126590000D02*
X155828000Y-121190000D01*
X160273000Y-126590000D02*
X156973000Y-126590000D01*
X156973000Y-126590000D02*
X156973000Y-121190000D01*
X160273000Y-126590000D02*
X160273000Y-121190000D01*
X148083000Y-126590000D02*
X148083000Y-121190000D01*
X151383000Y-126590000D02*
X151383000Y-121190000D01*
X151383000Y-126590000D02*
X148083000Y-126590000D01*
%LPC*%
D13*
X88646000Y-130715500D03*
D14*
X93646000Y-130715500D03*
D13*
X109728000Y-130683000D03*
D14*
X114728000Y-130683000D03*
X119728000Y-130683000D03*
X124728000Y-130683000D03*
D13*
X137160000Y-130715500D03*
D14*
X142160000Y-130715500D03*
X147160000Y-130715500D03*
X152160000Y-130715500D03*
X157160000Y-130715500D03*
X162160000Y-130715500D03*
D15*
X176825000Y-134815000D03*
X172425000Y-134815000D03*
D16*
X180848000Y-127762000D03*
X143383000Y-95250000D03*
X88392000Y-68580000D03*
X180340000Y-68326000D03*
X101600000Y-135890000D03*
D17*
X130937000Y-135890000D03*
D18*
X164973000Y-73025000D03*
D19*
X164973000Y-70485000D03*
X167513000Y-73025000D03*
X167513000Y-70485000D03*
X170053000Y-73025000D03*
X170053000Y-70485000D03*
D20*
X106305000Y-117212000D03*
D21*
X108585000Y-123512000D03*
D20*
X110865000Y-117212000D03*
X99194000Y-117212000D03*
D21*
X101474000Y-123512000D03*
D20*
X103754000Y-117212000D03*
X119260000Y-104039000D03*
D21*
X121540000Y-110339000D03*
D20*
X123820000Y-104039000D03*
X111132000Y-104039000D03*
D21*
X113412000Y-110339000D03*
D20*
X115692000Y-104039000D03*
X104020000Y-104039000D03*
D21*
X106300000Y-110339000D03*
D20*
X108580000Y-104039000D03*
X124084000Y-117247000D03*
D21*
X126364000Y-123547000D03*
D20*
X128644000Y-117247000D03*
X131198000Y-117247000D03*
D21*
X133478000Y-123547000D03*
D20*
X135758000Y-117247000D03*
D22*
X133350000Y-128881500D03*
X133350000Y-130706500D03*
D23*
X99290500Y-112522000D03*
X101115500Y-112522000D03*
X129643500Y-128778000D03*
X131468500Y-128778000D03*
D22*
X101346000Y-108815500D03*
X101346000Y-110640500D03*
D20*
X126372000Y-104039000D03*
D21*
X128652000Y-110339000D03*
D20*
X130932000Y-104039000D03*
D22*
X99314000Y-108815500D03*
X99314000Y-110640500D03*
D23*
X129643500Y-130810000D03*
X131468500Y-130810000D03*
D24*
X140843000Y-125190000D03*
X140843000Y-121190000D03*
X145288000Y-125190000D03*
X145288000Y-121190000D03*
X154178000Y-125190000D03*
X154178000Y-121190000D03*
X158623000Y-125190000D03*
X158623000Y-121190000D03*
X149733000Y-125190000D03*
X149733000Y-121190000D03*
D25*
X104902000Y-78232000D03*
X117856000Y-98933000D03*
X141224000Y-111252000D03*
X120142000Y-98933000D03*
X154686000Y-113919000D03*
X159766000Y-113919000D03*
X120142000Y-98044000D03*
X117856000Y-99822000D03*
X96520000Y-76708000D03*
X103886000Y-86106000D03*
X118999000Y-99822000D03*
X98425000Y-76708000D03*
X120142000Y-99822000D03*
X118999000Y-98933000D03*
X117856000Y-98044000D03*
X86360000Y-131064000D03*
X92456000Y-75057000D03*
X106045000Y-86106000D03*
X118999000Y-98044000D03*
X151384000Y-113919000D03*
X146304000Y-113919000D03*
X183642000Y-80137000D03*
X89154000Y-139827000D03*
X94234000Y-139827000D03*
X99314000Y-139827000D03*
X104394000Y-139827000D03*
X109474000Y-139827000D03*
X114554000Y-139827000D03*
X119634000Y-139827000D03*
X124714000Y-139827000D03*
X129794000Y-139827000D03*
X134874000Y-139827000D03*
X139954000Y-139827000D03*
X145034000Y-139827000D03*
X150114000Y-139827000D03*
X155194000Y-139827000D03*
X160274000Y-139827000D03*
X96774000Y-66040000D03*
X101854000Y-66040000D03*
X106934000Y-66040000D03*
X112014000Y-66040000D03*
X117094000Y-66040000D03*
X122174000Y-66040000D03*
X127254000Y-66040000D03*
X132334000Y-66040000D03*
X137414000Y-66040000D03*
X142494000Y-66040000D03*
X147574000Y-66040000D03*
X152654000Y-66040000D03*
X157734000Y-66040000D03*
X162814000Y-66040000D03*
X167894000Y-66040000D03*
X172974000Y-66040000D03*
X178054000Y-66040000D03*
X183642000Y-85137000D03*
X183642000Y-90137000D03*
X183642000Y-95137000D03*
X183642000Y-100137000D03*
X183642000Y-105137000D03*
X85598000Y-79375000D03*
X85598000Y-83820000D03*
X85598000Y-74295000D03*
X91821000Y-66040000D03*
X121793000Y-92710000D03*
X160782000Y-78740000D03*
X150368000Y-100838000D03*
X137795000Y-91440000D03*
X117475000Y-83820000D03*
X138684000Y-73406000D03*
X147828000Y-93599000D03*
X86360000Y-132842000D03*
X86868000Y-92456000D03*
X87757000Y-133731000D03*
X100838000Y-106807000D03*
X110998000Y-69596000D03*
X102235000Y-88773000D03*
X97409000Y-77343000D03*
X166878000Y-89916000D03*
X163068000Y-82804000D03*
X91186000Y-92456000D03*
X89154000Y-91440000D03*
X152654000Y-106934000D03*
X96520000Y-87249000D03*
X117856000Y-92583000D03*
X134366000Y-79502000D03*
X174244000Y-88138000D03*
X144780000Y-76962000D03*
X175260000Y-94742000D03*
X86360000Y-134493000D03*
X137795000Y-92964000D03*
X107696000Y-72517000D03*
X115062000Y-78867000D03*
X127254000Y-79375000D03*
X116586000Y-92964000D03*
X122682000Y-86741000D03*
X98425000Y-77978000D03*
X111823500Y-82550000D03*
X162941000Y-91186000D03*
X163576000Y-77724000D03*
X120904000Y-78867000D03*
X138811000Y-92202000D03*
X113792000Y-70866000D03*
X123888500Y-114871500D03*
X164973000Y-105283000D03*
X113030000Y-69596000D03*
X126492000Y-70866000D03*
X162560000Y-101346000D03*
X92583000Y-92456000D03*
X87757000Y-135128000D03*
X120523000Y-86741000D03*
X92456000Y-73088500D03*
X152400000Y-93599000D03*
X150876000Y-76962000D03*
X139954000Y-78994000D03*
X88392000Y-92456000D03*
X106362500Y-115062000D03*
X90424000Y-91440000D03*
X133096000Y-76962000D03*
X89789000Y-92456000D03*
X89535000Y-135128000D03*
X126369299Y-91317299D03*
X86360000Y-129413000D03*
X125490286Y-92585424D03*
X164973000Y-113411000D03*
X135445500Y-86106000D03*
X132588000Y-73152000D03*
X96520000Y-77978000D03*
X120523000Y-88900000D03*
X91948000Y-91440000D03*
X131572000Y-79502000D03*
X139319006Y-104140000D03*
X112141000Y-70866000D03*
X175006000Y-85344000D03*
X156972000Y-77470000D03*
X165036500Y-124841000D03*
X180340000Y-103886000D03*
X120396000Y-70866000D03*
X118872000Y-92964000D03*
X122809000Y-93091000D03*
X87630000Y-91440000D03*
X169418000Y-77724000D03*
X138176000Y-76962000D03*
X104775000Y-88773000D03*
X89535000Y-133731000D03*
X144272000Y-87947500D03*
X153289000Y-86233000D03*
X168402000Y-101346000D03*
X103505000Y-87884000D03*
X150114000Y-71628000D03*
X176784000Y-79756000D03*
X138684000Y-109982000D03*
X133223000Y-95250000D03*
X122682000Y-88900000D03*
X142113000Y-105283000D03*
X172212000Y-103886000D03*
X121539000Y-87877000D03*
X132715000Y-92329000D03*
X172974000Y-83820000D03*
X132334000Y-105156000D03*
X107442000Y-103124000D03*
X105664000Y-105156000D03*
X107442000Y-104140000D03*
X133223000Y-116332000D03*
X106553000Y-103632000D03*
X107442000Y-105156000D03*
X134112000Y-105156000D03*
X133223000Y-118364000D03*
X134493000Y-115316000D03*
X134493000Y-116332000D03*
X134112000Y-103124000D03*
X135763000Y-115316000D03*
X134112000Y-104140000D03*
X133223000Y-104648000D03*
X133223000Y-103632000D03*
X86868000Y-106553000D03*
X133223000Y-117348000D03*
X132334000Y-104140000D03*
X132334000Y-103124000D03*
X134493000Y-117348000D03*
X134493000Y-118364000D03*
X133223000Y-115316000D03*
X106553000Y-104648000D03*
X105664000Y-104140000D03*
X105664000Y-103124000D03*
X88646000Y-106553000D03*
X92075000Y-106553000D03*
X86868000Y-108180000D03*
X88646000Y-108180000D03*
X86868000Y-109855000D03*
X88646000Y-109855000D03*
X86868000Y-111633000D03*
X92075000Y-111633000D03*
X86868000Y-113895000D03*
X92075000Y-113895000D03*
X101346000Y-117094000D03*
X102489000Y-115062000D03*
X124968000Y-79121000D03*
X102489000Y-118110000D03*
X99060000Y-88138000D03*
X102489000Y-116078000D03*
X90424000Y-106553000D03*
X96748600Y-98552000D03*
X103632000Y-115062000D03*
X101346000Y-118110000D03*
X90424000Y-108204000D03*
X92075000Y-108204000D03*
X102489000Y-117094000D03*
X90424000Y-109855000D03*
X92075000Y-109855000D03*
X101346000Y-116078000D03*
X101346000Y-115062000D03*
X91059000Y-81534000D03*
X108204000Y-78359000D03*
X106680000Y-78359000D03*
X153923990Y-91567000D03*
X106680000Y-74676000D03*
X143636998Y-105283000D03*
X155448000Y-76454000D03*
X143510000Y-76454000D03*
X106680000Y-75882500D03*
X178562000Y-78740000D03*
X152908000Y-95631000D03*
X119126000Y-82931000D03*
X146982577Y-79902923D03*
X133985000Y-86232998D03*
X131572000Y-76454000D03*
X177165000Y-94742000D03*
X129540000Y-132207000D03*
X150241000Y-106933996D03*
X106680000Y-77089000D03*
X117856000Y-77724000D03*
X168910000Y-98552000D03*
X137668000Y-79756000D03*
X175260000Y-78740000D03*
X135763000Y-88519000D03*
X138684000Y-111633000D03*
X106902989Y-92734851D03*
X147828000Y-91948000D03*
X181610000Y-132588000D03*
X168783000Y-107823000D03*
X176276000Y-116332000D03*
X167640000Y-132588000D03*
X182880000Y-109220000D03*
X172339000Y-139827000D03*
X176784000Y-139827000D03*
X181610000Y-139827000D03*
X167640000Y-139827000D03*
X168402000Y-126873000D03*
X177292000Y-130175000D03*
X182880000Y-123063000D03*
X166878000Y-122555000D03*
X180467000Y-117475000D03*
X173990000Y-118745000D03*
X157734000Y-97536010D03*
X159131000Y-82931000D03*
X128651000Y-120904000D03*
X128651000Y-125984000D03*
X133477000Y-121920000D03*
X131191000Y-120904000D03*
X128651000Y-123317000D03*
X131191000Y-125984000D03*
X126365000Y-124841000D03*
X124079000Y-125984000D03*
X124079001Y-123317001D03*
X135763000Y-120904000D03*
X131191000Y-123317000D03*
X126365000Y-121920000D03*
X124079000Y-120904000D03*
X135763000Y-125984000D03*
X133477000Y-124841000D03*
X135763000Y-123317000D03*
X133350000Y-88836500D03*
X122745500Y-108839000D03*
X122745500Y-111506000D03*
X131000500Y-109855000D03*
X131000500Y-111125000D03*
X121729500Y-107632500D03*
X123888500Y-107632500D03*
X130111500Y-110490000D03*
X123825000Y-110045500D03*
X123825000Y-112839500D03*
X121729500Y-112839500D03*
X131000500Y-108458000D03*
X131699000Y-89576721D03*
X130048000Y-107759500D03*
X130111500Y-109220000D03*
X130937000Y-112395000D03*
X130111500Y-111760000D03*
X121729500Y-110045500D03*
X106235500Y-112776000D03*
X112966500Y-111442500D03*
X106299000Y-107696000D03*
X111379000Y-110236000D03*
X114490500Y-112839500D03*
X106235500Y-110236000D03*
X112966500Y-108902500D03*
X111379000Y-107886500D03*
X111315500Y-112776000D03*
X104267000Y-112776000D03*
X104267000Y-110236000D03*
X105283000Y-108966000D03*
X112644701Y-86482701D03*
X114490500Y-110172500D03*
X105283000Y-111506000D03*
X114490500Y-107886500D03*
X104267000Y-107696000D03*
X110871000Y-125984000D03*
X103759000Y-125984000D03*
X106299000Y-125984000D03*
X106299000Y-123317000D03*
X106299000Y-120904000D03*
X101473000Y-124841000D03*
X108585000Y-124841000D03*
X103759000Y-123317000D03*
X99187000Y-123317000D03*
X99187000Y-120904000D03*
X99187000Y-125984000D03*
X110871000Y-120904000D03*
X110871000Y-123317000D03*
X108585000Y-121920000D03*
X101473000Y-121920000D03*
X103632000Y-120904000D03*
X117368013Y-87883466D03*
X171196000Y-87884000D03*
X118999000Y-91567000D03*
X120957137Y-91843715D03*
X170815000Y-91948000D03*
X170942000Y-88900000D03*
X119888000Y-92116579D03*
X115062000Y-87884000D03*
X115059265Y-85445032D03*
X115482328Y-88791385D03*
X180344299Y-84831701D03*
X180467000Y-93472000D03*
X156854006Y-95640000D03*
X156845000Y-82677000D03*
X122513500Y-84241112D03*
X156845000Y-100838000D03*
X176149000Y-84201000D03*
X176276000Y-96266000D03*
X157226000Y-102108000D03*
X157226000Y-105409988D03*
X150368004Y-98298000D03*
X158496000Y-86995000D03*
X148971004Y-100838000D03*
X152273006Y-86995000D03*
X164973000Y-88011000D03*
X122409276Y-91877182D03*
X129984500Y-88900000D03*
X132080000Y-87185500D03*
X115662737Y-86244459D03*
X174752000Y-80264000D03*
X149860000Y-76454000D03*
X87630000Y-118745000D03*
X90678000Y-118745000D03*
X93472000Y-118745000D03*
X96012000Y-118745000D03*
X87630000Y-121317000D03*
X90678000Y-121253000D03*
X93472000Y-121253000D03*
X96012000Y-121253000D03*
X87630000Y-123603000D03*
X90678000Y-123507000D03*
X93472000Y-123507000D03*
X96012000Y-123603000D03*
X87630000Y-125889000D03*
X90678000Y-125889000D03*
X93472000Y-125761000D03*
X96012000Y-125761000D03*
X95948500Y-132842000D03*
X91440000Y-131064000D03*
X91440000Y-129413000D03*
X95961200Y-129413000D03*
X95948500Y-131064000D03*
X91439995Y-132842005D03*
X131953000Y-132334000D03*
X176403000Y-91948000D03*
X98806000Y-113919000D03*
X175641000Y-88265000D03*
X117634339Y-81693339D03*
X96266000Y-113919000D03*
X171831008Y-127000000D03*
X170434000Y-118110000D03*
X157734000Y-99314000D03*
X149225008Y-103378000D03*
X144272000Y-72898000D03*
X164020500Y-86169500D03*
X164338000Y-90170000D03*
X145161000Y-90106488D03*
X180340000Y-87376000D03*
X96012000Y-91948000D03*
X173990000Y-121539000D03*
X168656000Y-116332000D03*
X146558000Y-82550000D03*
X120563990Y-84162607D03*
X153543000Y-82691946D03*
X144095050Y-81352935D03*
X119564855Y-84204493D03*
X145292299Y-79760299D03*
X142240000Y-89408000D03*
X123402500Y-91989033D03*
X114808000Y-91821000D03*
X116967000Y-91567000D03*
X108458000Y-115062000D03*
X113157000Y-104140000D03*
X116967000Y-104140000D03*
X116967000Y-105156000D03*
X108458000Y-116078000D03*
X109601000Y-118110000D03*
X109601000Y-117094000D03*
X113157000Y-103124000D03*
X108458000Y-118110000D03*
X114300000Y-103124000D03*
X109601000Y-116078000D03*
X114300000Y-104140000D03*
X113157000Y-105156000D03*
X108458000Y-117094000D03*
X116967000Y-103124000D03*
X110871000Y-115062000D03*
X114300000Y-105156000D03*
X109601000Y-115062000D03*
X127254000Y-117983000D03*
X125984000Y-114935000D03*
X125984000Y-117983000D03*
X125984000Y-116967000D03*
X122555000Y-105283000D03*
X123571000Y-105791000D03*
X121539000Y-105283000D03*
X125984000Y-115951000D03*
X127254000Y-115951000D03*
X121539000Y-103251000D03*
X122555000Y-103251000D03*
X121539000Y-104267000D03*
X124587000Y-105791000D03*
X127254000Y-114935000D03*
X127254000Y-116967000D03*
X122555000Y-104267000D03*
X128524000Y-114935000D03*
X173609000Y-116332000D03*
X179826026Y-121174006D03*
X167005000Y-98425000D03*
X131572000Y-70866000D03*
X156464000Y-70866000D03*
X166878000Y-94615000D03*
X179684150Y-120184110D03*
X179705000Y-115697000D03*
X132016500Y-90614500D03*
X132842000Y-87884000D03*
X155448000Y-93472000D03*
X155448008Y-103378000D03*
X125730000Y-76454000D03*
X155448000Y-80010000D03*
X116047009Y-89616708D03*
X110591032Y-95504000D03*
X127635003Y-95631003D03*
X127635000Y-90297000D03*
X164592000Y-91948000D03*
X179451000Y-83312000D03*
X179705000Y-122174000D03*
X181355996Y-116332000D03*
X126492000Y-85725000D03*
X168910000Y-80010000D03*
X128778000Y-79375000D03*
X124504561Y-92075000D03*
G36*
X99129121Y-75712002D02*
G01*
X99175614Y-75765658D01*
X99187000Y-75818000D01*
X99187000Y-78868000D01*
X99166998Y-78936121D01*
X99113342Y-78982614D01*
X99061000Y-78994000D01*
X96011000Y-78994000D01*
X95942879Y-78973998D01*
X95896386Y-78920342D01*
X95885000Y-78868000D01*
X95885000Y-75818000D01*
X95905002Y-75749879D01*
X95958658Y-75703386D01*
X96011000Y-75692000D01*
X99061000Y-75692000D01*
X99129121Y-75712002D01*
G37*
G36*
X123259121Y-86126002D02*
G01*
X123305614Y-86179658D01*
X123317000Y-86232000D01*
X123317000Y-89536000D01*
X123296998Y-89604121D01*
X123243342Y-89650614D01*
X123191000Y-89662000D01*
X119887000Y-89662000D01*
X119818879Y-89641998D01*
X119772386Y-89588342D01*
X119761000Y-89536000D01*
X119761000Y-86232000D01*
X119781002Y-86163879D01*
X119834658Y-86117386D01*
X119887000Y-86106000D01*
X123191000Y-86106000D01*
X123259121Y-86126002D01*
G37*
M02*
