%TF.GenerationSoftware,KiCad,Pcbnew,(6.0.4)*%
%TF.CreationDate,2022-08-06T13:41:48+02:00*%
%TF.ProjectId,HPDriver,48504472-6976-4657-922e-6b696361645f,1.0*%
%TF.SameCoordinates,Original*%
%TF.FileFunction,Paste,Top*%
%TF.FilePolarity,Positive*%
%FSLAX46Y46*%
G04 Gerber Fmt 4.6, Leading zero omitted, Abs format (unit mm)*
G04 Created by KiCad (PCBNEW (6.0.4)) date 2022-08-06 13:41:48*
%MOMM*%
%LPD*%
G01*
G04 APERTURE LIST*
G04 Aperture macros list*
%AMRoundRect*
0 Rectangle with rounded corners*
0 $1 Rounding radius*
0 $2 $3 $4 $5 $6 $7 $8 $9 X,Y pos of 4 corners*
0 Add a 4 corners polygon primitive as box body*
4,1,4,$2,$3,$4,$5,$6,$7,$8,$9,$2,$3,0*
0 Add four circle primitives for the rounded corners*
1,1,$1+$1,$2,$3*
1,1,$1+$1,$4,$5*
1,1,$1+$1,$6,$7*
1,1,$1+$1,$8,$9*
0 Add four rect primitives between the rounded corners*
20,1,$1+$1,$2,$3,$4,$5,0*
20,1,$1+$1,$4,$5,$6,$7,0*
20,1,$1+$1,$6,$7,$8,$9,0*
20,1,$1+$1,$8,$9,$2,$3,0*%
G04 Aperture macros list end*
%ADD10RoundRect,0.250000X0.450000X-0.262500X0.450000X0.262500X-0.450000X0.262500X-0.450000X-0.262500X0*%
%ADD11RoundRect,0.250000X-0.450000X0.262500X-0.450000X-0.262500X0.450000X-0.262500X0.450000X0.262500X0*%
%ADD12RoundRect,0.249900X1.425100X-0.362600X1.425100X0.362600X-1.425100X0.362600X-1.425100X-0.362600X0*%
%ADD13RoundRect,0.250000X-0.262500X-0.450000X0.262500X-0.450000X0.262500X0.450000X-0.262500X0.450000X0*%
%ADD14R,0.800000X0.900000*%
%ADD15RoundRect,0.250000X0.262500X0.450000X-0.262500X0.450000X-0.262500X-0.450000X0.262500X-0.450000X0*%
%ADD16R,0.900000X0.800000*%
%ADD17RoundRect,0.250000X0.475000X-0.250000X0.475000X0.250000X-0.475000X0.250000X-0.475000X-0.250000X0*%
%ADD18RoundRect,0.250000X0.250000X0.475000X-0.250000X0.475000X-0.250000X-0.475000X0.250000X-0.475000X0*%
%ADD19RoundRect,0.243750X-0.456250X0.243750X-0.456250X-0.243750X0.456250X-0.243750X0.456250X0.243750X0*%
%ADD20R,0.500000X2.000000*%
%ADD21R,2.000000X1.700000*%
%ADD22RoundRect,0.250000X-0.475000X0.250000X-0.475000X-0.250000X0.475000X-0.250000X0.475000X0.250000X0*%
%ADD23RoundRect,0.250000X-0.250000X-0.475000X0.250000X-0.475000X0.250000X0.475000X-0.250000X0.475000X0*%
%ADD24RoundRect,0.249999X-0.450001X0.325001X-0.450001X-0.325001X0.450001X-0.325001X0.450001X0.325001X0*%
%ADD25R,2.300000X2.500000*%
%ADD26R,1.800000X1.540000*%
%ADD27R,0.450000X1.450000*%
%ADD28R,1.500000X2.200000*%
%ADD29R,0.800000X1.200000*%
%ADD30R,1.780000X2.000000*%
%ADD31R,1.500000X0.600000*%
%ADD32RoundRect,0.250000X1.000000X-1.750000X1.000000X1.750000X-1.000000X1.750000X-1.000000X-1.750000X0*%
%ADD33R,5.250000X4.550000*%
%ADD34R,1.100000X4.600000*%
%ADD35RoundRect,0.250000X0.325000X1.100000X-0.325000X1.100000X-0.325000X-1.100000X0.325000X-1.100000X0*%
%ADD36R,1.200000X0.400000*%
%ADD37RoundRect,0.250000X-0.325000X-1.100000X0.325000X-1.100000X0.325000X1.100000X-0.325000X1.100000X0*%
%ADD38RoundRect,0.243750X0.456250X-0.243750X0.456250X0.243750X-0.456250X0.243750X-0.456250X-0.243750X0*%
%ADD39R,2.500000X1.800000*%
%ADD40R,1.060000X0.650000*%
%ADD41RoundRect,0.250000X0.925000X-0.412500X0.925000X0.412500X-0.925000X0.412500X-0.925000X-0.412500X0*%
%ADD42RoundRect,0.232500X-0.232500X-0.232500X0.232500X-0.232500X0.232500X0.232500X-0.232500X0.232500X0*%
%ADD43RoundRect,0.062500X-0.375000X-0.062500X0.375000X-0.062500X0.375000X0.062500X-0.375000X0.062500X0*%
%ADD44RoundRect,0.062500X-0.062500X-0.375000X0.062500X-0.375000X0.062500X0.375000X-0.062500X0.375000X0*%
%ADD45R,1.450000X0.450000*%
%ADD46R,0.550000X1.600000*%
%ADD47R,1.600000X0.550000*%
%ADD48RoundRect,0.250100X-0.449900X0.262400X-0.449900X-0.262400X0.449900X-0.262400X0.449900X0.262400X0*%
%ADD49RoundRect,0.250000X1.500000X1.000000X-1.500000X1.000000X-1.500000X-1.000000X1.500000X-1.000000X0*%
%ADD50R,0.600000X0.450000*%
%ADD51RoundRect,0.218750X0.381250X-0.218750X0.381250X0.218750X-0.381250X0.218750X-0.381250X-0.218750X0*%
G04 APERTURE END LIST*
D10*
X123858000Y-76350500D03*
X123858000Y-74525500D03*
D11*
X173990000Y-126722500D03*
X173990000Y-128547500D03*
D12*
X122682000Y-101133500D03*
X122682000Y-95208500D03*
D13*
X94464500Y-108712000D03*
X96289500Y-108712000D03*
D10*
X127762000Y-99083500D03*
X127762000Y-97258500D03*
D14*
X180279000Y-99171000D03*
X182179000Y-99171000D03*
X181229000Y-97171000D03*
D10*
X94615000Y-81430500D03*
X94615000Y-79605500D03*
D15*
X95908500Y-72771000D03*
X94083500Y-72771000D03*
D12*
X115316000Y-101133500D03*
X115316000Y-95208500D03*
D10*
X94615000Y-77620500D03*
X94615000Y-75795500D03*
X110236000Y-99083500D03*
X110236000Y-97258500D03*
X161290000Y-95527500D03*
X161290000Y-93702500D03*
D13*
X106783500Y-80518000D03*
X108608500Y-80518000D03*
D11*
X175895000Y-126722500D03*
X175895000Y-128547500D03*
D10*
X117905000Y-76350500D03*
X117905000Y-74525500D03*
X153924000Y-76350500D03*
X153924000Y-74525500D03*
D16*
X163592000Y-97475000D03*
X163592000Y-99375000D03*
X165592000Y-98425000D03*
D17*
X181483000Y-121600000D03*
X181483000Y-119700000D03*
D18*
X173924000Y-78867000D03*
X172024000Y-78867000D03*
D17*
X136779000Y-113091000D03*
X136779000Y-111191000D03*
D19*
X117905000Y-70817500D03*
X117905000Y-72692500D03*
X153905000Y-70817500D03*
X153905000Y-72692500D03*
D20*
X173025000Y-132115000D03*
X173825000Y-132115000D03*
X174625000Y-132115000D03*
X175425000Y-132115000D03*
X176225000Y-132115000D03*
D21*
X179075000Y-137665000D03*
X170175000Y-132215000D03*
X179075000Y-132215000D03*
X170175000Y-137665000D03*
D16*
X163592000Y-93665000D03*
X163592000Y-95565000D03*
X165592000Y-94615000D03*
D19*
X129905000Y-70817500D03*
X129905000Y-72692500D03*
D22*
X155448000Y-97348000D03*
X155448000Y-99248000D03*
D19*
X123905000Y-70817500D03*
X123905000Y-72692500D03*
D17*
X125730000Y-99121000D03*
X125730000Y-97221000D03*
X112268000Y-99121000D03*
X112268000Y-97221000D03*
D22*
X125984000Y-81854000D03*
X125984000Y-83754000D03*
D17*
X92583000Y-81468000D03*
X92583000Y-79568000D03*
X109982000Y-92009000D03*
X109982000Y-90109000D03*
D18*
X102296000Y-103886000D03*
X100396000Y-103886000D03*
D23*
X176215000Y-124460000D03*
X178115000Y-124460000D03*
X135956000Y-104140000D03*
X137856000Y-104140000D03*
D22*
X170434000Y-119512000D03*
X170434000Y-121412000D03*
D18*
X171765000Y-128905000D03*
X169865000Y-128905000D03*
D17*
X133985000Y-84897000D03*
X133985000Y-82997000D03*
D23*
X101031000Y-80645000D03*
X102931000Y-80645000D03*
D18*
X174178000Y-124460000D03*
X172278000Y-124460000D03*
D24*
X168275000Y-119362000D03*
X168275000Y-121412000D03*
D25*
X111887000Y-77715000D03*
X111887000Y-73415000D03*
D26*
X131575000Y-85033000D03*
X131575000Y-82353000D03*
X128775000Y-82353000D03*
X128775000Y-85033000D03*
D27*
X98511000Y-75143000D03*
X97861000Y-75143000D03*
X97211000Y-75143000D03*
X96561000Y-75143000D03*
X96561000Y-79543000D03*
X97211000Y-79543000D03*
X97861000Y-79543000D03*
X98511000Y-79543000D03*
D28*
X101956000Y-75438000D03*
X108356000Y-75438000D03*
D29*
X138684000Y-119482000D03*
X141224000Y-119482000D03*
X141224000Y-113182000D03*
X139954000Y-113182000D03*
X138684000Y-113182000D03*
D25*
X89662000Y-100956000D03*
X89662000Y-96656000D03*
D16*
X94091000Y-104714000D03*
X92091000Y-105664000D03*
X94091000Y-106614000D03*
D30*
X143764000Y-121097000D03*
X146304000Y-121097000D03*
X148844000Y-121097000D03*
X151384000Y-121097000D03*
X151384000Y-111567000D03*
X148844000Y-111567000D03*
X146304000Y-111567000D03*
X143764000Y-111567000D03*
X162306000Y-111567000D03*
X159766000Y-111567000D03*
X157226000Y-111567000D03*
X154686000Y-111567000D03*
X154686000Y-121097000D03*
X157226000Y-121097000D03*
X159766000Y-121097000D03*
X162306000Y-121097000D03*
D31*
X147541000Y-97028000D03*
X147541000Y-98298000D03*
X147541000Y-99568000D03*
X147541000Y-100838000D03*
X147541000Y-102108000D03*
X147541000Y-103378000D03*
X147541000Y-104648000D03*
X152941000Y-104648000D03*
X152941000Y-103378000D03*
X152941000Y-102108000D03*
X152941000Y-100838000D03*
X152941000Y-99568000D03*
X152941000Y-98298000D03*
X152941000Y-97028000D03*
D11*
X181610000Y-112625500D03*
X181610000Y-114450500D03*
D10*
X135891000Y-76350500D03*
X135891000Y-74525500D03*
D19*
X147905000Y-70817500D03*
X147905000Y-72692500D03*
D10*
X147971000Y-76350500D03*
X147971000Y-74525500D03*
D11*
X143764000Y-124309500D03*
X143764000Y-126134500D03*
X162306000Y-124309500D03*
X162306000Y-126134500D03*
D10*
X148717000Y-108862500D03*
X148717000Y-107037500D03*
D11*
X157226000Y-107037500D03*
X157226000Y-108862500D03*
X143637000Y-101449500D03*
X143637000Y-103274500D03*
D10*
X143637000Y-108862500D03*
X143637000Y-107037500D03*
X161290000Y-99314000D03*
X161290000Y-97489000D03*
X178181000Y-99083500D03*
X178181000Y-97258500D03*
D11*
X157226000Y-124309500D03*
X157226000Y-126134500D03*
X174625000Y-97258500D03*
X174625000Y-99083500D03*
D13*
X173712500Y-114427000D03*
X175537500Y-114427000D03*
D11*
X162306000Y-107037500D03*
X162306000Y-108862500D03*
D13*
X173712500Y-112395000D03*
X175537500Y-112395000D03*
D15*
X180363500Y-95123000D03*
X178538500Y-95123000D03*
D11*
X140208000Y-124309500D03*
X140208000Y-126134500D03*
D32*
X103505000Y-100012000D03*
X103505000Y-92012000D03*
D23*
X97856000Y-72771000D03*
X99756000Y-72771000D03*
D33*
X88919000Y-119695000D03*
X94469000Y-119695000D03*
X88919000Y-124545000D03*
X94469000Y-124545000D03*
D34*
X94234000Y-112970000D03*
X89154000Y-112970000D03*
D35*
X108917000Y-83439000D03*
X105967000Y-83439000D03*
D30*
X174625000Y-101600000D03*
X172085000Y-101600000D03*
X172085000Y-109220000D03*
X174625000Y-109220000D03*
D36*
X177860000Y-122237500D03*
X177860000Y-121602500D03*
X177860000Y-120967500D03*
X177860000Y-120332500D03*
X177860000Y-119697500D03*
X177860000Y-119062500D03*
X177860000Y-118427500D03*
X177860000Y-117792500D03*
X172660000Y-117792500D03*
X172660000Y-118427500D03*
X172660000Y-119062500D03*
X172660000Y-119697500D03*
X172660000Y-120332500D03*
X172660000Y-120967500D03*
X172660000Y-121602500D03*
X172660000Y-122237500D03*
D37*
X100887000Y-83439000D03*
X103837000Y-83439000D03*
D30*
X178181000Y-109220000D03*
X180721000Y-109220000D03*
X180721000Y-101600000D03*
X178181000Y-101600000D03*
D10*
X129938000Y-76350500D03*
X129938000Y-74525500D03*
D19*
X135905000Y-70817500D03*
X135905000Y-72692500D03*
D11*
X148844000Y-124309500D03*
X148844000Y-126134500D03*
D38*
X168783000Y-114348500D03*
X168783000Y-112473500D03*
D10*
X171577000Y-114323500D03*
X171577000Y-112498500D03*
D16*
X177689000Y-112715000D03*
X177689000Y-114615000D03*
X179689000Y-113665000D03*
D17*
X120904000Y-82865000D03*
X120904000Y-80965000D03*
X123952000Y-83754000D03*
X123952000Y-81854000D03*
D13*
X97028000Y-81661000D03*
X98853000Y-81661000D03*
D22*
X96901000Y-83632000D03*
X96901000Y-85532000D03*
D39*
X103156000Y-69596000D03*
X107156000Y-69596000D03*
D40*
X150960000Y-87945000D03*
X150960000Y-86995000D03*
X150960000Y-86045000D03*
X148760000Y-86045000D03*
X148760000Y-87945000D03*
X157310000Y-87945000D03*
X157310000Y-86995000D03*
X157310000Y-86045000D03*
X155110000Y-86045000D03*
X155110000Y-87945000D03*
X151087000Y-81595000D03*
X151087000Y-80645000D03*
X151087000Y-79695000D03*
X148887000Y-79695000D03*
X148887000Y-81595000D03*
D23*
X149037000Y-83566000D03*
X150937000Y-83566000D03*
X155260000Y-89916000D03*
X157160000Y-89916000D03*
X148910000Y-90043000D03*
X150810000Y-90043000D03*
D11*
X146558000Y-88241500D03*
X146558000Y-90066500D03*
D13*
X155297500Y-84074000D03*
X157122500Y-84074000D03*
D41*
X112776000Y-91834500D03*
X112776000Y-88759500D03*
D42*
X120389000Y-89027000D03*
X120389000Y-86727000D03*
X121539000Y-86727000D03*
X121539000Y-87877000D03*
X122689000Y-87877000D03*
X122689000Y-89027000D03*
X121539000Y-89027000D03*
X122689000Y-86727000D03*
X120389000Y-87877000D03*
D43*
X119101500Y-86127000D03*
X119101500Y-86627000D03*
X119101500Y-87127000D03*
X119101500Y-87627000D03*
X119101500Y-88127000D03*
X119101500Y-88627000D03*
X119101500Y-89127000D03*
X119101500Y-89627000D03*
D44*
X119789000Y-90314500D03*
X120289000Y-90314500D03*
X120789000Y-90314500D03*
X121289000Y-90314500D03*
X121789000Y-90314500D03*
X122289000Y-90314500D03*
X122789000Y-90314500D03*
X123289000Y-90314500D03*
D43*
X123976500Y-89627000D03*
X123976500Y-89127000D03*
X123976500Y-88627000D03*
X123976500Y-88127000D03*
X123976500Y-87627000D03*
X123976500Y-87127000D03*
X123976500Y-86627000D03*
X123976500Y-86127000D03*
D44*
X123289000Y-85439500D03*
X122789000Y-85439500D03*
X122289000Y-85439500D03*
X121789000Y-85439500D03*
X121289000Y-85439500D03*
X120789000Y-85439500D03*
X120289000Y-85439500D03*
X119789000Y-85439500D03*
D23*
X139131000Y-82804000D03*
X141031000Y-82804000D03*
X137226000Y-88519000D03*
X139126000Y-88519000D03*
D13*
X139159500Y-80772000D03*
X140984500Y-80772000D03*
D11*
X153543000Y-78843500D03*
X153543000Y-80668500D03*
D45*
X142027000Y-86573000D03*
X142027000Y-85923000D03*
X142027000Y-85273000D03*
X142027000Y-84623000D03*
X137627000Y-84623000D03*
X137627000Y-85273000D03*
X137627000Y-85923000D03*
X137627000Y-86573000D03*
D10*
X159258000Y-95527500D03*
X159258000Y-93702500D03*
D32*
X134747000Y-100012000D03*
X134747000Y-92012000D03*
D13*
X180443500Y-78740000D03*
X182268500Y-78740000D03*
D46*
X176409000Y-81856000D03*
X175609000Y-81856000D03*
X174809000Y-81856000D03*
X174009000Y-81856000D03*
X173209000Y-81856000D03*
X172409000Y-81856000D03*
X171609000Y-81856000D03*
X170809000Y-81856000D03*
D47*
X169359000Y-83306000D03*
X169359000Y-84106000D03*
X169359000Y-84906000D03*
X169359000Y-85706000D03*
X169359000Y-86506000D03*
X169359000Y-87306000D03*
X169359000Y-88106000D03*
X169359000Y-88906000D03*
D46*
X170809000Y-90356000D03*
X171609000Y-90356000D03*
X172409000Y-90356000D03*
X173209000Y-90356000D03*
X174009000Y-90356000D03*
X174809000Y-90356000D03*
X175609000Y-90356000D03*
X176409000Y-90356000D03*
D47*
X177859000Y-88906000D03*
X177859000Y-88106000D03*
X177859000Y-87306000D03*
X177859000Y-86506000D03*
X177859000Y-85706000D03*
X177859000Y-84906000D03*
X177859000Y-84106000D03*
X177859000Y-83306000D03*
D10*
X96012000Y-96543500D03*
X96012000Y-94718500D03*
D11*
X93599000Y-94718500D03*
D48*
X93599000Y-96543500D03*
D49*
X93293000Y-88900000D03*
X86793000Y-88900000D03*
D15*
X170203500Y-123698000D03*
X168378500Y-123698000D03*
D11*
X159258000Y-97489000D03*
X159258000Y-99314000D03*
D50*
X161705000Y-81661000D03*
X159605000Y-81661000D03*
D23*
X180406000Y-88900000D03*
X182306000Y-88900000D03*
D10*
X141891000Y-76350500D03*
X141891000Y-74525500D03*
D51*
X168910000Y-95296500D03*
X168910000Y-93171500D03*
D22*
X170942000Y-93284000D03*
X170942000Y-95184000D03*
X173228000Y-93284000D03*
X173228000Y-95184000D03*
D19*
X141905000Y-70817500D03*
X141905000Y-72692500D03*
M02*
