%TF.GenerationSoftware,KiCad,Pcbnew,(6.0.4)*%
%TF.CreationDate,2022-08-06T13:41:48+02:00*%
%TF.ProjectId,HPDriver,48504472-6976-4657-922e-6b696361645f,1.0*%
%TF.SameCoordinates,Original*%
%TF.FileFunction,Soldermask,Top*%
%TF.FilePolarity,Negative*%
%FSLAX46Y46*%
G04 Gerber Fmt 4.6, Leading zero omitted, Abs format (unit mm)*
G04 Created by KiCad (PCBNEW (6.0.4)) date 2022-08-06 13:41:48*
%MOMM*%
%LPD*%
G01*
G04 APERTURE LIST*
G04 Aperture macros list*
%AMRoundRect*
0 Rectangle with rounded corners*
0 $1 Rounding radius*
0 $2 $3 $4 $5 $6 $7 $8 $9 X,Y pos of 4 corners*
0 Add a 4 corners polygon primitive as box body*
4,1,4,$2,$3,$4,$5,$6,$7,$8,$9,$2,$3,0*
0 Add four circle primitives for the rounded corners*
1,1,$1+$1,$2,$3*
1,1,$1+$1,$4,$5*
1,1,$1+$1,$6,$7*
1,1,$1+$1,$8,$9*
0 Add four rect primitives between the rounded corners*
20,1,$1+$1,$2,$3,$4,$5,0*
20,1,$1+$1,$4,$5,$6,$7,0*
20,1,$1+$1,$6,$7,$8,$9,0*
20,1,$1+$1,$8,$9,$2,$3,0*%
G04 Aperture macros list end*
%ADD10RoundRect,0.250000X-0.750000X-1.550000X0.750000X-1.550000X0.750000X1.550000X-0.750000X1.550000X0*%
%ADD11O,2.000000X3.600000*%
%ADD12RoundRect,0.250000X0.450000X-0.262500X0.450000X0.262500X-0.450000X0.262500X-0.450000X-0.262500X0*%
%ADD13RoundRect,0.250000X-0.450000X0.262500X-0.450000X-0.262500X0.450000X-0.262500X0.450000X0.262500X0*%
%ADD14RoundRect,0.249900X1.425100X-0.362600X1.425100X0.362600X-1.425100X0.362600X-1.425100X-0.362600X0*%
%ADD15RoundRect,0.250000X-0.262500X-0.450000X0.262500X-0.450000X0.262500X0.450000X-0.262500X0.450000X0*%
%ADD16R,0.800000X0.900000*%
%ADD17RoundRect,0.250000X0.262500X0.450000X-0.262500X0.450000X-0.262500X-0.450000X0.262500X-0.450000X0*%
%ADD18R,0.900000X0.800000*%
%ADD19RoundRect,0.250000X0.475000X-0.250000X0.475000X0.250000X-0.475000X0.250000X-0.475000X-0.250000X0*%
%ADD20RoundRect,0.250000X0.250000X0.475000X-0.250000X0.475000X-0.250000X-0.475000X0.250000X-0.475000X0*%
%ADD21RoundRect,0.243750X-0.456250X0.243750X-0.456250X-0.243750X0.456250X-0.243750X0.456250X0.243750X0*%
%ADD22C,1.000000*%
%ADD23R,0.500000X2.000000*%
%ADD24R,2.000000X1.700000*%
%ADD25RoundRect,0.250000X-0.475000X0.250000X-0.475000X-0.250000X0.475000X-0.250000X0.475000X0.250000X0*%
%ADD26RoundRect,0.250000X-0.250000X-0.475000X0.250000X-0.475000X0.250000X0.475000X-0.250000X0.475000X0*%
%ADD27RoundRect,0.249999X-0.450001X0.325001X-0.450001X-0.325001X0.450001X-0.325001X0.450001X0.325001X0*%
%ADD28R,2.300000X2.500000*%
%ADD29R,1.800000X1.540000*%
%ADD30R,0.450000X1.450000*%
%ADD31R,1.500000X2.200000*%
%ADD32R,0.800000X1.200000*%
%ADD33R,1.780000X2.000000*%
%ADD34R,1.500000X0.600000*%
%ADD35C,4.400000*%
%ADD36RoundRect,0.250000X1.000000X-1.750000X1.000000X1.750000X-1.000000X1.750000X-1.000000X-1.750000X0*%
%ADD37R,1.100000X4.600000*%
%ADD38R,10.800000X9.400000*%
%ADD39RoundRect,0.250000X0.325000X1.100000X-0.325000X1.100000X-0.325000X-1.100000X0.325000X-1.100000X0*%
%ADD40R,1.200000X0.400000*%
%ADD41RoundRect,0.250000X-0.325000X-1.100000X0.325000X-1.100000X0.325000X1.100000X-0.325000X1.100000X0*%
%ADD42C,3.800000*%
%ADD43RoundRect,0.243750X0.456250X-0.243750X0.456250X0.243750X-0.456250X0.243750X-0.456250X-0.243750X0*%
%ADD44R,2.500000X1.800000*%
%ADD45R,1.060000X0.650000*%
%ADD46RoundRect,0.250000X0.925000X-0.412500X0.925000X0.412500X-0.925000X0.412500X-0.925000X-0.412500X0*%
%ADD47RoundRect,0.062500X-0.375000X-0.062500X0.375000X-0.062500X0.375000X0.062500X-0.375000X0.062500X0*%
%ADD48RoundRect,0.062500X-0.062500X-0.375000X0.062500X-0.375000X0.062500X0.375000X-0.062500X0.375000X0*%
%ADD49RoundRect,0.250000X-1.475000X-1.475000X1.475000X-1.475000X1.475000X1.475000X-1.475000X1.475000X0*%
%ADD50R,1.450000X0.450000*%
%ADD51R,0.550000X1.600000*%
%ADD52R,1.600000X0.550000*%
%ADD53RoundRect,0.250000X0.600000X-0.600000X0.600000X0.600000X-0.600000X0.600000X-0.600000X-0.600000X0*%
%ADD54C,1.700000*%
%ADD55RoundRect,0.250100X-0.449900X0.262400X-0.449900X-0.262400X0.449900X-0.262400X0.449900X0.262400X0*%
%ADD56RoundRect,0.250000X1.500000X1.000000X-1.500000X1.000000X-1.500000X-1.000000X1.500000X-1.000000X0*%
%ADD57R,0.600000X0.450000*%
%ADD58RoundRect,0.218750X0.381250X-0.218750X0.381250X0.218750X-0.381250X0.218750X-0.381250X-0.218750X0*%
%ADD59C,0.800000*%
G04 APERTURE END LIST*
D10*
X88646000Y-130715500D03*
D11*
X93646000Y-130715500D03*
D10*
X109728000Y-130683000D03*
D11*
X114728000Y-130683000D03*
X119728000Y-130683000D03*
X124728000Y-130683000D03*
D10*
X137160000Y-130715500D03*
D11*
X142160000Y-130715500D03*
X147160000Y-130715500D03*
X152160000Y-130715500D03*
X157160000Y-130715500D03*
X162160000Y-130715500D03*
D12*
X123858000Y-76350500D03*
X123858000Y-74525500D03*
D13*
X173990000Y-126722500D03*
X173990000Y-128547500D03*
D14*
X122682000Y-101133500D03*
X122682000Y-95208500D03*
D15*
X94464500Y-108712000D03*
X96289500Y-108712000D03*
D12*
X127762000Y-99083500D03*
X127762000Y-97258500D03*
D16*
X180279000Y-99171000D03*
X182179000Y-99171000D03*
X181229000Y-97171000D03*
D12*
X94615000Y-81430500D03*
X94615000Y-79605500D03*
D17*
X95908500Y-72771000D03*
X94083500Y-72771000D03*
D14*
X115316000Y-101133500D03*
X115316000Y-95208500D03*
D12*
X94615000Y-77620500D03*
X94615000Y-75795500D03*
X110236000Y-99083500D03*
X110236000Y-97258500D03*
X161290000Y-95527500D03*
X161290000Y-93702500D03*
D15*
X106783500Y-80518000D03*
X108608500Y-80518000D03*
D13*
X175895000Y-126722500D03*
X175895000Y-128547500D03*
D12*
X117905000Y-76350500D03*
X117905000Y-74525500D03*
X153924000Y-76350500D03*
X153924000Y-74525500D03*
D18*
X163592000Y-97475000D03*
X163592000Y-99375000D03*
X165592000Y-98425000D03*
D19*
X181483000Y-121600000D03*
X181483000Y-119700000D03*
D20*
X173924000Y-78867000D03*
X172024000Y-78867000D03*
D19*
X136779000Y-113091000D03*
X136779000Y-111191000D03*
D21*
X117905000Y-70817500D03*
X117905000Y-72692500D03*
X153905000Y-70817500D03*
X153905000Y-72692500D03*
D22*
X176825000Y-134815000D03*
X172425000Y-134815000D03*
D23*
X173025000Y-132115000D03*
X173825000Y-132115000D03*
X174625000Y-132115000D03*
X175425000Y-132115000D03*
X176225000Y-132115000D03*
D24*
X179075000Y-137665000D03*
X170175000Y-132215000D03*
X179075000Y-132215000D03*
X170175000Y-137665000D03*
D18*
X163592000Y-93665000D03*
X163592000Y-95565000D03*
X165592000Y-94615000D03*
D21*
X129905000Y-70817500D03*
X129905000Y-72692500D03*
D25*
X155448000Y-97348000D03*
X155448000Y-99248000D03*
D21*
X123905000Y-70817500D03*
X123905000Y-72692500D03*
D19*
X125730000Y-99121000D03*
X125730000Y-97221000D03*
X112268000Y-99121000D03*
X112268000Y-97221000D03*
D25*
X125984000Y-81854000D03*
X125984000Y-83754000D03*
D19*
X92583000Y-81468000D03*
X92583000Y-79568000D03*
X109982000Y-92009000D03*
X109982000Y-90109000D03*
D20*
X102296000Y-103886000D03*
X100396000Y-103886000D03*
D26*
X176215000Y-124460000D03*
X178115000Y-124460000D03*
X135956000Y-104140000D03*
X137856000Y-104140000D03*
D25*
X170434000Y-119512000D03*
X170434000Y-121412000D03*
D20*
X171765000Y-128905000D03*
X169865000Y-128905000D03*
D19*
X133985000Y-84897000D03*
X133985000Y-82997000D03*
D26*
X101031000Y-80645000D03*
X102931000Y-80645000D03*
D20*
X174178000Y-124460000D03*
X172278000Y-124460000D03*
D27*
X168275000Y-119362000D03*
X168275000Y-121412000D03*
D28*
X111887000Y-77715000D03*
X111887000Y-73415000D03*
D29*
X131575000Y-85033000D03*
X131575000Y-82353000D03*
X128775000Y-82353000D03*
X128775000Y-85033000D03*
D30*
X98511000Y-75143000D03*
X97861000Y-75143000D03*
X97211000Y-75143000D03*
X96561000Y-75143000D03*
X96561000Y-79543000D03*
X97211000Y-79543000D03*
X97861000Y-79543000D03*
X98511000Y-79543000D03*
D31*
X101956000Y-75438000D03*
X108356000Y-75438000D03*
D32*
X138684000Y-119482000D03*
X141224000Y-119482000D03*
X141224000Y-113182000D03*
X139954000Y-113182000D03*
X138684000Y-113182000D03*
D28*
X89662000Y-100956000D03*
X89662000Y-96656000D03*
D18*
X94091000Y-104714000D03*
X92091000Y-105664000D03*
X94091000Y-106614000D03*
D33*
X143764000Y-121097000D03*
X146304000Y-121097000D03*
X148844000Y-121097000D03*
X151384000Y-121097000D03*
X151384000Y-111567000D03*
X148844000Y-111567000D03*
X146304000Y-111567000D03*
X143764000Y-111567000D03*
X162306000Y-111567000D03*
X159766000Y-111567000D03*
X157226000Y-111567000D03*
X154686000Y-111567000D03*
X154686000Y-121097000D03*
X157226000Y-121097000D03*
X159766000Y-121097000D03*
X162306000Y-121097000D03*
D34*
X147541000Y-97028000D03*
X147541000Y-98298000D03*
X147541000Y-99568000D03*
X147541000Y-100838000D03*
X147541000Y-102108000D03*
X147541000Y-103378000D03*
X147541000Y-104648000D03*
X152941000Y-104648000D03*
X152941000Y-103378000D03*
X152941000Y-102108000D03*
X152941000Y-100838000D03*
X152941000Y-99568000D03*
X152941000Y-98298000D03*
X152941000Y-97028000D03*
D13*
X181610000Y-112625500D03*
X181610000Y-114450500D03*
D12*
X135891000Y-76350500D03*
X135891000Y-74525500D03*
D35*
X180848000Y-127762000D03*
D21*
X147905000Y-70817500D03*
X147905000Y-72692500D03*
D35*
X143383000Y-95250000D03*
X88392000Y-68580000D03*
X180340000Y-68326000D03*
D12*
X147971000Y-76350500D03*
X147971000Y-74525500D03*
D13*
X143764000Y-124309500D03*
X143764000Y-126134500D03*
X162306000Y-124309500D03*
X162306000Y-126134500D03*
D12*
X148717000Y-108862500D03*
X148717000Y-107037500D03*
D13*
X157226000Y-107037500D03*
X157226000Y-108862500D03*
X143637000Y-101449500D03*
X143637000Y-103274500D03*
D12*
X143637000Y-108862500D03*
X143637000Y-107037500D03*
X161290000Y-99314000D03*
X161290000Y-97489000D03*
X178181000Y-99083500D03*
X178181000Y-97258500D03*
D13*
X157226000Y-124309500D03*
X157226000Y-126134500D03*
X174625000Y-97258500D03*
X174625000Y-99083500D03*
D15*
X173712500Y-114427000D03*
X175537500Y-114427000D03*
D13*
X162306000Y-107037500D03*
X162306000Y-108862500D03*
D15*
X173712500Y-112395000D03*
X175537500Y-112395000D03*
D17*
X180363500Y-95123000D03*
X178538500Y-95123000D03*
D13*
X140208000Y-124309500D03*
X140208000Y-126134500D03*
D36*
X103505000Y-100012000D03*
X103505000Y-92012000D03*
D26*
X97856000Y-72771000D03*
X99756000Y-72771000D03*
D37*
X94234000Y-112970000D03*
D38*
X91694000Y-122120000D03*
D37*
X89154000Y-112970000D03*
D35*
X101600000Y-135890000D03*
D39*
X108917000Y-83439000D03*
X105967000Y-83439000D03*
D33*
X174625000Y-101600000D03*
X172085000Y-101600000D03*
X172085000Y-109220000D03*
X174625000Y-109220000D03*
D40*
X177860000Y-122237500D03*
X177860000Y-121602500D03*
X177860000Y-120967500D03*
X177860000Y-120332500D03*
X177860000Y-119697500D03*
X177860000Y-119062500D03*
X177860000Y-118427500D03*
X177860000Y-117792500D03*
X172660000Y-117792500D03*
X172660000Y-118427500D03*
X172660000Y-119062500D03*
X172660000Y-119697500D03*
X172660000Y-120332500D03*
X172660000Y-120967500D03*
X172660000Y-121602500D03*
X172660000Y-122237500D03*
D41*
X100887000Y-83439000D03*
X103837000Y-83439000D03*
D33*
X178181000Y-109220000D03*
X180721000Y-109220000D03*
X180721000Y-101600000D03*
X178181000Y-101600000D03*
D42*
X130937000Y-135890000D03*
D12*
X129938000Y-76350500D03*
X129938000Y-74525500D03*
D21*
X135905000Y-70817500D03*
X135905000Y-72692500D03*
D13*
X148844000Y-124309500D03*
X148844000Y-126134500D03*
D43*
X168783000Y-114348500D03*
X168783000Y-112473500D03*
D12*
X171577000Y-114323500D03*
X171577000Y-112498500D03*
D18*
X177689000Y-112715000D03*
X177689000Y-114615000D03*
X179689000Y-113665000D03*
D19*
X120904000Y-82865000D03*
X120904000Y-80965000D03*
X123952000Y-83754000D03*
X123952000Y-81854000D03*
D15*
X97028000Y-81661000D03*
X98853000Y-81661000D03*
D25*
X96901000Y-83632000D03*
X96901000Y-85532000D03*
D44*
X103156000Y-69596000D03*
X107156000Y-69596000D03*
D45*
X150960000Y-87945000D03*
X150960000Y-86995000D03*
X150960000Y-86045000D03*
X148760000Y-86045000D03*
X148760000Y-87945000D03*
X157310000Y-87945000D03*
X157310000Y-86995000D03*
X157310000Y-86045000D03*
X155110000Y-86045000D03*
X155110000Y-87945000D03*
X151087000Y-81595000D03*
X151087000Y-80645000D03*
X151087000Y-79695000D03*
X148887000Y-79695000D03*
X148887000Y-81595000D03*
D26*
X149037000Y-83566000D03*
X150937000Y-83566000D03*
X155260000Y-89916000D03*
X157160000Y-89916000D03*
X148910000Y-90043000D03*
X150810000Y-90043000D03*
D13*
X146558000Y-88241500D03*
X146558000Y-90066500D03*
D15*
X155297500Y-84074000D03*
X157122500Y-84074000D03*
D46*
X112776000Y-91834500D03*
X112776000Y-88759500D03*
D47*
X119101500Y-86127000D03*
X119101500Y-86627000D03*
X119101500Y-87127000D03*
X119101500Y-87627000D03*
X119101500Y-88127000D03*
X119101500Y-88627000D03*
X119101500Y-89127000D03*
X119101500Y-89627000D03*
D48*
X119789000Y-90314500D03*
X120289000Y-90314500D03*
X120789000Y-90314500D03*
X121289000Y-90314500D03*
X121789000Y-90314500D03*
X122289000Y-90314500D03*
X122789000Y-90314500D03*
X123289000Y-90314500D03*
D47*
X123976500Y-89627000D03*
X123976500Y-89127000D03*
X123976500Y-88627000D03*
X123976500Y-88127000D03*
X123976500Y-87627000D03*
X123976500Y-87127000D03*
X123976500Y-86627000D03*
X123976500Y-86127000D03*
D48*
X123289000Y-85439500D03*
X122789000Y-85439500D03*
X122289000Y-85439500D03*
X121789000Y-85439500D03*
X121289000Y-85439500D03*
X120789000Y-85439500D03*
X120289000Y-85439500D03*
X119789000Y-85439500D03*
D49*
X121539000Y-87877000D03*
D26*
X139131000Y-82804000D03*
X141031000Y-82804000D03*
X137226000Y-88519000D03*
X139126000Y-88519000D03*
D15*
X139159500Y-80772000D03*
X140984500Y-80772000D03*
D13*
X153543000Y-78843500D03*
X153543000Y-80668500D03*
D50*
X142027000Y-86573000D03*
X142027000Y-85923000D03*
X142027000Y-85273000D03*
X142027000Y-84623000D03*
X137627000Y-84623000D03*
X137627000Y-85273000D03*
X137627000Y-85923000D03*
X137627000Y-86573000D03*
D12*
X159258000Y-95527500D03*
X159258000Y-93702500D03*
D36*
X134747000Y-100012000D03*
X134747000Y-92012000D03*
D15*
X180443500Y-78740000D03*
X182268500Y-78740000D03*
D51*
X176409000Y-81856000D03*
X175609000Y-81856000D03*
X174809000Y-81856000D03*
X174009000Y-81856000D03*
X173209000Y-81856000D03*
X172409000Y-81856000D03*
X171609000Y-81856000D03*
X170809000Y-81856000D03*
D52*
X169359000Y-83306000D03*
X169359000Y-84106000D03*
X169359000Y-84906000D03*
X169359000Y-85706000D03*
X169359000Y-86506000D03*
X169359000Y-87306000D03*
X169359000Y-88106000D03*
X169359000Y-88906000D03*
D51*
X170809000Y-90356000D03*
X171609000Y-90356000D03*
X172409000Y-90356000D03*
X173209000Y-90356000D03*
X174009000Y-90356000D03*
X174809000Y-90356000D03*
X175609000Y-90356000D03*
X176409000Y-90356000D03*
D52*
X177859000Y-88906000D03*
X177859000Y-88106000D03*
X177859000Y-87306000D03*
X177859000Y-86506000D03*
X177859000Y-85706000D03*
X177859000Y-84906000D03*
X177859000Y-84106000D03*
X177859000Y-83306000D03*
D53*
X164973000Y-73025000D03*
D54*
X164973000Y-70485000D03*
X167513000Y-73025000D03*
X167513000Y-70485000D03*
X170053000Y-73025000D03*
X170053000Y-70485000D03*
D12*
X96012000Y-96543500D03*
X96012000Y-94718500D03*
D13*
X93599000Y-94718500D03*
D55*
X93599000Y-96543500D03*
D56*
X93293000Y-88900000D03*
X86793000Y-88900000D03*
D17*
X170203500Y-123698000D03*
X168378500Y-123698000D03*
D13*
X159258000Y-97489000D03*
X159258000Y-99314000D03*
D57*
X161705000Y-81661000D03*
X159605000Y-81661000D03*
D26*
X180406000Y-88900000D03*
X182306000Y-88900000D03*
D12*
X141891000Y-76350500D03*
X141891000Y-74525500D03*
D58*
X168910000Y-95296500D03*
X168910000Y-93171500D03*
D25*
X170942000Y-93284000D03*
X170942000Y-95184000D03*
X173228000Y-93284000D03*
X173228000Y-95184000D03*
D21*
X141905000Y-70817500D03*
X141905000Y-72692500D03*
D59*
X104902000Y-78232000D03*
X117856000Y-98933000D03*
X141224000Y-111252000D03*
X120142000Y-98933000D03*
X154686000Y-113919000D03*
X159766000Y-113919000D03*
X120142000Y-98044000D03*
X117856000Y-99822000D03*
X96520000Y-76708000D03*
X103886000Y-86106000D03*
X118999000Y-99822000D03*
X98425000Y-76708000D03*
X120142000Y-99822000D03*
X118999000Y-98933000D03*
X117856000Y-98044000D03*
X86360000Y-131064000D03*
X92456000Y-75057000D03*
X106045000Y-86106000D03*
X118999000Y-98044000D03*
X151384000Y-113919000D03*
X146304000Y-113919000D03*
X183642000Y-80137000D03*
X89154000Y-139827000D03*
X94234000Y-139827000D03*
X99314000Y-139827000D03*
X104394000Y-139827000D03*
X109474000Y-139827000D03*
X114554000Y-139827000D03*
X119634000Y-139827000D03*
X124714000Y-139827000D03*
X129794000Y-139827000D03*
X134874000Y-139827000D03*
X139954000Y-139827000D03*
X145034000Y-139827000D03*
X150114000Y-139827000D03*
X155194000Y-139827000D03*
X160274000Y-139827000D03*
X96774000Y-66040000D03*
X101854000Y-66040000D03*
X106934000Y-66040000D03*
X112014000Y-66040000D03*
X117094000Y-66040000D03*
X122174000Y-66040000D03*
X127254000Y-66040000D03*
X132334000Y-66040000D03*
X137414000Y-66040000D03*
X142494000Y-66040000D03*
X147574000Y-66040000D03*
X152654000Y-66040000D03*
X157734000Y-66040000D03*
X162814000Y-66040000D03*
X167894000Y-66040000D03*
X172974000Y-66040000D03*
X178054000Y-66040000D03*
X183642000Y-85137000D03*
X183642000Y-90137000D03*
X183642000Y-95137000D03*
X183642000Y-100137000D03*
X183642000Y-105137000D03*
X85598000Y-79375000D03*
X85598000Y-83820000D03*
X85598000Y-74295000D03*
X91821000Y-66040000D03*
X121793000Y-92710000D03*
X160782000Y-78740000D03*
X150368000Y-100838000D03*
X137795000Y-91440000D03*
X117475000Y-83820000D03*
X138684000Y-73406000D03*
X147828000Y-93599000D03*
X86360000Y-132842000D03*
X86868000Y-92456000D03*
X87757000Y-133731000D03*
X100838000Y-106807000D03*
X110998000Y-69596000D03*
X102235000Y-88773000D03*
X97409000Y-77343000D03*
X166878000Y-89916000D03*
X163068000Y-82804000D03*
X91186000Y-92456000D03*
X89154000Y-91440000D03*
X152654000Y-106934000D03*
X96520000Y-87249000D03*
X117856000Y-92583000D03*
X134366000Y-79502000D03*
X174244000Y-88138000D03*
X144780000Y-76962000D03*
X175260000Y-94742000D03*
X86360000Y-134493000D03*
X137795000Y-92964000D03*
X107696000Y-72517000D03*
X115062000Y-78867000D03*
X127254000Y-79375000D03*
X116586000Y-92964000D03*
X122682000Y-86741000D03*
X98425000Y-77978000D03*
X111823500Y-82550000D03*
X162941000Y-91186000D03*
X163576000Y-77724000D03*
X120904000Y-78867000D03*
X138811000Y-92202000D03*
X113792000Y-70866000D03*
X123888500Y-114871500D03*
X164973000Y-105283000D03*
X113030000Y-69596000D03*
X126492000Y-70866000D03*
X162560000Y-101346000D03*
X92583000Y-92456000D03*
X87757000Y-135128000D03*
X120523000Y-86741000D03*
X92456000Y-73088500D03*
X152400000Y-93599000D03*
X150876000Y-76962000D03*
X139954000Y-78994000D03*
X88392000Y-92456000D03*
X106362500Y-115062000D03*
X90424000Y-91440000D03*
X133096000Y-76962000D03*
X89789000Y-92456000D03*
X89535000Y-135128000D03*
X126369299Y-91317299D03*
X86360000Y-129413000D03*
X125490286Y-92585424D03*
X164973000Y-113411000D03*
X135445500Y-86106000D03*
X132588000Y-73152000D03*
X96520000Y-77978000D03*
X120523000Y-88900000D03*
X91948000Y-91440000D03*
X131572000Y-79502000D03*
X139319006Y-104140000D03*
X112141000Y-70866000D03*
X175006000Y-85344000D03*
X156972000Y-77470000D03*
X165036500Y-124841000D03*
X180340000Y-103886000D03*
X120396000Y-70866000D03*
X118872000Y-92964000D03*
X122809000Y-93091000D03*
X87630000Y-91440000D03*
X169418000Y-77724000D03*
X138176000Y-76962000D03*
X104775000Y-88773000D03*
X89535000Y-133731000D03*
X144272000Y-87947500D03*
X153289000Y-86233000D03*
X168402000Y-101346000D03*
X103505000Y-87884000D03*
X150114000Y-71628000D03*
X176784000Y-79756000D03*
X138684000Y-109982000D03*
X133223000Y-95250000D03*
X122682000Y-88900000D03*
X142113000Y-105283000D03*
X172212000Y-103886000D03*
X121539000Y-87877000D03*
X132715000Y-92329000D03*
X172974000Y-83820000D03*
X132334000Y-105156000D03*
X107442000Y-103124000D03*
X105664000Y-105156000D03*
X107442000Y-104140000D03*
X133223000Y-116332000D03*
X106553000Y-103632000D03*
X107442000Y-105156000D03*
X134112000Y-105156000D03*
X133223000Y-118364000D03*
X134493000Y-115316000D03*
X134493000Y-116332000D03*
X134112000Y-103124000D03*
X135763000Y-115316000D03*
X134112000Y-104140000D03*
X133223000Y-104648000D03*
X133223000Y-103632000D03*
X86868000Y-106553000D03*
X133223000Y-117348000D03*
X132334000Y-104140000D03*
X132334000Y-103124000D03*
X134493000Y-117348000D03*
X134493000Y-118364000D03*
X133223000Y-115316000D03*
X106553000Y-104648000D03*
X105664000Y-104140000D03*
X105664000Y-103124000D03*
X88646000Y-106553000D03*
X92075000Y-106553000D03*
X86868000Y-108180000D03*
X88646000Y-108180000D03*
X86868000Y-109855000D03*
X88646000Y-109855000D03*
X86868000Y-111633000D03*
X92075000Y-111633000D03*
X86868000Y-113895000D03*
X92075000Y-113895000D03*
X101346000Y-117094000D03*
X102489000Y-115062000D03*
X124968000Y-79121000D03*
X102489000Y-118110000D03*
X99060000Y-88138000D03*
X102489000Y-116078000D03*
X90424000Y-106553000D03*
X96748600Y-98552000D03*
X103632000Y-115062000D03*
X101346000Y-118110000D03*
X90424000Y-108204000D03*
X92075000Y-108204000D03*
X102489000Y-117094000D03*
X90424000Y-109855000D03*
X92075000Y-109855000D03*
X101346000Y-116078000D03*
X101346000Y-115062000D03*
X91059000Y-81534000D03*
X108204000Y-78359000D03*
X106680000Y-78359000D03*
X153923990Y-91567000D03*
X106680000Y-74676000D03*
X143636998Y-105283000D03*
X155448000Y-76454000D03*
X143510000Y-76454000D03*
X106680000Y-75882500D03*
X178562000Y-78740000D03*
X152908000Y-95631000D03*
X119126000Y-82931000D03*
X146982577Y-79902923D03*
X133985000Y-86232998D03*
X131572000Y-76454000D03*
X177165000Y-94742000D03*
X129540000Y-132207000D03*
X150241000Y-106933996D03*
X106680000Y-77089000D03*
X117856000Y-77724000D03*
X168910000Y-98552000D03*
X137668000Y-79756000D03*
X175260000Y-78740000D03*
X135763000Y-88519000D03*
X138684000Y-111633000D03*
X106902989Y-92734851D03*
X147828000Y-91948000D03*
X181610000Y-132588000D03*
X168783000Y-107823000D03*
X176276000Y-116332000D03*
X167640000Y-132588000D03*
X182880000Y-109220000D03*
X172339000Y-139827000D03*
X176784000Y-139827000D03*
X181610000Y-139827000D03*
X167640000Y-139827000D03*
X168402000Y-126873000D03*
X177292000Y-130175000D03*
X182880000Y-123063000D03*
X166878000Y-122555000D03*
X180467000Y-117475000D03*
X173990000Y-118745000D03*
X157734000Y-97536010D03*
X159131000Y-82931000D03*
X128651000Y-120904000D03*
X128651000Y-125984000D03*
X133477000Y-121920000D03*
X131191000Y-120904000D03*
X128651000Y-123317000D03*
X131191000Y-125984000D03*
X126365000Y-124841000D03*
X124079000Y-125984000D03*
X124079001Y-123317001D03*
X135763000Y-120904000D03*
X131191000Y-123317000D03*
X126365000Y-121920000D03*
X124079000Y-120904000D03*
X135763000Y-125984000D03*
X133477000Y-124841000D03*
X135763000Y-123317000D03*
X133350000Y-88836500D03*
X122745500Y-108839000D03*
X122745500Y-111506000D03*
X131000500Y-109855000D03*
X131000500Y-111125000D03*
X121729500Y-107632500D03*
X123888500Y-107632500D03*
X130111500Y-110490000D03*
X123825000Y-110045500D03*
X123825000Y-112839500D03*
X121729500Y-112839500D03*
X131000500Y-108458000D03*
X131699000Y-89576721D03*
X130048000Y-107759500D03*
X130111500Y-109220000D03*
X130937000Y-112395000D03*
X130111500Y-111760000D03*
X121729500Y-110045500D03*
X106235500Y-112776000D03*
X112966500Y-111442500D03*
X106299000Y-107696000D03*
X111379000Y-110236000D03*
X114490500Y-112839500D03*
X106235500Y-110236000D03*
X112966500Y-108902500D03*
X111379000Y-107886500D03*
X111315500Y-112776000D03*
X104267000Y-112776000D03*
X104267000Y-110236000D03*
X105283000Y-108966000D03*
X112644701Y-86482701D03*
X114490500Y-110172500D03*
X105283000Y-111506000D03*
X114490500Y-107886500D03*
X104267000Y-107696000D03*
X110871000Y-125984000D03*
X103759000Y-125984000D03*
X106299000Y-125984000D03*
X106299000Y-123317000D03*
X106299000Y-120904000D03*
X101473000Y-124841000D03*
X108585000Y-124841000D03*
X103759000Y-123317000D03*
X99187000Y-123317000D03*
X99187000Y-120904000D03*
X99187000Y-125984000D03*
X110871000Y-120904000D03*
X110871000Y-123317000D03*
X108585000Y-121920000D03*
X101473000Y-121920000D03*
X103632000Y-120904000D03*
X117368013Y-87883466D03*
X171196000Y-87884000D03*
X118999000Y-91567000D03*
X120957137Y-91843715D03*
X170815000Y-91948000D03*
X170942000Y-88900000D03*
X119888000Y-92116579D03*
X115062000Y-87884000D03*
X115059265Y-85445032D03*
X115482328Y-88791385D03*
X180344299Y-84831701D03*
X180467000Y-93472000D03*
X156854006Y-95640000D03*
X156845000Y-82677000D03*
X122513500Y-84241112D03*
X156845000Y-100838000D03*
X176149000Y-84201000D03*
X176276000Y-96266000D03*
X157226000Y-102108000D03*
X157226000Y-105409988D03*
X150368004Y-98298000D03*
X158496000Y-86995000D03*
X148971004Y-100838000D03*
X152273006Y-86995000D03*
X164973000Y-88011000D03*
X122409276Y-91877182D03*
X129984500Y-88900000D03*
X132080000Y-87185500D03*
X115662737Y-86244459D03*
X174752000Y-80264000D03*
X149860000Y-76454000D03*
X87630000Y-118745000D03*
X90678000Y-118745000D03*
X93472000Y-118745000D03*
X96012000Y-118745000D03*
X87630000Y-121317000D03*
X90678000Y-121253000D03*
X93472000Y-121253000D03*
X96012000Y-121253000D03*
X87630000Y-123603000D03*
X90678000Y-123507000D03*
X93472000Y-123507000D03*
X96012000Y-123603000D03*
X87630000Y-125889000D03*
X90678000Y-125889000D03*
X93472000Y-125761000D03*
X96012000Y-125761000D03*
X95948500Y-132842000D03*
X91440000Y-131064000D03*
X91440000Y-129413000D03*
X95961200Y-129413000D03*
X95948500Y-131064000D03*
X91439995Y-132842005D03*
X131953000Y-132334000D03*
X176403000Y-91948000D03*
X98806000Y-113919000D03*
X175641000Y-88265000D03*
X117634339Y-81693339D03*
X96266000Y-113919000D03*
X171831008Y-127000000D03*
X170434000Y-118110000D03*
X157734000Y-99314000D03*
X149225008Y-103378000D03*
X144272000Y-72898000D03*
X164020500Y-86169500D03*
X164338000Y-90170000D03*
X145161000Y-90106488D03*
X180340000Y-87376000D03*
X96012000Y-91948000D03*
X173990000Y-121539000D03*
X168656000Y-116332000D03*
X146558000Y-82550000D03*
X120563990Y-84162607D03*
X153543000Y-82691946D03*
X144095050Y-81352935D03*
X119564855Y-84204493D03*
X145292299Y-79760299D03*
X142240000Y-89408000D03*
X123402500Y-91989033D03*
X114808000Y-91821000D03*
X116967000Y-91567000D03*
X108458000Y-115062000D03*
X113157000Y-104140000D03*
X116967000Y-104140000D03*
X116967000Y-105156000D03*
X108458000Y-116078000D03*
X109601000Y-118110000D03*
X109601000Y-117094000D03*
X113157000Y-103124000D03*
X108458000Y-118110000D03*
X114300000Y-103124000D03*
X109601000Y-116078000D03*
X114300000Y-104140000D03*
X113157000Y-105156000D03*
X108458000Y-117094000D03*
X116967000Y-103124000D03*
X110871000Y-115062000D03*
X114300000Y-105156000D03*
X109601000Y-115062000D03*
X127254000Y-117983000D03*
X125984000Y-114935000D03*
X125984000Y-117983000D03*
X125984000Y-116967000D03*
X122555000Y-105283000D03*
X123571000Y-105791000D03*
X121539000Y-105283000D03*
X125984000Y-115951000D03*
X127254000Y-115951000D03*
X121539000Y-103251000D03*
X122555000Y-103251000D03*
X121539000Y-104267000D03*
X124587000Y-105791000D03*
X127254000Y-114935000D03*
X127254000Y-116967000D03*
X122555000Y-104267000D03*
X128524000Y-114935000D03*
X173609000Y-116332000D03*
X179826026Y-121174006D03*
X167005000Y-98425000D03*
X131572000Y-70866000D03*
X156464000Y-70866000D03*
X166878000Y-94615000D03*
X179684150Y-120184110D03*
X179705000Y-115697000D03*
X132016500Y-90614500D03*
X132842000Y-87884000D03*
X155448000Y-93472000D03*
X155448008Y-103378000D03*
X125730000Y-76454000D03*
X155448000Y-80010000D03*
X116047009Y-89616708D03*
X110591032Y-95504000D03*
X127635003Y-95631003D03*
X127635000Y-90297000D03*
X164592000Y-91948000D03*
X179451000Y-83312000D03*
X179705000Y-122174000D03*
X181355996Y-116332000D03*
X126492000Y-85725000D03*
X168910000Y-80010000D03*
X128778000Y-79375000D03*
X124504561Y-92075000D03*
M02*
