G04 #@! TF.GenerationSoftware,KiCad,Pcbnew,(5.1.10)-1*
G04 #@! TF.CreationDate,2021-11-07T23:59:44+01:00*
G04 #@! TF.ProjectId,HPDriver,48504472-6976-4657-922e-6b696361645f,1.0*
G04 #@! TF.SameCoordinates,Original*
G04 #@! TF.FileFunction,Legend,Bot*
G04 #@! TF.FilePolarity,Positive*
%FSLAX46Y46*%
G04 Gerber Fmt 4.6, Leading zero omitted, Abs format (unit mm)*
G04 Created by KiCad (PCBNEW (5.1.10)-1) date 2021-11-07 23:59:44*
%MOMM*%
%LPD*%
G01*
G04 APERTURE LIST*
%ADD10C,0.300000*%
%ADD11C,0.010000*%
%ADD12C,0.120000*%
%ADD13C,0.150000*%
%ADD14C,3.800000*%
%ADD15O,2.000000X3.600000*%
%ADD16O,1.727200X1.727200*%
%ADD17R,1.727200X1.727200*%
%ADD18C,4.400000*%
%ADD19R,5.800000X6.400000*%
%ADD20R,1.200000X2.200000*%
%ADD21C,1.000000*%
%ADD22C,0.254000*%
%ADD23C,0.100000*%
G04 APERTURE END LIST*
D10*
X176517857Y-128586571D02*
X176517857Y-129800857D01*
X176446428Y-129943714D01*
X176375000Y-130015142D01*
X176232142Y-130086571D01*
X175946428Y-130086571D01*
X175803571Y-130015142D01*
X175732142Y-129943714D01*
X175660714Y-129800857D01*
X175660714Y-128586571D01*
X175017857Y-130015142D02*
X174803571Y-130086571D01*
X174446428Y-130086571D01*
X174303571Y-130015142D01*
X174232142Y-129943714D01*
X174160714Y-129800857D01*
X174160714Y-129658000D01*
X174232142Y-129515142D01*
X174303571Y-129443714D01*
X174446428Y-129372285D01*
X174732142Y-129300857D01*
X174875000Y-129229428D01*
X174946428Y-129158000D01*
X175017857Y-129015142D01*
X175017857Y-128872285D01*
X174946428Y-128729428D01*
X174875000Y-128658000D01*
X174732142Y-128586571D01*
X174375000Y-128586571D01*
X174160714Y-128658000D01*
X173017857Y-129300857D02*
X172803571Y-129372285D01*
X172732142Y-129443714D01*
X172660714Y-129586571D01*
X172660714Y-129800857D01*
X172732142Y-129943714D01*
X172803571Y-130015142D01*
X172946428Y-130086571D01*
X173517857Y-130086571D01*
X173517857Y-128586571D01*
X173017857Y-128586571D01*
X172875000Y-128658000D01*
X172803571Y-128729428D01*
X172732142Y-128872285D01*
X172732142Y-129015142D01*
X172803571Y-129158000D01*
X172875000Y-129229428D01*
X173017857Y-129300857D01*
X173517857Y-129300857D01*
X178732142Y-132636571D02*
X178732142Y-131136571D01*
X178089285Y-132565142D02*
X177946428Y-132636571D01*
X177660714Y-132636571D01*
X177517857Y-132565142D01*
X177446428Y-132422285D01*
X177446428Y-132350857D01*
X177517857Y-132208000D01*
X177660714Y-132136571D01*
X177875000Y-132136571D01*
X178017857Y-132065142D01*
X178089285Y-131922285D01*
X178089285Y-131850857D01*
X178017857Y-131708000D01*
X177875000Y-131636571D01*
X177660714Y-131636571D01*
X177517857Y-131708000D01*
X176589285Y-132636571D02*
X176732142Y-132565142D01*
X176803571Y-132493714D01*
X176875000Y-132350857D01*
X176875000Y-131922285D01*
X176803571Y-131779428D01*
X176732142Y-131708000D01*
X176589285Y-131636571D01*
X176375000Y-131636571D01*
X176232142Y-131708000D01*
X176160714Y-131779428D01*
X176089285Y-131922285D01*
X176089285Y-132350857D01*
X176160714Y-132493714D01*
X176232142Y-132565142D01*
X176375000Y-132636571D01*
X176589285Y-132636571D01*
X175232142Y-132636571D02*
X175375000Y-132565142D01*
X175446428Y-132422285D01*
X175446428Y-131136571D01*
X174017857Y-132636571D02*
X174017857Y-131850857D01*
X174089285Y-131708000D01*
X174232142Y-131636571D01*
X174517857Y-131636571D01*
X174660714Y-131708000D01*
X174017857Y-132565142D02*
X174160714Y-132636571D01*
X174517857Y-132636571D01*
X174660714Y-132565142D01*
X174732142Y-132422285D01*
X174732142Y-132279428D01*
X174660714Y-132136571D01*
X174517857Y-132065142D01*
X174160714Y-132065142D01*
X174017857Y-131993714D01*
X173517857Y-131636571D02*
X172946428Y-131636571D01*
X173303571Y-131136571D02*
X173303571Y-132422285D01*
X173232142Y-132565142D01*
X173089285Y-132636571D01*
X172946428Y-132636571D01*
X171875000Y-132565142D02*
X172017857Y-132636571D01*
X172303571Y-132636571D01*
X172446428Y-132565142D01*
X172517857Y-132422285D01*
X172517857Y-131850857D01*
X172446428Y-131708000D01*
X172303571Y-131636571D01*
X172017857Y-131636571D01*
X171875000Y-131708000D01*
X171803571Y-131850857D01*
X171803571Y-131993714D01*
X172517857Y-132136571D01*
X170517857Y-132636571D02*
X170517857Y-131136571D01*
X170517857Y-132565142D02*
X170660714Y-132636571D01*
X170946428Y-132636571D01*
X171089285Y-132565142D01*
X171160714Y-132493714D01*
X171232142Y-132350857D01*
X171232142Y-131922285D01*
X171160714Y-131779428D01*
X171089285Y-131708000D01*
X170946428Y-131636571D01*
X170660714Y-131636571D01*
X170517857Y-131708000D01*
X154602142Y-126408571D02*
X154602142Y-124908571D01*
X153959285Y-126337142D02*
X153816428Y-126408571D01*
X153530714Y-126408571D01*
X153387857Y-126337142D01*
X153316428Y-126194285D01*
X153316428Y-126122857D01*
X153387857Y-125980000D01*
X153530714Y-125908571D01*
X153745000Y-125908571D01*
X153887857Y-125837142D01*
X153959285Y-125694285D01*
X153959285Y-125622857D01*
X153887857Y-125480000D01*
X153745000Y-125408571D01*
X153530714Y-125408571D01*
X153387857Y-125480000D01*
X152459285Y-126408571D02*
X152602142Y-126337142D01*
X152673571Y-126265714D01*
X152745000Y-126122857D01*
X152745000Y-125694285D01*
X152673571Y-125551428D01*
X152602142Y-125480000D01*
X152459285Y-125408571D01*
X152245000Y-125408571D01*
X152102142Y-125480000D01*
X152030714Y-125551428D01*
X151959285Y-125694285D01*
X151959285Y-126122857D01*
X152030714Y-126265714D01*
X152102142Y-126337142D01*
X152245000Y-126408571D01*
X152459285Y-126408571D01*
X151102142Y-126408571D02*
X151245000Y-126337142D01*
X151316428Y-126194285D01*
X151316428Y-124908571D01*
X149887857Y-126408571D02*
X149887857Y-125622857D01*
X149959285Y-125480000D01*
X150102142Y-125408571D01*
X150387857Y-125408571D01*
X150530714Y-125480000D01*
X149887857Y-126337142D02*
X150030714Y-126408571D01*
X150387857Y-126408571D01*
X150530714Y-126337142D01*
X150602142Y-126194285D01*
X150602142Y-126051428D01*
X150530714Y-125908571D01*
X150387857Y-125837142D01*
X150030714Y-125837142D01*
X149887857Y-125765714D01*
X149387857Y-125408571D02*
X148816428Y-125408571D01*
X149173571Y-124908571D02*
X149173571Y-126194285D01*
X149102142Y-126337142D01*
X148959285Y-126408571D01*
X148816428Y-126408571D01*
X147745000Y-126337142D02*
X147887857Y-126408571D01*
X148173571Y-126408571D01*
X148316428Y-126337142D01*
X148387857Y-126194285D01*
X148387857Y-125622857D01*
X148316428Y-125480000D01*
X148173571Y-125408571D01*
X147887857Y-125408571D01*
X147745000Y-125480000D01*
X147673571Y-125622857D01*
X147673571Y-125765714D01*
X148387857Y-125908571D01*
X146387857Y-126408571D02*
X146387857Y-124908571D01*
X146387857Y-126337142D02*
X146530714Y-126408571D01*
X146816428Y-126408571D01*
X146959285Y-126337142D01*
X147030714Y-126265714D01*
X147102142Y-126122857D01*
X147102142Y-125694285D01*
X147030714Y-125551428D01*
X146959285Y-125480000D01*
X146816428Y-125408571D01*
X146530714Y-125408571D01*
X146387857Y-125480000D01*
X121903571Y-118148571D02*
X121903571Y-116648571D01*
X121903571Y-117362857D02*
X121046428Y-117362857D01*
X121046428Y-118148571D02*
X121046428Y-116648571D01*
X119760714Y-118077142D02*
X119903571Y-118148571D01*
X120189285Y-118148571D01*
X120332142Y-118077142D01*
X120403571Y-117934285D01*
X120403571Y-117362857D01*
X120332142Y-117220000D01*
X120189285Y-117148571D01*
X119903571Y-117148571D01*
X119760714Y-117220000D01*
X119689285Y-117362857D01*
X119689285Y-117505714D01*
X120403571Y-117648571D01*
X118403571Y-118148571D02*
X118403571Y-117362857D01*
X118475000Y-117220000D01*
X118617857Y-117148571D01*
X118903571Y-117148571D01*
X119046428Y-117220000D01*
X118403571Y-118077142D02*
X118546428Y-118148571D01*
X118903571Y-118148571D01*
X119046428Y-118077142D01*
X119117857Y-117934285D01*
X119117857Y-117791428D01*
X119046428Y-117648571D01*
X118903571Y-117577142D01*
X118546428Y-117577142D01*
X118403571Y-117505714D01*
X117903571Y-117148571D02*
X117332142Y-117148571D01*
X117689285Y-116648571D02*
X117689285Y-117934285D01*
X117617857Y-118077142D01*
X117475000Y-118148571D01*
X117332142Y-118148571D01*
X116903571Y-118077142D02*
X116760714Y-118148571D01*
X116475000Y-118148571D01*
X116332142Y-118077142D01*
X116260714Y-117934285D01*
X116260714Y-117862857D01*
X116332142Y-117720000D01*
X116475000Y-117648571D01*
X116689285Y-117648571D01*
X116832142Y-117577142D01*
X116903571Y-117434285D01*
X116903571Y-117362857D01*
X116832142Y-117220000D01*
X116689285Y-117148571D01*
X116475000Y-117148571D01*
X116332142Y-117220000D01*
X115617857Y-118148571D02*
X115617857Y-117148571D01*
X115617857Y-116648571D02*
X115689285Y-116720000D01*
X115617857Y-116791428D01*
X115546428Y-116720000D01*
X115617857Y-116648571D01*
X115617857Y-116791428D01*
X114903571Y-117148571D02*
X114903571Y-118148571D01*
X114903571Y-117291428D02*
X114832142Y-117220000D01*
X114689285Y-117148571D01*
X114475000Y-117148571D01*
X114332142Y-117220000D01*
X114260714Y-117362857D01*
X114260714Y-118148571D01*
X113546428Y-118148571D02*
X113546428Y-116648571D01*
X113403571Y-117577142D02*
X112975000Y-118148571D01*
X112975000Y-117148571D02*
X113546428Y-117720000D01*
X122082142Y-120698571D02*
X122082142Y-119698571D01*
X122082142Y-119984285D02*
X122010714Y-119841428D01*
X121939285Y-119770000D01*
X121796428Y-119698571D01*
X121653571Y-119698571D01*
X120582142Y-120627142D02*
X120725000Y-120698571D01*
X121010714Y-120698571D01*
X121153571Y-120627142D01*
X121225000Y-120484285D01*
X121225000Y-119912857D01*
X121153571Y-119770000D01*
X121010714Y-119698571D01*
X120725000Y-119698571D01*
X120582142Y-119770000D01*
X120510714Y-119912857D01*
X120510714Y-120055714D01*
X121225000Y-120198571D01*
X119225000Y-119698571D02*
X119225000Y-121198571D01*
X119225000Y-120627142D02*
X119367857Y-120698571D01*
X119653571Y-120698571D01*
X119796428Y-120627142D01*
X119867857Y-120555714D01*
X119939285Y-120412857D01*
X119939285Y-119984285D01*
X119867857Y-119841428D01*
X119796428Y-119770000D01*
X119653571Y-119698571D01*
X119367857Y-119698571D01*
X119225000Y-119770000D01*
X117867857Y-119698571D02*
X117867857Y-120698571D01*
X118510714Y-119698571D02*
X118510714Y-120484285D01*
X118439285Y-120627142D01*
X118296428Y-120698571D01*
X118082142Y-120698571D01*
X117939285Y-120627142D01*
X117867857Y-120555714D01*
X117153571Y-120698571D02*
X117153571Y-119698571D01*
X117153571Y-119198571D02*
X117225000Y-119270000D01*
X117153571Y-119341428D01*
X117082142Y-119270000D01*
X117153571Y-119198571D01*
X117153571Y-119341428D01*
X116439285Y-120698571D02*
X116439285Y-119698571D01*
X116439285Y-119984285D02*
X116367857Y-119841428D01*
X116296428Y-119770000D01*
X116153571Y-119698571D01*
X116010714Y-119698571D01*
X114939285Y-120627142D02*
X115082142Y-120698571D01*
X115367857Y-120698571D01*
X115510714Y-120627142D01*
X115582142Y-120484285D01*
X115582142Y-119912857D01*
X115510714Y-119770000D01*
X115367857Y-119698571D01*
X115082142Y-119698571D01*
X114939285Y-119770000D01*
X114867857Y-119912857D01*
X114867857Y-120055714D01*
X115582142Y-120198571D01*
X113582142Y-120698571D02*
X113582142Y-119198571D01*
X113582142Y-120627142D02*
X113725000Y-120698571D01*
X114010714Y-120698571D01*
X114153571Y-120627142D01*
X114225000Y-120555714D01*
X114296428Y-120412857D01*
X114296428Y-119984285D01*
X114225000Y-119841428D01*
X114153571Y-119770000D01*
X114010714Y-119698571D01*
X113725000Y-119698571D01*
X113582142Y-119770000D01*
X112867857Y-120555714D02*
X112796428Y-120627142D01*
X112867857Y-120698571D01*
X112939285Y-120627142D01*
X112867857Y-120555714D01*
X112867857Y-120698571D01*
X112867857Y-120127142D02*
X112939285Y-119270000D01*
X112867857Y-119198571D01*
X112796428Y-119270000D01*
X112867857Y-120127142D01*
X112867857Y-119198571D01*
X125519571Y-133989285D02*
X124019571Y-133989285D01*
X125091000Y-134489285D01*
X124019571Y-134989285D01*
X125519571Y-134989285D01*
X125662428Y-135346428D02*
X125662428Y-136489285D01*
X124733857Y-137346428D02*
X124805285Y-137560714D01*
X124876714Y-137632142D01*
X125019571Y-137703571D01*
X125233857Y-137703571D01*
X125376714Y-137632142D01*
X125448142Y-137560714D01*
X125519571Y-137417857D01*
X125519571Y-136846428D01*
X124019571Y-136846428D01*
X124019571Y-137346428D01*
X124091000Y-137489285D01*
X124162428Y-137560714D01*
X124305285Y-137632142D01*
X124448142Y-137632142D01*
X124591000Y-137560714D01*
X124662428Y-137489285D01*
X124733857Y-137346428D01*
X124733857Y-136846428D01*
X124162428Y-138275000D02*
X124091000Y-138346428D01*
X124019571Y-138489285D01*
X124019571Y-138846428D01*
X124091000Y-138989285D01*
X124162428Y-139060714D01*
X124305285Y-139132142D01*
X124448142Y-139132142D01*
X124662428Y-139060714D01*
X125519571Y-138203571D01*
X125519571Y-139132142D01*
X120439571Y-133989285D02*
X118939571Y-133989285D01*
X120011000Y-134489285D01*
X118939571Y-134989285D01*
X120439571Y-134989285D01*
X120582428Y-135346428D02*
X120582428Y-136489285D01*
X119653857Y-137346428D02*
X119725285Y-137560714D01*
X119796714Y-137632142D01*
X119939571Y-137703571D01*
X120153857Y-137703571D01*
X120296714Y-137632142D01*
X120368142Y-137560714D01*
X120439571Y-137417857D01*
X120439571Y-136846428D01*
X118939571Y-136846428D01*
X118939571Y-137346428D01*
X119011000Y-137489285D01*
X119082428Y-137560714D01*
X119225285Y-137632142D01*
X119368142Y-137632142D01*
X119511000Y-137560714D01*
X119582428Y-137489285D01*
X119653857Y-137346428D01*
X119653857Y-136846428D01*
X120439571Y-139132142D02*
X120439571Y-138275000D01*
X120439571Y-138703571D02*
X118939571Y-138703571D01*
X119153857Y-138560714D01*
X119296714Y-138417857D01*
X119368142Y-138275000D01*
X115486571Y-134096428D02*
X113986571Y-134096428D01*
X115058000Y-134596428D01*
X113986571Y-135096428D01*
X115486571Y-135096428D01*
X115629428Y-135453571D02*
X115629428Y-136596428D01*
X115058000Y-136882142D02*
X115058000Y-137596428D01*
X115486571Y-136739285D02*
X113986571Y-137239285D01*
X115486571Y-137739285D01*
X114129428Y-138167857D02*
X114058000Y-138239285D01*
X113986571Y-138382142D01*
X113986571Y-138739285D01*
X114058000Y-138882142D01*
X114129428Y-138953571D01*
X114272285Y-139025000D01*
X114415142Y-139025000D01*
X114629428Y-138953571D01*
X115486571Y-138096428D01*
X115486571Y-139025000D01*
X157904571Y-134874285D02*
X157190285Y-134374285D01*
X157904571Y-134017142D02*
X156404571Y-134017142D01*
X156404571Y-134588571D01*
X156476000Y-134731428D01*
X156547428Y-134802857D01*
X156690285Y-134874285D01*
X156904571Y-134874285D01*
X157047428Y-134802857D01*
X157118857Y-134731428D01*
X157190285Y-134588571D01*
X157190285Y-134017142D01*
X157904571Y-136160000D02*
X156404571Y-136160000D01*
X157833142Y-136160000D02*
X157904571Y-136017142D01*
X157904571Y-135731428D01*
X157833142Y-135588571D01*
X157761714Y-135517142D01*
X157618857Y-135445714D01*
X157190285Y-135445714D01*
X157047428Y-135517142D01*
X156976000Y-135588571D01*
X156904571Y-135731428D01*
X156904571Y-136017142D01*
X156976000Y-136160000D01*
X156904571Y-136731428D02*
X157904571Y-137088571D01*
X156904571Y-137445714D02*
X157904571Y-137088571D01*
X158261714Y-136945714D01*
X158333142Y-136874285D01*
X158404571Y-136731428D01*
X156904571Y-139160000D02*
X157333142Y-140302857D01*
X157761714Y-139160000D01*
X152880142Y-133910000D02*
X152951571Y-134124285D01*
X152951571Y-134481428D01*
X152880142Y-134624285D01*
X152808714Y-134695714D01*
X152665857Y-134767142D01*
X152523000Y-134767142D01*
X152380142Y-134695714D01*
X152308714Y-134624285D01*
X152237285Y-134481428D01*
X152165857Y-134195714D01*
X152094428Y-134052857D01*
X152023000Y-133981428D01*
X151880142Y-133910000D01*
X151737285Y-133910000D01*
X151594428Y-133981428D01*
X151523000Y-134052857D01*
X151451571Y-134195714D01*
X151451571Y-134552857D01*
X151523000Y-134767142D01*
X151951571Y-135195714D02*
X151951571Y-135767142D01*
X151451571Y-135410000D02*
X152737285Y-135410000D01*
X152880142Y-135481428D01*
X152951571Y-135624285D01*
X152951571Y-135767142D01*
X152951571Y-136910000D02*
X152165857Y-136910000D01*
X152023000Y-136838571D01*
X151951571Y-136695714D01*
X151951571Y-136410000D01*
X152023000Y-136267142D01*
X152880142Y-136910000D02*
X152951571Y-136767142D01*
X152951571Y-136410000D01*
X152880142Y-136267142D01*
X152737285Y-136195714D01*
X152594428Y-136195714D01*
X152451571Y-136267142D01*
X152380142Y-136410000D01*
X152380142Y-136767142D01*
X152308714Y-136910000D01*
X152951571Y-137838571D02*
X152880142Y-137695714D01*
X152737285Y-137624285D01*
X151451571Y-137624285D01*
X152951571Y-138624285D02*
X152880142Y-138481428D01*
X152737285Y-138410000D01*
X151451571Y-138410000D01*
X151951571Y-139195714D02*
X152380142Y-140338571D01*
X152808714Y-139195714D01*
X147085857Y-134160000D02*
X147085857Y-134660000D01*
X147871571Y-134874285D02*
X147871571Y-134160000D01*
X146371571Y-134160000D01*
X146371571Y-134874285D01*
X146871571Y-135517142D02*
X147871571Y-135517142D01*
X147014428Y-135517142D02*
X146943000Y-135588571D01*
X146871571Y-135731428D01*
X146871571Y-135945714D01*
X146943000Y-136088571D01*
X147085857Y-136160000D01*
X147871571Y-136160000D01*
X147871571Y-136874285D02*
X146371571Y-136874285D01*
X146943000Y-136874285D02*
X146871571Y-137017142D01*
X146871571Y-137302857D01*
X146943000Y-137445714D01*
X147014428Y-137517142D01*
X147157285Y-137588571D01*
X147585857Y-137588571D01*
X147728714Y-137517142D01*
X147800142Y-137445714D01*
X147871571Y-137302857D01*
X147871571Y-137017142D01*
X147800142Y-136874285D01*
X147871571Y-138445714D02*
X147800142Y-138302857D01*
X147657285Y-138231428D01*
X146371571Y-138231428D01*
X146871571Y-140160000D02*
X147300142Y-139017142D01*
X147728714Y-140160000D01*
X142791571Y-134826714D02*
X141291571Y-134826714D01*
X141291571Y-135183857D01*
X141363000Y-135398142D01*
X141505857Y-135541000D01*
X141648714Y-135612428D01*
X141934428Y-135683857D01*
X142148714Y-135683857D01*
X142434428Y-135612428D01*
X142577285Y-135541000D01*
X142720142Y-135398142D01*
X142791571Y-135183857D01*
X142791571Y-134826714D01*
X142791571Y-136326714D02*
X141791571Y-136326714D01*
X141291571Y-136326714D02*
X141363000Y-136255285D01*
X141434428Y-136326714D01*
X141363000Y-136398142D01*
X141291571Y-136326714D01*
X141434428Y-136326714D01*
X142791571Y-137041000D02*
X141791571Y-137041000D01*
X142077285Y-137041000D02*
X141934428Y-137112428D01*
X141863000Y-137183857D01*
X141791571Y-137326714D01*
X141791571Y-137469571D01*
X141791571Y-140255285D02*
X142220142Y-139112428D01*
X142648714Y-140255285D01*
X137767142Y-134052857D02*
X137838571Y-134267142D01*
X137838571Y-134624285D01*
X137767142Y-134767142D01*
X137695714Y-134838571D01*
X137552857Y-134910000D01*
X137410000Y-134910000D01*
X137267142Y-134838571D01*
X137195714Y-134767142D01*
X137124285Y-134624285D01*
X137052857Y-134338571D01*
X136981428Y-134195714D01*
X136910000Y-134124285D01*
X136767142Y-134052857D01*
X136624285Y-134052857D01*
X136481428Y-134124285D01*
X136410000Y-134195714D01*
X136338571Y-134338571D01*
X136338571Y-134695714D01*
X136410000Y-134910000D01*
X136838571Y-135338571D02*
X136838571Y-135910000D01*
X136338571Y-135552857D02*
X137624285Y-135552857D01*
X137767142Y-135624285D01*
X137838571Y-135767142D01*
X137838571Y-135910000D01*
X137767142Y-136981428D02*
X137838571Y-136838571D01*
X137838571Y-136552857D01*
X137767142Y-136410000D01*
X137624285Y-136338571D01*
X137052857Y-136338571D01*
X136910000Y-136410000D01*
X136838571Y-136552857D01*
X136838571Y-136838571D01*
X136910000Y-136981428D01*
X137052857Y-137052857D01*
X137195714Y-137052857D01*
X137338571Y-136338571D01*
X136838571Y-137695714D02*
X138338571Y-137695714D01*
X136910000Y-137695714D02*
X136838571Y-137838571D01*
X136838571Y-138124285D01*
X136910000Y-138267142D01*
X136981428Y-138338571D01*
X137124285Y-138410000D01*
X137552857Y-138410000D01*
X137695714Y-138338571D01*
X137767142Y-138267142D01*
X137838571Y-138124285D01*
X137838571Y-137838571D01*
X137767142Y-137695714D01*
X136838571Y-140195714D02*
X137267142Y-139052857D01*
X137695714Y-140195714D01*
X161429000Y-135382142D02*
X161357571Y-135239285D01*
X161357571Y-135025000D01*
X161429000Y-134810714D01*
X161571857Y-134667857D01*
X161714714Y-134596428D01*
X162000428Y-134525000D01*
X162214714Y-134525000D01*
X162500428Y-134596428D01*
X162643285Y-134667857D01*
X162786142Y-134810714D01*
X162857571Y-135025000D01*
X162857571Y-135167857D01*
X162786142Y-135382142D01*
X162714714Y-135453571D01*
X162214714Y-135453571D01*
X162214714Y-135167857D01*
X162857571Y-136096428D02*
X161357571Y-136096428D01*
X162857571Y-136953571D01*
X161357571Y-136953571D01*
X162857571Y-137667857D02*
X161357571Y-137667857D01*
X161357571Y-138025000D01*
X161429000Y-138239285D01*
X161571857Y-138382142D01*
X161714714Y-138453571D01*
X162000428Y-138525000D01*
X162214714Y-138525000D01*
X162500428Y-138453571D01*
X162643285Y-138382142D01*
X162786142Y-138239285D01*
X162857571Y-138025000D01*
X162857571Y-137667857D01*
X110406571Y-134096428D02*
X108906571Y-134096428D01*
X109978000Y-134596428D01*
X108906571Y-135096428D01*
X110406571Y-135096428D01*
X110549428Y-135453571D02*
X110549428Y-136596428D01*
X109978000Y-136882142D02*
X109978000Y-137596428D01*
X110406571Y-136739285D02*
X108906571Y-137239285D01*
X110406571Y-137739285D01*
X110406571Y-139025000D02*
X110406571Y-138167857D01*
X110406571Y-138596428D02*
X108906571Y-138596428D01*
X109120857Y-138453571D01*
X109263714Y-138310714D01*
X109335142Y-138167857D01*
X89788857Y-137045000D02*
X89931714Y-136973571D01*
X90146000Y-136973571D01*
X90360285Y-137045000D01*
X90503142Y-137187857D01*
X90574571Y-137330714D01*
X90646000Y-137616428D01*
X90646000Y-137830714D01*
X90574571Y-138116428D01*
X90503142Y-138259285D01*
X90360285Y-138402142D01*
X90146000Y-138473571D01*
X90003142Y-138473571D01*
X89788857Y-138402142D01*
X89717428Y-138330714D01*
X89717428Y-137830714D01*
X90003142Y-137830714D01*
X89074571Y-138473571D02*
X89074571Y-136973571D01*
X88217428Y-138473571D01*
X88217428Y-136973571D01*
X87503142Y-138473571D02*
X87503142Y-136973571D01*
X87146000Y-136973571D01*
X86931714Y-137045000D01*
X86788857Y-137187857D01*
X86717428Y-137330714D01*
X86646000Y-137616428D01*
X86646000Y-137830714D01*
X86717428Y-138116428D01*
X86788857Y-138259285D01*
X86931714Y-138402142D01*
X87146000Y-138473571D01*
X87503142Y-138473571D01*
X94813285Y-135801571D02*
X95670428Y-135801571D01*
X95241857Y-135801571D02*
X95241857Y-134301571D01*
X95384714Y-134515857D01*
X95527571Y-134658714D01*
X95670428Y-134730142D01*
X94241857Y-134444428D02*
X94170428Y-134373000D01*
X94027571Y-134301571D01*
X93670428Y-134301571D01*
X93527571Y-134373000D01*
X93456142Y-134444428D01*
X93384714Y-134587285D01*
X93384714Y-134730142D01*
X93456142Y-134944428D01*
X94313285Y-135801571D01*
X93384714Y-135801571D01*
X92741857Y-135230142D02*
X91599000Y-135230142D01*
X94670428Y-136851571D02*
X94956142Y-136851571D01*
X95099000Y-136923000D01*
X95170428Y-136994428D01*
X95313285Y-137208714D01*
X95384714Y-137494428D01*
X95384714Y-138065857D01*
X95313285Y-138208714D01*
X95241857Y-138280142D01*
X95099000Y-138351571D01*
X94813285Y-138351571D01*
X94670428Y-138280142D01*
X94599000Y-138208714D01*
X94527571Y-138065857D01*
X94527571Y-137708714D01*
X94599000Y-137565857D01*
X94670428Y-137494428D01*
X94813285Y-137423000D01*
X95099000Y-137423000D01*
X95241857Y-137494428D01*
X95313285Y-137565857D01*
X95384714Y-137708714D01*
X93599000Y-136851571D02*
X93456142Y-136851571D01*
X93313285Y-136923000D01*
X93241857Y-136994428D01*
X93170428Y-137137285D01*
X93099000Y-137423000D01*
X93099000Y-137780142D01*
X93170428Y-138065857D01*
X93241857Y-138208714D01*
X93313285Y-138280142D01*
X93456142Y-138351571D01*
X93599000Y-138351571D01*
X93741857Y-138280142D01*
X93813285Y-138208714D01*
X93884714Y-138065857D01*
X93956142Y-137780142D01*
X93956142Y-137423000D01*
X93884714Y-137137285D01*
X93813285Y-136994428D01*
X93741857Y-136923000D01*
X93599000Y-136851571D01*
X92670428Y-136851571D02*
X92170428Y-138351571D01*
X91670428Y-136851571D01*
D11*
G36*
X101954251Y-71512036D02*
G01*
X101910456Y-71528972D01*
X101843707Y-71562601D01*
X101747863Y-71615334D01*
X101740401Y-71619525D01*
X101652129Y-71670001D01*
X101577637Y-71714223D01*
X101524240Y-71747731D01*
X101499254Y-71766064D01*
X101498555Y-71766962D01*
X101504591Y-71792414D01*
X101532277Y-71849255D01*
X101579812Y-71934389D01*
X101645389Y-72044717D01*
X101727203Y-72177144D01*
X101823452Y-72328571D01*
X101847406Y-72365707D01*
X101909817Y-72468757D01*
X101955263Y-72557432D01*
X101979754Y-72623714D01*
X101982267Y-72636807D01*
X101981152Y-72694443D01*
X101968657Y-72785865D01*
X101946340Y-72905208D01*
X101915760Y-73046609D01*
X101878472Y-73204203D01*
X101836035Y-73372126D01*
X101790006Y-73544514D01*
X101741943Y-73715501D01*
X101693403Y-73879224D01*
X101645943Y-74029818D01*
X101601122Y-74161420D01*
X101560497Y-74268163D01*
X101532177Y-74331494D01*
X101498817Y-74398957D01*
X101467318Y-74463511D01*
X101465613Y-74467045D01*
X101413502Y-74532250D01*
X101337446Y-74576156D01*
X101248908Y-74597197D01*
X101159352Y-74593807D01*
X101080242Y-74564423D01*
X101035736Y-74525736D01*
X100971644Y-74419636D01*
X100924678Y-74287405D01*
X100898910Y-74142527D01*
X100895259Y-74060394D01*
X100909961Y-73907105D01*
X100953110Y-73780166D01*
X101027028Y-73673418D01*
X101050079Y-73649657D01*
X101118675Y-73583009D01*
X101123386Y-73111916D01*
X101128097Y-72640822D01*
X101008054Y-72459106D01*
X100951723Y-72376856D01*
X100897472Y-72302865D01*
X100853041Y-72247448D01*
X100833944Y-72227056D01*
X100779876Y-72176723D01*
X100706650Y-72216158D01*
X100660367Y-72244415D01*
X100635043Y-72266354D01*
X100633424Y-72270299D01*
X100616116Y-72287023D01*
X100586503Y-72299476D01*
X100557886Y-72310700D01*
X100514066Y-72332024D01*
X100451282Y-72365529D01*
X100365772Y-72413296D01*
X100253774Y-72477407D01*
X100111527Y-72559944D01*
X100034227Y-72605065D01*
X99943298Y-72659111D01*
X99883661Y-72697604D01*
X99850039Y-72725044D01*
X99837156Y-72745934D01*
X99839735Y-72764775D01*
X99841885Y-72769152D01*
X99862803Y-72796714D01*
X99907560Y-72848416D01*
X99970943Y-72918475D01*
X100047738Y-73001107D01*
X100114156Y-73071156D01*
X100267210Y-73237414D01*
X100386944Y-73381519D01*
X100474427Y-73504921D01*
X100530726Y-73609068D01*
X100549716Y-73661954D01*
X100557560Y-73708250D01*
X100565662Y-73787221D01*
X100573309Y-73889846D01*
X100579788Y-74007103D01*
X100582837Y-74081248D01*
X100587092Y-74209427D01*
X100588964Y-74303138D01*
X100587901Y-74369583D01*
X100583354Y-74415961D01*
X100574773Y-74449474D01*
X100561606Y-74477321D01*
X100551265Y-74494324D01*
X100491544Y-74559862D01*
X100414589Y-74605532D01*
X100333620Y-74625450D01*
X100272942Y-74618244D01*
X100218001Y-74587066D01*
X100149133Y-74531230D01*
X100075995Y-74460474D01*
X100008248Y-74384537D01*
X99955550Y-74313159D01*
X99936147Y-74278668D01*
X99907081Y-74231441D01*
X99854217Y-74159506D01*
X99782384Y-74068485D01*
X99696412Y-73964000D01*
X99601132Y-73851675D01*
X99501373Y-73737130D01*
X99401966Y-73625990D01*
X99307741Y-73523875D01*
X99223527Y-73436408D01*
X99157409Y-73372198D01*
X99084001Y-73308057D01*
X99022247Y-73260763D01*
X98978934Y-73235235D01*
X98964555Y-73232429D01*
X98942521Y-73243752D01*
X98887562Y-73274144D01*
X98802848Y-73321780D01*
X98691552Y-73384835D01*
X98556844Y-73461485D01*
X98401897Y-73549905D01*
X98229881Y-73648270D01*
X98043968Y-73754756D01*
X97847330Y-73867537D01*
X97643137Y-73984789D01*
X97434561Y-74104687D01*
X97224775Y-74225407D01*
X97016948Y-74345123D01*
X96814253Y-74462011D01*
X96619860Y-74574246D01*
X96436942Y-74680004D01*
X96268670Y-74777460D01*
X96118215Y-74864788D01*
X95988749Y-74940165D01*
X95883443Y-75001765D01*
X95805468Y-75047764D01*
X95757996Y-75076337D01*
X95744237Y-75085304D01*
X95762769Y-75087076D01*
X95821067Y-75088799D01*
X95917191Y-75090464D01*
X96049201Y-75092063D01*
X96215154Y-75093587D01*
X96413111Y-75095029D01*
X96641130Y-75096380D01*
X96897271Y-75097632D01*
X97179592Y-75098776D01*
X97486153Y-75099804D01*
X97815013Y-75100708D01*
X98164231Y-75101479D01*
X98531865Y-75102109D01*
X98915976Y-75102590D01*
X99314623Y-75102914D01*
X99725863Y-75103072D01*
X99898420Y-75103087D01*
X104072414Y-75103087D01*
X103774732Y-74586954D01*
X103711714Y-74477665D01*
X103630594Y-74336940D01*
X103534084Y-74169486D01*
X103424897Y-73980012D01*
X103305745Y-73773223D01*
X103179340Y-73553828D01*
X103048395Y-73326533D01*
X102915621Y-73096046D01*
X102783731Y-72867073D01*
X102750376Y-72809163D01*
X102628753Y-72598232D01*
X102512772Y-72397535D01*
X102404175Y-72210059D01*
X102304706Y-72038792D01*
X102216108Y-71886723D01*
X102140122Y-71756838D01*
X102078493Y-71652125D01*
X102032963Y-71575573D01*
X102005275Y-71530169D01*
X101997528Y-71518609D01*
X101981228Y-71509385D01*
X101954251Y-71512036D01*
G37*
X101954251Y-71512036D02*
X101910456Y-71528972D01*
X101843707Y-71562601D01*
X101747863Y-71615334D01*
X101740401Y-71619525D01*
X101652129Y-71670001D01*
X101577637Y-71714223D01*
X101524240Y-71747731D01*
X101499254Y-71766064D01*
X101498555Y-71766962D01*
X101504591Y-71792414D01*
X101532277Y-71849255D01*
X101579812Y-71934389D01*
X101645389Y-72044717D01*
X101727203Y-72177144D01*
X101823452Y-72328571D01*
X101847406Y-72365707D01*
X101909817Y-72468757D01*
X101955263Y-72557432D01*
X101979754Y-72623714D01*
X101982267Y-72636807D01*
X101981152Y-72694443D01*
X101968657Y-72785865D01*
X101946340Y-72905208D01*
X101915760Y-73046609D01*
X101878472Y-73204203D01*
X101836035Y-73372126D01*
X101790006Y-73544514D01*
X101741943Y-73715501D01*
X101693403Y-73879224D01*
X101645943Y-74029818D01*
X101601122Y-74161420D01*
X101560497Y-74268163D01*
X101532177Y-74331494D01*
X101498817Y-74398957D01*
X101467318Y-74463511D01*
X101465613Y-74467045D01*
X101413502Y-74532250D01*
X101337446Y-74576156D01*
X101248908Y-74597197D01*
X101159352Y-74593807D01*
X101080242Y-74564423D01*
X101035736Y-74525736D01*
X100971644Y-74419636D01*
X100924678Y-74287405D01*
X100898910Y-74142527D01*
X100895259Y-74060394D01*
X100909961Y-73907105D01*
X100953110Y-73780166D01*
X101027028Y-73673418D01*
X101050079Y-73649657D01*
X101118675Y-73583009D01*
X101123386Y-73111916D01*
X101128097Y-72640822D01*
X101008054Y-72459106D01*
X100951723Y-72376856D01*
X100897472Y-72302865D01*
X100853041Y-72247448D01*
X100833944Y-72227056D01*
X100779876Y-72176723D01*
X100706650Y-72216158D01*
X100660367Y-72244415D01*
X100635043Y-72266354D01*
X100633424Y-72270299D01*
X100616116Y-72287023D01*
X100586503Y-72299476D01*
X100557886Y-72310700D01*
X100514066Y-72332024D01*
X100451282Y-72365529D01*
X100365772Y-72413296D01*
X100253774Y-72477407D01*
X100111527Y-72559944D01*
X100034227Y-72605065D01*
X99943298Y-72659111D01*
X99883661Y-72697604D01*
X99850039Y-72725044D01*
X99837156Y-72745934D01*
X99839735Y-72764775D01*
X99841885Y-72769152D01*
X99862803Y-72796714D01*
X99907560Y-72848416D01*
X99970943Y-72918475D01*
X100047738Y-73001107D01*
X100114156Y-73071156D01*
X100267210Y-73237414D01*
X100386944Y-73381519D01*
X100474427Y-73504921D01*
X100530726Y-73609068D01*
X100549716Y-73661954D01*
X100557560Y-73708250D01*
X100565662Y-73787221D01*
X100573309Y-73889846D01*
X100579788Y-74007103D01*
X100582837Y-74081248D01*
X100587092Y-74209427D01*
X100588964Y-74303138D01*
X100587901Y-74369583D01*
X100583354Y-74415961D01*
X100574773Y-74449474D01*
X100561606Y-74477321D01*
X100551265Y-74494324D01*
X100491544Y-74559862D01*
X100414589Y-74605532D01*
X100333620Y-74625450D01*
X100272942Y-74618244D01*
X100218001Y-74587066D01*
X100149133Y-74531230D01*
X100075995Y-74460474D01*
X100008248Y-74384537D01*
X99955550Y-74313159D01*
X99936147Y-74278668D01*
X99907081Y-74231441D01*
X99854217Y-74159506D01*
X99782384Y-74068485D01*
X99696412Y-73964000D01*
X99601132Y-73851675D01*
X99501373Y-73737130D01*
X99401966Y-73625990D01*
X99307741Y-73523875D01*
X99223527Y-73436408D01*
X99157409Y-73372198D01*
X99084001Y-73308057D01*
X99022247Y-73260763D01*
X98978934Y-73235235D01*
X98964555Y-73232429D01*
X98942521Y-73243752D01*
X98887562Y-73274144D01*
X98802848Y-73321780D01*
X98691552Y-73384835D01*
X98556844Y-73461485D01*
X98401897Y-73549905D01*
X98229881Y-73648270D01*
X98043968Y-73754756D01*
X97847330Y-73867537D01*
X97643137Y-73984789D01*
X97434561Y-74104687D01*
X97224775Y-74225407D01*
X97016948Y-74345123D01*
X96814253Y-74462011D01*
X96619860Y-74574246D01*
X96436942Y-74680004D01*
X96268670Y-74777460D01*
X96118215Y-74864788D01*
X95988749Y-74940165D01*
X95883443Y-75001765D01*
X95805468Y-75047764D01*
X95757996Y-75076337D01*
X95744237Y-75085304D01*
X95762769Y-75087076D01*
X95821067Y-75088799D01*
X95917191Y-75090464D01*
X96049201Y-75092063D01*
X96215154Y-75093587D01*
X96413111Y-75095029D01*
X96641130Y-75096380D01*
X96897271Y-75097632D01*
X97179592Y-75098776D01*
X97486153Y-75099804D01*
X97815013Y-75100708D01*
X98164231Y-75101479D01*
X98531865Y-75102109D01*
X98915976Y-75102590D01*
X99314623Y-75102914D01*
X99725863Y-75103072D01*
X99898420Y-75103087D01*
X104072414Y-75103087D01*
X103774732Y-74586954D01*
X103711714Y-74477665D01*
X103630594Y-74336940D01*
X103534084Y-74169486D01*
X103424897Y-73980012D01*
X103305745Y-73773223D01*
X103179340Y-73553828D01*
X103048395Y-73326533D01*
X102915621Y-73096046D01*
X102783731Y-72867073D01*
X102750376Y-72809163D01*
X102628753Y-72598232D01*
X102512772Y-72397535D01*
X102404175Y-72210059D01*
X102304706Y-72038792D01*
X102216108Y-71886723D01*
X102140122Y-71756838D01*
X102078493Y-71652125D01*
X102032963Y-71575573D01*
X102005275Y-71530169D01*
X101997528Y-71518609D01*
X101981228Y-71509385D01*
X101954251Y-71512036D01*
G36*
X97018854Y-71435908D02*
G01*
X97003531Y-71461590D01*
X96969089Y-71520469D01*
X96917231Y-71609602D01*
X96849660Y-71726049D01*
X96768079Y-71866867D01*
X96674191Y-72029114D01*
X96569701Y-72209849D01*
X96456310Y-72406130D01*
X96335722Y-72615016D01*
X96211687Y-72830017D01*
X96085013Y-73049649D01*
X95963392Y-73260495D01*
X95848588Y-73459499D01*
X95742362Y-73643607D01*
X95646477Y-73809765D01*
X95562698Y-73954917D01*
X95492786Y-74076009D01*
X95438504Y-74169988D01*
X95401615Y-74233797D01*
X95384269Y-74263719D01*
X95355993Y-74314271D01*
X95340618Y-74345914D01*
X95339776Y-74351420D01*
X95358512Y-74341082D01*
X95410614Y-74311407D01*
X95493360Y-74263968D01*
X95604025Y-74200333D01*
X95739886Y-74122074D01*
X95898219Y-74030759D01*
X96076302Y-73927960D01*
X96271410Y-73815247D01*
X96480820Y-73694189D01*
X96701809Y-73566357D01*
X96785887Y-73517702D01*
X97010830Y-73387567D01*
X97225476Y-73263497D01*
X97427068Y-73147077D01*
X97612852Y-73039893D01*
X97780072Y-72943531D01*
X97925973Y-72859578D01*
X98047799Y-72789620D01*
X98142796Y-72735243D01*
X98208208Y-72698034D01*
X98241280Y-72679578D01*
X98244738Y-72677830D01*
X98234661Y-72662005D01*
X98199593Y-72619692D01*
X98143115Y-72554790D01*
X98068807Y-72471196D01*
X97980248Y-72372809D01*
X97881020Y-72263525D01*
X97774702Y-72147244D01*
X97664875Y-72027862D01*
X97555118Y-71909277D01*
X97449012Y-71795388D01*
X97350138Y-71690092D01*
X97262074Y-71597287D01*
X97188401Y-71520870D01*
X97132700Y-71464740D01*
X97113597Y-71446335D01*
X97050292Y-71386872D01*
X97018854Y-71435908D01*
G37*
X97018854Y-71435908D02*
X97003531Y-71461590D01*
X96969089Y-71520469D01*
X96917231Y-71609602D01*
X96849660Y-71726049D01*
X96768079Y-71866867D01*
X96674191Y-72029114D01*
X96569701Y-72209849D01*
X96456310Y-72406130D01*
X96335722Y-72615016D01*
X96211687Y-72830017D01*
X96085013Y-73049649D01*
X95963392Y-73260495D01*
X95848588Y-73459499D01*
X95742362Y-73643607D01*
X95646477Y-73809765D01*
X95562698Y-73954917D01*
X95492786Y-74076009D01*
X95438504Y-74169988D01*
X95401615Y-74233797D01*
X95384269Y-74263719D01*
X95355993Y-74314271D01*
X95340618Y-74345914D01*
X95339776Y-74351420D01*
X95358512Y-74341082D01*
X95410614Y-74311407D01*
X95493360Y-74263968D01*
X95604025Y-74200333D01*
X95739886Y-74122074D01*
X95898219Y-74030759D01*
X96076302Y-73927960D01*
X96271410Y-73815247D01*
X96480820Y-73694189D01*
X96701809Y-73566357D01*
X96785887Y-73517702D01*
X97010830Y-73387567D01*
X97225476Y-73263497D01*
X97427068Y-73147077D01*
X97612852Y-73039893D01*
X97780072Y-72943531D01*
X97925973Y-72859578D01*
X98047799Y-72789620D01*
X98142796Y-72735243D01*
X98208208Y-72698034D01*
X98241280Y-72679578D01*
X98244738Y-72677830D01*
X98234661Y-72662005D01*
X98199593Y-72619692D01*
X98143115Y-72554790D01*
X98068807Y-72471196D01*
X97980248Y-72372809D01*
X97881020Y-72263525D01*
X97774702Y-72147244D01*
X97664875Y-72027862D01*
X97555118Y-71909277D01*
X97449012Y-71795388D01*
X97350138Y-71690092D01*
X97262074Y-71597287D01*
X97188401Y-71520870D01*
X97132700Y-71464740D01*
X97113597Y-71446335D01*
X97050292Y-71386872D01*
X97018854Y-71435908D01*
G36*
X99474122Y-67196166D02*
G01*
X99443124Y-67246538D01*
X99395366Y-67326341D01*
X99332806Y-67432180D01*
X99257403Y-67560659D01*
X99171115Y-67708384D01*
X99075899Y-67871958D01*
X98973715Y-68047987D01*
X98866519Y-68233075D01*
X98756271Y-68423827D01*
X98644929Y-68616847D01*
X98534450Y-68808741D01*
X98426793Y-68996111D01*
X98323916Y-69175565D01*
X98227777Y-69343705D01*
X98140335Y-69497137D01*
X98063547Y-69632465D01*
X97999372Y-69746294D01*
X97949767Y-69835229D01*
X97916691Y-69895874D01*
X97902103Y-69924833D01*
X97901569Y-69926644D01*
X97919679Y-69951217D01*
X97970020Y-69988807D01*
X98046605Y-70035722D01*
X98143448Y-70088274D01*
X98244833Y-70138213D01*
X98382785Y-70198769D01*
X98527858Y-70253179D01*
X98685050Y-70302651D01*
X98859357Y-70348395D01*
X99055778Y-70391620D01*
X99279311Y-70433534D01*
X99534952Y-70475347D01*
X99799394Y-70514284D01*
X100029148Y-70548828D01*
X100222083Y-70583026D01*
X100383036Y-70618577D01*
X100516845Y-70657182D01*
X100628350Y-70700539D01*
X100722386Y-70750348D01*
X100803794Y-70808309D01*
X100877410Y-70876120D01*
X100901149Y-70901312D01*
X100952603Y-70959958D01*
X100990666Y-71007815D01*
X101008323Y-71035958D01*
X101008794Y-71038265D01*
X101014972Y-71052416D01*
X101036410Y-71052575D01*
X101077467Y-71036861D01*
X101142499Y-71003391D01*
X101235863Y-70950281D01*
X101300748Y-70912088D01*
X101397499Y-70852385D01*
X101472688Y-70801263D01*
X101521261Y-70762399D01*
X101538165Y-70739472D01*
X101538155Y-70739305D01*
X101527672Y-70717456D01*
X101498069Y-70662739D01*
X101451062Y-70578136D01*
X101388371Y-70466629D01*
X101311714Y-70331201D01*
X101222809Y-70174833D01*
X101123374Y-70000507D01*
X101015128Y-69811206D01*
X100899789Y-69609911D01*
X100779076Y-69399605D01*
X100654706Y-69183271D01*
X100528399Y-68963889D01*
X100401873Y-68744442D01*
X100276845Y-68527912D01*
X100155035Y-68317281D01*
X100038161Y-68115532D01*
X99927940Y-67925647D01*
X99826092Y-67750606D01*
X99734335Y-67593394D01*
X99654387Y-67456991D01*
X99587966Y-67344380D01*
X99536791Y-67258543D01*
X99502580Y-67202462D01*
X99487052Y-67179119D01*
X99486402Y-67178621D01*
X99474122Y-67196166D01*
G37*
X99474122Y-67196166D02*
X99443124Y-67246538D01*
X99395366Y-67326341D01*
X99332806Y-67432180D01*
X99257403Y-67560659D01*
X99171115Y-67708384D01*
X99075899Y-67871958D01*
X98973715Y-68047987D01*
X98866519Y-68233075D01*
X98756271Y-68423827D01*
X98644929Y-68616847D01*
X98534450Y-68808741D01*
X98426793Y-68996111D01*
X98323916Y-69175565D01*
X98227777Y-69343705D01*
X98140335Y-69497137D01*
X98063547Y-69632465D01*
X97999372Y-69746294D01*
X97949767Y-69835229D01*
X97916691Y-69895874D01*
X97902103Y-69924833D01*
X97901569Y-69926644D01*
X97919679Y-69951217D01*
X97970020Y-69988807D01*
X98046605Y-70035722D01*
X98143448Y-70088274D01*
X98244833Y-70138213D01*
X98382785Y-70198769D01*
X98527858Y-70253179D01*
X98685050Y-70302651D01*
X98859357Y-70348395D01*
X99055778Y-70391620D01*
X99279311Y-70433534D01*
X99534952Y-70475347D01*
X99799394Y-70514284D01*
X100029148Y-70548828D01*
X100222083Y-70583026D01*
X100383036Y-70618577D01*
X100516845Y-70657182D01*
X100628350Y-70700539D01*
X100722386Y-70750348D01*
X100803794Y-70808309D01*
X100877410Y-70876120D01*
X100901149Y-70901312D01*
X100952603Y-70959958D01*
X100990666Y-71007815D01*
X101008323Y-71035958D01*
X101008794Y-71038265D01*
X101014972Y-71052416D01*
X101036410Y-71052575D01*
X101077467Y-71036861D01*
X101142499Y-71003391D01*
X101235863Y-70950281D01*
X101300748Y-70912088D01*
X101397499Y-70852385D01*
X101472688Y-70801263D01*
X101521261Y-70762399D01*
X101538165Y-70739472D01*
X101538155Y-70739305D01*
X101527672Y-70717456D01*
X101498069Y-70662739D01*
X101451062Y-70578136D01*
X101388371Y-70466629D01*
X101311714Y-70331201D01*
X101222809Y-70174833D01*
X101123374Y-70000507D01*
X101015128Y-69811206D01*
X100899789Y-69609911D01*
X100779076Y-69399605D01*
X100654706Y-69183271D01*
X100528399Y-68963889D01*
X100401873Y-68744442D01*
X100276845Y-68527912D01*
X100155035Y-68317281D01*
X100038161Y-68115532D01*
X99927940Y-67925647D01*
X99826092Y-67750606D01*
X99734335Y-67593394D01*
X99654387Y-67456991D01*
X99587966Y-67344380D01*
X99536791Y-67258543D01*
X99502580Y-67202462D01*
X99487052Y-67179119D01*
X99486402Y-67178621D01*
X99474122Y-67196166D01*
D12*
X100636000Y-109466748D02*
X100636000Y-109989252D01*
X102056000Y-109466748D02*
X102056000Y-109989252D01*
X130294748Y-129488000D02*
X130817252Y-129488000D01*
X130294748Y-128068000D02*
X130817252Y-128068000D01*
X125202000Y-107269000D02*
X125202000Y-105769000D01*
X125202000Y-105769000D02*
X125472000Y-105769000D01*
X125472000Y-105769000D02*
X125472000Y-102939000D01*
X132102000Y-107269000D02*
X132102000Y-105769000D01*
X132102000Y-105769000D02*
X131832000Y-105769000D01*
X131832000Y-105769000D02*
X131832000Y-104669000D01*
X118090000Y-107269000D02*
X118090000Y-105769000D01*
X118090000Y-105769000D02*
X118360000Y-105769000D01*
X118360000Y-105769000D02*
X118360000Y-102939000D01*
X124990000Y-107269000D02*
X124990000Y-105769000D01*
X124990000Y-105769000D02*
X124720000Y-105769000D01*
X124720000Y-105769000D02*
X124720000Y-104669000D01*
X105135000Y-120442000D02*
X105135000Y-118942000D01*
X105135000Y-118942000D02*
X105405000Y-118942000D01*
X105405000Y-118942000D02*
X105405000Y-116112000D01*
X112035000Y-120442000D02*
X112035000Y-118942000D01*
X112035000Y-118942000D02*
X111765000Y-118942000D01*
X111765000Y-118942000D02*
X111765000Y-117842000D01*
X98024000Y-120442000D02*
X98024000Y-118942000D01*
X98024000Y-118942000D02*
X98294000Y-118942000D01*
X98294000Y-118942000D02*
X98294000Y-116112000D01*
X104924000Y-120442000D02*
X104924000Y-118942000D01*
X104924000Y-118942000D02*
X104654000Y-118942000D01*
X104654000Y-118942000D02*
X104654000Y-117842000D01*
X130028000Y-120477000D02*
X130028000Y-118977000D01*
X130028000Y-118977000D02*
X130298000Y-118977000D01*
X130298000Y-118977000D02*
X130298000Y-116147000D01*
X136928000Y-120477000D02*
X136928000Y-118977000D01*
X136928000Y-118977000D02*
X136658000Y-118977000D01*
X136658000Y-118977000D02*
X136658000Y-117877000D01*
X122914000Y-120477000D02*
X122914000Y-118977000D01*
X122914000Y-118977000D02*
X123184000Y-118977000D01*
X123184000Y-118977000D02*
X123184000Y-116147000D01*
X129814000Y-120477000D02*
X129814000Y-118977000D01*
X129814000Y-118977000D02*
X129544000Y-118977000D01*
X129544000Y-118977000D02*
X129544000Y-117877000D01*
X109962000Y-107269000D02*
X109962000Y-105769000D01*
X109962000Y-105769000D02*
X110232000Y-105769000D01*
X110232000Y-105769000D02*
X110232000Y-102939000D01*
X116862000Y-107269000D02*
X116862000Y-105769000D01*
X116862000Y-105769000D02*
X116592000Y-105769000D01*
X116592000Y-105769000D02*
X116592000Y-104669000D01*
X102850000Y-107269000D02*
X102850000Y-105769000D01*
X102850000Y-105769000D02*
X103120000Y-105769000D01*
X103120000Y-105769000D02*
X103120000Y-102939000D01*
X109750000Y-107269000D02*
X109750000Y-105769000D01*
X109750000Y-105769000D02*
X109480000Y-105769000D01*
X109480000Y-105769000D02*
X109480000Y-104669000D01*
D13*
X99147380Y-108442285D02*
X99147380Y-109013714D01*
X100147380Y-108728000D02*
X99147380Y-108728000D01*
X100147380Y-109347047D02*
X99147380Y-109347047D01*
X99623571Y-109347047D02*
X99623571Y-109918476D01*
X100147380Y-109918476D02*
X99147380Y-109918476D01*
X99242619Y-110347047D02*
X99195000Y-110394666D01*
X99147380Y-110489904D01*
X99147380Y-110728000D01*
X99195000Y-110823238D01*
X99242619Y-110870857D01*
X99337857Y-110918476D01*
X99433095Y-110918476D01*
X99575952Y-110870857D01*
X100147380Y-110299428D01*
X100147380Y-110918476D01*
X131841714Y-129880380D02*
X131270285Y-129880380D01*
X131556000Y-130880380D02*
X131556000Y-129880380D01*
X130936952Y-130880380D02*
X130936952Y-129880380D01*
X130936952Y-130356571D02*
X130365523Y-130356571D01*
X130365523Y-130880380D02*
X130365523Y-129880380D01*
X129365523Y-130880380D02*
X129936952Y-130880380D01*
X129651238Y-130880380D02*
X129651238Y-129880380D01*
X129746476Y-130023238D01*
X129841714Y-130118476D01*
X129936952Y-130166095D01*
X127730238Y-101893619D02*
X127825476Y-101846000D01*
X127920714Y-101750761D01*
X128063571Y-101607904D01*
X128158809Y-101560285D01*
X128254047Y-101560285D01*
X128206428Y-101798380D02*
X128301666Y-101750761D01*
X128396904Y-101655523D01*
X128444523Y-101465047D01*
X128444523Y-101131714D01*
X128396904Y-100941238D01*
X128301666Y-100846000D01*
X128206428Y-100798380D01*
X128015952Y-100798380D01*
X127920714Y-100846000D01*
X127825476Y-100941238D01*
X127777857Y-101131714D01*
X127777857Y-101465047D01*
X127825476Y-101655523D01*
X127920714Y-101750761D01*
X128015952Y-101798380D01*
X128206428Y-101798380D01*
X127206428Y-101226952D02*
X127301666Y-101179333D01*
X127349285Y-101131714D01*
X127396904Y-101036476D01*
X127396904Y-100988857D01*
X127349285Y-100893619D01*
X127301666Y-100846000D01*
X127206428Y-100798380D01*
X127015952Y-100798380D01*
X126920714Y-100846000D01*
X126873095Y-100893619D01*
X126825476Y-100988857D01*
X126825476Y-101036476D01*
X126873095Y-101131714D01*
X126920714Y-101179333D01*
X127015952Y-101226952D01*
X127206428Y-101226952D01*
X127301666Y-101274571D01*
X127349285Y-101322190D01*
X127396904Y-101417428D01*
X127396904Y-101607904D01*
X127349285Y-101703142D01*
X127301666Y-101750761D01*
X127206428Y-101798380D01*
X127015952Y-101798380D01*
X126920714Y-101750761D01*
X126873095Y-101703142D01*
X126825476Y-101607904D01*
X126825476Y-101417428D01*
X126873095Y-101322190D01*
X126920714Y-101274571D01*
X127015952Y-101226952D01*
X121634238Y-102020619D02*
X121729476Y-101973000D01*
X121824714Y-101877761D01*
X121967571Y-101734904D01*
X122062809Y-101687285D01*
X122158047Y-101687285D01*
X122110428Y-101925380D02*
X122205666Y-101877761D01*
X122300904Y-101782523D01*
X122348523Y-101592047D01*
X122348523Y-101258714D01*
X122300904Y-101068238D01*
X122205666Y-100973000D01*
X122110428Y-100925380D01*
X121919952Y-100925380D01*
X121824714Y-100973000D01*
X121729476Y-101068238D01*
X121681857Y-101258714D01*
X121681857Y-101592047D01*
X121729476Y-101782523D01*
X121824714Y-101877761D01*
X121919952Y-101925380D01*
X122110428Y-101925380D01*
X121348523Y-100925380D02*
X120681857Y-100925380D01*
X121110428Y-101925380D01*
X108680238Y-128563619D02*
X108775476Y-128516000D01*
X108870714Y-128420761D01*
X109013571Y-128277904D01*
X109108809Y-128230285D01*
X109204047Y-128230285D01*
X109156428Y-128468380D02*
X109251666Y-128420761D01*
X109346904Y-128325523D01*
X109394523Y-128135047D01*
X109394523Y-127801714D01*
X109346904Y-127611238D01*
X109251666Y-127516000D01*
X109156428Y-127468380D01*
X108965952Y-127468380D01*
X108870714Y-127516000D01*
X108775476Y-127611238D01*
X108727857Y-127801714D01*
X108727857Y-128135047D01*
X108775476Y-128325523D01*
X108870714Y-128420761D01*
X108965952Y-128468380D01*
X109156428Y-128468380D01*
X107870714Y-127468380D02*
X108061190Y-127468380D01*
X108156428Y-127516000D01*
X108204047Y-127563619D01*
X108299285Y-127706476D01*
X108346904Y-127896952D01*
X108346904Y-128277904D01*
X108299285Y-128373142D01*
X108251666Y-128420761D01*
X108156428Y-128468380D01*
X107965952Y-128468380D01*
X107870714Y-128420761D01*
X107823095Y-128373142D01*
X107775476Y-128277904D01*
X107775476Y-128039809D01*
X107823095Y-127944571D01*
X107870714Y-127896952D01*
X107965952Y-127849333D01*
X108156428Y-127849333D01*
X108251666Y-127896952D01*
X108299285Y-127944571D01*
X108346904Y-128039809D01*
X101568238Y-128690619D02*
X101663476Y-128643000D01*
X101758714Y-128547761D01*
X101901571Y-128404904D01*
X101996809Y-128357285D01*
X102092047Y-128357285D01*
X102044428Y-128595380D02*
X102139666Y-128547761D01*
X102234904Y-128452523D01*
X102282523Y-128262047D01*
X102282523Y-127928714D01*
X102234904Y-127738238D01*
X102139666Y-127643000D01*
X102044428Y-127595380D01*
X101853952Y-127595380D01*
X101758714Y-127643000D01*
X101663476Y-127738238D01*
X101615857Y-127928714D01*
X101615857Y-128262047D01*
X101663476Y-128452523D01*
X101758714Y-128547761D01*
X101853952Y-128595380D01*
X102044428Y-128595380D01*
X100711095Y-127595380D02*
X101187285Y-127595380D01*
X101234904Y-128071571D01*
X101187285Y-128023952D01*
X101092047Y-127976333D01*
X100853952Y-127976333D01*
X100758714Y-128023952D01*
X100711095Y-128071571D01*
X100663476Y-128166809D01*
X100663476Y-128404904D01*
X100711095Y-128500142D01*
X100758714Y-128547761D01*
X100853952Y-128595380D01*
X101092047Y-128595380D01*
X101187285Y-128547761D01*
X101234904Y-128500142D01*
X133572238Y-128563619D02*
X133667476Y-128516000D01*
X133762714Y-128420761D01*
X133905571Y-128277904D01*
X134000809Y-128230285D01*
X134096047Y-128230285D01*
X134048428Y-128468380D02*
X134143666Y-128420761D01*
X134238904Y-128325523D01*
X134286523Y-128135047D01*
X134286523Y-127801714D01*
X134238904Y-127611238D01*
X134143666Y-127516000D01*
X134048428Y-127468380D01*
X133857952Y-127468380D01*
X133762714Y-127516000D01*
X133667476Y-127611238D01*
X133619857Y-127801714D01*
X133619857Y-128135047D01*
X133667476Y-128325523D01*
X133762714Y-128420761D01*
X133857952Y-128468380D01*
X134048428Y-128468380D01*
X132762714Y-127801714D02*
X132762714Y-128468380D01*
X133000809Y-127420761D02*
X133238904Y-128135047D01*
X132619857Y-128135047D01*
X126460238Y-128563619D02*
X126555476Y-128516000D01*
X126650714Y-128420761D01*
X126793571Y-128277904D01*
X126888809Y-128230285D01*
X126984047Y-128230285D01*
X126936428Y-128468380D02*
X127031666Y-128420761D01*
X127126904Y-128325523D01*
X127174523Y-128135047D01*
X127174523Y-127801714D01*
X127126904Y-127611238D01*
X127031666Y-127516000D01*
X126936428Y-127468380D01*
X126745952Y-127468380D01*
X126650714Y-127516000D01*
X126555476Y-127611238D01*
X126507857Y-127801714D01*
X126507857Y-128135047D01*
X126555476Y-128325523D01*
X126650714Y-128420761D01*
X126745952Y-128468380D01*
X126936428Y-128468380D01*
X126174523Y-127468380D02*
X125555476Y-127468380D01*
X125888809Y-127849333D01*
X125745952Y-127849333D01*
X125650714Y-127896952D01*
X125603095Y-127944571D01*
X125555476Y-128039809D01*
X125555476Y-128277904D01*
X125603095Y-128373142D01*
X125650714Y-128420761D01*
X125745952Y-128468380D01*
X126031666Y-128468380D01*
X126126904Y-128420761D01*
X126174523Y-128373142D01*
X113506238Y-102020619D02*
X113601476Y-101973000D01*
X113696714Y-101877761D01*
X113839571Y-101734904D01*
X113934809Y-101687285D01*
X114030047Y-101687285D01*
X113982428Y-101925380D02*
X114077666Y-101877761D01*
X114172904Y-101782523D01*
X114220523Y-101592047D01*
X114220523Y-101258714D01*
X114172904Y-101068238D01*
X114077666Y-100973000D01*
X113982428Y-100925380D01*
X113791952Y-100925380D01*
X113696714Y-100973000D01*
X113601476Y-101068238D01*
X113553857Y-101258714D01*
X113553857Y-101592047D01*
X113601476Y-101782523D01*
X113696714Y-101877761D01*
X113791952Y-101925380D01*
X113982428Y-101925380D01*
X113172904Y-101020619D02*
X113125285Y-100973000D01*
X113030047Y-100925380D01*
X112791952Y-100925380D01*
X112696714Y-100973000D01*
X112649095Y-101020619D01*
X112601476Y-101115857D01*
X112601476Y-101211095D01*
X112649095Y-101353952D01*
X113220523Y-101925380D01*
X112601476Y-101925380D01*
X106394238Y-102020619D02*
X106489476Y-101973000D01*
X106584714Y-101877761D01*
X106727571Y-101734904D01*
X106822809Y-101687285D01*
X106918047Y-101687285D01*
X106870428Y-101925380D02*
X106965666Y-101877761D01*
X107060904Y-101782523D01*
X107108523Y-101592047D01*
X107108523Y-101258714D01*
X107060904Y-101068238D01*
X106965666Y-100973000D01*
X106870428Y-100925380D01*
X106679952Y-100925380D01*
X106584714Y-100973000D01*
X106489476Y-101068238D01*
X106441857Y-101258714D01*
X106441857Y-101592047D01*
X106489476Y-101782523D01*
X106584714Y-101877761D01*
X106679952Y-101925380D01*
X106870428Y-101925380D01*
X105489476Y-101925380D02*
X106060904Y-101925380D01*
X105775190Y-101925380D02*
X105775190Y-100925380D01*
X105870428Y-101068238D01*
X105965666Y-101163476D01*
X106060904Y-101211095D01*
%LPC*%
G36*
G01*
X100895999Y-110178000D02*
X101796001Y-110178000D01*
G75*
G02*
X102046000Y-110427999I0J-249999D01*
G01*
X102046000Y-111078001D01*
G75*
G02*
X101796001Y-111328000I-249999J0D01*
G01*
X100895999Y-111328000D01*
G75*
G02*
X100646000Y-111078001I0J249999D01*
G01*
X100646000Y-110427999D01*
G75*
G02*
X100895999Y-110178000I249999J0D01*
G01*
G37*
G36*
G01*
X100895999Y-108128000D02*
X101796001Y-108128000D01*
G75*
G02*
X102046000Y-108377999I0J-249999D01*
G01*
X102046000Y-109028001D01*
G75*
G02*
X101796001Y-109278000I-249999J0D01*
G01*
X100895999Y-109278000D01*
G75*
G02*
X100646000Y-109028001I0J249999D01*
G01*
X100646000Y-108377999D01*
G75*
G02*
X100895999Y-108128000I249999J0D01*
G01*
G37*
G36*
G01*
X131006000Y-129228001D02*
X131006000Y-128327999D01*
G75*
G02*
X131255999Y-128078000I249999J0D01*
G01*
X131906001Y-128078000D01*
G75*
G02*
X132156000Y-128327999I0J-249999D01*
G01*
X132156000Y-129228001D01*
G75*
G02*
X131906001Y-129478000I-249999J0D01*
G01*
X131255999Y-129478000D01*
G75*
G02*
X131006000Y-129228001I0J249999D01*
G01*
G37*
G36*
G01*
X128956000Y-129228001D02*
X128956000Y-128327999D01*
G75*
G02*
X129205999Y-128078000I249999J0D01*
G01*
X129856001Y-128078000D01*
G75*
G02*
X130106000Y-128327999I0J-249999D01*
G01*
X130106000Y-129228001D01*
G75*
G02*
X129856001Y-129478000I-249999J0D01*
G01*
X129205999Y-129478000D01*
G75*
G02*
X128956000Y-129228001I0J249999D01*
G01*
G37*
D14*
X130937000Y-135890000D03*
D15*
X162160000Y-130810000D03*
X157160000Y-130810000D03*
X152160000Y-130810000D03*
X147160000Y-130810000D03*
X142160000Y-130810000D03*
G36*
G01*
X136160000Y-132360000D02*
X136160000Y-129260000D01*
G75*
G02*
X136410000Y-129010000I250000J0D01*
G01*
X137910000Y-129010000D01*
G75*
G02*
X138160000Y-129260000I0J-250000D01*
G01*
X138160000Y-132360000D01*
G75*
G02*
X137910000Y-132610000I-250000J0D01*
G01*
X136410000Y-132610000D01*
G75*
G02*
X136160000Y-132360000I0J250000D01*
G01*
G37*
X124728000Y-130810000D03*
X119728000Y-130810000D03*
X114728000Y-130810000D03*
G36*
G01*
X108728000Y-132360000D02*
X108728000Y-129260000D01*
G75*
G02*
X108978000Y-129010000I250000J0D01*
G01*
X110478000Y-129010000D01*
G75*
G02*
X110728000Y-129260000I0J-250000D01*
G01*
X110728000Y-132360000D01*
G75*
G02*
X110478000Y-132610000I-250000J0D01*
G01*
X108978000Y-132610000D01*
G75*
G02*
X108728000Y-132360000I0J250000D01*
G01*
G37*
X93646000Y-130810000D03*
G36*
G01*
X87646000Y-132360000D02*
X87646000Y-129260000D01*
G75*
G02*
X87896000Y-129010000I250000J0D01*
G01*
X89396000Y-129010000D01*
G75*
G02*
X89646000Y-129260000I0J-250000D01*
G01*
X89646000Y-132360000D01*
G75*
G02*
X89396000Y-132610000I-250000J0D01*
G01*
X87896000Y-132610000D01*
G75*
G02*
X87646000Y-132360000I0J250000D01*
G01*
G37*
D16*
X165100000Y-74295000D03*
X165100000Y-71755000D03*
X167640000Y-74295000D03*
X167640000Y-71755000D03*
X170180000Y-74295000D03*
D17*
X170180000Y-71755000D03*
D18*
X180340000Y-68326000D03*
X88392000Y-68580000D03*
X142748000Y-95631000D03*
X180848000Y-127762000D03*
X101600000Y-135890000D03*
D19*
X128652000Y-110339000D03*
D20*
X130932000Y-104039000D03*
X126372000Y-104039000D03*
D19*
X121540000Y-110339000D03*
D20*
X123820000Y-104039000D03*
X119260000Y-104039000D03*
D19*
X108585000Y-123512000D03*
D20*
X110865000Y-117212000D03*
X106305000Y-117212000D03*
D19*
X101474000Y-123512000D03*
D20*
X103754000Y-117212000D03*
X99194000Y-117212000D03*
D19*
X133478000Y-123547000D03*
D20*
X135758000Y-117247000D03*
X131198000Y-117247000D03*
D19*
X126364000Y-123547000D03*
D20*
X128644000Y-117247000D03*
X124084000Y-117247000D03*
D19*
X113412000Y-110339000D03*
D20*
X115692000Y-104039000D03*
X111132000Y-104039000D03*
D19*
X106300000Y-110339000D03*
D20*
X108580000Y-104039000D03*
X104020000Y-104039000D03*
D21*
X176825000Y-135001000D03*
X172425000Y-135001000D03*
D22*
X123190000Y-89535000D02*
X119888000Y-89535000D01*
X119888000Y-86233000D01*
X123190000Y-86233000D01*
X123190000Y-89535000D01*
D23*
G36*
X123190000Y-89535000D02*
G01*
X119888000Y-89535000D01*
X119888000Y-86233000D01*
X123190000Y-86233000D01*
X123190000Y-89535000D01*
G37*
D22*
X99060000Y-78867000D02*
X96012000Y-78867000D01*
X96012000Y-75819000D01*
X99060000Y-75819000D01*
X99060000Y-78867000D01*
D23*
G36*
X99060000Y-78867000D02*
G01*
X96012000Y-78867000D01*
X96012000Y-75819000D01*
X99060000Y-75819000D01*
X99060000Y-78867000D01*
G37*
M02*
