%FSLAX45Y45*%
G04 Gerber Fmt 4.5, Leading zero omitted, Abs format (unit mm)*
G04 Created by KiCad (PCBNEW (5.1.10)-1) date 2021-12-10 01:06:31*
%MOMM*%
%LPD*%
G01*
G04 APERTURE LIST*
%TA.AperFunction,Profile*%
%ADD10C,0.050000*%
%TD*%
%ADD11C,0.200000*%
%ADD12C,0.300000*%
G04 APERTURE END LIST*
D10*
X18491200Y-6477000D02*
X8432800Y-6477000D01*
X18491200Y-14097000D02*
X18491200Y-6477000D01*
X8432800Y-14097000D02*
X18491200Y-14097000D01*
X8432800Y-6477000D02*
X8432800Y-14097000D01*
D11*
X8539800Y-7409500D02*
X8579800Y-7449500D01*
X8579800Y-7409500D02*
X8539800Y-7449500D01*
X8539800Y-7917500D02*
X8579800Y-7957500D01*
X8579800Y-7917500D02*
X8539800Y-7957500D01*
X8539800Y-8362000D02*
X8579800Y-8402000D01*
X8579800Y-8362000D02*
X8539800Y-8402000D01*
X8539800Y-9481000D02*
X8579800Y-9521000D01*
X8579800Y-9481000D02*
X8539800Y-9521000D01*
X8616000Y-9225600D02*
X8656000Y-9265600D01*
X8656000Y-9225600D02*
X8616000Y-9265600D01*
X8616000Y-12997500D02*
X8656000Y-13037500D01*
X8656000Y-12997500D02*
X8616000Y-13037500D01*
X8616000Y-13137200D02*
X8656000Y-13177200D01*
X8656000Y-13137200D02*
X8616000Y-13177200D01*
X8616000Y-13353100D02*
X8656000Y-13393100D01*
X8656000Y-13353100D02*
X8616000Y-13393100D01*
X8616000Y-13530900D02*
X8656000Y-13570900D01*
X8656000Y-13530900D02*
X8616000Y-13570900D01*
X8666800Y-10635300D02*
X8706800Y-10675300D01*
X8706800Y-10635300D02*
X8666800Y-10675300D01*
X8666800Y-10785300D02*
X8706800Y-10825300D01*
X8706800Y-10785300D02*
X8666800Y-10825300D01*
X8666800Y-10940100D02*
X8706800Y-10980100D01*
X8706800Y-10940100D02*
X8666800Y-10980100D01*
X8666800Y-11085300D02*
X8706800Y-11125300D01*
X8706800Y-11085300D02*
X8666800Y-11125300D01*
X8666800Y-11235300D02*
X8706800Y-11275300D01*
X8706800Y-11235300D02*
X8666800Y-11275300D01*
X8666800Y-11385300D02*
X8706800Y-11425300D01*
X8706800Y-11385300D02*
X8666800Y-11425300D01*
X8679500Y-9124000D02*
X8719500Y-9164000D01*
X8719500Y-9124000D02*
X8679500Y-9164000D01*
X8692200Y-13448350D02*
X8732200Y-13488350D01*
X8732200Y-13448350D02*
X8692200Y-13488350D01*
X8730300Y-9225600D02*
X8770300Y-9265600D01*
X8770300Y-9225600D02*
X8730300Y-9265600D01*
X8743000Y-11889400D02*
X8783000Y-11929400D01*
X8783000Y-11889400D02*
X8743000Y-11929400D01*
X8743000Y-12146600D02*
X8783000Y-12186600D01*
X8783000Y-12146600D02*
X8743000Y-12186600D01*
X8743000Y-12375200D02*
X8783000Y-12415200D01*
X8783000Y-12375200D02*
X8743000Y-12415200D01*
X8743000Y-12603800D02*
X8783000Y-12643800D01*
X8783000Y-12603800D02*
X8743000Y-12643800D01*
X8755700Y-13353100D02*
X8795700Y-13393100D01*
X8795700Y-13353100D02*
X8755700Y-13393100D01*
X8755700Y-13530900D02*
X8795700Y-13570900D01*
X8795700Y-13530900D02*
X8755700Y-13570900D01*
X8766000Y-10635300D02*
X8806000Y-10675300D01*
X8806000Y-10635300D02*
X8766000Y-10675300D01*
X8766000Y-10785300D02*
X8806000Y-10825300D01*
X8806000Y-10785300D02*
X8766000Y-10825300D01*
X8766000Y-10940100D02*
X8806000Y-10980100D01*
X8806000Y-10940100D02*
X8766000Y-10980100D01*
X8766000Y-11085300D02*
X8806000Y-11125300D01*
X8806000Y-11085300D02*
X8766000Y-11125300D01*
X8766000Y-11235300D02*
X8806000Y-11275300D01*
X8806000Y-11235300D02*
X8766000Y-11275300D01*
X8766000Y-11385300D02*
X8806000Y-11425300D01*
X8806000Y-11385300D02*
X8766000Y-11425300D01*
X8793800Y-9124000D02*
X8833800Y-9164000D01*
X8833800Y-9124000D02*
X8793800Y-9164000D01*
X8831900Y-9225600D02*
X8871900Y-9265600D01*
X8871900Y-9225600D02*
X8831900Y-9265600D01*
X8838250Y-13448350D02*
X8878250Y-13488350D01*
X8878250Y-13448350D02*
X8838250Y-13488350D01*
X8863650Y-7409500D02*
X8903650Y-7449500D01*
X8903650Y-7409500D02*
X8863650Y-7449500D01*
X8870000Y-8235000D02*
X8910000Y-8275000D01*
X8910000Y-8235000D02*
X8870000Y-8275000D01*
X8870000Y-10635300D02*
X8910000Y-10675300D01*
X8910000Y-10635300D02*
X8870000Y-10675300D01*
X8870000Y-10787700D02*
X8910000Y-10827700D01*
X8910000Y-10787700D02*
X8870000Y-10827700D01*
X8870000Y-10940100D02*
X8910000Y-10980100D01*
X8910000Y-10940100D02*
X8870000Y-10980100D01*
X8895400Y-9124000D02*
X8935400Y-9164000D01*
X8935400Y-9124000D02*
X8895400Y-9164000D01*
X8895400Y-13962700D02*
X8935400Y-14002700D01*
X8935400Y-13962700D02*
X8895400Y-14002700D01*
X8920800Y-13353100D02*
X8960800Y-13393100D01*
X8960800Y-13353100D02*
X8920800Y-13393100D01*
X8920800Y-13530900D02*
X8960800Y-13570900D01*
X8960800Y-13530900D02*
X8920800Y-13570900D01*
X8933500Y-9225600D02*
X8973500Y-9265600D01*
X8973500Y-9225600D02*
X8933500Y-9265600D01*
X8971600Y-10635300D02*
X9011600Y-10675300D01*
X9011600Y-10635300D02*
X8971600Y-10675300D01*
X8971600Y-10787700D02*
X9011600Y-10827700D01*
X9011600Y-10787700D02*
X8971600Y-10827700D01*
X8971600Y-10940100D02*
X9011600Y-10980100D01*
X9011600Y-10940100D02*
X8971600Y-10980100D01*
X8997000Y-9124000D02*
X9037000Y-9164000D01*
X9037000Y-9124000D02*
X8997000Y-9164000D01*
X9035100Y-9225600D02*
X9075100Y-9265600D01*
X9075100Y-9225600D02*
X9035100Y-9265600D01*
X9047800Y-11889400D02*
X9087800Y-11929400D01*
X9087800Y-11889400D02*
X9047800Y-11929400D01*
X9047800Y-12140200D02*
X9087800Y-12180200D01*
X9087800Y-12140200D02*
X9047800Y-12180200D01*
X9047800Y-12365600D02*
X9087800Y-12405600D01*
X9087800Y-12365600D02*
X9047800Y-12405600D01*
X9047800Y-12603800D02*
X9087800Y-12643800D01*
X9087800Y-12603800D02*
X9047800Y-12643800D01*
X9073200Y-10635300D02*
X9113200Y-10675300D01*
X9113200Y-10635300D02*
X9073200Y-10675300D01*
X9073200Y-10785300D02*
X9113200Y-10825300D01*
X9113200Y-10785300D02*
X9073200Y-10825300D01*
X9073200Y-10940100D02*
X9113200Y-10980100D01*
X9113200Y-10940100D02*
X9073200Y-10980100D01*
X9073200Y-11085300D02*
X9113200Y-11125300D01*
X9113200Y-11085300D02*
X9073200Y-11125300D01*
X9073200Y-11235300D02*
X9113200Y-11275300D01*
X9113200Y-11235300D02*
X9073200Y-11275300D01*
X9073200Y-11385300D02*
X9113200Y-11425300D01*
X9113200Y-11385300D02*
X9073200Y-11425300D01*
X9085900Y-8133400D02*
X9125900Y-8173400D01*
X9125900Y-8133400D02*
X9085900Y-8173400D01*
X9098600Y-9124000D02*
X9138600Y-9164000D01*
X9138600Y-9124000D02*
X9098600Y-9164000D01*
X9136700Y-9225600D02*
X9176700Y-9265600D01*
X9176700Y-9225600D02*
X9136700Y-9265600D01*
X9162100Y-13264200D02*
X9202100Y-13304200D01*
X9202100Y-13264200D02*
X9162100Y-13304200D01*
X9162100Y-6584000D02*
X9202100Y-6624000D01*
X9202100Y-6584000D02*
X9162100Y-6624000D01*
X9162100Y-12921300D02*
X9202100Y-12961300D01*
X9202100Y-12921300D02*
X9162100Y-12961300D01*
X9162100Y-13035600D02*
X9202100Y-13075600D01*
X9202100Y-13035600D02*
X9162100Y-13075600D01*
X9162100Y-13149900D02*
X9202100Y-13189900D01*
X9202100Y-13149900D02*
X9162100Y-13189900D01*
X9174800Y-10785300D02*
X9214800Y-10825300D01*
X9214800Y-10785300D02*
X9174800Y-10825300D01*
X9174800Y-10940100D02*
X9214800Y-10980100D01*
X9214800Y-10940100D02*
X9174800Y-10980100D01*
X9174800Y-11085300D02*
X9214800Y-11125300D01*
X9214800Y-11085300D02*
X9174800Y-11125300D01*
X9174800Y-11235300D02*
X9214800Y-11275300D01*
X9214800Y-11235300D02*
X9174800Y-11275300D01*
X9174800Y-11385300D02*
X9214800Y-11425300D01*
X9214800Y-11385300D02*
X9174800Y-11425300D01*
X9187500Y-12006900D02*
X9227500Y-12046900D01*
X9227500Y-12006900D02*
X9187500Y-12046900D01*
X9187500Y-12248200D02*
X9227500Y-12288200D01*
X9227500Y-12248200D02*
X9187500Y-12288200D01*
X9187500Y-12502200D02*
X9227500Y-12542200D01*
X9227500Y-12502200D02*
X9187500Y-12542200D01*
X9212900Y-9124000D02*
X9252900Y-9164000D01*
X9252900Y-9124000D02*
X9212900Y-9164000D01*
X9225600Y-7288850D02*
X9265600Y-7328850D01*
X9265600Y-7288850D02*
X9225600Y-7328850D01*
X9225600Y-7485700D02*
X9265600Y-7525700D01*
X9265600Y-7485700D02*
X9225600Y-7525700D01*
X9238300Y-9225600D02*
X9278300Y-9265600D01*
X9278300Y-9225600D02*
X9238300Y-9265600D01*
X9327200Y-11889400D02*
X9367200Y-11929400D01*
X9367200Y-11889400D02*
X9327200Y-11929400D01*
X9327200Y-12140200D02*
X9367200Y-12180200D01*
X9367200Y-12140200D02*
X9327200Y-12180200D01*
X9327200Y-12365600D02*
X9367200Y-12405600D01*
X9367200Y-12365600D02*
X9327200Y-12405600D01*
X9327200Y-12591000D02*
X9367200Y-12631000D01*
X9367200Y-12591000D02*
X9327200Y-12631000D01*
X9403400Y-13962700D02*
X9443400Y-14002700D01*
X9443400Y-13962700D02*
X9403400Y-14002700D01*
X9492300Y-9251000D02*
X9532300Y-9291000D01*
X9532300Y-9251000D02*
X9492300Y-9291000D01*
X9517700Y-12921300D02*
X9557700Y-12961300D01*
X9557700Y-12921300D02*
X9517700Y-12961300D01*
X9517700Y-13149900D02*
X9557700Y-13189900D01*
X9557700Y-13149900D02*
X9517700Y-13189900D01*
X9543100Y-6850700D02*
X9583100Y-6890700D01*
X9583100Y-6850700D02*
X9543100Y-6890700D01*
X9574850Y-13035600D02*
X9614850Y-13075600D01*
X9614850Y-13035600D02*
X9574850Y-13075600D01*
X9574850Y-13264200D02*
X9614850Y-13304200D01*
X9614850Y-13264200D02*
X9574850Y-13304200D01*
X9581200Y-11889400D02*
X9621200Y-11929400D01*
X9621200Y-11889400D02*
X9581200Y-11929400D01*
X9581200Y-12140200D02*
X9621200Y-12180200D01*
X9621200Y-12140200D02*
X9581200Y-12180200D01*
X9581200Y-12375200D02*
X9621200Y-12415200D01*
X9621200Y-12375200D02*
X9581200Y-12415200D01*
X9581200Y-12591000D02*
X9621200Y-12631000D01*
X9621200Y-12591000D02*
X9581200Y-12631000D01*
X9606600Y-11371900D02*
X9646600Y-11411900D01*
X9646600Y-11371900D02*
X9606600Y-11411900D01*
X9632000Y-7650800D02*
X9672000Y-7690800D01*
X9672000Y-7650800D02*
X9632000Y-7690800D01*
X9632000Y-7777800D02*
X9672000Y-7817800D01*
X9672000Y-7777800D02*
X9632000Y-7817800D01*
X9632000Y-12921300D02*
X9672000Y-12961300D01*
X9672000Y-12921300D02*
X9632000Y-12961300D01*
X9632000Y-13149900D02*
X9672000Y-13189900D01*
X9672000Y-13149900D02*
X9632000Y-13189900D01*
X9654860Y-9835200D02*
X9694860Y-9875200D01*
X9694860Y-9835200D02*
X9654860Y-9875200D01*
X9657400Y-6584000D02*
X9697400Y-6624000D01*
X9697400Y-6584000D02*
X9657400Y-6624000D01*
X9663750Y-8704900D02*
X9703750Y-8744900D01*
X9703750Y-8704900D02*
X9663750Y-8744900D01*
X9682800Y-8870000D02*
X9722800Y-8910000D01*
X9722800Y-8870000D02*
X9682800Y-8910000D01*
X9720900Y-7714300D02*
X9760900Y-7754300D01*
X9760900Y-7714300D02*
X9720900Y-7754300D01*
X9822500Y-7650800D02*
X9862500Y-7690800D01*
X9862500Y-7650800D02*
X9822500Y-7690800D01*
X9822500Y-7777800D02*
X9862500Y-7817800D01*
X9862500Y-7777800D02*
X9822500Y-7817800D01*
X9860600Y-11371900D02*
X9900600Y-11411900D01*
X9900600Y-11371900D02*
X9860600Y-11411900D01*
X9873300Y-8679500D02*
X9913300Y-8719500D01*
X9913300Y-8679500D02*
X9873300Y-8719500D01*
X9898700Y-12070400D02*
X9938700Y-12110400D01*
X9938700Y-12070400D02*
X9898700Y-12110400D01*
X9898700Y-12235500D02*
X9938700Y-12275500D01*
X9938700Y-12235500D02*
X9898700Y-12275500D01*
X9898700Y-12413300D02*
X9938700Y-12453300D01*
X9938700Y-12413300D02*
X9898700Y-12453300D01*
X9898700Y-12578400D02*
X9938700Y-12618400D01*
X9938700Y-12578400D02*
X9898700Y-12618400D01*
X9905050Y-9200200D02*
X9945050Y-9240200D01*
X9945050Y-9200200D02*
X9905050Y-9240200D01*
X9911400Y-13962700D02*
X9951400Y-14002700D01*
X9951400Y-13962700D02*
X9911400Y-14002700D01*
X10000300Y-10622600D02*
X10040300Y-10662600D01*
X10040300Y-10622600D02*
X10000300Y-10662600D01*
X10089200Y-11486200D02*
X10129200Y-11526200D01*
X10129200Y-11486200D02*
X10089200Y-11526200D01*
X10089200Y-11587800D02*
X10129200Y-11627800D01*
X10129200Y-11587800D02*
X10089200Y-11627800D01*
X10089200Y-11689400D02*
X10129200Y-11729400D01*
X10129200Y-11689400D02*
X10089200Y-11729400D01*
X10089200Y-11791000D02*
X10129200Y-11831000D01*
X10129200Y-11791000D02*
X10089200Y-11831000D01*
X10114600Y-10698800D02*
X10154600Y-10738800D01*
X10154600Y-10698800D02*
X10114600Y-10738800D01*
X10127300Y-12070400D02*
X10167300Y-12110400D01*
X10167300Y-12070400D02*
X10127300Y-12110400D01*
X10127300Y-12235500D02*
X10167300Y-12275500D01*
X10167300Y-12235500D02*
X10127300Y-12275500D01*
X10127300Y-12413300D02*
X10167300Y-12453300D01*
X10167300Y-12413300D02*
X10127300Y-12453300D01*
X10127300Y-12578400D02*
X10167300Y-12618400D01*
X10167300Y-12578400D02*
X10127300Y-12618400D01*
X10140000Y-12997500D02*
X10180000Y-13037500D01*
X10180000Y-12997500D02*
X10140000Y-13037500D01*
X10165400Y-6584000D02*
X10205400Y-6624000D01*
X10205400Y-6584000D02*
X10165400Y-6624000D01*
X10203500Y-8857300D02*
X10243500Y-8897300D01*
X10243500Y-8857300D02*
X10203500Y-8897300D01*
X10203500Y-11486200D02*
X10243500Y-11526200D01*
X10243500Y-11486200D02*
X10203500Y-11526200D01*
X10203500Y-11587800D02*
X10243500Y-11627800D01*
X10243500Y-11587800D02*
X10203500Y-11627800D01*
X10203500Y-11689400D02*
X10243500Y-11729400D01*
X10243500Y-11689400D02*
X10203500Y-11729400D01*
X10203500Y-11791000D02*
X10243500Y-11831000D01*
X10243500Y-11791000D02*
X10203500Y-11831000D01*
X10305100Y-11486200D02*
X10345100Y-11526200D01*
X10345100Y-11486200D02*
X10305100Y-11526200D01*
X10330500Y-8857300D02*
X10370500Y-8897300D01*
X10370500Y-8857300D02*
X10330500Y-8897300D01*
X10355900Y-12070400D02*
X10395900Y-12110400D01*
X10395900Y-12070400D02*
X10355900Y-12110400D01*
X10355900Y-12235500D02*
X10395900Y-12275500D01*
X10395900Y-12235500D02*
X10355900Y-12275500D01*
X10355900Y-12413300D02*
X10395900Y-12453300D01*
X10395900Y-12413300D02*
X10355900Y-12453300D01*
X10355900Y-12578400D02*
X10395900Y-12618400D01*
X10395900Y-12578400D02*
X10355900Y-12618400D01*
X10368600Y-8565200D02*
X10408600Y-8605200D01*
X10408600Y-8565200D02*
X10368600Y-8605200D01*
X10406700Y-10749600D02*
X10446700Y-10789600D01*
X10446700Y-10749600D02*
X10406700Y-10789600D01*
X10406700Y-11003600D02*
X10446700Y-11043600D01*
X10446700Y-11003600D02*
X10406700Y-11043600D01*
X10406700Y-11257600D02*
X10446700Y-11297600D01*
X10446700Y-11257600D02*
X10406700Y-11297600D01*
X10406700Y-11486200D02*
X10446700Y-11526200D01*
X10446700Y-11486200D02*
X10406700Y-11526200D01*
X10419400Y-13962700D02*
X10459400Y-14002700D01*
X10459400Y-13962700D02*
X10419400Y-14002700D01*
X10444800Y-7930200D02*
X10484800Y-7970200D01*
X10484800Y-7930200D02*
X10444800Y-7970200D01*
X10457500Y-8857300D02*
X10497500Y-8897300D01*
X10497500Y-8857300D02*
X10457500Y-8897300D01*
X10470200Y-8565200D02*
X10510200Y-8605200D01*
X10510200Y-8565200D02*
X10470200Y-8605200D01*
X10508300Y-10876600D02*
X10548300Y-10916600D01*
X10548300Y-10876600D02*
X10508300Y-10916600D01*
X10508300Y-11130600D02*
X10548300Y-11170600D01*
X10548300Y-11130600D02*
X10508300Y-11170600D01*
X10533700Y-10292400D02*
X10573700Y-10332400D01*
X10573700Y-10292400D02*
X10533700Y-10332400D01*
X10533700Y-10394000D02*
X10573700Y-10434000D01*
X10573700Y-10394000D02*
X10533700Y-10434000D01*
X10533700Y-10495600D02*
X10573700Y-10535600D01*
X10573700Y-10495600D02*
X10533700Y-10535600D01*
X10571800Y-8565200D02*
X10611800Y-8605200D01*
X10611800Y-8565200D02*
X10571800Y-8605200D01*
X10603550Y-11003600D02*
X10643550Y-11043600D01*
X10643550Y-11003600D02*
X10603550Y-11043600D01*
X10603550Y-11257600D02*
X10643550Y-11297600D01*
X10643550Y-11257600D02*
X10603550Y-11297600D01*
X10609900Y-10749600D02*
X10649900Y-10789600D01*
X10649900Y-10749600D02*
X10609900Y-10789600D01*
X10609900Y-12070400D02*
X10649900Y-12110400D01*
X10649900Y-12070400D02*
X10609900Y-12110400D01*
X10609900Y-12235500D02*
X10649900Y-12275500D01*
X10649900Y-12235500D02*
X10609900Y-12275500D01*
X10609900Y-12413300D02*
X10649900Y-12453300D01*
X10649900Y-12413300D02*
X10609900Y-12453300D01*
X10609900Y-12578400D02*
X10649900Y-12618400D01*
X10649900Y-12578400D02*
X10609900Y-12618400D01*
X10616250Y-11486200D02*
X10656250Y-11526200D01*
X10656250Y-11486200D02*
X10616250Y-11526200D01*
X10622600Y-10292400D02*
X10662600Y-10332400D01*
X10662600Y-10292400D02*
X10622600Y-10332400D01*
X10622600Y-10394000D02*
X10662600Y-10434000D01*
X10662600Y-10394000D02*
X10622600Y-10434000D01*
X10622600Y-10495600D02*
X10662600Y-10535600D01*
X10662600Y-10495600D02*
X10622600Y-10535600D01*
X10648000Y-7447600D02*
X10688000Y-7487600D01*
X10688000Y-7447600D02*
X10648000Y-7487600D01*
X10648000Y-7568250D02*
X10688000Y-7608250D01*
X10688000Y-7568250D02*
X10648000Y-7608250D01*
X10648000Y-7688900D02*
X10688000Y-7728900D01*
X10688000Y-7688900D02*
X10648000Y-7728900D01*
X10648000Y-7815900D02*
X10688000Y-7855900D01*
X10688000Y-7815900D02*
X10648000Y-7855900D01*
X10673400Y-6584000D02*
X10713400Y-6624000D01*
X10713400Y-6584000D02*
X10673400Y-6624000D01*
X10682401Y-9257350D02*
X10722401Y-9297350D01*
X10722401Y-9257350D02*
X10682401Y-9297350D01*
X10711500Y-10292400D02*
X10751500Y-10332400D01*
X10751500Y-10292400D02*
X10711500Y-10332400D01*
X10711500Y-10394000D02*
X10751500Y-10434000D01*
X10751500Y-10394000D02*
X10711500Y-10434000D01*
X10711500Y-10495600D02*
X10751500Y-10535600D01*
X10751500Y-10495600D02*
X10711500Y-10535600D01*
X10749600Y-7231700D02*
X10789600Y-7271700D01*
X10789600Y-7231700D02*
X10749600Y-7271700D01*
X10768650Y-7815900D02*
X10808650Y-7855900D01*
X10808650Y-7815900D02*
X10768650Y-7855900D01*
X10775000Y-9149400D02*
X10815000Y-9189400D01*
X10815000Y-9149400D02*
X10775000Y-9189400D01*
X10813100Y-11486200D02*
X10853100Y-11526200D01*
X10853100Y-11486200D02*
X10813100Y-11526200D01*
X10813100Y-11587800D02*
X10853100Y-11627800D01*
X10853100Y-11587800D02*
X10813100Y-11627800D01*
X10813100Y-11689400D02*
X10853100Y-11729400D01*
X10853100Y-11689400D02*
X10813100Y-11729400D01*
X10813100Y-11791000D02*
X10853100Y-11831000D01*
X10853100Y-11791000D02*
X10813100Y-11831000D01*
X10838500Y-12070400D02*
X10878500Y-12110400D01*
X10878500Y-12070400D02*
X10838500Y-12110400D01*
X10838500Y-12235500D02*
X10878500Y-12275500D01*
X10878500Y-12235500D02*
X10838500Y-12275500D01*
X10838500Y-12413300D02*
X10878500Y-12453300D01*
X10878500Y-12413300D02*
X10838500Y-12453300D01*
X10838500Y-12578400D02*
X10878500Y-12618400D01*
X10878500Y-12578400D02*
X10838500Y-12618400D01*
X10870250Y-10120950D02*
X10910250Y-10160950D01*
X10910250Y-10120950D02*
X10870250Y-10160950D01*
X10927400Y-11486200D02*
X10967400Y-11526200D01*
X10967400Y-11486200D02*
X10927400Y-11526200D01*
X10927400Y-11587800D02*
X10967400Y-11627800D01*
X10967400Y-11587800D02*
X10927400Y-11627800D01*
X10927400Y-11689400D02*
X10967400Y-11729400D01*
X10967400Y-11689400D02*
X10927400Y-11729400D01*
X10927400Y-11791000D02*
X10967400Y-11831000D01*
X10967400Y-11791000D02*
X10927400Y-11831000D01*
X10927400Y-13962700D02*
X10967400Y-14002700D01*
X10967400Y-13962700D02*
X10927400Y-14002700D01*
X11029000Y-6838000D02*
X11069000Y-6878000D01*
X11069000Y-6838000D02*
X11029000Y-6878000D01*
X11029000Y-11486200D02*
X11069000Y-11526200D01*
X11069000Y-11486200D02*
X11029000Y-11526200D01*
X11039103Y-9530400D02*
X11079103Y-9570400D01*
X11079103Y-9530400D02*
X11039103Y-9570400D01*
X11067100Y-12070400D02*
X11107100Y-12110400D01*
X11107100Y-12070400D02*
X11067100Y-12110400D01*
X11067100Y-12235500D02*
X11107100Y-12275500D01*
X11107100Y-12235500D02*
X11067100Y-12275500D01*
X11067100Y-12413300D02*
X11107100Y-12453300D01*
X11107100Y-12413300D02*
X11067100Y-12453300D01*
X11067100Y-12578400D02*
X11107100Y-12618400D01*
X11107100Y-12578400D02*
X11067100Y-12618400D01*
X11111550Y-11257600D02*
X11151550Y-11297600D01*
X11151550Y-11257600D02*
X11111550Y-11297600D01*
X11117900Y-10768650D02*
X11157900Y-10808650D01*
X11157900Y-10768650D02*
X11117900Y-10808650D01*
X11117900Y-11003600D02*
X11157900Y-11043600D01*
X11157900Y-11003600D02*
X11117900Y-11043600D01*
X11130600Y-11486200D02*
X11170600Y-11526200D01*
X11170600Y-11486200D02*
X11130600Y-11526200D01*
X11162350Y-8222300D02*
X11202350Y-8262300D01*
X11202350Y-8222300D02*
X11162350Y-8262300D01*
X11181400Y-6584000D02*
X11221400Y-6624000D01*
X11221400Y-6584000D02*
X11181400Y-6624000D01*
X11194100Y-7066600D02*
X11234100Y-7106600D01*
X11234100Y-7066600D02*
X11194100Y-7106600D01*
X11194100Y-13607100D02*
X11234100Y-13647100D01*
X11234100Y-13607100D02*
X11194100Y-13647100D01*
X11219500Y-6838000D02*
X11259500Y-6878000D01*
X11259500Y-6838000D02*
X11219500Y-6878000D01*
X11219500Y-9543100D02*
X11259500Y-9583100D01*
X11259500Y-9543100D02*
X11219500Y-9583100D01*
X11270300Y-10292400D02*
X11310300Y-10332400D01*
X11310300Y-10292400D02*
X11270300Y-10332400D01*
X11270300Y-10394000D02*
X11310300Y-10434000D01*
X11310300Y-10394000D02*
X11270300Y-10434000D01*
X11270300Y-10495600D02*
X11310300Y-10535600D01*
X11310300Y-10495600D02*
X11270300Y-10535600D01*
X11276650Y-10870250D02*
X11316650Y-10910250D01*
X11316650Y-10870250D02*
X11276650Y-10910250D01*
X11276650Y-11124250D02*
X11316650Y-11164250D01*
X11316650Y-11124250D02*
X11276650Y-11164250D01*
X11371900Y-10292400D02*
X11411900Y-10332400D01*
X11411900Y-10292400D02*
X11371900Y-10332400D01*
X11371900Y-10394000D02*
X11411900Y-10434000D01*
X11411900Y-10394000D02*
X11371900Y-10434000D01*
X11371900Y-10495600D02*
X11411900Y-10535600D01*
X11411900Y-10495600D02*
X11371900Y-10535600D01*
X11429050Y-10768650D02*
X11469050Y-10808650D01*
X11469050Y-10768650D02*
X11429050Y-10808650D01*
X11429050Y-10997250D02*
X11469050Y-11037250D01*
X11469050Y-10997250D02*
X11429050Y-11037250D01*
X11429050Y-11263950D02*
X11469050Y-11303950D01*
X11469050Y-11263950D02*
X11429050Y-11303950D01*
X11435400Y-13962700D02*
X11475400Y-14002700D01*
X11475400Y-13962700D02*
X11435400Y-14002700D01*
X11460800Y-8222300D02*
X11500800Y-8262300D01*
X11500800Y-8222300D02*
X11460800Y-8262300D01*
X11460800Y-9174800D02*
X11500800Y-9214800D01*
X11500800Y-9174800D02*
X11460800Y-9214800D01*
X11485926Y-8524503D02*
X11525926Y-8564503D01*
X11525926Y-8524503D02*
X11485926Y-8564503D01*
X11486200Y-7866700D02*
X11526200Y-7906700D01*
X11526200Y-7866700D02*
X11486200Y-7906700D01*
X11486200Y-8768400D02*
X11526200Y-8808400D01*
X11526200Y-8768400D02*
X11486200Y-8808400D01*
X11528233Y-8859139D02*
X11568233Y-8899139D01*
X11568233Y-8859139D02*
X11528233Y-8899139D01*
X11546274Y-8604446D02*
X11586274Y-8644446D01*
X11586274Y-8604446D02*
X11546274Y-8644446D01*
X11570258Y-8701528D02*
X11610258Y-8741528D01*
X11610258Y-8701528D02*
X11570258Y-8741528D01*
X11575100Y-9238300D02*
X11615100Y-9278300D01*
X11615100Y-9238300D02*
X11575100Y-9278300D01*
X11584701Y-8941671D02*
X11624701Y-8981671D01*
X11624701Y-8941671D02*
X11584701Y-8981671D01*
X11643376Y-9022649D02*
X11683376Y-9062649D01*
X11683376Y-9022649D02*
X11643376Y-9062649D01*
X11676700Y-9162100D02*
X11716700Y-9202100D01*
X11716700Y-9162100D02*
X11676700Y-9202100D01*
X11676700Y-10292400D02*
X11716700Y-10332400D01*
X11716700Y-10292400D02*
X11676700Y-10332400D01*
X11676700Y-10394000D02*
X11716700Y-10434000D01*
X11716700Y-10394000D02*
X11676700Y-10434000D01*
X11676700Y-10495600D02*
X11716700Y-10535600D01*
X11716700Y-10495600D02*
X11676700Y-10535600D01*
X11689400Y-6584000D02*
X11729400Y-6624000D01*
X11729400Y-6584000D02*
X11689400Y-6624000D01*
X11716801Y-8768347D02*
X11756801Y-8808347D01*
X11756801Y-8768347D02*
X11716801Y-8808347D01*
X11727500Y-13619800D02*
X11767500Y-13659800D01*
X11767500Y-13619800D02*
X11727500Y-13659800D01*
X11743434Y-8149334D02*
X11783434Y-8189334D01*
X11783434Y-8149334D02*
X11743434Y-8189334D01*
X11765600Y-9238300D02*
X11805600Y-9278300D01*
X11805600Y-9238300D02*
X11765600Y-9278300D01*
X11765600Y-9746300D02*
X11805600Y-9786300D01*
X11805600Y-9746300D02*
X11765600Y-9786300D01*
X11765600Y-9835200D02*
X11805600Y-9875200D01*
X11805600Y-9835200D02*
X11765600Y-9875200D01*
X11765600Y-9924100D02*
X11805600Y-9964100D01*
X11805600Y-9924100D02*
X11765600Y-9964100D01*
X11816400Y-7866700D02*
X11856400Y-7906700D01*
X11856400Y-7866700D02*
X11816400Y-7906700D01*
X11867200Y-8260400D02*
X11907200Y-8300400D01*
X11907200Y-8260400D02*
X11867200Y-8300400D01*
X11879900Y-9746300D02*
X11919900Y-9786300D01*
X11919900Y-9746300D02*
X11879900Y-9786300D01*
X11879900Y-9835200D02*
X11919900Y-9875200D01*
X11919900Y-9835200D02*
X11879900Y-9875200D01*
X11879900Y-9924100D02*
X11919900Y-9964100D01*
X11919900Y-9924100D02*
X11879900Y-9964100D01*
X11898950Y-9136699D02*
X11938950Y-9176699D01*
X11938950Y-9136699D02*
X11898950Y-9176699D01*
X11905300Y-7384100D02*
X11945300Y-7424100D01*
X11945300Y-7384100D02*
X11905300Y-7424100D01*
X11936485Y-8400449D02*
X11976485Y-8440449D01*
X11976485Y-8400449D02*
X11936485Y-8440449D01*
X11943400Y-13962700D02*
X11983400Y-14002700D01*
X11983400Y-13962700D02*
X11943400Y-14002700D01*
X11949750Y-9238300D02*
X11989750Y-9278300D01*
X11989750Y-9238300D02*
X11949750Y-9278300D01*
X11967900Y-7702500D02*
X12007900Y-7742500D01*
X12007900Y-7702500D02*
X11967900Y-7742500D01*
X11994200Y-9746300D02*
X12034200Y-9786300D01*
X12034200Y-9746300D02*
X11994200Y-9786300D01*
X11994200Y-9835200D02*
X12034200Y-9875200D01*
X12034200Y-9835200D02*
X11994200Y-9875200D01*
X11994200Y-9924100D02*
X12034200Y-9964100D01*
X12034200Y-9924100D02*
X11994200Y-9964100D01*
X12032087Y-9155832D02*
X12072087Y-9195832D01*
X12072087Y-9155832D02*
X12032087Y-9195832D01*
X12036399Y-8396261D02*
X12076399Y-8436261D01*
X12076399Y-8396261D02*
X12036399Y-8436261D01*
X12057700Y-8673150D02*
X12097700Y-8713150D01*
X12097700Y-8673150D02*
X12057700Y-8713150D01*
X12057700Y-8838250D02*
X12097700Y-8878250D01*
X12097700Y-8838250D02*
X12057700Y-8878250D01*
X12120212Y-9108566D02*
X12160212Y-9148566D01*
X12160212Y-9108566D02*
X12120212Y-9148566D01*
X12127550Y-9231950D02*
X12167550Y-9271950D01*
X12167550Y-9231950D02*
X12127550Y-9271950D01*
X12133900Y-10305100D02*
X12173900Y-10345100D01*
X12173900Y-10305100D02*
X12133900Y-10345100D01*
X12133900Y-10406700D02*
X12173900Y-10446700D01*
X12173900Y-10406700D02*
X12133900Y-10446700D01*
X12133900Y-10508300D02*
X12173900Y-10548300D01*
X12173900Y-10508300D02*
X12133900Y-10548300D01*
X12152950Y-10743250D02*
X12192950Y-10783250D01*
X12192950Y-10743250D02*
X12152950Y-10783250D01*
X12152950Y-10984550D02*
X12192950Y-11024550D01*
X12192950Y-10984550D02*
X12152950Y-11024550D01*
X12152950Y-11263950D02*
X12192950Y-11303950D01*
X12192950Y-11263950D02*
X12152950Y-11303950D01*
X12197400Y-6584000D02*
X12237400Y-6624000D01*
X12237400Y-6584000D02*
X12197400Y-6624000D01*
X12209730Y-9157424D02*
X12249730Y-9197424D01*
X12249730Y-9157424D02*
X12209730Y-9197424D01*
X12210100Y-8412800D02*
X12250100Y-8452800D01*
X12250100Y-8412800D02*
X12210100Y-8452800D01*
X12235500Y-8673150D02*
X12275500Y-8713150D01*
X12275500Y-8673150D02*
X12235500Y-8713150D01*
X12235500Y-8838250D02*
X12275500Y-8878250D01*
X12275500Y-8838250D02*
X12235500Y-8878250D01*
X12235500Y-10305100D02*
X12275500Y-10345100D01*
X12275500Y-10305100D02*
X12235500Y-10345100D01*
X12235500Y-10406700D02*
X12275500Y-10446700D01*
X12275500Y-10406700D02*
X12235500Y-10446700D01*
X12235500Y-10508300D02*
X12275500Y-10548300D01*
X12275500Y-10508300D02*
X12235500Y-10548300D01*
X12235500Y-13607100D02*
X12275500Y-13647100D01*
X12275500Y-13607100D02*
X12235500Y-13647100D01*
X12254550Y-10863900D02*
X12294550Y-10903900D01*
X12294550Y-10863900D02*
X12254550Y-10903900D01*
X12254550Y-11130600D02*
X12294550Y-11170600D01*
X12294550Y-11130600D02*
X12254550Y-11170600D01*
X12306974Y-9134103D02*
X12346974Y-9174103D01*
X12346974Y-9134103D02*
X12306974Y-9174103D01*
X12318050Y-9238300D02*
X12358050Y-9278300D01*
X12358050Y-9238300D02*
X12318050Y-9278300D01*
X12337100Y-10559100D02*
X12377100Y-10599100D01*
X12377100Y-10559100D02*
X12337100Y-10599100D01*
X12349800Y-7053900D02*
X12389800Y-7093900D01*
X12389800Y-7053900D02*
X12349800Y-7093900D01*
X12362500Y-10984550D02*
X12402500Y-11024550D01*
X12402500Y-10984550D02*
X12362500Y-11024550D01*
X12362500Y-11263950D02*
X12402500Y-11303950D01*
X12402500Y-11263950D02*
X12362500Y-11303950D01*
X12368850Y-10743250D02*
X12408850Y-10783250D01*
X12408850Y-10743250D02*
X12368850Y-10783250D01*
X12368850Y-11467150D02*
X12408850Y-11507150D01*
X12408850Y-11467150D02*
X12368850Y-11507150D01*
X12387900Y-12083100D02*
X12427900Y-12123100D01*
X12427900Y-12083100D02*
X12387900Y-12123100D01*
X12387900Y-12248200D02*
X12427900Y-12288200D01*
X12427900Y-12248200D02*
X12387900Y-12288200D01*
X12387900Y-12578400D02*
X12427900Y-12618400D01*
X12427900Y-12578400D02*
X12387900Y-12618400D01*
X12387900Y-12413300D02*
X12427900Y-12453300D01*
X12427900Y-12413300D02*
X12387900Y-12453300D01*
X12408084Y-9173578D02*
X12448084Y-9213578D01*
X12448084Y-9173578D02*
X12408084Y-9213578D01*
X12413300Y-7384100D02*
X12453300Y-7424100D01*
X12453300Y-7384100D02*
X12413300Y-7424100D01*
X12426000Y-7904800D02*
X12466000Y-7944800D01*
X12466000Y-7904800D02*
X12426000Y-7944800D01*
X12438700Y-10559100D02*
X12478700Y-10599100D01*
X12478700Y-10559100D02*
X12438700Y-10599100D01*
X12451400Y-13962700D02*
X12491400Y-14002700D01*
X12491400Y-13962700D02*
X12451400Y-14002700D01*
X12488600Y-7702500D02*
X12528600Y-7742500D01*
X12528600Y-7702500D02*
X12488600Y-7742500D01*
X12565700Y-9111300D02*
X12605700Y-9151300D01*
X12605700Y-9111300D02*
X12565700Y-9151300D01*
X12565700Y-9225600D02*
X12605700Y-9265600D01*
X12605700Y-9225600D02*
X12565700Y-9265600D01*
X12565700Y-11473500D02*
X12605700Y-11513500D01*
X12605700Y-11473500D02*
X12565700Y-11513500D01*
X12565700Y-11575100D02*
X12605700Y-11615100D01*
X12605700Y-11575100D02*
X12565700Y-11615100D01*
X12565700Y-11676700D02*
X12605700Y-11716700D01*
X12605700Y-11676700D02*
X12565700Y-11716700D01*
X12565700Y-11778300D02*
X12605700Y-11818300D01*
X12605700Y-11778300D02*
X12565700Y-11818300D01*
X12616500Y-12083100D02*
X12656500Y-12123100D01*
X12656500Y-12083100D02*
X12616500Y-12123100D01*
X12616500Y-12248200D02*
X12656500Y-12288200D01*
X12656500Y-12248200D02*
X12616500Y-12288200D01*
X12616500Y-12413300D02*
X12656500Y-12453300D01*
X12656500Y-12413300D02*
X12616500Y-12453300D01*
X12616500Y-12578400D02*
X12656500Y-12618400D01*
X12656500Y-12578400D02*
X12616500Y-12618400D01*
X12629200Y-8552500D02*
X12669200Y-8592500D01*
X12669200Y-8552500D02*
X12629200Y-8592500D01*
X12667300Y-7917500D02*
X12707300Y-7957500D01*
X12707300Y-7917500D02*
X12667300Y-7957500D01*
X12667300Y-11473500D02*
X12707300Y-11513500D01*
X12707300Y-11473500D02*
X12667300Y-11513500D01*
X12667300Y-11575100D02*
X12707300Y-11615100D01*
X12707300Y-11575100D02*
X12667300Y-11615100D01*
X12667300Y-11676700D02*
X12707300Y-11716700D01*
X12707300Y-11676700D02*
X12667300Y-11716700D01*
X12667300Y-11778300D02*
X12707300Y-11818300D01*
X12707300Y-11778300D02*
X12667300Y-11818300D01*
X12705400Y-6584000D02*
X12745400Y-6624000D01*
X12745400Y-6584000D02*
X12705400Y-6624000D01*
X12743500Y-9009700D02*
X12783500Y-9049700D01*
X12783500Y-9009700D02*
X12743500Y-9049700D01*
X12743500Y-9543100D02*
X12783500Y-9583100D01*
X12783500Y-9543100D02*
X12743500Y-9583100D01*
X12768900Y-11473500D02*
X12808900Y-11513500D01*
X12808900Y-11473500D02*
X12768900Y-11513500D01*
X12845100Y-12083100D02*
X12885100Y-12123100D01*
X12885100Y-12083100D02*
X12845100Y-12123100D01*
X12845100Y-12248200D02*
X12885100Y-12288200D01*
X12885100Y-12248200D02*
X12845100Y-12288200D01*
X12845100Y-12413300D02*
X12885100Y-12453300D01*
X12885100Y-12413300D02*
X12845100Y-12453300D01*
X12845100Y-12578400D02*
X12885100Y-12618400D01*
X12885100Y-12578400D02*
X12845100Y-12618400D01*
X12857800Y-10394000D02*
X12897800Y-10434000D01*
X12897800Y-10394000D02*
X12857800Y-10434000D01*
X12870500Y-11473500D02*
X12910500Y-11513500D01*
X12910500Y-11473500D02*
X12870500Y-11513500D01*
X12921300Y-7384100D02*
X12961300Y-7424100D01*
X12961300Y-7384100D02*
X12921300Y-7424100D01*
X12934000Y-6812600D02*
X12974000Y-6852600D01*
X12974000Y-6812600D02*
X12934000Y-6852600D01*
X12934000Y-13200700D02*
X12974000Y-13240700D01*
X12974000Y-13200700D02*
X12934000Y-13240700D01*
X12959400Y-13962700D02*
X12999400Y-14002700D01*
X12999400Y-13962700D02*
X12959400Y-14002700D01*
X12972100Y-7180900D02*
X13012100Y-7220900D01*
X13012100Y-7180900D02*
X12972100Y-7220900D01*
X12978450Y-8870000D02*
X13018450Y-8910000D01*
X13018450Y-8870000D02*
X12978450Y-8910000D01*
X12984800Y-10755950D02*
X13024800Y-10795950D01*
X13024800Y-10755950D02*
X12984800Y-10795950D01*
X12991150Y-10952800D02*
X13031150Y-10992800D01*
X13031150Y-10952800D02*
X12991150Y-10992800D01*
X12991150Y-11124250D02*
X13031150Y-11164250D01*
X13031150Y-11124250D02*
X12991150Y-11164250D01*
X12991150Y-11276650D02*
X13031150Y-11316650D01*
X13031150Y-11276650D02*
X12991150Y-11316650D01*
X13080050Y-10863900D02*
X13120050Y-10903900D01*
X13120050Y-10863900D02*
X13080050Y-10903900D01*
X13080050Y-11035350D02*
X13120050Y-11075350D01*
X13120050Y-11035350D02*
X13080050Y-11075350D01*
X13080050Y-11206800D02*
X13120050Y-11246800D01*
X13120050Y-11206800D02*
X13080050Y-11246800D01*
X13099100Y-12083100D02*
X13139100Y-12123100D01*
X13139100Y-12083100D02*
X13099100Y-12123100D01*
X13099100Y-12248200D02*
X13139100Y-12288200D01*
X13139100Y-12248200D02*
X13099100Y-12288200D01*
X13099100Y-12413300D02*
X13139100Y-12453300D01*
X13139100Y-12413300D02*
X13099100Y-12453300D01*
X13099100Y-12578400D02*
X13139100Y-12618400D01*
X13139100Y-12578400D02*
X13099100Y-12618400D01*
X13149900Y-8937672D02*
X13189900Y-8977672D01*
X13189900Y-8937672D02*
X13149900Y-8977672D01*
X13175300Y-13213400D02*
X13215300Y-13253400D01*
X13215300Y-13213400D02*
X13175300Y-13253400D01*
X13181650Y-9041450D02*
X13221650Y-9081450D01*
X13221650Y-9041450D02*
X13181650Y-9081450D01*
X13188000Y-8698550D02*
X13228000Y-8738550D01*
X13228000Y-8698550D02*
X13188000Y-8738550D01*
X13213400Y-6584000D02*
X13253400Y-6624000D01*
X13253400Y-6584000D02*
X13213400Y-6624000D01*
X13213400Y-10279700D02*
X13253400Y-10319700D01*
X13253400Y-10279700D02*
X13213400Y-10319700D01*
X13213400Y-10368600D02*
X13253400Y-10408600D01*
X13253400Y-10368600D02*
X13213400Y-10408600D01*
X13213400Y-10457500D02*
X13253400Y-10497500D01*
X13253400Y-10457500D02*
X13213400Y-10497500D01*
X13213400Y-10546400D02*
X13253400Y-10586400D01*
X13253400Y-10546400D02*
X13213400Y-10586400D01*
X13264200Y-8768400D02*
X13304200Y-8808400D01*
X13304200Y-8768400D02*
X13264200Y-8808400D01*
X13289600Y-11511600D02*
X13329600Y-11551600D01*
X13329600Y-11511600D02*
X13289600Y-11551600D01*
X13289600Y-11613200D02*
X13329600Y-11653200D01*
X13329600Y-11613200D02*
X13289600Y-11653200D01*
X13289600Y-11714800D02*
X13329600Y-11754800D01*
X13329600Y-11714800D02*
X13289600Y-11754800D01*
X13289600Y-11816400D02*
X13329600Y-11856400D01*
X13329600Y-11816400D02*
X13289600Y-11856400D01*
X13302300Y-9505000D02*
X13342300Y-9545000D01*
X13342300Y-9505000D02*
X13302300Y-9545000D01*
X13302300Y-10279700D02*
X13342300Y-10319700D01*
X13342300Y-10279700D02*
X13302300Y-10319700D01*
X13302300Y-10368600D02*
X13342300Y-10408600D01*
X13342300Y-10368600D02*
X13302300Y-10408600D01*
X13302300Y-10457500D02*
X13342300Y-10497500D01*
X13342300Y-10457500D02*
X13302300Y-10497500D01*
X13302300Y-10546400D02*
X13342300Y-10586400D01*
X13342300Y-10546400D02*
X13302300Y-10586400D01*
X13315000Y-8863650D02*
X13355000Y-8903650D01*
X13355000Y-8863650D02*
X13315000Y-8903650D01*
X13327700Y-12083100D02*
X13367700Y-12123100D01*
X13367700Y-12083100D02*
X13327700Y-12123100D01*
X13327700Y-12248200D02*
X13367700Y-12288200D01*
X13367700Y-12248200D02*
X13327700Y-12288200D01*
X13327700Y-12413300D02*
X13367700Y-12453300D01*
X13367700Y-12413300D02*
X13327700Y-12453300D01*
X13327700Y-12578400D02*
X13367700Y-12618400D01*
X13367700Y-12578400D02*
X13327700Y-12618400D01*
X13378500Y-8603300D02*
X13418500Y-8643300D01*
X13418500Y-8603300D02*
X13378500Y-8643300D01*
X13391200Y-10279700D02*
X13431200Y-10319700D01*
X13431200Y-10279700D02*
X13391200Y-10319700D01*
X13391200Y-10368600D02*
X13431200Y-10408600D01*
X13431200Y-10368600D02*
X13391200Y-10408600D01*
X13391200Y-10457500D02*
X13431200Y-10497500D01*
X13431200Y-10457500D02*
X13391200Y-10497500D01*
X13391200Y-10546400D02*
X13431200Y-10586400D01*
X13431200Y-10546400D02*
X13391200Y-10586400D01*
X13391200Y-11511600D02*
X13431200Y-11551600D01*
X13431200Y-11511600D02*
X13391200Y-11551600D01*
X13391200Y-11613200D02*
X13431200Y-11653200D01*
X13431200Y-11613200D02*
X13391200Y-11653200D01*
X13391200Y-11714800D02*
X13431200Y-11754800D01*
X13431200Y-11714800D02*
X13391200Y-11754800D01*
X13391200Y-11816400D02*
X13431200Y-11856400D01*
X13431200Y-11816400D02*
X13391200Y-11856400D01*
X13442000Y-7911150D02*
X13482000Y-7951150D01*
X13482000Y-7911150D02*
X13442000Y-7951150D01*
X13442000Y-13594400D02*
X13482000Y-13634400D01*
X13482000Y-13594400D02*
X13442000Y-13634400D01*
X13454700Y-7384100D02*
X13494700Y-7424100D01*
X13494700Y-7384100D02*
X13454700Y-7424100D01*
X13467400Y-13962700D02*
X13507400Y-14002700D01*
X13507400Y-13962700D02*
X13467400Y-14002700D01*
X13492800Y-11511600D02*
X13532800Y-11551600D01*
X13532800Y-11511600D02*
X13492800Y-11551600D01*
X13524550Y-8590600D02*
X13564550Y-8630600D01*
X13564550Y-8590600D02*
X13524550Y-8630600D01*
X13556300Y-8831900D02*
X13596300Y-8871900D01*
X13596300Y-8831900D02*
X13556300Y-8871900D01*
X13556300Y-12083100D02*
X13596300Y-12123100D01*
X13596300Y-12083100D02*
X13556300Y-12123100D01*
X13556300Y-12248200D02*
X13596300Y-12288200D01*
X13596300Y-12248200D02*
X13556300Y-12288200D01*
X13556300Y-12413300D02*
X13596300Y-12453300D01*
X13596300Y-12413300D02*
X13556300Y-12453300D01*
X13556300Y-12578400D02*
X13596300Y-12618400D01*
X13596300Y-12578400D02*
X13556300Y-12618400D01*
X13594400Y-11511600D02*
X13634400Y-11551600D01*
X13634400Y-11511600D02*
X13594400Y-11551600D01*
X13683300Y-7853999D02*
X13723300Y-7893999D01*
X13723300Y-7853999D02*
X13683300Y-7893999D01*
X13721400Y-6584000D02*
X13761400Y-6624000D01*
X13761400Y-6584000D02*
X13721400Y-6624000D01*
X13810300Y-11537000D02*
X13850300Y-11577000D01*
X13850300Y-11537000D02*
X13810300Y-11577000D01*
X13835700Y-9130350D02*
X13875700Y-9170350D01*
X13875700Y-9130350D02*
X13835700Y-9170350D01*
X13835700Y-9276400D02*
X13875700Y-9316400D01*
X13875700Y-9276400D02*
X13835700Y-9316400D01*
X13848400Y-10978200D02*
X13888400Y-11018200D01*
X13888400Y-10978200D02*
X13848400Y-11018200D01*
X13848400Y-11143300D02*
X13888400Y-11183300D01*
X13888400Y-11143300D02*
X13848400Y-11183300D01*
X13873800Y-9911400D02*
X13913800Y-9951400D01*
X13913800Y-9911400D02*
X13873800Y-9951400D01*
X13884700Y-7854000D02*
X13924700Y-7894000D01*
X13924700Y-7854000D02*
X13884700Y-7894000D01*
X13911900Y-10686100D02*
X13951900Y-10726100D01*
X13951900Y-10686100D02*
X13911900Y-10726100D01*
X13911901Y-10394000D02*
X13951901Y-10434000D01*
X13951901Y-10394000D02*
X13911901Y-10434000D01*
X13937300Y-11664000D02*
X13977300Y-11704000D01*
X13977300Y-11664000D02*
X13937300Y-11704000D01*
X13950000Y-7384100D02*
X13990000Y-7424100D01*
X13990000Y-7384100D02*
X13950000Y-7424100D01*
X13975400Y-13962700D02*
X14015400Y-14002700D01*
X14015400Y-13962700D02*
X13975400Y-14002700D01*
X14064300Y-8971600D02*
X14104300Y-9011600D01*
X14104300Y-8971600D02*
X14064300Y-9011600D01*
X14102400Y-11143300D02*
X14142400Y-11183300D01*
X14142400Y-11143300D02*
X14102400Y-11183300D01*
X14178600Y-7853999D02*
X14218600Y-7893999D01*
X14218600Y-7853999D02*
X14178600Y-7893999D01*
X14191300Y-10495600D02*
X14231300Y-10535600D01*
X14231300Y-10495600D02*
X14191300Y-10535600D01*
X14204000Y-8920800D02*
X14244000Y-8960800D01*
X14244000Y-8920800D02*
X14204000Y-8960800D01*
X14229400Y-6584000D02*
X14269400Y-6624000D01*
X14269400Y-6584000D02*
X14229400Y-6624000D01*
X14343700Y-10520999D02*
X14383700Y-10560999D01*
X14383700Y-10520999D02*
X14343700Y-10560999D01*
X14356400Y-7892100D02*
X14396400Y-7932100D01*
X14396400Y-7892100D02*
X14356400Y-7932100D01*
X14381800Y-7028500D02*
X14421800Y-7068500D01*
X14421800Y-7028500D02*
X14381800Y-7068500D01*
X14381800Y-11486200D02*
X14421800Y-11526200D01*
X14421800Y-11486200D02*
X14381800Y-11526200D01*
X14389505Y-8115293D02*
X14429505Y-8155293D01*
X14429505Y-8115293D02*
X14389505Y-8155293D01*
X14407200Y-7384100D02*
X14447200Y-7424100D01*
X14447200Y-7384100D02*
X14407200Y-7424100D01*
X14407200Y-8774750D02*
X14447200Y-8814750D01*
X14447200Y-8774750D02*
X14407200Y-8814750D01*
X14483400Y-6812600D02*
X14523400Y-6852600D01*
X14523400Y-6812600D02*
X14483400Y-6852600D01*
X14483400Y-13962700D02*
X14523400Y-14002700D01*
X14523400Y-13962700D02*
X14483400Y-14002700D01*
X14496100Y-8990649D02*
X14536100Y-9030649D01*
X14536100Y-8990649D02*
X14496100Y-9030649D01*
X14508800Y-7955600D02*
X14548800Y-7995600D01*
X14548800Y-7955600D02*
X14508800Y-7995600D01*
X14610400Y-11371900D02*
X14650400Y-11411900D01*
X14650400Y-11371900D02*
X14610400Y-11411900D01*
X14635800Y-8235000D02*
X14675800Y-8275000D01*
X14675800Y-8235000D02*
X14635800Y-8275000D01*
X14678258Y-7970292D02*
X14718258Y-8010292D01*
X14718258Y-7970292D02*
X14678258Y-8010292D01*
X14737400Y-6584000D02*
X14777400Y-6624000D01*
X14777400Y-6584000D02*
X14737400Y-6624000D01*
X14800900Y-9339900D02*
X14840900Y-9379900D01*
X14840900Y-9339900D02*
X14800900Y-9379900D01*
X14863500Y-9135800D02*
X14903500Y-9175800D01*
X14903500Y-9135800D02*
X14863500Y-9175800D01*
X14864400Y-11486200D02*
X14904400Y-11526200D01*
X14904400Y-11486200D02*
X14864400Y-11526200D01*
X14877100Y-10063800D02*
X14917100Y-10103800D01*
X14917100Y-10063800D02*
X14877100Y-10103800D01*
X14902501Y-10317800D02*
X14942501Y-10357800D01*
X14942501Y-10317800D02*
X14902501Y-10357800D01*
X14991400Y-13962700D02*
X15031400Y-14002700D01*
X15031400Y-13962700D02*
X14991400Y-14002700D01*
X15004100Y-10673400D02*
X15044100Y-10713400D01*
X15044100Y-10673400D02*
X15004100Y-10713400D01*
X15016800Y-9809800D02*
X15056800Y-9849800D01*
X15056800Y-9809800D02*
X15016800Y-9849800D01*
X15029500Y-7282500D02*
X15069500Y-7322500D01*
X15069500Y-7282500D02*
X15029500Y-7322500D01*
X15118400Y-11371900D02*
X15158400Y-11411900D01*
X15158400Y-11371900D02*
X15118400Y-11411900D01*
X15156500Y-7790500D02*
X15196500Y-7830500D01*
X15196500Y-7790500D02*
X15156500Y-7830500D01*
X15207301Y-8679500D02*
X15247301Y-8719500D01*
X15247301Y-8679500D02*
X15207301Y-8719500D01*
X15213900Y-8139500D02*
X15253900Y-8179500D01*
X15253900Y-8139500D02*
X15213900Y-8179500D01*
X15245400Y-6584000D02*
X15285400Y-6624000D01*
X15285400Y-6584000D02*
X15245400Y-6624000D01*
X15270800Y-9339900D02*
X15310800Y-9379900D01*
X15310800Y-9339900D02*
X15270800Y-9379900D01*
X15270800Y-9543100D02*
X15310800Y-9583100D01*
X15310800Y-9543100D02*
X15270800Y-9583100D01*
X15283500Y-10775000D02*
X15323500Y-10815000D01*
X15323500Y-10775000D02*
X15283500Y-10815000D01*
X15308900Y-8603300D02*
X15348900Y-8643300D01*
X15348900Y-8603300D02*
X15308900Y-8643300D01*
X15334300Y-8249195D02*
X15374300Y-8289195D01*
X15374300Y-8249195D02*
X15334300Y-8289195D01*
X15372399Y-9136700D02*
X15412399Y-9176700D01*
X15412399Y-9136700D02*
X15372399Y-9176700D01*
X15435900Y-7282500D02*
X15475900Y-7322500D01*
X15475900Y-7282500D02*
X15435900Y-7322500D01*
X15448600Y-11371900D02*
X15488600Y-11411900D01*
X15488600Y-11371900D02*
X15448600Y-11411900D01*
X15499400Y-13962700D02*
X15539400Y-14002700D01*
X15539400Y-13962700D02*
X15499400Y-14002700D01*
X15512100Y-6812600D02*
X15552100Y-6852600D01*
X15552100Y-6812600D02*
X15512100Y-6852600D01*
X15524800Y-9327200D02*
X15564800Y-9367200D01*
X15564800Y-9327200D02*
X15524800Y-9367200D01*
X15524801Y-10317800D02*
X15564801Y-10357800D01*
X15564801Y-10317800D02*
X15524801Y-10357800D01*
X15626400Y-8006400D02*
X15666400Y-8046400D01*
X15666400Y-8006400D02*
X15626400Y-8046400D01*
X15664500Y-8247700D02*
X15704500Y-8287700D01*
X15704500Y-8247700D02*
X15664500Y-8287700D01*
X15664500Y-10063800D02*
X15704500Y-10103800D01*
X15704500Y-10063800D02*
X15664500Y-10103800D01*
X15664500Y-10203500D02*
X15704500Y-10243500D01*
X15704500Y-10203500D02*
X15664500Y-10243500D01*
X15664500Y-10521000D02*
X15704500Y-10561000D01*
X15704500Y-10521000D02*
X15664500Y-10561000D01*
X15665401Y-9544000D02*
X15705401Y-9584000D01*
X15705401Y-9544000D02*
X15665401Y-9584000D01*
X15702600Y-11486200D02*
X15742600Y-11526200D01*
X15742600Y-11486200D02*
X15702600Y-11526200D01*
X15728000Y-7409500D02*
X15768000Y-7449500D01*
X15768000Y-7409500D02*
X15728000Y-7449500D01*
X15753400Y-6584000D02*
X15793400Y-6624000D01*
X15793400Y-6584000D02*
X15753400Y-6624000D01*
X15753400Y-8044500D02*
X15793400Y-8084500D01*
X15793400Y-8044500D02*
X15753400Y-8084500D01*
X15816900Y-9924100D02*
X15856900Y-9964100D01*
X15856900Y-9924100D02*
X15816900Y-9964100D01*
X15816900Y-10063800D02*
X15856900Y-10103800D01*
X15856900Y-10063800D02*
X15816900Y-10103800D01*
X15829600Y-8679500D02*
X15869600Y-8719500D01*
X15869600Y-8679500D02*
X15829600Y-8719500D01*
X15880400Y-8920800D02*
X15920400Y-8960800D01*
X15920400Y-8920800D02*
X15880400Y-8960800D01*
X15880400Y-10775000D02*
X15920400Y-10815000D01*
X15920400Y-10775000D02*
X15880400Y-10815000D01*
X15905843Y-7935501D02*
X15945843Y-7975501D01*
X15945843Y-7935501D02*
X15905843Y-7975501D01*
X15906266Y-7790034D02*
X15946266Y-7830034D01*
X15946266Y-7790034D02*
X15906266Y-7830034D01*
X15918499Y-8247700D02*
X15958499Y-8287700D01*
X15958499Y-8247700D02*
X15918499Y-8287700D01*
X15918500Y-8603300D02*
X15958500Y-8643300D01*
X15958500Y-8603300D02*
X15918500Y-8643300D01*
X15956600Y-11371900D02*
X15996600Y-11411900D01*
X15996600Y-11371900D02*
X15956600Y-11411900D01*
X16007400Y-13962700D02*
X16047400Y-14002700D01*
X16047400Y-13962700D02*
X16007400Y-14002700D01*
X16032800Y-7701600D02*
X16072800Y-7741600D01*
X16072800Y-7701600D02*
X16032800Y-7741600D01*
X16032800Y-7863001D02*
X16072800Y-7903001D01*
X16072800Y-7863001D02*
X16032800Y-7903001D01*
X16083600Y-8895400D02*
X16123600Y-8935400D01*
X16123600Y-8895400D02*
X16083600Y-8935400D01*
X16109000Y-8616000D02*
X16149000Y-8656000D01*
X16149000Y-8616000D02*
X16109000Y-8656000D01*
X16185200Y-7358700D02*
X16225200Y-7398700D01*
X16225200Y-7358700D02*
X16185200Y-7398700D01*
X16210600Y-7142800D02*
X16250600Y-7182800D01*
X16250600Y-7142800D02*
X16210600Y-7182800D01*
X16261400Y-6584000D02*
X16301400Y-6624000D01*
X16301400Y-6584000D02*
X16261400Y-6624000D01*
X16274100Y-9098600D02*
X16314100Y-9138600D01*
X16314100Y-9098600D02*
X16274100Y-9138600D01*
X16413800Y-8273100D02*
X16453800Y-8313100D01*
X16453800Y-8273100D02*
X16413800Y-8313100D01*
X16413800Y-8997000D02*
X16453800Y-9037000D01*
X16453800Y-8997000D02*
X16413800Y-9037000D01*
X16413800Y-10775000D02*
X16453800Y-10815000D01*
X16453800Y-10775000D02*
X16413800Y-10815000D01*
X16426500Y-10508300D02*
X16466500Y-10548300D01*
X16466500Y-10508300D02*
X16426500Y-10548300D01*
X16483650Y-12464100D02*
X16523650Y-12504100D01*
X16523650Y-12464100D02*
X16483650Y-12504100D01*
X16540800Y-8171500D02*
X16580800Y-8211500D01*
X16580800Y-8171500D02*
X16540800Y-8211500D01*
X16540800Y-8298500D02*
X16580800Y-8338500D01*
X16580800Y-8298500D02*
X16540800Y-8338500D01*
X16667800Y-12235500D02*
X16707800Y-12275500D01*
X16707800Y-12235500D02*
X16667800Y-12275500D01*
X16731300Y-7485700D02*
X16771300Y-7525700D01*
X16771300Y-7485700D02*
X16731300Y-7525700D01*
X16744000Y-13238800D02*
X16784000Y-13278800D01*
X16784000Y-13238800D02*
X16744000Y-13278800D01*
X16744000Y-13581700D02*
X16784000Y-13621700D01*
X16784000Y-13581700D02*
X16744000Y-13621700D01*
X16744000Y-13962700D02*
X16784000Y-14002700D01*
X16784000Y-13962700D02*
X16744000Y-14002700D01*
X16769400Y-6584000D02*
X16809400Y-6624000D01*
X16809400Y-6584000D02*
X16769400Y-6624000D01*
X16794800Y-9822500D02*
X16834800Y-9862500D01*
X16834800Y-9822500D02*
X16794800Y-9862500D01*
X16807500Y-11765600D02*
X16847500Y-11805600D01*
X16847500Y-11765600D02*
X16807500Y-11805600D01*
X16820200Y-12667300D02*
X16860200Y-12707300D01*
X16860200Y-12667300D02*
X16820200Y-12707300D01*
X16845600Y-11613200D02*
X16885600Y-11653200D01*
X16885600Y-11613200D02*
X16845600Y-11653200D01*
X16858300Y-10762300D02*
X16898300Y-10802300D01*
X16898300Y-10762300D02*
X16858300Y-10802300D01*
X16871000Y-10203500D02*
X16911000Y-10243500D01*
X16911000Y-10203500D02*
X16871000Y-10243500D01*
X16896400Y-7739700D02*
X16936400Y-7779700D01*
X16936400Y-7739700D02*
X16896400Y-7779700D01*
X16959900Y-9441500D02*
X16999900Y-9481500D01*
X16999900Y-9441500D02*
X16959900Y-9481500D01*
X17010700Y-7917500D02*
X17050700Y-7957500D01*
X17050700Y-7917500D02*
X17010700Y-7957500D01*
X17023400Y-11791000D02*
X17063400Y-11831000D01*
X17063400Y-11791000D02*
X17023400Y-11831000D01*
X17061500Y-9911400D02*
X17101500Y-9951400D01*
X17101500Y-9911400D02*
X17061500Y-9951400D01*
X17074200Y-8222300D02*
X17114200Y-8262300D01*
X17114200Y-8222300D02*
X17074200Y-8262300D01*
X17099600Y-8704900D02*
X17139600Y-8744900D01*
X17139600Y-8704900D02*
X17099600Y-8744900D01*
X17112300Y-8933500D02*
X17152300Y-8973500D01*
X17152300Y-8933500D02*
X17112300Y-8973500D01*
X17163101Y-12680000D02*
X17203101Y-12720000D01*
X17203101Y-12680000D02*
X17163101Y-12720000D01*
X17188500Y-9339900D02*
X17228500Y-9379900D01*
X17228500Y-9339900D02*
X17188500Y-9379900D01*
X17201200Y-10368600D02*
X17241200Y-10408600D01*
X17241200Y-10368600D02*
X17201200Y-10408600D01*
X17213900Y-13962700D02*
X17253900Y-14002700D01*
X17253900Y-13962700D02*
X17213900Y-14002700D01*
X17226600Y-7155500D02*
X17266600Y-7195500D01*
X17266600Y-7155500D02*
X17226600Y-7195500D01*
X17226600Y-8031800D02*
X17266600Y-8071800D01*
X17266600Y-8031800D02*
X17226600Y-8071800D01*
X17277400Y-6584000D02*
X17317400Y-6624000D01*
X17317400Y-6584000D02*
X17277400Y-6624000D01*
X17328200Y-8908100D02*
X17368200Y-8948100D01*
X17368200Y-8908100D02*
X17328200Y-8948100D01*
X17340900Y-11613200D02*
X17380900Y-11653200D01*
X17380900Y-11613200D02*
X17340900Y-11653200D01*
X17348298Y-8298500D02*
X17388298Y-8338500D01*
X17388298Y-8298500D02*
X17348298Y-8338500D01*
X17379000Y-9454200D02*
X17419000Y-9494200D01*
X17419000Y-9454200D02*
X17379000Y-9494200D01*
X17379000Y-11854500D02*
X17419000Y-11894500D01*
X17419000Y-11854500D02*
X17379000Y-11894500D01*
X17379000Y-12133900D02*
X17419000Y-12173900D01*
X17419000Y-12133900D02*
X17379000Y-12173900D01*
X17391700Y-13467400D02*
X17431700Y-13507400D01*
X17431700Y-13467400D02*
X17391700Y-13507400D01*
X17420799Y-8171500D02*
X17460799Y-8211500D01*
X17460799Y-8171500D02*
X17420799Y-8211500D01*
X17429800Y-8552500D02*
X17469800Y-8592500D01*
X17469800Y-8552500D02*
X17429800Y-8592500D01*
X17493300Y-8044500D02*
X17533300Y-8084500D01*
X17533300Y-8044500D02*
X17493300Y-8084500D01*
X17556800Y-13581700D02*
X17596800Y-13621700D01*
X17596800Y-13581700D02*
X17556800Y-13621700D01*
X17607600Y-11613200D02*
X17647600Y-11653200D01*
X17647600Y-11613200D02*
X17607600Y-11653200D01*
X17657500Y-9288200D02*
X17697500Y-9328200D01*
X17697500Y-9288200D02*
X17657500Y-9328200D01*
X17658400Y-13962700D02*
X17698400Y-14002700D01*
X17698400Y-13962700D02*
X17658400Y-14002700D01*
X17709200Y-12997500D02*
X17749200Y-13037500D01*
X17749200Y-12997500D02*
X17709200Y-13037500D01*
X17785400Y-6584000D02*
X17825400Y-6624000D01*
X17825400Y-6584000D02*
X17785400Y-6624000D01*
X17785400Y-7333300D02*
X17825400Y-7373300D01*
X17825400Y-7333300D02*
X17785400Y-7373300D01*
X17785400Y-7714300D02*
X17825400Y-7754300D01*
X17825400Y-7714300D02*
X17785400Y-7754300D01*
X17874300Y-9060500D02*
X17914300Y-9100500D01*
X17914300Y-9060500D02*
X17874300Y-9100500D01*
X17874300Y-9289100D02*
X17914300Y-9329100D01*
X17914300Y-9289100D02*
X17874300Y-9329100D01*
X17912400Y-8260400D02*
X17952400Y-8300400D01*
X17952400Y-8260400D02*
X17912400Y-8300400D01*
X17948415Y-11998411D02*
X17988415Y-12038411D01*
X17988415Y-11998411D02*
X17948415Y-12038411D01*
X17950500Y-11549700D02*
X17990500Y-11589700D01*
X17990500Y-11549700D02*
X17950500Y-11589700D01*
X17950500Y-12197400D02*
X17990500Y-12237400D01*
X17990500Y-12197400D02*
X17950500Y-12237400D01*
X17962603Y-12097401D02*
X18002603Y-12137401D01*
X18002603Y-12097401D02*
X17962603Y-12137401D01*
X17988600Y-7993700D02*
X18028600Y-8033700D01*
X18028600Y-7993700D02*
X17988600Y-8033700D01*
X18014000Y-8844600D02*
X18054000Y-8884600D01*
X18054000Y-8844600D02*
X18014000Y-8884600D01*
X18014000Y-10368600D02*
X18054000Y-10408600D01*
X18054000Y-10368600D02*
X18014000Y-10408600D01*
X18026700Y-11727500D02*
X18066700Y-11767500D01*
X18066700Y-11727500D02*
X18026700Y-11767500D01*
X18115600Y-11613200D02*
X18155600Y-11653200D01*
X18155600Y-11613200D02*
X18115600Y-11653200D01*
X18115600Y-8260400D02*
X18155600Y-8300400D01*
X18155600Y-8260400D02*
X18115600Y-8300400D01*
X18141000Y-13238800D02*
X18181000Y-13278800D01*
X18181000Y-13238800D02*
X18141000Y-13278800D01*
X18141000Y-13581700D02*
X18181000Y-13621700D01*
X18181000Y-13581700D02*
X18141000Y-13621700D01*
X18141000Y-13962700D02*
X18181000Y-14002700D01*
X18181000Y-13962700D02*
X18141000Y-14002700D01*
X18268000Y-10902000D02*
X18308000Y-10942000D01*
X18308000Y-10902000D02*
X18268000Y-10942000D01*
X18268000Y-11791000D02*
X18308000Y-11831000D01*
X18308000Y-11791000D02*
X18268000Y-11831000D01*
X18268000Y-12286300D02*
X18308000Y-12326300D01*
X18308000Y-12286300D02*
X18268000Y-12326300D01*
X18344200Y-7993700D02*
X18384200Y-8033700D01*
X18384200Y-7993700D02*
X18344200Y-8033700D01*
X18344200Y-8493700D02*
X18384200Y-8533700D01*
X18384200Y-8493700D02*
X18344200Y-8533700D01*
X18344200Y-8993700D02*
X18384200Y-9033700D01*
X18384200Y-8993700D02*
X18344200Y-9033700D01*
X18344200Y-9493700D02*
X18384200Y-9533700D01*
X18384200Y-9493700D02*
X18344200Y-9533700D01*
X18344200Y-9993700D02*
X18384200Y-10033700D01*
X18384200Y-9993700D02*
X18344200Y-10033700D01*
X18344200Y-10493700D02*
X18384200Y-10533700D01*
X18384200Y-10493700D02*
X18344200Y-10533700D01*
X16547300Y-7048500D02*
G75*
G03*
X16547300Y-7048500I-50000J0D01*
G01*
X16547300Y-7302500D02*
G75*
G03*
X16547300Y-7302500I-50000J0D01*
G01*
X16801300Y-7048500D02*
G75*
G03*
X16801300Y-7048500I-50000J0D01*
G01*
X16801300Y-7302500D02*
G75*
G03*
X16801300Y-7302500I-50000J0D01*
G01*
X17055300Y-7048500D02*
G75*
G03*
X17055300Y-7048500I-50000J0D01*
G01*
X17055300Y-7302500D02*
G75*
G03*
X17055300Y-7302500I-50000J0D01*
G01*
X8864600Y-13011000D02*
X8864600Y-13151000D01*
X8794600Y-13081000D02*
X8934600Y-13081000D01*
X9364600Y-13011000D02*
X9364600Y-13151000D01*
X9294600Y-13081000D02*
X9434600Y-13081000D01*
X10972800Y-13011000D02*
X10972800Y-13151000D01*
X10902800Y-13081000D02*
X11042800Y-13081000D01*
X11472800Y-13011000D02*
X11472800Y-13151000D01*
X11402800Y-13081000D02*
X11542800Y-13081000D01*
X11972800Y-13011000D02*
X11972800Y-13151000D01*
X11902800Y-13081000D02*
X12042800Y-13081000D01*
X12472800Y-13011000D02*
X12472800Y-13151000D01*
X12402800Y-13081000D02*
X12542800Y-13081000D01*
X13716000Y-13011000D02*
X13716000Y-13151000D01*
X13646000Y-13081000D02*
X13786000Y-13081000D01*
X14216000Y-13011000D02*
X14216000Y-13151000D01*
X14146000Y-13081000D02*
X14286000Y-13081000D01*
X14716000Y-13011000D02*
X14716000Y-13151000D01*
X14646000Y-13081000D02*
X14786000Y-13081000D01*
X15216000Y-13011000D02*
X15216000Y-13151000D01*
X15146000Y-13081000D02*
X15286000Y-13081000D01*
X15716000Y-13011000D02*
X15716000Y-13151000D01*
X15646000Y-13081000D02*
X15786000Y-13081000D01*
X16216000Y-13011000D02*
X16216000Y-13151000D01*
X16146000Y-13081000D02*
X16286000Y-13081000D01*
X8916983Y-6935782D02*
X8916983Y-6780217D01*
X8761418Y-6780217D01*
X8761418Y-6935782D01*
X8916983Y-6935782D01*
X10237783Y-13666782D02*
X10237783Y-13511217D01*
X10082218Y-13511217D01*
X10082218Y-13666782D01*
X10237783Y-13666782D01*
X13171482Y-13666782D02*
X13171482Y-13511217D01*
X13015917Y-13511217D01*
X13015917Y-13666782D01*
X13171482Y-13666782D01*
X14352582Y-9640883D02*
X14352582Y-9485318D01*
X14197017Y-9485318D01*
X14197017Y-9640883D01*
X14352582Y-9640883D01*
X18111783Y-6910382D02*
X18111783Y-6754817D01*
X17956218Y-6754817D01*
X17956218Y-6910382D01*
X18111783Y-6910382D01*
X18162583Y-12853982D02*
X18162583Y-12698417D01*
X18007018Y-12698417D01*
X18007018Y-12853982D01*
X18162583Y-12853982D01*
X17242500Y-13550100D02*
X17292500Y-13500100D01*
X17242500Y-13450100D01*
X17192500Y-13500100D01*
X17242500Y-13550100D01*
X17682500Y-13550100D02*
X17732500Y-13500100D01*
X17682500Y-13450100D01*
X17632500Y-13500100D01*
X17682500Y-13550100D01*
D12*
X8716728Y-14565214D02*
X8716728Y-14265214D01*
X8788157Y-14265214D01*
X8831014Y-14279500D01*
X8859586Y-14308071D01*
X8873871Y-14336643D01*
X8888157Y-14393786D01*
X8888157Y-14436643D01*
X8873871Y-14493786D01*
X8859586Y-14522357D01*
X8831014Y-14550929D01*
X8788157Y-14565214D01*
X8716728Y-14565214D01*
X9016728Y-14565214D02*
X9016728Y-14365214D01*
X9016728Y-14422357D02*
X9031014Y-14393786D01*
X9045300Y-14379500D01*
X9073871Y-14365214D01*
X9102443Y-14365214D01*
X9202443Y-14565214D02*
X9202443Y-14365214D01*
X9202443Y-14265214D02*
X9188157Y-14279500D01*
X9202443Y-14293786D01*
X9216728Y-14279500D01*
X9202443Y-14265214D01*
X9202443Y-14293786D01*
X9388157Y-14565214D02*
X9359586Y-14550929D01*
X9345300Y-14522357D01*
X9345300Y-14265214D01*
X9545300Y-14565214D02*
X9516728Y-14550929D01*
X9502443Y-14522357D01*
X9502443Y-14265214D01*
X9888157Y-14565214D02*
X9888157Y-14265214D01*
X9988157Y-14479500D01*
X10088157Y-14265214D01*
X10088157Y-14565214D01*
X10359586Y-14565214D02*
X10359586Y-14408071D01*
X10345300Y-14379500D01*
X10316728Y-14365214D01*
X10259586Y-14365214D01*
X10231014Y-14379500D01*
X10359586Y-14550929D02*
X10331014Y-14565214D01*
X10259586Y-14565214D01*
X10231014Y-14550929D01*
X10216728Y-14522357D01*
X10216728Y-14493786D01*
X10231014Y-14465214D01*
X10259586Y-14450929D01*
X10331014Y-14450929D01*
X10359586Y-14436643D01*
X10502443Y-14365214D02*
X10502443Y-14665214D01*
X10502443Y-14379500D02*
X10531014Y-14365214D01*
X10588157Y-14365214D01*
X10616728Y-14379500D01*
X10631014Y-14393786D01*
X10645300Y-14422357D01*
X10645300Y-14508071D01*
X10631014Y-14536643D01*
X10616728Y-14550929D01*
X10588157Y-14565214D01*
X10531014Y-14565214D01*
X10502443Y-14550929D01*
X10773871Y-14536643D02*
X10788157Y-14550929D01*
X10773871Y-14565214D01*
X10759586Y-14550929D01*
X10773871Y-14536643D01*
X10773871Y-14565214D01*
X10773871Y-14379500D02*
X10788157Y-14393786D01*
X10773871Y-14408071D01*
X10759586Y-14393786D01*
X10773871Y-14379500D01*
X10773871Y-14408071D01*
X8390300Y-15039500D02*
X8430300Y-15079500D01*
X8430300Y-15039500D02*
X8390300Y-15079500D01*
X8773871Y-14895214D02*
X8802443Y-14895214D01*
X8831014Y-14909500D01*
X8845300Y-14923786D01*
X8859586Y-14952357D01*
X8873871Y-15009500D01*
X8873871Y-15080929D01*
X8859586Y-15138071D01*
X8845300Y-15166643D01*
X8831014Y-15180929D01*
X8802443Y-15195214D01*
X8773871Y-15195214D01*
X8745300Y-15180929D01*
X8731014Y-15166643D01*
X8716728Y-15138071D01*
X8702443Y-15080929D01*
X8702443Y-15009500D01*
X8716728Y-14952357D01*
X8731014Y-14923786D01*
X8745300Y-14909500D01*
X8773871Y-14895214D01*
X9002443Y-15166643D02*
X9016728Y-15180929D01*
X9002443Y-15195214D01*
X8988157Y-15180929D01*
X9002443Y-15166643D01*
X9002443Y-15195214D01*
X9273871Y-14995214D02*
X9273871Y-15195214D01*
X9202443Y-14880929D02*
X9131014Y-15095214D01*
X9316728Y-15095214D01*
X9488157Y-14895214D02*
X9516728Y-14895214D01*
X9545300Y-14909500D01*
X9559586Y-14923786D01*
X9573871Y-14952357D01*
X9588157Y-15009500D01*
X9588157Y-15080929D01*
X9573871Y-15138071D01*
X9559586Y-15166643D01*
X9545300Y-15180929D01*
X9516728Y-15195214D01*
X9488157Y-15195214D01*
X9459586Y-15180929D01*
X9445300Y-15166643D01*
X9431014Y-15138071D01*
X9416728Y-15080929D01*
X9416728Y-15009500D01*
X9431014Y-14952357D01*
X9445300Y-14923786D01*
X9459586Y-14909500D01*
X9488157Y-14895214D01*
X9773871Y-14895214D02*
X9802443Y-14895214D01*
X9831014Y-14909500D01*
X9845300Y-14923786D01*
X9859586Y-14952357D01*
X9873871Y-15009500D01*
X9873871Y-15080929D01*
X9859586Y-15138071D01*
X9845300Y-15166643D01*
X9831014Y-15180929D01*
X9802443Y-15195214D01*
X9773871Y-15195214D01*
X9745300Y-15180929D01*
X9731014Y-15166643D01*
X9716728Y-15138071D01*
X9702443Y-15080929D01*
X9702443Y-15009500D01*
X9716728Y-14952357D01*
X9731014Y-14923786D01*
X9745300Y-14909500D01*
X9773871Y-14895214D01*
X10002443Y-15195214D02*
X10002443Y-14995214D01*
X10002443Y-15023786D02*
X10016728Y-15009500D01*
X10045300Y-14995214D01*
X10088157Y-14995214D01*
X10116728Y-15009500D01*
X10131014Y-15038071D01*
X10131014Y-15195214D01*
X10131014Y-15038071D02*
X10145300Y-15009500D01*
X10173871Y-14995214D01*
X10216728Y-14995214D01*
X10245300Y-15009500D01*
X10259586Y-15038071D01*
X10259586Y-15195214D01*
X10402443Y-15195214D02*
X10402443Y-14995214D01*
X10402443Y-15023786D02*
X10416728Y-15009500D01*
X10445300Y-14995214D01*
X10488157Y-14995214D01*
X10516728Y-15009500D01*
X10531014Y-15038071D01*
X10531014Y-15195214D01*
X10531014Y-15038071D02*
X10545300Y-15009500D01*
X10573871Y-14995214D01*
X10616728Y-14995214D01*
X10645300Y-15009500D01*
X10659586Y-15038071D01*
X10659586Y-15195214D01*
X11245300Y-14880929D02*
X10988157Y-15266643D01*
X11631014Y-14895214D02*
X11659586Y-14895214D01*
X11688157Y-14909500D01*
X11702443Y-14923786D01*
X11716728Y-14952357D01*
X11731014Y-15009500D01*
X11731014Y-15080929D01*
X11716728Y-15138071D01*
X11702443Y-15166643D01*
X11688157Y-15180929D01*
X11659586Y-15195214D01*
X11631014Y-15195214D01*
X11602443Y-15180929D01*
X11588157Y-15166643D01*
X11573871Y-15138071D01*
X11559586Y-15080929D01*
X11559586Y-15009500D01*
X11573871Y-14952357D01*
X11588157Y-14923786D01*
X11602443Y-14909500D01*
X11631014Y-14895214D01*
X11859586Y-15166643D02*
X11873871Y-15180929D01*
X11859586Y-15195214D01*
X11845300Y-15180929D01*
X11859586Y-15166643D01*
X11859586Y-15195214D01*
X12059586Y-14895214D02*
X12088157Y-14895214D01*
X12116728Y-14909500D01*
X12131014Y-14923786D01*
X12145300Y-14952357D01*
X12159586Y-15009500D01*
X12159586Y-15080929D01*
X12145300Y-15138071D01*
X12131014Y-15166643D01*
X12116728Y-15180929D01*
X12088157Y-15195214D01*
X12059586Y-15195214D01*
X12031014Y-15180929D01*
X12016728Y-15166643D01*
X12002443Y-15138071D01*
X11988157Y-15080929D01*
X11988157Y-15009500D01*
X12002443Y-14952357D01*
X12016728Y-14923786D01*
X12031014Y-14909500D01*
X12059586Y-14895214D01*
X12445300Y-15195214D02*
X12273871Y-15195214D01*
X12359586Y-15195214D02*
X12359586Y-14895214D01*
X12331014Y-14938071D01*
X12302443Y-14966643D01*
X12273871Y-14980929D01*
X12716728Y-14895214D02*
X12573871Y-14895214D01*
X12559586Y-15038071D01*
X12573871Y-15023786D01*
X12602443Y-15009500D01*
X12673871Y-15009500D01*
X12702443Y-15023786D01*
X12716728Y-15038071D01*
X12731014Y-15066643D01*
X12731014Y-15138071D01*
X12716728Y-15166643D01*
X12702443Y-15180929D01*
X12673871Y-15195214D01*
X12602443Y-15195214D01*
X12573871Y-15180929D01*
X12559586Y-15166643D01*
X12831014Y-14895214D02*
X13031014Y-14895214D01*
X12902443Y-15195214D01*
X13131014Y-14895214D02*
X13131014Y-14952357D01*
X13245300Y-14895214D02*
X13245300Y-14952357D01*
X13688157Y-15309500D02*
X13673871Y-15295214D01*
X13645300Y-15252357D01*
X13631014Y-15223786D01*
X13616728Y-15180929D01*
X13602443Y-15109500D01*
X13602443Y-15052357D01*
X13616728Y-14980929D01*
X13631014Y-14938071D01*
X13645300Y-14909500D01*
X13673871Y-14866643D01*
X13688157Y-14852357D01*
X13945300Y-14895214D02*
X13802443Y-14895214D01*
X13788157Y-15038071D01*
X13802443Y-15023786D01*
X13831014Y-15009500D01*
X13902443Y-15009500D01*
X13931014Y-15023786D01*
X13945300Y-15038071D01*
X13959586Y-15066643D01*
X13959586Y-15138071D01*
X13945300Y-15166643D01*
X13931014Y-15180929D01*
X13902443Y-15195214D01*
X13831014Y-15195214D01*
X13802443Y-15180929D01*
X13788157Y-15166643D01*
X14231014Y-14895214D02*
X14088157Y-14895214D01*
X14073871Y-15038071D01*
X14088157Y-15023786D01*
X14116728Y-15009500D01*
X14188157Y-15009500D01*
X14216728Y-15023786D01*
X14231014Y-15038071D01*
X14245300Y-15066643D01*
X14245300Y-15138071D01*
X14231014Y-15166643D01*
X14216728Y-15180929D01*
X14188157Y-15195214D01*
X14116728Y-15195214D01*
X14088157Y-15180929D01*
X14073871Y-15166643D01*
X14431014Y-14895214D02*
X14459586Y-14895214D01*
X14488157Y-14909500D01*
X14502443Y-14923786D01*
X14516728Y-14952357D01*
X14531014Y-15009500D01*
X14531014Y-15080929D01*
X14516728Y-15138071D01*
X14502443Y-15166643D01*
X14488157Y-15180929D01*
X14459586Y-15195214D01*
X14431014Y-15195214D01*
X14402443Y-15180929D01*
X14388157Y-15166643D01*
X14373871Y-15138071D01*
X14359586Y-15080929D01*
X14359586Y-15009500D01*
X14373871Y-14952357D01*
X14388157Y-14923786D01*
X14402443Y-14909500D01*
X14431014Y-14895214D01*
X14888157Y-15195214D02*
X14888157Y-14895214D01*
X15016728Y-15195214D02*
X15016728Y-15038071D01*
X15002443Y-15009500D01*
X14973871Y-14995214D01*
X14931014Y-14995214D01*
X14902443Y-15009500D01*
X14888157Y-15023786D01*
X15202443Y-15195214D02*
X15173871Y-15180929D01*
X15159586Y-15166643D01*
X15145300Y-15138071D01*
X15145300Y-15052357D01*
X15159586Y-15023786D01*
X15173871Y-15009500D01*
X15202443Y-14995214D01*
X15245300Y-14995214D01*
X15273871Y-15009500D01*
X15288157Y-15023786D01*
X15302443Y-15052357D01*
X15302443Y-15138071D01*
X15288157Y-15166643D01*
X15273871Y-15180929D01*
X15245300Y-15195214D01*
X15202443Y-15195214D01*
X15473871Y-15195214D02*
X15445300Y-15180929D01*
X15431014Y-15152357D01*
X15431014Y-14895214D01*
X15702443Y-15180929D02*
X15673871Y-15195214D01*
X15616728Y-15195214D01*
X15588157Y-15180929D01*
X15573871Y-15152357D01*
X15573871Y-15038071D01*
X15588157Y-15009500D01*
X15616728Y-14995214D01*
X15673871Y-14995214D01*
X15702443Y-15009500D01*
X15716728Y-15038071D01*
X15716728Y-15066643D01*
X15573871Y-15095214D01*
X15831014Y-15180929D02*
X15859586Y-15195214D01*
X15916728Y-15195214D01*
X15945300Y-15180929D01*
X15959586Y-15152357D01*
X15959586Y-15138071D01*
X15945300Y-15109500D01*
X15916728Y-15095214D01*
X15873871Y-15095214D01*
X15845300Y-15080929D01*
X15831014Y-15052357D01*
X15831014Y-15038071D01*
X15845300Y-15009500D01*
X15873871Y-14995214D01*
X15916728Y-14995214D01*
X15945300Y-15009500D01*
X16059586Y-15309500D02*
X16073871Y-15295214D01*
X16102443Y-15252357D01*
X16116728Y-15223786D01*
X16131014Y-15180929D01*
X16145300Y-15109500D01*
X16145300Y-15052357D01*
X16131014Y-14980929D01*
X16116728Y-14938071D01*
X16102443Y-14909500D01*
X16073871Y-14866643D01*
X16059586Y-14852357D01*
X8430300Y-15455500D02*
G75*
G03*
X8430300Y-15455500I-50000J0D01*
G01*
X8873871Y-15591214D02*
X8702443Y-15591214D01*
X8788157Y-15591214D02*
X8788157Y-15291214D01*
X8759586Y-15334071D01*
X8731014Y-15362643D01*
X8702443Y-15376929D01*
X9002443Y-15562643D02*
X9016728Y-15576929D01*
X9002443Y-15591214D01*
X8988157Y-15576929D01*
X9002443Y-15562643D01*
X9002443Y-15591214D01*
X9202443Y-15291214D02*
X9231014Y-15291214D01*
X9259586Y-15305500D01*
X9273871Y-15319786D01*
X9288157Y-15348357D01*
X9302443Y-15405500D01*
X9302443Y-15476929D01*
X9288157Y-15534071D01*
X9273871Y-15562643D01*
X9259586Y-15576929D01*
X9231014Y-15591214D01*
X9202443Y-15591214D01*
X9173871Y-15576929D01*
X9159586Y-15562643D01*
X9145300Y-15534071D01*
X9131014Y-15476929D01*
X9131014Y-15405500D01*
X9145300Y-15348357D01*
X9159586Y-15319786D01*
X9173871Y-15305500D01*
X9202443Y-15291214D01*
X9488157Y-15291214D02*
X9516728Y-15291214D01*
X9545300Y-15305500D01*
X9559586Y-15319786D01*
X9573871Y-15348357D01*
X9588157Y-15405500D01*
X9588157Y-15476929D01*
X9573871Y-15534071D01*
X9559586Y-15562643D01*
X9545300Y-15576929D01*
X9516728Y-15591214D01*
X9488157Y-15591214D01*
X9459586Y-15576929D01*
X9445300Y-15562643D01*
X9431014Y-15534071D01*
X9416728Y-15476929D01*
X9416728Y-15405500D01*
X9431014Y-15348357D01*
X9445300Y-15319786D01*
X9459586Y-15305500D01*
X9488157Y-15291214D01*
X9773871Y-15291214D02*
X9802443Y-15291214D01*
X9831014Y-15305500D01*
X9845300Y-15319786D01*
X9859586Y-15348357D01*
X9873871Y-15405500D01*
X9873871Y-15476929D01*
X9859586Y-15534071D01*
X9845300Y-15562643D01*
X9831014Y-15576929D01*
X9802443Y-15591214D01*
X9773871Y-15591214D01*
X9745300Y-15576929D01*
X9731014Y-15562643D01*
X9716728Y-15534071D01*
X9702443Y-15476929D01*
X9702443Y-15405500D01*
X9716728Y-15348357D01*
X9731014Y-15319786D01*
X9745300Y-15305500D01*
X9773871Y-15291214D01*
X10002443Y-15591214D02*
X10002443Y-15391214D01*
X10002443Y-15419786D02*
X10016728Y-15405500D01*
X10045300Y-15391214D01*
X10088157Y-15391214D01*
X10116728Y-15405500D01*
X10131014Y-15434071D01*
X10131014Y-15591214D01*
X10131014Y-15434071D02*
X10145300Y-15405500D01*
X10173871Y-15391214D01*
X10216728Y-15391214D01*
X10245300Y-15405500D01*
X10259586Y-15434071D01*
X10259586Y-15591214D01*
X10402443Y-15591214D02*
X10402443Y-15391214D01*
X10402443Y-15419786D02*
X10416728Y-15405500D01*
X10445300Y-15391214D01*
X10488157Y-15391214D01*
X10516728Y-15405500D01*
X10531014Y-15434071D01*
X10531014Y-15591214D01*
X10531014Y-15434071D02*
X10545300Y-15405500D01*
X10573871Y-15391214D01*
X10616728Y-15391214D01*
X10645300Y-15405500D01*
X10659586Y-15434071D01*
X10659586Y-15591214D01*
X11245300Y-15276929D02*
X10988157Y-15662643D01*
X11631014Y-15291214D02*
X11659586Y-15291214D01*
X11688157Y-15305500D01*
X11702443Y-15319786D01*
X11716728Y-15348357D01*
X11731014Y-15405500D01*
X11731014Y-15476929D01*
X11716728Y-15534071D01*
X11702443Y-15562643D01*
X11688157Y-15576929D01*
X11659586Y-15591214D01*
X11631014Y-15591214D01*
X11602443Y-15576929D01*
X11588157Y-15562643D01*
X11573871Y-15534071D01*
X11559586Y-15476929D01*
X11559586Y-15405500D01*
X11573871Y-15348357D01*
X11588157Y-15319786D01*
X11602443Y-15305500D01*
X11631014Y-15291214D01*
X11859586Y-15562643D02*
X11873871Y-15576929D01*
X11859586Y-15591214D01*
X11845300Y-15576929D01*
X11859586Y-15562643D01*
X11859586Y-15591214D01*
X12059586Y-15291214D02*
X12088157Y-15291214D01*
X12116728Y-15305500D01*
X12131014Y-15319786D01*
X12145300Y-15348357D01*
X12159586Y-15405500D01*
X12159586Y-15476929D01*
X12145300Y-15534071D01*
X12131014Y-15562643D01*
X12116728Y-15576929D01*
X12088157Y-15591214D01*
X12059586Y-15591214D01*
X12031014Y-15576929D01*
X12016728Y-15562643D01*
X12002443Y-15534071D01*
X11988157Y-15476929D01*
X11988157Y-15405500D01*
X12002443Y-15348357D01*
X12016728Y-15319786D01*
X12031014Y-15305500D01*
X12059586Y-15291214D01*
X12259586Y-15291214D02*
X12445300Y-15291214D01*
X12345300Y-15405500D01*
X12388157Y-15405500D01*
X12416728Y-15419786D01*
X12431014Y-15434071D01*
X12445300Y-15462643D01*
X12445300Y-15534071D01*
X12431014Y-15562643D01*
X12416728Y-15576929D01*
X12388157Y-15591214D01*
X12302443Y-15591214D01*
X12273871Y-15576929D01*
X12259586Y-15562643D01*
X12588157Y-15591214D02*
X12645300Y-15591214D01*
X12673871Y-15576929D01*
X12688157Y-15562643D01*
X12716728Y-15519786D01*
X12731014Y-15462643D01*
X12731014Y-15348357D01*
X12716728Y-15319786D01*
X12702443Y-15305500D01*
X12673871Y-15291214D01*
X12616728Y-15291214D01*
X12588157Y-15305500D01*
X12573871Y-15319786D01*
X12559586Y-15348357D01*
X12559586Y-15419786D01*
X12573871Y-15448357D01*
X12588157Y-15462643D01*
X12616728Y-15476929D01*
X12673871Y-15476929D01*
X12702443Y-15462643D01*
X12716728Y-15448357D01*
X12731014Y-15419786D01*
X12988157Y-15391214D02*
X12988157Y-15591214D01*
X12916728Y-15276929D02*
X12845300Y-15491214D01*
X13031014Y-15491214D01*
X13131014Y-15291214D02*
X13131014Y-15348357D01*
X13245300Y-15291214D02*
X13245300Y-15348357D01*
X13688157Y-15705500D02*
X13673871Y-15691214D01*
X13645300Y-15648357D01*
X13631014Y-15619786D01*
X13616728Y-15576929D01*
X13602443Y-15505500D01*
X13602443Y-15448357D01*
X13616728Y-15376929D01*
X13631014Y-15334071D01*
X13645300Y-15305500D01*
X13673871Y-15262643D01*
X13688157Y-15248357D01*
X13931014Y-15291214D02*
X13873871Y-15291214D01*
X13845300Y-15305500D01*
X13831014Y-15319786D01*
X13802443Y-15362643D01*
X13788157Y-15419786D01*
X13788157Y-15534071D01*
X13802443Y-15562643D01*
X13816728Y-15576929D01*
X13845300Y-15591214D01*
X13902443Y-15591214D01*
X13931014Y-15576929D01*
X13945300Y-15562643D01*
X13959586Y-15534071D01*
X13959586Y-15462643D01*
X13945300Y-15434071D01*
X13931014Y-15419786D01*
X13902443Y-15405500D01*
X13845300Y-15405500D01*
X13816728Y-15419786D01*
X13802443Y-15434071D01*
X13788157Y-15462643D01*
X14316728Y-15591214D02*
X14316728Y-15291214D01*
X14445300Y-15591214D02*
X14445300Y-15434071D01*
X14431014Y-15405500D01*
X14402443Y-15391214D01*
X14359586Y-15391214D01*
X14331014Y-15405500D01*
X14316728Y-15419786D01*
X14631014Y-15591214D02*
X14602443Y-15576929D01*
X14588157Y-15562643D01*
X14573871Y-15534071D01*
X14573871Y-15448357D01*
X14588157Y-15419786D01*
X14602443Y-15405500D01*
X14631014Y-15391214D01*
X14673871Y-15391214D01*
X14702443Y-15405500D01*
X14716728Y-15419786D01*
X14731014Y-15448357D01*
X14731014Y-15534071D01*
X14716728Y-15562643D01*
X14702443Y-15576929D01*
X14673871Y-15591214D01*
X14631014Y-15591214D01*
X14902443Y-15591214D02*
X14873871Y-15576929D01*
X14859586Y-15548357D01*
X14859586Y-15291214D01*
X15131014Y-15576929D02*
X15102443Y-15591214D01*
X15045300Y-15591214D01*
X15016728Y-15576929D01*
X15002443Y-15548357D01*
X15002443Y-15434071D01*
X15016728Y-15405500D01*
X15045300Y-15391214D01*
X15102443Y-15391214D01*
X15131014Y-15405500D01*
X15145300Y-15434071D01*
X15145300Y-15462643D01*
X15002443Y-15491214D01*
X15259586Y-15576929D02*
X15288157Y-15591214D01*
X15345300Y-15591214D01*
X15373871Y-15576929D01*
X15388157Y-15548357D01*
X15388157Y-15534071D01*
X15373871Y-15505500D01*
X15345300Y-15491214D01*
X15302443Y-15491214D01*
X15273871Y-15476929D01*
X15259586Y-15448357D01*
X15259586Y-15434071D01*
X15273871Y-15405500D01*
X15302443Y-15391214D01*
X15345300Y-15391214D01*
X15373871Y-15405500D01*
X15488157Y-15705500D02*
X15502443Y-15691214D01*
X15531014Y-15648357D01*
X15545300Y-15619786D01*
X15559586Y-15576929D01*
X15573871Y-15505500D01*
X15573871Y-15448357D01*
X15559586Y-15376929D01*
X15545300Y-15334071D01*
X15531014Y-15305500D01*
X15502443Y-15262643D01*
X15488157Y-15248357D01*
X8360300Y-15781500D02*
X8360300Y-15921500D01*
X8290300Y-15851500D02*
X8430300Y-15851500D01*
X8873871Y-15987214D02*
X8702443Y-15987214D01*
X8788157Y-15987214D02*
X8788157Y-15687214D01*
X8759586Y-15730071D01*
X8731014Y-15758643D01*
X8702443Y-15772929D01*
X9002443Y-15958643D02*
X9016728Y-15972929D01*
X9002443Y-15987214D01*
X8988157Y-15972929D01*
X9002443Y-15958643D01*
X9002443Y-15987214D01*
X9273871Y-15787214D02*
X9273871Y-15987214D01*
X9202443Y-15672929D02*
X9131014Y-15887214D01*
X9316728Y-15887214D01*
X9488157Y-15687214D02*
X9516728Y-15687214D01*
X9545300Y-15701500D01*
X9559586Y-15715786D01*
X9573871Y-15744357D01*
X9588157Y-15801500D01*
X9588157Y-15872929D01*
X9573871Y-15930071D01*
X9559586Y-15958643D01*
X9545300Y-15972929D01*
X9516728Y-15987214D01*
X9488157Y-15987214D01*
X9459586Y-15972929D01*
X9445300Y-15958643D01*
X9431014Y-15930071D01*
X9416728Y-15872929D01*
X9416728Y-15801500D01*
X9431014Y-15744357D01*
X9445300Y-15715786D01*
X9459586Y-15701500D01*
X9488157Y-15687214D01*
X9773871Y-15687214D02*
X9802443Y-15687214D01*
X9831014Y-15701500D01*
X9845300Y-15715786D01*
X9859586Y-15744357D01*
X9873871Y-15801500D01*
X9873871Y-15872929D01*
X9859586Y-15930071D01*
X9845300Y-15958643D01*
X9831014Y-15972929D01*
X9802443Y-15987214D01*
X9773871Y-15987214D01*
X9745300Y-15972929D01*
X9731014Y-15958643D01*
X9716728Y-15930071D01*
X9702443Y-15872929D01*
X9702443Y-15801500D01*
X9716728Y-15744357D01*
X9731014Y-15715786D01*
X9745300Y-15701500D01*
X9773871Y-15687214D01*
X10002443Y-15987214D02*
X10002443Y-15787214D01*
X10002443Y-15815786D02*
X10016728Y-15801500D01*
X10045300Y-15787214D01*
X10088157Y-15787214D01*
X10116728Y-15801500D01*
X10131014Y-15830071D01*
X10131014Y-15987214D01*
X10131014Y-15830071D02*
X10145300Y-15801500D01*
X10173871Y-15787214D01*
X10216728Y-15787214D01*
X10245300Y-15801500D01*
X10259586Y-15830071D01*
X10259586Y-15987214D01*
X10402443Y-15987214D02*
X10402443Y-15787214D01*
X10402443Y-15815786D02*
X10416728Y-15801500D01*
X10445300Y-15787214D01*
X10488157Y-15787214D01*
X10516728Y-15801500D01*
X10531014Y-15830071D01*
X10531014Y-15987214D01*
X10531014Y-15830071D02*
X10545300Y-15801500D01*
X10573871Y-15787214D01*
X10616728Y-15787214D01*
X10645300Y-15801500D01*
X10659586Y-15830071D01*
X10659586Y-15987214D01*
X11245300Y-15672929D02*
X10988157Y-16058643D01*
X11631014Y-15687214D02*
X11659586Y-15687214D01*
X11688157Y-15701500D01*
X11702443Y-15715786D01*
X11716728Y-15744357D01*
X11731014Y-15801500D01*
X11731014Y-15872929D01*
X11716728Y-15930071D01*
X11702443Y-15958643D01*
X11688157Y-15972929D01*
X11659586Y-15987214D01*
X11631014Y-15987214D01*
X11602443Y-15972929D01*
X11588157Y-15958643D01*
X11573871Y-15930071D01*
X11559586Y-15872929D01*
X11559586Y-15801500D01*
X11573871Y-15744357D01*
X11588157Y-15715786D01*
X11602443Y-15701500D01*
X11631014Y-15687214D01*
X11859586Y-15958643D02*
X11873871Y-15972929D01*
X11859586Y-15987214D01*
X11845300Y-15972929D01*
X11859586Y-15958643D01*
X11859586Y-15987214D01*
X12059586Y-15687214D02*
X12088157Y-15687214D01*
X12116728Y-15701500D01*
X12131014Y-15715786D01*
X12145300Y-15744357D01*
X12159586Y-15801500D01*
X12159586Y-15872929D01*
X12145300Y-15930071D01*
X12131014Y-15958643D01*
X12116728Y-15972929D01*
X12088157Y-15987214D01*
X12059586Y-15987214D01*
X12031014Y-15972929D01*
X12016728Y-15958643D01*
X12002443Y-15930071D01*
X11988157Y-15872929D01*
X11988157Y-15801500D01*
X12002443Y-15744357D01*
X12016728Y-15715786D01*
X12031014Y-15701500D01*
X12059586Y-15687214D01*
X12431014Y-15687214D02*
X12288157Y-15687214D01*
X12273871Y-15830071D01*
X12288157Y-15815786D01*
X12316728Y-15801500D01*
X12388157Y-15801500D01*
X12416728Y-15815786D01*
X12431014Y-15830071D01*
X12445300Y-15858643D01*
X12445300Y-15930071D01*
X12431014Y-15958643D01*
X12416728Y-15972929D01*
X12388157Y-15987214D01*
X12316728Y-15987214D01*
X12288157Y-15972929D01*
X12273871Y-15958643D01*
X12716728Y-15687214D02*
X12573871Y-15687214D01*
X12559586Y-15830071D01*
X12573871Y-15815786D01*
X12602443Y-15801500D01*
X12673871Y-15801500D01*
X12702443Y-15815786D01*
X12716728Y-15830071D01*
X12731014Y-15858643D01*
X12731014Y-15930071D01*
X12716728Y-15958643D01*
X12702443Y-15972929D01*
X12673871Y-15987214D01*
X12602443Y-15987214D01*
X12573871Y-15972929D01*
X12559586Y-15958643D01*
X13016728Y-15987214D02*
X12845300Y-15987214D01*
X12931014Y-15987214D02*
X12931014Y-15687214D01*
X12902443Y-15730071D01*
X12873871Y-15758643D01*
X12845300Y-15772929D01*
X13131014Y-15687214D02*
X13131014Y-15744357D01*
X13245300Y-15687214D02*
X13245300Y-15744357D01*
X13688157Y-16101500D02*
X13673871Y-16087214D01*
X13645300Y-16044357D01*
X13631014Y-16015786D01*
X13616728Y-15972929D01*
X13602443Y-15901500D01*
X13602443Y-15844357D01*
X13616728Y-15772929D01*
X13631014Y-15730071D01*
X13645300Y-15701500D01*
X13673871Y-15658643D01*
X13688157Y-15644357D01*
X13959586Y-15987214D02*
X13788157Y-15987214D01*
X13873871Y-15987214D02*
X13873871Y-15687214D01*
X13845300Y-15730071D01*
X13816728Y-15758643D01*
X13788157Y-15772929D01*
X14073871Y-15715786D02*
X14088157Y-15701500D01*
X14116728Y-15687214D01*
X14188157Y-15687214D01*
X14216728Y-15701500D01*
X14231014Y-15715786D01*
X14245300Y-15744357D01*
X14245300Y-15772929D01*
X14231014Y-15815786D01*
X14059586Y-15987214D01*
X14245300Y-15987214D01*
X14602443Y-15987214D02*
X14602443Y-15687214D01*
X14731014Y-15987214D02*
X14731014Y-15830071D01*
X14716728Y-15801500D01*
X14688157Y-15787214D01*
X14645300Y-15787214D01*
X14616728Y-15801500D01*
X14602443Y-15815786D01*
X14916728Y-15987214D02*
X14888157Y-15972929D01*
X14873871Y-15958643D01*
X14859586Y-15930071D01*
X14859586Y-15844357D01*
X14873871Y-15815786D01*
X14888157Y-15801500D01*
X14916728Y-15787214D01*
X14959586Y-15787214D01*
X14988157Y-15801500D01*
X15002443Y-15815786D01*
X15016728Y-15844357D01*
X15016728Y-15930071D01*
X15002443Y-15958643D01*
X14988157Y-15972929D01*
X14959586Y-15987214D01*
X14916728Y-15987214D01*
X15188157Y-15987214D02*
X15159586Y-15972929D01*
X15145300Y-15944357D01*
X15145300Y-15687214D01*
X15416728Y-15972929D02*
X15388157Y-15987214D01*
X15331014Y-15987214D01*
X15302443Y-15972929D01*
X15288157Y-15944357D01*
X15288157Y-15830071D01*
X15302443Y-15801500D01*
X15331014Y-15787214D01*
X15388157Y-15787214D01*
X15416728Y-15801500D01*
X15431014Y-15830071D01*
X15431014Y-15858643D01*
X15288157Y-15887214D01*
X15545300Y-15972929D02*
X15573871Y-15987214D01*
X15631014Y-15987214D01*
X15659586Y-15972929D01*
X15673871Y-15944357D01*
X15673871Y-15930071D01*
X15659586Y-15901500D01*
X15631014Y-15887214D01*
X15588157Y-15887214D01*
X15559586Y-15872929D01*
X15545300Y-15844357D01*
X15545300Y-15830071D01*
X15559586Y-15801500D01*
X15588157Y-15787214D01*
X15631014Y-15787214D01*
X15659586Y-15801500D01*
X15773871Y-16101500D02*
X15788157Y-16087214D01*
X15816728Y-16044357D01*
X15831014Y-16015786D01*
X15845300Y-15972929D01*
X15859586Y-15901500D01*
X15859586Y-15844357D01*
X15845300Y-15772929D01*
X15831014Y-15730071D01*
X15816728Y-15701500D01*
X15788157Y-15658643D01*
X15773871Y-15644357D01*
X8398082Y-16325283D02*
X8398082Y-16169718D01*
X8242517Y-16169718D01*
X8242517Y-16325283D01*
X8398082Y-16325283D01*
X8702443Y-16111786D02*
X8716728Y-16097500D01*
X8745300Y-16083214D01*
X8816728Y-16083214D01*
X8845300Y-16097500D01*
X8859586Y-16111786D01*
X8873871Y-16140357D01*
X8873871Y-16168929D01*
X8859586Y-16211786D01*
X8688157Y-16383214D01*
X8873871Y-16383214D01*
X9002443Y-16354643D02*
X9016728Y-16368929D01*
X9002443Y-16383214D01*
X8988157Y-16368929D01*
X9002443Y-16354643D01*
X9002443Y-16383214D01*
X9131014Y-16111786D02*
X9145300Y-16097500D01*
X9173871Y-16083214D01*
X9245300Y-16083214D01*
X9273871Y-16097500D01*
X9288157Y-16111786D01*
X9302443Y-16140357D01*
X9302443Y-16168929D01*
X9288157Y-16211786D01*
X9116728Y-16383214D01*
X9302443Y-16383214D01*
X9488157Y-16083214D02*
X9516728Y-16083214D01*
X9545300Y-16097500D01*
X9559586Y-16111786D01*
X9573871Y-16140357D01*
X9588157Y-16197500D01*
X9588157Y-16268929D01*
X9573871Y-16326071D01*
X9559586Y-16354643D01*
X9545300Y-16368929D01*
X9516728Y-16383214D01*
X9488157Y-16383214D01*
X9459586Y-16368929D01*
X9445300Y-16354643D01*
X9431014Y-16326071D01*
X9416728Y-16268929D01*
X9416728Y-16197500D01*
X9431014Y-16140357D01*
X9445300Y-16111786D01*
X9459586Y-16097500D01*
X9488157Y-16083214D01*
X9773871Y-16083214D02*
X9802443Y-16083214D01*
X9831014Y-16097500D01*
X9845300Y-16111786D01*
X9859586Y-16140357D01*
X9873871Y-16197500D01*
X9873871Y-16268929D01*
X9859586Y-16326071D01*
X9845300Y-16354643D01*
X9831014Y-16368929D01*
X9802443Y-16383214D01*
X9773871Y-16383214D01*
X9745300Y-16368929D01*
X9731014Y-16354643D01*
X9716728Y-16326071D01*
X9702443Y-16268929D01*
X9702443Y-16197500D01*
X9716728Y-16140357D01*
X9731014Y-16111786D01*
X9745300Y-16097500D01*
X9773871Y-16083214D01*
X10002443Y-16383214D02*
X10002443Y-16183214D01*
X10002443Y-16211786D02*
X10016728Y-16197500D01*
X10045300Y-16183214D01*
X10088157Y-16183214D01*
X10116728Y-16197500D01*
X10131014Y-16226071D01*
X10131014Y-16383214D01*
X10131014Y-16226071D02*
X10145300Y-16197500D01*
X10173871Y-16183214D01*
X10216728Y-16183214D01*
X10245300Y-16197500D01*
X10259586Y-16226071D01*
X10259586Y-16383214D01*
X10402443Y-16383214D02*
X10402443Y-16183214D01*
X10402443Y-16211786D02*
X10416728Y-16197500D01*
X10445300Y-16183214D01*
X10488157Y-16183214D01*
X10516728Y-16197500D01*
X10531014Y-16226071D01*
X10531014Y-16383214D01*
X10531014Y-16226071D02*
X10545300Y-16197500D01*
X10573871Y-16183214D01*
X10616728Y-16183214D01*
X10645300Y-16197500D01*
X10659586Y-16226071D01*
X10659586Y-16383214D01*
X11245300Y-16068929D02*
X10988157Y-16454643D01*
X11631014Y-16083214D02*
X11659586Y-16083214D01*
X11688157Y-16097500D01*
X11702443Y-16111786D01*
X11716728Y-16140357D01*
X11731014Y-16197500D01*
X11731014Y-16268929D01*
X11716728Y-16326071D01*
X11702443Y-16354643D01*
X11688157Y-16368929D01*
X11659586Y-16383214D01*
X11631014Y-16383214D01*
X11602443Y-16368929D01*
X11588157Y-16354643D01*
X11573871Y-16326071D01*
X11559586Y-16268929D01*
X11559586Y-16197500D01*
X11573871Y-16140357D01*
X11588157Y-16111786D01*
X11602443Y-16097500D01*
X11631014Y-16083214D01*
X11859586Y-16354643D02*
X11873871Y-16368929D01*
X11859586Y-16383214D01*
X11845300Y-16368929D01*
X11859586Y-16354643D01*
X11859586Y-16383214D01*
X12059586Y-16083214D02*
X12088157Y-16083214D01*
X12116728Y-16097500D01*
X12131014Y-16111786D01*
X12145300Y-16140357D01*
X12159586Y-16197500D01*
X12159586Y-16268929D01*
X12145300Y-16326071D01*
X12131014Y-16354643D01*
X12116728Y-16368929D01*
X12088157Y-16383214D01*
X12059586Y-16383214D01*
X12031014Y-16368929D01*
X12016728Y-16354643D01*
X12002443Y-16326071D01*
X11988157Y-16268929D01*
X11988157Y-16197500D01*
X12002443Y-16140357D01*
X12016728Y-16111786D01*
X12031014Y-16097500D01*
X12059586Y-16083214D01*
X12331014Y-16211786D02*
X12302443Y-16197500D01*
X12288157Y-16183214D01*
X12273871Y-16154643D01*
X12273871Y-16140357D01*
X12288157Y-16111786D01*
X12302443Y-16097500D01*
X12331014Y-16083214D01*
X12388157Y-16083214D01*
X12416728Y-16097500D01*
X12431014Y-16111786D01*
X12445300Y-16140357D01*
X12445300Y-16154643D01*
X12431014Y-16183214D01*
X12416728Y-16197500D01*
X12388157Y-16211786D01*
X12331014Y-16211786D01*
X12302443Y-16226071D01*
X12288157Y-16240357D01*
X12273871Y-16268929D01*
X12273871Y-16326071D01*
X12288157Y-16354643D01*
X12302443Y-16368929D01*
X12331014Y-16383214D01*
X12388157Y-16383214D01*
X12416728Y-16368929D01*
X12431014Y-16354643D01*
X12445300Y-16326071D01*
X12445300Y-16268929D01*
X12431014Y-16240357D01*
X12416728Y-16226071D01*
X12388157Y-16211786D01*
X12702443Y-16083214D02*
X12645300Y-16083214D01*
X12616728Y-16097500D01*
X12602443Y-16111786D01*
X12573871Y-16154643D01*
X12559586Y-16211786D01*
X12559586Y-16326071D01*
X12573871Y-16354643D01*
X12588157Y-16368929D01*
X12616728Y-16383214D01*
X12673871Y-16383214D01*
X12702443Y-16368929D01*
X12716728Y-16354643D01*
X12731014Y-16326071D01*
X12731014Y-16254643D01*
X12716728Y-16226071D01*
X12702443Y-16211786D01*
X12673871Y-16197500D01*
X12616728Y-16197500D01*
X12588157Y-16211786D01*
X12573871Y-16226071D01*
X12559586Y-16254643D01*
X12988157Y-16083214D02*
X12931014Y-16083214D01*
X12902443Y-16097500D01*
X12888157Y-16111786D01*
X12859586Y-16154643D01*
X12845300Y-16211786D01*
X12845300Y-16326071D01*
X12859586Y-16354643D01*
X12873871Y-16368929D01*
X12902443Y-16383214D01*
X12959586Y-16383214D01*
X12988157Y-16368929D01*
X13002443Y-16354643D01*
X13016728Y-16326071D01*
X13016728Y-16254643D01*
X13002443Y-16226071D01*
X12988157Y-16211786D01*
X12959586Y-16197500D01*
X12902443Y-16197500D01*
X12873871Y-16211786D01*
X12859586Y-16226071D01*
X12845300Y-16254643D01*
X13131014Y-16083214D02*
X13131014Y-16140357D01*
X13245300Y-16083214D02*
X13245300Y-16140357D01*
X13688157Y-16497500D02*
X13673871Y-16483214D01*
X13645300Y-16440357D01*
X13631014Y-16411786D01*
X13616728Y-16368929D01*
X13602443Y-16297500D01*
X13602443Y-16240357D01*
X13616728Y-16168929D01*
X13631014Y-16126071D01*
X13645300Y-16097500D01*
X13673871Y-16054643D01*
X13688157Y-16040357D01*
X13931014Y-16083214D02*
X13873871Y-16083214D01*
X13845300Y-16097500D01*
X13831014Y-16111786D01*
X13802443Y-16154643D01*
X13788157Y-16211786D01*
X13788157Y-16326071D01*
X13802443Y-16354643D01*
X13816728Y-16368929D01*
X13845300Y-16383214D01*
X13902443Y-16383214D01*
X13931014Y-16368929D01*
X13945300Y-16354643D01*
X13959586Y-16326071D01*
X13959586Y-16254643D01*
X13945300Y-16226071D01*
X13931014Y-16211786D01*
X13902443Y-16197500D01*
X13845300Y-16197500D01*
X13816728Y-16211786D01*
X13802443Y-16226071D01*
X13788157Y-16254643D01*
X14316728Y-16383214D02*
X14316728Y-16083214D01*
X14445300Y-16383214D02*
X14445300Y-16226071D01*
X14431014Y-16197500D01*
X14402443Y-16183214D01*
X14359586Y-16183214D01*
X14331014Y-16197500D01*
X14316728Y-16211786D01*
X14631014Y-16383214D02*
X14602443Y-16368929D01*
X14588157Y-16354643D01*
X14573871Y-16326071D01*
X14573871Y-16240357D01*
X14588157Y-16211786D01*
X14602443Y-16197500D01*
X14631014Y-16183214D01*
X14673871Y-16183214D01*
X14702443Y-16197500D01*
X14716728Y-16211786D01*
X14731014Y-16240357D01*
X14731014Y-16326071D01*
X14716728Y-16354643D01*
X14702443Y-16368929D01*
X14673871Y-16383214D01*
X14631014Y-16383214D01*
X14902443Y-16383214D02*
X14873871Y-16368929D01*
X14859586Y-16340357D01*
X14859586Y-16083214D01*
X15131014Y-16368929D02*
X15102443Y-16383214D01*
X15045300Y-16383214D01*
X15016728Y-16368929D01*
X15002443Y-16340357D01*
X15002443Y-16226071D01*
X15016728Y-16197500D01*
X15045300Y-16183214D01*
X15102443Y-16183214D01*
X15131014Y-16197500D01*
X15145300Y-16226071D01*
X15145300Y-16254643D01*
X15002443Y-16283214D01*
X15259586Y-16368929D02*
X15288157Y-16383214D01*
X15345300Y-16383214D01*
X15373871Y-16368929D01*
X15388157Y-16340357D01*
X15388157Y-16326071D01*
X15373871Y-16297500D01*
X15345300Y-16283214D01*
X15302443Y-16283214D01*
X15273871Y-16268929D01*
X15259586Y-16240357D01*
X15259586Y-16226071D01*
X15273871Y-16197500D01*
X15302443Y-16183214D01*
X15345300Y-16183214D01*
X15373871Y-16197500D01*
X15488157Y-16497500D02*
X15502443Y-16483214D01*
X15531014Y-16440357D01*
X15545300Y-16411786D01*
X15559586Y-16368929D01*
X15573871Y-16297500D01*
X15573871Y-16240357D01*
X15559586Y-16168929D01*
X15545300Y-16126071D01*
X15531014Y-16097500D01*
X15502443Y-16054643D01*
X15488157Y-16040357D01*
X8380300Y-16693500D02*
X8430300Y-16643500D01*
X8380300Y-16593500D01*
X8330300Y-16643500D01*
X8380300Y-16693500D01*
X8873871Y-16779214D02*
X8702443Y-16779214D01*
X8788157Y-16779214D02*
X8788157Y-16479214D01*
X8759586Y-16522071D01*
X8731014Y-16550643D01*
X8702443Y-16564929D01*
X9002443Y-16750643D02*
X9016728Y-16764929D01*
X9002443Y-16779214D01*
X8988157Y-16764929D01*
X9002443Y-16750643D01*
X9002443Y-16779214D01*
X9202443Y-16479214D02*
X9231014Y-16479214D01*
X9259586Y-16493500D01*
X9273871Y-16507786D01*
X9288157Y-16536357D01*
X9302443Y-16593500D01*
X9302443Y-16664929D01*
X9288157Y-16722071D01*
X9273871Y-16750643D01*
X9259586Y-16764929D01*
X9231014Y-16779214D01*
X9202443Y-16779214D01*
X9173871Y-16764929D01*
X9159586Y-16750643D01*
X9145300Y-16722071D01*
X9131014Y-16664929D01*
X9131014Y-16593500D01*
X9145300Y-16536357D01*
X9159586Y-16507786D01*
X9173871Y-16493500D01*
X9202443Y-16479214D01*
X9488157Y-16479214D02*
X9516728Y-16479214D01*
X9545300Y-16493500D01*
X9559586Y-16507786D01*
X9573871Y-16536357D01*
X9588157Y-16593500D01*
X9588157Y-16664929D01*
X9573871Y-16722071D01*
X9559586Y-16750643D01*
X9545300Y-16764929D01*
X9516728Y-16779214D01*
X9488157Y-16779214D01*
X9459586Y-16764929D01*
X9445300Y-16750643D01*
X9431014Y-16722071D01*
X9416728Y-16664929D01*
X9416728Y-16593500D01*
X9431014Y-16536357D01*
X9445300Y-16507786D01*
X9459586Y-16493500D01*
X9488157Y-16479214D01*
X9773871Y-16479214D02*
X9802443Y-16479214D01*
X9831014Y-16493500D01*
X9845300Y-16507786D01*
X9859586Y-16536357D01*
X9873871Y-16593500D01*
X9873871Y-16664929D01*
X9859586Y-16722071D01*
X9845300Y-16750643D01*
X9831014Y-16764929D01*
X9802443Y-16779214D01*
X9773871Y-16779214D01*
X9745300Y-16764929D01*
X9731014Y-16750643D01*
X9716728Y-16722071D01*
X9702443Y-16664929D01*
X9702443Y-16593500D01*
X9716728Y-16536357D01*
X9731014Y-16507786D01*
X9745300Y-16493500D01*
X9773871Y-16479214D01*
X10002443Y-16779214D02*
X10002443Y-16579214D01*
X10002443Y-16607786D02*
X10016728Y-16593500D01*
X10045300Y-16579214D01*
X10088157Y-16579214D01*
X10116728Y-16593500D01*
X10131014Y-16622071D01*
X10131014Y-16779214D01*
X10131014Y-16622071D02*
X10145300Y-16593500D01*
X10173871Y-16579214D01*
X10216728Y-16579214D01*
X10245300Y-16593500D01*
X10259586Y-16622071D01*
X10259586Y-16779214D01*
X10402443Y-16779214D02*
X10402443Y-16579214D01*
X10402443Y-16607786D02*
X10416728Y-16593500D01*
X10445300Y-16579214D01*
X10488157Y-16579214D01*
X10516728Y-16593500D01*
X10531014Y-16622071D01*
X10531014Y-16779214D01*
X10531014Y-16622071D02*
X10545300Y-16593500D01*
X10573871Y-16579214D01*
X10616728Y-16579214D01*
X10645300Y-16593500D01*
X10659586Y-16622071D01*
X10659586Y-16779214D01*
X11245300Y-16464929D02*
X10988157Y-16850643D01*
X11631014Y-16479214D02*
X11659586Y-16479214D01*
X11688157Y-16493500D01*
X11702443Y-16507786D01*
X11716728Y-16536357D01*
X11731014Y-16593500D01*
X11731014Y-16664929D01*
X11716728Y-16722071D01*
X11702443Y-16750643D01*
X11688157Y-16764929D01*
X11659586Y-16779214D01*
X11631014Y-16779214D01*
X11602443Y-16764929D01*
X11588157Y-16750643D01*
X11573871Y-16722071D01*
X11559586Y-16664929D01*
X11559586Y-16593500D01*
X11573871Y-16536357D01*
X11588157Y-16507786D01*
X11602443Y-16493500D01*
X11631014Y-16479214D01*
X11859586Y-16750643D02*
X11873871Y-16764929D01*
X11859586Y-16779214D01*
X11845300Y-16764929D01*
X11859586Y-16750643D01*
X11859586Y-16779214D01*
X12059586Y-16479214D02*
X12088157Y-16479214D01*
X12116728Y-16493500D01*
X12131014Y-16507786D01*
X12145300Y-16536357D01*
X12159586Y-16593500D01*
X12159586Y-16664929D01*
X12145300Y-16722071D01*
X12131014Y-16750643D01*
X12116728Y-16764929D01*
X12088157Y-16779214D01*
X12059586Y-16779214D01*
X12031014Y-16764929D01*
X12016728Y-16750643D01*
X12002443Y-16722071D01*
X11988157Y-16664929D01*
X11988157Y-16593500D01*
X12002443Y-16536357D01*
X12016728Y-16507786D01*
X12031014Y-16493500D01*
X12059586Y-16479214D01*
X12259586Y-16479214D02*
X12445300Y-16479214D01*
X12345300Y-16593500D01*
X12388157Y-16593500D01*
X12416728Y-16607786D01*
X12431014Y-16622071D01*
X12445300Y-16650643D01*
X12445300Y-16722071D01*
X12431014Y-16750643D01*
X12416728Y-16764929D01*
X12388157Y-16779214D01*
X12302443Y-16779214D01*
X12273871Y-16764929D01*
X12259586Y-16750643D01*
X12588157Y-16779214D02*
X12645300Y-16779214D01*
X12673871Y-16764929D01*
X12688157Y-16750643D01*
X12716728Y-16707786D01*
X12731014Y-16650643D01*
X12731014Y-16536357D01*
X12716728Y-16507786D01*
X12702443Y-16493500D01*
X12673871Y-16479214D01*
X12616728Y-16479214D01*
X12588157Y-16493500D01*
X12573871Y-16507786D01*
X12559586Y-16536357D01*
X12559586Y-16607786D01*
X12573871Y-16636357D01*
X12588157Y-16650643D01*
X12616728Y-16664929D01*
X12673871Y-16664929D01*
X12702443Y-16650643D01*
X12716728Y-16636357D01*
X12731014Y-16607786D01*
X12988157Y-16579214D02*
X12988157Y-16779214D01*
X12916728Y-16464929D02*
X12845300Y-16679214D01*
X13031014Y-16679214D01*
X13131014Y-16479214D02*
X13131014Y-16536357D01*
X13245300Y-16479214D02*
X13245300Y-16536357D01*
X13688157Y-16893500D02*
X13673871Y-16879214D01*
X13645300Y-16836357D01*
X13631014Y-16807786D01*
X13616728Y-16764929D01*
X13602443Y-16693500D01*
X13602443Y-16636357D01*
X13616728Y-16564929D01*
X13631014Y-16522071D01*
X13645300Y-16493500D01*
X13673871Y-16450643D01*
X13688157Y-16436357D01*
X13788157Y-16507786D02*
X13802443Y-16493500D01*
X13831014Y-16479214D01*
X13902443Y-16479214D01*
X13931014Y-16493500D01*
X13945300Y-16507786D01*
X13959586Y-16536357D01*
X13959586Y-16564929D01*
X13945300Y-16607786D01*
X13773871Y-16779214D01*
X13959586Y-16779214D01*
X14316728Y-16779214D02*
X14316728Y-16479214D01*
X14445300Y-16779214D02*
X14445300Y-16622071D01*
X14431014Y-16593500D01*
X14402443Y-16579214D01*
X14359586Y-16579214D01*
X14331014Y-16593500D01*
X14316728Y-16607786D01*
X14631014Y-16779214D02*
X14602443Y-16764929D01*
X14588157Y-16750643D01*
X14573871Y-16722071D01*
X14573871Y-16636357D01*
X14588157Y-16607786D01*
X14602443Y-16593500D01*
X14631014Y-16579214D01*
X14673871Y-16579214D01*
X14702443Y-16593500D01*
X14716728Y-16607786D01*
X14731014Y-16636357D01*
X14731014Y-16722071D01*
X14716728Y-16750643D01*
X14702443Y-16764929D01*
X14673871Y-16779214D01*
X14631014Y-16779214D01*
X14902443Y-16779214D02*
X14873871Y-16764929D01*
X14859586Y-16736357D01*
X14859586Y-16479214D01*
X15131014Y-16764929D02*
X15102443Y-16779214D01*
X15045300Y-16779214D01*
X15016728Y-16764929D01*
X15002443Y-16736357D01*
X15002443Y-16622071D01*
X15016728Y-16593500D01*
X15045300Y-16579214D01*
X15102443Y-16579214D01*
X15131014Y-16593500D01*
X15145300Y-16622071D01*
X15145300Y-16650643D01*
X15002443Y-16679214D01*
X15259586Y-16764929D02*
X15288157Y-16779214D01*
X15345300Y-16779214D01*
X15373871Y-16764929D01*
X15388157Y-16736357D01*
X15388157Y-16722071D01*
X15373871Y-16693500D01*
X15345300Y-16679214D01*
X15302443Y-16679214D01*
X15273871Y-16664929D01*
X15259586Y-16636357D01*
X15259586Y-16622071D01*
X15273871Y-16593500D01*
X15302443Y-16579214D01*
X15345300Y-16579214D01*
X15373871Y-16593500D01*
X15488157Y-16893500D02*
X15502443Y-16879214D01*
X15531014Y-16836357D01*
X15545300Y-16807786D01*
X15559586Y-16764929D01*
X15573871Y-16693500D01*
X15573871Y-16636357D01*
X15559586Y-16564929D01*
X15545300Y-16522071D01*
X15531014Y-16493500D01*
X15502443Y-16450643D01*
X15488157Y-16436357D01*
X16031014Y-16893500D02*
X16016728Y-16879214D01*
X15988157Y-16836357D01*
X15973871Y-16807786D01*
X15959586Y-16764929D01*
X15945300Y-16693500D01*
X15945300Y-16636357D01*
X15959586Y-16564929D01*
X15973871Y-16522071D01*
X15988157Y-16493500D01*
X16016728Y-16450643D01*
X16031014Y-16436357D01*
X16145300Y-16579214D02*
X16145300Y-16779214D01*
X16145300Y-16607786D02*
X16159586Y-16593500D01*
X16188157Y-16579214D01*
X16231014Y-16579214D01*
X16259586Y-16593500D01*
X16273871Y-16622071D01*
X16273871Y-16779214D01*
X16459586Y-16779214D02*
X16431014Y-16764929D01*
X16416728Y-16750643D01*
X16402443Y-16722071D01*
X16402443Y-16636357D01*
X16416728Y-16607786D01*
X16431014Y-16593500D01*
X16459586Y-16579214D01*
X16502443Y-16579214D01*
X16531014Y-16593500D01*
X16545300Y-16607786D01*
X16559586Y-16636357D01*
X16559586Y-16722071D01*
X16545300Y-16750643D01*
X16531014Y-16764929D01*
X16502443Y-16779214D01*
X16459586Y-16779214D01*
X16645300Y-16579214D02*
X16759586Y-16579214D01*
X16688157Y-16479214D02*
X16688157Y-16736357D01*
X16702443Y-16764929D01*
X16731014Y-16779214D01*
X16759586Y-16779214D01*
X17088157Y-16579214D02*
X17088157Y-16879214D01*
X17088157Y-16593500D02*
X17116728Y-16579214D01*
X17173871Y-16579214D01*
X17202443Y-16593500D01*
X17216728Y-16607786D01*
X17231014Y-16636357D01*
X17231014Y-16722071D01*
X17216728Y-16750643D01*
X17202443Y-16764929D01*
X17173871Y-16779214D01*
X17116728Y-16779214D01*
X17088157Y-16764929D01*
X17402443Y-16779214D02*
X17373871Y-16764929D01*
X17359586Y-16736357D01*
X17359586Y-16479214D01*
X17645300Y-16779214D02*
X17645300Y-16622071D01*
X17631014Y-16593500D01*
X17602443Y-16579214D01*
X17545300Y-16579214D01*
X17516728Y-16593500D01*
X17645300Y-16764929D02*
X17616728Y-16779214D01*
X17545300Y-16779214D01*
X17516728Y-16764929D01*
X17502443Y-16736357D01*
X17502443Y-16707786D01*
X17516728Y-16679214D01*
X17545300Y-16664929D01*
X17616728Y-16664929D01*
X17645300Y-16650643D01*
X17745300Y-16579214D02*
X17859586Y-16579214D01*
X17788157Y-16479214D02*
X17788157Y-16736357D01*
X17802443Y-16764929D01*
X17831014Y-16779214D01*
X17859586Y-16779214D01*
X18073871Y-16764929D02*
X18045300Y-16779214D01*
X17988157Y-16779214D01*
X17959586Y-16764929D01*
X17945300Y-16736357D01*
X17945300Y-16622071D01*
X17959586Y-16593500D01*
X17988157Y-16579214D01*
X18045300Y-16579214D01*
X18073871Y-16593500D01*
X18088157Y-16622071D01*
X18088157Y-16650643D01*
X17945300Y-16679214D01*
X18345300Y-16779214D02*
X18345300Y-16479214D01*
X18345300Y-16764929D02*
X18316728Y-16779214D01*
X18259586Y-16779214D01*
X18231014Y-16764929D01*
X18216728Y-16750643D01*
X18202443Y-16722071D01*
X18202443Y-16636357D01*
X18216728Y-16607786D01*
X18231014Y-16593500D01*
X18259586Y-16579214D01*
X18316728Y-16579214D01*
X18345300Y-16593500D01*
X18459586Y-16893500D02*
X18473871Y-16879214D01*
X18502443Y-16836357D01*
X18516728Y-16807786D01*
X18531014Y-16764929D01*
X18545300Y-16693500D01*
X18545300Y-16636357D01*
X18531014Y-16564929D01*
X18516728Y-16522071D01*
X18502443Y-16493500D01*
X18473871Y-16450643D01*
X18459586Y-16436357D01*
M02*
