G04 #@! TF.GenerationSoftware,KiCad,Pcbnew,(5.1.9)-1*
G04 #@! TF.CreationDate,2021-05-27T21:28:27+02:00*
G04 #@! TF.ProjectId,HPDriver,48504472-6976-4657-922e-6b696361645f,1.0*
G04 #@! TF.SameCoordinates,Original*
G04 #@! TF.FileFunction,Soldermask,Bot*
G04 #@! TF.FilePolarity,Negative*
%FSLAX46Y46*%
G04 Gerber Fmt 4.6, Leading zero omitted, Abs format (unit mm)*
G04 Created by KiCad (PCBNEW (5.1.9)-1) date 2021-05-27 21:28:27*
%MOMM*%
%LPD*%
G01*
G04 APERTURE LIST*
%ADD10C,3.800000*%
%ADD11O,2.000000X3.600000*%
%ADD12O,1.727200X1.727200*%
%ADD13R,1.727200X1.727200*%
%ADD14C,4.400000*%
%ADD15R,5.800000X6.400000*%
%ADD16R,1.200000X2.200000*%
%ADD17C,1.000000*%
%ADD18C,0.254000*%
%ADD19C,0.100000*%
G04 APERTURE END LIST*
G36*
G01*
X100895999Y-110178000D02*
X101796001Y-110178000D01*
G75*
G02*
X102046000Y-110427999I0J-249999D01*
G01*
X102046000Y-111078001D01*
G75*
G02*
X101796001Y-111328000I-249999J0D01*
G01*
X100895999Y-111328000D01*
G75*
G02*
X100646000Y-111078001I0J249999D01*
G01*
X100646000Y-110427999D01*
G75*
G02*
X100895999Y-110178000I249999J0D01*
G01*
G37*
G36*
G01*
X100895999Y-108128000D02*
X101796001Y-108128000D01*
G75*
G02*
X102046000Y-108377999I0J-249999D01*
G01*
X102046000Y-109028001D01*
G75*
G02*
X101796001Y-109278000I-249999J0D01*
G01*
X100895999Y-109278000D01*
G75*
G02*
X100646000Y-109028001I0J249999D01*
G01*
X100646000Y-108377999D01*
G75*
G02*
X100895999Y-108128000I249999J0D01*
G01*
G37*
G36*
G01*
X131006000Y-129228001D02*
X131006000Y-128327999D01*
G75*
G02*
X131255999Y-128078000I249999J0D01*
G01*
X131906001Y-128078000D01*
G75*
G02*
X132156000Y-128327999I0J-249999D01*
G01*
X132156000Y-129228001D01*
G75*
G02*
X131906001Y-129478000I-249999J0D01*
G01*
X131255999Y-129478000D01*
G75*
G02*
X131006000Y-129228001I0J249999D01*
G01*
G37*
G36*
G01*
X128956000Y-129228001D02*
X128956000Y-128327999D01*
G75*
G02*
X129205999Y-128078000I249999J0D01*
G01*
X129856001Y-128078000D01*
G75*
G02*
X130106000Y-128327999I0J-249999D01*
G01*
X130106000Y-129228001D01*
G75*
G02*
X129856001Y-129478000I-249999J0D01*
G01*
X129205999Y-129478000D01*
G75*
G02*
X128956000Y-129228001I0J249999D01*
G01*
G37*
D10*
X130937000Y-135890000D03*
D11*
X162160000Y-130810000D03*
X157160000Y-130810000D03*
X152160000Y-130810000D03*
X147160000Y-130810000D03*
X142160000Y-130810000D03*
G36*
G01*
X136160000Y-132360000D02*
X136160000Y-129260000D01*
G75*
G02*
X136410000Y-129010000I250000J0D01*
G01*
X137910000Y-129010000D01*
G75*
G02*
X138160000Y-129260000I0J-250000D01*
G01*
X138160000Y-132360000D01*
G75*
G02*
X137910000Y-132610000I-250000J0D01*
G01*
X136410000Y-132610000D01*
G75*
G02*
X136160000Y-132360000I0J250000D01*
G01*
G37*
X124728000Y-130810000D03*
X119728000Y-130810000D03*
X114728000Y-130810000D03*
G36*
G01*
X108728000Y-132360000D02*
X108728000Y-129260000D01*
G75*
G02*
X108978000Y-129010000I250000J0D01*
G01*
X110478000Y-129010000D01*
G75*
G02*
X110728000Y-129260000I0J-250000D01*
G01*
X110728000Y-132360000D01*
G75*
G02*
X110478000Y-132610000I-250000J0D01*
G01*
X108978000Y-132610000D01*
G75*
G02*
X108728000Y-132360000I0J250000D01*
G01*
G37*
X93646000Y-130810000D03*
G36*
G01*
X87646000Y-132360000D02*
X87646000Y-129260000D01*
G75*
G02*
X87896000Y-129010000I250000J0D01*
G01*
X89396000Y-129010000D01*
G75*
G02*
X89646000Y-129260000I0J-250000D01*
G01*
X89646000Y-132360000D01*
G75*
G02*
X89396000Y-132610000I-250000J0D01*
G01*
X87896000Y-132610000D01*
G75*
G02*
X87646000Y-132360000I0J250000D01*
G01*
G37*
D12*
X165100000Y-74295000D03*
X165100000Y-71755000D03*
X167640000Y-74295000D03*
X167640000Y-71755000D03*
X170180000Y-74295000D03*
D13*
X170180000Y-71755000D03*
D14*
X180340000Y-68326000D03*
X88392000Y-68580000D03*
X142748000Y-95631000D03*
X180848000Y-127762000D03*
X101600000Y-135890000D03*
D15*
X128652000Y-110339000D03*
D16*
X130932000Y-104039000D03*
X126372000Y-104039000D03*
D15*
X121540000Y-110339000D03*
D16*
X123820000Y-104039000D03*
X119260000Y-104039000D03*
D15*
X108585000Y-123512000D03*
D16*
X110865000Y-117212000D03*
X106305000Y-117212000D03*
D15*
X101474000Y-123512000D03*
D16*
X103754000Y-117212000D03*
X99194000Y-117212000D03*
D15*
X133478000Y-123547000D03*
D16*
X135758000Y-117247000D03*
X131198000Y-117247000D03*
D15*
X126364000Y-123547000D03*
D16*
X128644000Y-117247000D03*
X124084000Y-117247000D03*
D15*
X113412000Y-110339000D03*
D16*
X115692000Y-104039000D03*
X111132000Y-104039000D03*
D15*
X106300000Y-110339000D03*
D16*
X108580000Y-104039000D03*
X104020000Y-104039000D03*
D17*
X176825000Y-135001000D03*
X172425000Y-135001000D03*
D18*
X123190000Y-89535000D02*
X119888000Y-89535000D01*
X119888000Y-86233000D01*
X123190000Y-86233000D01*
X123190000Y-89535000D01*
D19*
G36*
X123190000Y-89535000D02*
G01*
X119888000Y-89535000D01*
X119888000Y-86233000D01*
X123190000Y-86233000D01*
X123190000Y-89535000D01*
G37*
D18*
X99060000Y-78867000D02*
X96012000Y-78867000D01*
X96012000Y-75819000D01*
X99060000Y-75819000D01*
X99060000Y-78867000D01*
D19*
G36*
X99060000Y-78867000D02*
G01*
X96012000Y-78867000D01*
X96012000Y-75819000D01*
X99060000Y-75819000D01*
X99060000Y-78867000D01*
G37*
M02*
