G04 #@! TF.GenerationSoftware,KiCad,Pcbnew,(5.1.10)-1*
G04 #@! TF.CreationDate,2021-12-10T01:06:07+01:00*
G04 #@! TF.ProjectId,HPDriver,48504472-6976-4657-922e-6b696361645f,1.0*
G04 #@! TF.SameCoordinates,Original*
G04 #@! TF.FileFunction,Legend,Bot*
G04 #@! TF.FilePolarity,Positive*
%FSLAX46Y46*%
G04 Gerber Fmt 4.6, Leading zero omitted, Abs format (unit mm)*
G04 Created by KiCad (PCBNEW (5.1.10)-1) date 2021-12-10 01:06:07*
%MOMM*%
%LPD*%
G01*
G04 APERTURE LIST*
%ADD10C,0.300000*%
%ADD11C,0.120000*%
%ADD12C,0.150000*%
%ADD13R,1.800000X2.500000*%
%ADD14C,1.700000*%
%ADD15C,3.800000*%
%ADD16O,2.000000X3.600000*%
%ADD17C,4.400000*%
%ADD18R,5.800000X6.400000*%
%ADD19R,1.200000X2.200000*%
%ADD20C,1.000000*%
%ADD21C,0.254000*%
%ADD22C,0.100000*%
G04 APERTURE END LIST*
D10*
X154280857Y-117542571D02*
X154995142Y-117542571D01*
X155066571Y-118256857D01*
X154995142Y-118185428D01*
X154852285Y-118114000D01*
X154495142Y-118114000D01*
X154352285Y-118185428D01*
X154280857Y-118256857D01*
X154209428Y-118399714D01*
X154209428Y-118756857D01*
X154280857Y-118899714D01*
X154352285Y-118971142D01*
X154495142Y-119042571D01*
X154852285Y-119042571D01*
X154995142Y-118971142D01*
X155066571Y-118899714D01*
X153566571Y-118471142D02*
X152423714Y-118471142D01*
X150923714Y-119042571D02*
X151780857Y-119042571D01*
X151352285Y-119042571D02*
X151352285Y-117542571D01*
X151495142Y-117756857D01*
X151638000Y-117899714D01*
X151780857Y-117971142D01*
X150352285Y-117685428D02*
X150280857Y-117614000D01*
X150138000Y-117542571D01*
X149780857Y-117542571D01*
X149638000Y-117614000D01*
X149566571Y-117685428D01*
X149495142Y-117828285D01*
X149495142Y-117971142D01*
X149566571Y-118185428D01*
X150423714Y-119042571D01*
X149495142Y-119042571D01*
X149066571Y-117542571D02*
X148566571Y-119042571D01*
X148066571Y-117542571D01*
X176517857Y-128586571D02*
X176517857Y-129800857D01*
X176446428Y-129943714D01*
X176375000Y-130015142D01*
X176232142Y-130086571D01*
X175946428Y-130086571D01*
X175803571Y-130015142D01*
X175732142Y-129943714D01*
X175660714Y-129800857D01*
X175660714Y-128586571D01*
X175017857Y-130015142D02*
X174803571Y-130086571D01*
X174446428Y-130086571D01*
X174303571Y-130015142D01*
X174232142Y-129943714D01*
X174160714Y-129800857D01*
X174160714Y-129658000D01*
X174232142Y-129515142D01*
X174303571Y-129443714D01*
X174446428Y-129372285D01*
X174732142Y-129300857D01*
X174875000Y-129229428D01*
X174946428Y-129158000D01*
X175017857Y-129015142D01*
X175017857Y-128872285D01*
X174946428Y-128729428D01*
X174875000Y-128658000D01*
X174732142Y-128586571D01*
X174375000Y-128586571D01*
X174160714Y-128658000D01*
X173017857Y-129300857D02*
X172803571Y-129372285D01*
X172732142Y-129443714D01*
X172660714Y-129586571D01*
X172660714Y-129800857D01*
X172732142Y-129943714D01*
X172803571Y-130015142D01*
X172946428Y-130086571D01*
X173517857Y-130086571D01*
X173517857Y-128586571D01*
X173017857Y-128586571D01*
X172875000Y-128658000D01*
X172803571Y-128729428D01*
X172732142Y-128872285D01*
X172732142Y-129015142D01*
X172803571Y-129158000D01*
X172875000Y-129229428D01*
X173017857Y-129300857D01*
X173517857Y-129300857D01*
X178732142Y-132636571D02*
X178732142Y-131136571D01*
X178089285Y-132565142D02*
X177946428Y-132636571D01*
X177660714Y-132636571D01*
X177517857Y-132565142D01*
X177446428Y-132422285D01*
X177446428Y-132350857D01*
X177517857Y-132208000D01*
X177660714Y-132136571D01*
X177875000Y-132136571D01*
X178017857Y-132065142D01*
X178089285Y-131922285D01*
X178089285Y-131850857D01*
X178017857Y-131708000D01*
X177875000Y-131636571D01*
X177660714Y-131636571D01*
X177517857Y-131708000D01*
X176589285Y-132636571D02*
X176732142Y-132565142D01*
X176803571Y-132493714D01*
X176875000Y-132350857D01*
X176875000Y-131922285D01*
X176803571Y-131779428D01*
X176732142Y-131708000D01*
X176589285Y-131636571D01*
X176375000Y-131636571D01*
X176232142Y-131708000D01*
X176160714Y-131779428D01*
X176089285Y-131922285D01*
X176089285Y-132350857D01*
X176160714Y-132493714D01*
X176232142Y-132565142D01*
X176375000Y-132636571D01*
X176589285Y-132636571D01*
X175232142Y-132636571D02*
X175375000Y-132565142D01*
X175446428Y-132422285D01*
X175446428Y-131136571D01*
X174017857Y-132636571D02*
X174017857Y-131850857D01*
X174089285Y-131708000D01*
X174232142Y-131636571D01*
X174517857Y-131636571D01*
X174660714Y-131708000D01*
X174017857Y-132565142D02*
X174160714Y-132636571D01*
X174517857Y-132636571D01*
X174660714Y-132565142D01*
X174732142Y-132422285D01*
X174732142Y-132279428D01*
X174660714Y-132136571D01*
X174517857Y-132065142D01*
X174160714Y-132065142D01*
X174017857Y-131993714D01*
X173517857Y-131636571D02*
X172946428Y-131636571D01*
X173303571Y-131136571D02*
X173303571Y-132422285D01*
X173232142Y-132565142D01*
X173089285Y-132636571D01*
X172946428Y-132636571D01*
X171875000Y-132565142D02*
X172017857Y-132636571D01*
X172303571Y-132636571D01*
X172446428Y-132565142D01*
X172517857Y-132422285D01*
X172517857Y-131850857D01*
X172446428Y-131708000D01*
X172303571Y-131636571D01*
X172017857Y-131636571D01*
X171875000Y-131708000D01*
X171803571Y-131850857D01*
X171803571Y-131993714D01*
X172517857Y-132136571D01*
X170517857Y-132636571D02*
X170517857Y-131136571D01*
X170517857Y-132565142D02*
X170660714Y-132636571D01*
X170946428Y-132636571D01*
X171089285Y-132565142D01*
X171160714Y-132493714D01*
X171232142Y-132350857D01*
X171232142Y-131922285D01*
X171160714Y-131779428D01*
X171089285Y-131708000D01*
X170946428Y-131636571D01*
X170660714Y-131636571D01*
X170517857Y-131708000D01*
X121903571Y-118148571D02*
X121903571Y-116648571D01*
X121903571Y-117362857D02*
X121046428Y-117362857D01*
X121046428Y-118148571D02*
X121046428Y-116648571D01*
X119760714Y-118077142D02*
X119903571Y-118148571D01*
X120189285Y-118148571D01*
X120332142Y-118077142D01*
X120403571Y-117934285D01*
X120403571Y-117362857D01*
X120332142Y-117220000D01*
X120189285Y-117148571D01*
X119903571Y-117148571D01*
X119760714Y-117220000D01*
X119689285Y-117362857D01*
X119689285Y-117505714D01*
X120403571Y-117648571D01*
X118403571Y-118148571D02*
X118403571Y-117362857D01*
X118475000Y-117220000D01*
X118617857Y-117148571D01*
X118903571Y-117148571D01*
X119046428Y-117220000D01*
X118403571Y-118077142D02*
X118546428Y-118148571D01*
X118903571Y-118148571D01*
X119046428Y-118077142D01*
X119117857Y-117934285D01*
X119117857Y-117791428D01*
X119046428Y-117648571D01*
X118903571Y-117577142D01*
X118546428Y-117577142D01*
X118403571Y-117505714D01*
X117903571Y-117148571D02*
X117332142Y-117148571D01*
X117689285Y-116648571D02*
X117689285Y-117934285D01*
X117617857Y-118077142D01*
X117475000Y-118148571D01*
X117332142Y-118148571D01*
X116903571Y-118077142D02*
X116760714Y-118148571D01*
X116475000Y-118148571D01*
X116332142Y-118077142D01*
X116260714Y-117934285D01*
X116260714Y-117862857D01*
X116332142Y-117720000D01*
X116475000Y-117648571D01*
X116689285Y-117648571D01*
X116832142Y-117577142D01*
X116903571Y-117434285D01*
X116903571Y-117362857D01*
X116832142Y-117220000D01*
X116689285Y-117148571D01*
X116475000Y-117148571D01*
X116332142Y-117220000D01*
X115617857Y-118148571D02*
X115617857Y-117148571D01*
X115617857Y-116648571D02*
X115689285Y-116720000D01*
X115617857Y-116791428D01*
X115546428Y-116720000D01*
X115617857Y-116648571D01*
X115617857Y-116791428D01*
X114903571Y-117148571D02*
X114903571Y-118148571D01*
X114903571Y-117291428D02*
X114832142Y-117220000D01*
X114689285Y-117148571D01*
X114475000Y-117148571D01*
X114332142Y-117220000D01*
X114260714Y-117362857D01*
X114260714Y-118148571D01*
X113546428Y-118148571D02*
X113546428Y-116648571D01*
X113403571Y-117577142D02*
X112975000Y-118148571D01*
X112975000Y-117148571D02*
X113546428Y-117720000D01*
X122082142Y-120698571D02*
X122082142Y-119698571D01*
X122082142Y-119984285D02*
X122010714Y-119841428D01*
X121939285Y-119770000D01*
X121796428Y-119698571D01*
X121653571Y-119698571D01*
X120582142Y-120627142D02*
X120725000Y-120698571D01*
X121010714Y-120698571D01*
X121153571Y-120627142D01*
X121225000Y-120484285D01*
X121225000Y-119912857D01*
X121153571Y-119770000D01*
X121010714Y-119698571D01*
X120725000Y-119698571D01*
X120582142Y-119770000D01*
X120510714Y-119912857D01*
X120510714Y-120055714D01*
X121225000Y-120198571D01*
X119225000Y-119698571D02*
X119225000Y-121198571D01*
X119225000Y-120627142D02*
X119367857Y-120698571D01*
X119653571Y-120698571D01*
X119796428Y-120627142D01*
X119867857Y-120555714D01*
X119939285Y-120412857D01*
X119939285Y-119984285D01*
X119867857Y-119841428D01*
X119796428Y-119770000D01*
X119653571Y-119698571D01*
X119367857Y-119698571D01*
X119225000Y-119770000D01*
X117867857Y-119698571D02*
X117867857Y-120698571D01*
X118510714Y-119698571D02*
X118510714Y-120484285D01*
X118439285Y-120627142D01*
X118296428Y-120698571D01*
X118082142Y-120698571D01*
X117939285Y-120627142D01*
X117867857Y-120555714D01*
X117153571Y-120698571D02*
X117153571Y-119698571D01*
X117153571Y-119198571D02*
X117225000Y-119270000D01*
X117153571Y-119341428D01*
X117082142Y-119270000D01*
X117153571Y-119198571D01*
X117153571Y-119341428D01*
X116439285Y-120698571D02*
X116439285Y-119698571D01*
X116439285Y-119984285D02*
X116367857Y-119841428D01*
X116296428Y-119770000D01*
X116153571Y-119698571D01*
X116010714Y-119698571D01*
X114939285Y-120627142D02*
X115082142Y-120698571D01*
X115367857Y-120698571D01*
X115510714Y-120627142D01*
X115582142Y-120484285D01*
X115582142Y-119912857D01*
X115510714Y-119770000D01*
X115367857Y-119698571D01*
X115082142Y-119698571D01*
X114939285Y-119770000D01*
X114867857Y-119912857D01*
X114867857Y-120055714D01*
X115582142Y-120198571D01*
X113582142Y-120698571D02*
X113582142Y-119198571D01*
X113582142Y-120627142D02*
X113725000Y-120698571D01*
X114010714Y-120698571D01*
X114153571Y-120627142D01*
X114225000Y-120555714D01*
X114296428Y-120412857D01*
X114296428Y-119984285D01*
X114225000Y-119841428D01*
X114153571Y-119770000D01*
X114010714Y-119698571D01*
X113725000Y-119698571D01*
X113582142Y-119770000D01*
X112867857Y-120555714D02*
X112796428Y-120627142D01*
X112867857Y-120698571D01*
X112939285Y-120627142D01*
X112867857Y-120555714D01*
X112867857Y-120698571D01*
X112867857Y-120127142D02*
X112939285Y-119270000D01*
X112867857Y-119198571D01*
X112796428Y-119270000D01*
X112867857Y-120127142D01*
X112867857Y-119198571D01*
X125519571Y-133989285D02*
X124019571Y-133989285D01*
X125091000Y-134489285D01*
X124019571Y-134989285D01*
X125519571Y-134989285D01*
X125662428Y-135346428D02*
X125662428Y-136489285D01*
X124733857Y-137346428D02*
X124805285Y-137560714D01*
X124876714Y-137632142D01*
X125019571Y-137703571D01*
X125233857Y-137703571D01*
X125376714Y-137632142D01*
X125448142Y-137560714D01*
X125519571Y-137417857D01*
X125519571Y-136846428D01*
X124019571Y-136846428D01*
X124019571Y-137346428D01*
X124091000Y-137489285D01*
X124162428Y-137560714D01*
X124305285Y-137632142D01*
X124448142Y-137632142D01*
X124591000Y-137560714D01*
X124662428Y-137489285D01*
X124733857Y-137346428D01*
X124733857Y-136846428D01*
X124162428Y-138275000D02*
X124091000Y-138346428D01*
X124019571Y-138489285D01*
X124019571Y-138846428D01*
X124091000Y-138989285D01*
X124162428Y-139060714D01*
X124305285Y-139132142D01*
X124448142Y-139132142D01*
X124662428Y-139060714D01*
X125519571Y-138203571D01*
X125519571Y-139132142D01*
X120439571Y-133989285D02*
X118939571Y-133989285D01*
X120011000Y-134489285D01*
X118939571Y-134989285D01*
X120439571Y-134989285D01*
X120582428Y-135346428D02*
X120582428Y-136489285D01*
X119653857Y-137346428D02*
X119725285Y-137560714D01*
X119796714Y-137632142D01*
X119939571Y-137703571D01*
X120153857Y-137703571D01*
X120296714Y-137632142D01*
X120368142Y-137560714D01*
X120439571Y-137417857D01*
X120439571Y-136846428D01*
X118939571Y-136846428D01*
X118939571Y-137346428D01*
X119011000Y-137489285D01*
X119082428Y-137560714D01*
X119225285Y-137632142D01*
X119368142Y-137632142D01*
X119511000Y-137560714D01*
X119582428Y-137489285D01*
X119653857Y-137346428D01*
X119653857Y-136846428D01*
X120439571Y-139132142D02*
X120439571Y-138275000D01*
X120439571Y-138703571D02*
X118939571Y-138703571D01*
X119153857Y-138560714D01*
X119296714Y-138417857D01*
X119368142Y-138275000D01*
X115486571Y-134096428D02*
X113986571Y-134096428D01*
X115058000Y-134596428D01*
X113986571Y-135096428D01*
X115486571Y-135096428D01*
X115629428Y-135453571D02*
X115629428Y-136596428D01*
X115058000Y-136882142D02*
X115058000Y-137596428D01*
X115486571Y-136739285D02*
X113986571Y-137239285D01*
X115486571Y-137739285D01*
X114129428Y-138167857D02*
X114058000Y-138239285D01*
X113986571Y-138382142D01*
X113986571Y-138739285D01*
X114058000Y-138882142D01*
X114129428Y-138953571D01*
X114272285Y-139025000D01*
X114415142Y-139025000D01*
X114629428Y-138953571D01*
X115486571Y-138096428D01*
X115486571Y-139025000D01*
X157904571Y-134874285D02*
X157190285Y-134374285D01*
X157904571Y-134017142D02*
X156404571Y-134017142D01*
X156404571Y-134588571D01*
X156476000Y-134731428D01*
X156547428Y-134802857D01*
X156690285Y-134874285D01*
X156904571Y-134874285D01*
X157047428Y-134802857D01*
X157118857Y-134731428D01*
X157190285Y-134588571D01*
X157190285Y-134017142D01*
X157904571Y-136160000D02*
X156404571Y-136160000D01*
X157833142Y-136160000D02*
X157904571Y-136017142D01*
X157904571Y-135731428D01*
X157833142Y-135588571D01*
X157761714Y-135517142D01*
X157618857Y-135445714D01*
X157190285Y-135445714D01*
X157047428Y-135517142D01*
X156976000Y-135588571D01*
X156904571Y-135731428D01*
X156904571Y-136017142D01*
X156976000Y-136160000D01*
X156904571Y-136731428D02*
X157904571Y-137088571D01*
X156904571Y-137445714D02*
X157904571Y-137088571D01*
X158261714Y-136945714D01*
X158333142Y-136874285D01*
X158404571Y-136731428D01*
X156904571Y-139160000D02*
X157333142Y-140302857D01*
X157761714Y-139160000D01*
X152880142Y-133910000D02*
X152951571Y-134124285D01*
X152951571Y-134481428D01*
X152880142Y-134624285D01*
X152808714Y-134695714D01*
X152665857Y-134767142D01*
X152523000Y-134767142D01*
X152380142Y-134695714D01*
X152308714Y-134624285D01*
X152237285Y-134481428D01*
X152165857Y-134195714D01*
X152094428Y-134052857D01*
X152023000Y-133981428D01*
X151880142Y-133910000D01*
X151737285Y-133910000D01*
X151594428Y-133981428D01*
X151523000Y-134052857D01*
X151451571Y-134195714D01*
X151451571Y-134552857D01*
X151523000Y-134767142D01*
X151951571Y-135195714D02*
X151951571Y-135767142D01*
X151451571Y-135410000D02*
X152737285Y-135410000D01*
X152880142Y-135481428D01*
X152951571Y-135624285D01*
X152951571Y-135767142D01*
X152951571Y-136910000D02*
X152165857Y-136910000D01*
X152023000Y-136838571D01*
X151951571Y-136695714D01*
X151951571Y-136410000D01*
X152023000Y-136267142D01*
X152880142Y-136910000D02*
X152951571Y-136767142D01*
X152951571Y-136410000D01*
X152880142Y-136267142D01*
X152737285Y-136195714D01*
X152594428Y-136195714D01*
X152451571Y-136267142D01*
X152380142Y-136410000D01*
X152380142Y-136767142D01*
X152308714Y-136910000D01*
X152951571Y-137838571D02*
X152880142Y-137695714D01*
X152737285Y-137624285D01*
X151451571Y-137624285D01*
X152951571Y-138624285D02*
X152880142Y-138481428D01*
X152737285Y-138410000D01*
X151451571Y-138410000D01*
X151951571Y-139195714D02*
X152380142Y-140338571D01*
X152808714Y-139195714D01*
X147085857Y-134160000D02*
X147085857Y-134660000D01*
X147871571Y-134874285D02*
X147871571Y-134160000D01*
X146371571Y-134160000D01*
X146371571Y-134874285D01*
X146871571Y-135517142D02*
X147871571Y-135517142D01*
X147014428Y-135517142D02*
X146943000Y-135588571D01*
X146871571Y-135731428D01*
X146871571Y-135945714D01*
X146943000Y-136088571D01*
X147085857Y-136160000D01*
X147871571Y-136160000D01*
X147871571Y-136874285D02*
X146371571Y-136874285D01*
X146943000Y-136874285D02*
X146871571Y-137017142D01*
X146871571Y-137302857D01*
X146943000Y-137445714D01*
X147014428Y-137517142D01*
X147157285Y-137588571D01*
X147585857Y-137588571D01*
X147728714Y-137517142D01*
X147800142Y-137445714D01*
X147871571Y-137302857D01*
X147871571Y-137017142D01*
X147800142Y-136874285D01*
X147871571Y-138445714D02*
X147800142Y-138302857D01*
X147657285Y-138231428D01*
X146371571Y-138231428D01*
X146871571Y-140160000D02*
X147300142Y-139017142D01*
X147728714Y-140160000D01*
X142791571Y-134826714D02*
X141291571Y-134826714D01*
X141291571Y-135183857D01*
X141363000Y-135398142D01*
X141505857Y-135541000D01*
X141648714Y-135612428D01*
X141934428Y-135683857D01*
X142148714Y-135683857D01*
X142434428Y-135612428D01*
X142577285Y-135541000D01*
X142720142Y-135398142D01*
X142791571Y-135183857D01*
X142791571Y-134826714D01*
X142791571Y-136326714D02*
X141791571Y-136326714D01*
X141291571Y-136326714D02*
X141363000Y-136255285D01*
X141434428Y-136326714D01*
X141363000Y-136398142D01*
X141291571Y-136326714D01*
X141434428Y-136326714D01*
X142791571Y-137041000D02*
X141791571Y-137041000D01*
X142077285Y-137041000D02*
X141934428Y-137112428D01*
X141863000Y-137183857D01*
X141791571Y-137326714D01*
X141791571Y-137469571D01*
X141791571Y-140255285D02*
X142220142Y-139112428D01*
X142648714Y-140255285D01*
X137767142Y-134052857D02*
X137838571Y-134267142D01*
X137838571Y-134624285D01*
X137767142Y-134767142D01*
X137695714Y-134838571D01*
X137552857Y-134910000D01*
X137410000Y-134910000D01*
X137267142Y-134838571D01*
X137195714Y-134767142D01*
X137124285Y-134624285D01*
X137052857Y-134338571D01*
X136981428Y-134195714D01*
X136910000Y-134124285D01*
X136767142Y-134052857D01*
X136624285Y-134052857D01*
X136481428Y-134124285D01*
X136410000Y-134195714D01*
X136338571Y-134338571D01*
X136338571Y-134695714D01*
X136410000Y-134910000D01*
X136838571Y-135338571D02*
X136838571Y-135910000D01*
X136338571Y-135552857D02*
X137624285Y-135552857D01*
X137767142Y-135624285D01*
X137838571Y-135767142D01*
X137838571Y-135910000D01*
X137767142Y-136981428D02*
X137838571Y-136838571D01*
X137838571Y-136552857D01*
X137767142Y-136410000D01*
X137624285Y-136338571D01*
X137052857Y-136338571D01*
X136910000Y-136410000D01*
X136838571Y-136552857D01*
X136838571Y-136838571D01*
X136910000Y-136981428D01*
X137052857Y-137052857D01*
X137195714Y-137052857D01*
X137338571Y-136338571D01*
X136838571Y-137695714D02*
X138338571Y-137695714D01*
X136910000Y-137695714D02*
X136838571Y-137838571D01*
X136838571Y-138124285D01*
X136910000Y-138267142D01*
X136981428Y-138338571D01*
X137124285Y-138410000D01*
X137552857Y-138410000D01*
X137695714Y-138338571D01*
X137767142Y-138267142D01*
X137838571Y-138124285D01*
X137838571Y-137838571D01*
X137767142Y-137695714D01*
X136838571Y-140195714D02*
X137267142Y-139052857D01*
X137695714Y-140195714D01*
X161429000Y-135382142D02*
X161357571Y-135239285D01*
X161357571Y-135025000D01*
X161429000Y-134810714D01*
X161571857Y-134667857D01*
X161714714Y-134596428D01*
X162000428Y-134525000D01*
X162214714Y-134525000D01*
X162500428Y-134596428D01*
X162643285Y-134667857D01*
X162786142Y-134810714D01*
X162857571Y-135025000D01*
X162857571Y-135167857D01*
X162786142Y-135382142D01*
X162714714Y-135453571D01*
X162214714Y-135453571D01*
X162214714Y-135167857D01*
X162857571Y-136096428D02*
X161357571Y-136096428D01*
X162857571Y-136953571D01*
X161357571Y-136953571D01*
X162857571Y-137667857D02*
X161357571Y-137667857D01*
X161357571Y-138025000D01*
X161429000Y-138239285D01*
X161571857Y-138382142D01*
X161714714Y-138453571D01*
X162000428Y-138525000D01*
X162214714Y-138525000D01*
X162500428Y-138453571D01*
X162643285Y-138382142D01*
X162786142Y-138239285D01*
X162857571Y-138025000D01*
X162857571Y-137667857D01*
X110406571Y-134096428D02*
X108906571Y-134096428D01*
X109978000Y-134596428D01*
X108906571Y-135096428D01*
X110406571Y-135096428D01*
X110549428Y-135453571D02*
X110549428Y-136596428D01*
X109978000Y-136882142D02*
X109978000Y-137596428D01*
X110406571Y-136739285D02*
X108906571Y-137239285D01*
X110406571Y-137739285D01*
X110406571Y-139025000D02*
X110406571Y-138167857D01*
X110406571Y-138596428D02*
X108906571Y-138596428D01*
X109120857Y-138453571D01*
X109263714Y-138310714D01*
X109335142Y-138167857D01*
X89788857Y-137045000D02*
X89931714Y-136973571D01*
X90146000Y-136973571D01*
X90360285Y-137045000D01*
X90503142Y-137187857D01*
X90574571Y-137330714D01*
X90646000Y-137616428D01*
X90646000Y-137830714D01*
X90574571Y-138116428D01*
X90503142Y-138259285D01*
X90360285Y-138402142D01*
X90146000Y-138473571D01*
X90003142Y-138473571D01*
X89788857Y-138402142D01*
X89717428Y-138330714D01*
X89717428Y-137830714D01*
X90003142Y-137830714D01*
X89074571Y-138473571D02*
X89074571Y-136973571D01*
X88217428Y-138473571D01*
X88217428Y-136973571D01*
X87503142Y-138473571D02*
X87503142Y-136973571D01*
X87146000Y-136973571D01*
X86931714Y-137045000D01*
X86788857Y-137187857D01*
X86717428Y-137330714D01*
X86646000Y-137616428D01*
X86646000Y-137830714D01*
X86717428Y-138116428D01*
X86788857Y-138259285D01*
X86931714Y-138402142D01*
X87146000Y-138473571D01*
X87503142Y-138473571D01*
X94813285Y-135801571D02*
X95670428Y-135801571D01*
X95241857Y-135801571D02*
X95241857Y-134301571D01*
X95384714Y-134515857D01*
X95527571Y-134658714D01*
X95670428Y-134730142D01*
X94241857Y-134444428D02*
X94170428Y-134373000D01*
X94027571Y-134301571D01*
X93670428Y-134301571D01*
X93527571Y-134373000D01*
X93456142Y-134444428D01*
X93384714Y-134587285D01*
X93384714Y-134730142D01*
X93456142Y-134944428D01*
X94313285Y-135801571D01*
X93384714Y-135801571D01*
X92741857Y-135230142D02*
X91599000Y-135230142D01*
X94670428Y-136851571D02*
X94956142Y-136851571D01*
X95099000Y-136923000D01*
X95170428Y-136994428D01*
X95313285Y-137208714D01*
X95384714Y-137494428D01*
X95384714Y-138065857D01*
X95313285Y-138208714D01*
X95241857Y-138280142D01*
X95099000Y-138351571D01*
X94813285Y-138351571D01*
X94670428Y-138280142D01*
X94599000Y-138208714D01*
X94527571Y-138065857D01*
X94527571Y-137708714D01*
X94599000Y-137565857D01*
X94670428Y-137494428D01*
X94813285Y-137423000D01*
X95099000Y-137423000D01*
X95241857Y-137494428D01*
X95313285Y-137565857D01*
X95384714Y-137708714D01*
X93599000Y-136851571D02*
X93456142Y-136851571D01*
X93313285Y-136923000D01*
X93241857Y-136994428D01*
X93170428Y-137137285D01*
X93099000Y-137423000D01*
X93099000Y-137780142D01*
X93170428Y-138065857D01*
X93241857Y-138208714D01*
X93313285Y-138280142D01*
X93456142Y-138351571D01*
X93599000Y-138351571D01*
X93741857Y-138280142D01*
X93813285Y-138208714D01*
X93884714Y-138065857D01*
X93956142Y-137780142D01*
X93956142Y-137423000D01*
X93884714Y-137137285D01*
X93813285Y-136994428D01*
X93741857Y-136923000D01*
X93599000Y-136851571D01*
X92670428Y-136851571D02*
X92170428Y-138351571D01*
X91670428Y-136851571D01*
D11*
X100611000Y-109500936D02*
X100611000Y-109955064D01*
X102081000Y-109500936D02*
X102081000Y-109955064D01*
X130328936Y-129513000D02*
X130783064Y-129513000D01*
X130328936Y-128043000D02*
X130783064Y-128043000D01*
X130328936Y-131545000D02*
X130783064Y-131545000D01*
X130328936Y-130075000D02*
X130783064Y-130075000D01*
X98579000Y-109500936D02*
X98579000Y-109955064D01*
X100049000Y-109500936D02*
X100049000Y-109955064D01*
X99975936Y-113257000D02*
X100430064Y-113257000D01*
X99975936Y-111787000D02*
X100430064Y-111787000D01*
X132615000Y-129566936D02*
X132615000Y-130021064D01*
X134085000Y-129566936D02*
X134085000Y-130021064D01*
X160273000Y-126590000D02*
X156973000Y-126590000D01*
X156973000Y-126590000D02*
X156973000Y-121190000D01*
X160273000Y-126590000D02*
X160273000Y-121190000D01*
X155828000Y-126590000D02*
X152528000Y-126590000D01*
X152528000Y-126590000D02*
X152528000Y-121190000D01*
X155828000Y-126590000D02*
X155828000Y-121190000D01*
X151383000Y-126590000D02*
X148083000Y-126590000D01*
X148083000Y-126590000D02*
X148083000Y-121190000D01*
X151383000Y-126590000D02*
X151383000Y-121190000D01*
X146938000Y-126590000D02*
X143638000Y-126590000D01*
X143638000Y-126590000D02*
X143638000Y-121190000D01*
X146938000Y-126590000D02*
X146938000Y-121190000D01*
X142493000Y-126590000D02*
X139193000Y-126590000D01*
X139193000Y-126590000D02*
X139193000Y-121190000D01*
X142493000Y-126590000D02*
X142493000Y-121190000D01*
X131832000Y-105769000D02*
X131832000Y-104669000D01*
X132102000Y-105769000D02*
X131832000Y-105769000D01*
X132102000Y-107269000D02*
X132102000Y-105769000D01*
X125472000Y-105769000D02*
X125472000Y-102939000D01*
X125202000Y-105769000D02*
X125472000Y-105769000D01*
X125202000Y-107269000D02*
X125202000Y-105769000D01*
X124720000Y-105769000D02*
X124720000Y-104669000D01*
X124990000Y-105769000D02*
X124720000Y-105769000D01*
X124990000Y-107269000D02*
X124990000Y-105769000D01*
X118360000Y-105769000D02*
X118360000Y-102939000D01*
X118090000Y-105769000D02*
X118360000Y-105769000D01*
X118090000Y-107269000D02*
X118090000Y-105769000D01*
X111765000Y-118942000D02*
X111765000Y-117842000D01*
X112035000Y-118942000D02*
X111765000Y-118942000D01*
X112035000Y-120442000D02*
X112035000Y-118942000D01*
X105405000Y-118942000D02*
X105405000Y-116112000D01*
X105135000Y-118942000D02*
X105405000Y-118942000D01*
X105135000Y-120442000D02*
X105135000Y-118942000D01*
X104654000Y-118942000D02*
X104654000Y-117842000D01*
X104924000Y-118942000D02*
X104654000Y-118942000D01*
X104924000Y-120442000D02*
X104924000Y-118942000D01*
X98294000Y-118942000D02*
X98294000Y-116112000D01*
X98024000Y-118942000D02*
X98294000Y-118942000D01*
X98024000Y-120442000D02*
X98024000Y-118942000D01*
X136658000Y-118977000D02*
X136658000Y-117877000D01*
X136928000Y-118977000D02*
X136658000Y-118977000D01*
X136928000Y-120477000D02*
X136928000Y-118977000D01*
X130298000Y-118977000D02*
X130298000Y-116147000D01*
X130028000Y-118977000D02*
X130298000Y-118977000D01*
X130028000Y-120477000D02*
X130028000Y-118977000D01*
X129544000Y-118977000D02*
X129544000Y-117877000D01*
X129814000Y-118977000D02*
X129544000Y-118977000D01*
X129814000Y-120477000D02*
X129814000Y-118977000D01*
X123184000Y-118977000D02*
X123184000Y-116147000D01*
X122914000Y-118977000D02*
X123184000Y-118977000D01*
X122914000Y-120477000D02*
X122914000Y-118977000D01*
X116592000Y-105769000D02*
X116592000Y-104669000D01*
X116862000Y-105769000D02*
X116592000Y-105769000D01*
X116862000Y-107269000D02*
X116862000Y-105769000D01*
X110232000Y-105769000D02*
X110232000Y-102939000D01*
X109962000Y-105769000D02*
X110232000Y-105769000D01*
X109962000Y-107269000D02*
X109962000Y-105769000D01*
X109480000Y-105769000D02*
X109480000Y-104669000D01*
X109750000Y-105769000D02*
X109480000Y-105769000D01*
X109750000Y-107269000D02*
X109750000Y-105769000D01*
X103120000Y-105769000D02*
X103120000Y-102939000D01*
X102850000Y-105769000D02*
X103120000Y-105769000D01*
X102850000Y-107269000D02*
X102850000Y-105769000D01*
D12*
X96988380Y-108442285D02*
X96988380Y-109013714D01*
X97988380Y-108728000D02*
X96988380Y-108728000D01*
X97988380Y-109347047D02*
X96988380Y-109347047D01*
X97464571Y-109347047D02*
X97464571Y-109918476D01*
X97988380Y-109918476D02*
X96988380Y-109918476D01*
X97083619Y-110347047D02*
X97036000Y-110394666D01*
X96988380Y-110489904D01*
X96988380Y-110728000D01*
X97036000Y-110823238D01*
X97083619Y-110870857D01*
X97178857Y-110918476D01*
X97274095Y-110918476D01*
X97416952Y-110870857D01*
X97988380Y-110299428D01*
X97988380Y-110918476D01*
X128666714Y-128230380D02*
X128095285Y-128230380D01*
X128381000Y-129230380D02*
X128381000Y-128230380D01*
X127761952Y-129230380D02*
X127761952Y-128230380D01*
X127761952Y-128706571D02*
X127190523Y-128706571D01*
X127190523Y-129230380D02*
X127190523Y-128230380D01*
X126190523Y-129230380D02*
X126761952Y-129230380D01*
X126476238Y-129230380D02*
X126476238Y-128230380D01*
X126571476Y-128373238D01*
X126666714Y-128468476D01*
X126761952Y-128516095D01*
X128150857Y-131262380D02*
X128484190Y-130786190D01*
X128722285Y-131262380D02*
X128722285Y-130262380D01*
X128341333Y-130262380D01*
X128246095Y-130310000D01*
X128198476Y-130357619D01*
X128150857Y-130452857D01*
X128150857Y-130595714D01*
X128198476Y-130690952D01*
X128246095Y-130738571D01*
X128341333Y-130786190D01*
X128722285Y-130786190D01*
X127246095Y-130262380D02*
X127722285Y-130262380D01*
X127769904Y-130738571D01*
X127722285Y-130690952D01*
X127627047Y-130643333D01*
X127388952Y-130643333D01*
X127293714Y-130690952D01*
X127246095Y-130738571D01*
X127198476Y-130833809D01*
X127198476Y-131071904D01*
X127246095Y-131167142D01*
X127293714Y-131214761D01*
X127388952Y-131262380D01*
X127627047Y-131262380D01*
X127722285Y-131214761D01*
X127769904Y-131167142D01*
X126246095Y-131262380D02*
X126817523Y-131262380D01*
X126531809Y-131262380D02*
X126531809Y-130262380D01*
X126627047Y-130405238D01*
X126722285Y-130500476D01*
X126817523Y-130548095D01*
X96718380Y-109085142D02*
X96242190Y-108751809D01*
X96718380Y-108513714D02*
X95718380Y-108513714D01*
X95718380Y-108894666D01*
X95766000Y-108989904D01*
X95813619Y-109037523D01*
X95908857Y-109085142D01*
X96051714Y-109085142D01*
X96146952Y-109037523D01*
X96194571Y-108989904D01*
X96242190Y-108894666D01*
X96242190Y-108513714D01*
X95718380Y-109989904D02*
X95718380Y-109513714D01*
X96194571Y-109466095D01*
X96146952Y-109513714D01*
X96099333Y-109608952D01*
X96099333Y-109847047D01*
X96146952Y-109942285D01*
X96194571Y-109989904D01*
X96289809Y-110037523D01*
X96527904Y-110037523D01*
X96623142Y-109989904D01*
X96670761Y-109942285D01*
X96718380Y-109847047D01*
X96718380Y-109608952D01*
X96670761Y-109513714D01*
X96623142Y-109466095D01*
X95718380Y-110656571D02*
X95718380Y-110751809D01*
X95766000Y-110847047D01*
X95813619Y-110894666D01*
X95908857Y-110942285D01*
X96099333Y-110989904D01*
X96337428Y-110989904D01*
X96527904Y-110942285D01*
X96623142Y-110894666D01*
X96670761Y-110847047D01*
X96718380Y-110751809D01*
X96718380Y-110656571D01*
X96670761Y-110561333D01*
X96623142Y-110513714D01*
X96527904Y-110466095D01*
X96337428Y-110418476D01*
X96099333Y-110418476D01*
X95908857Y-110466095D01*
X95813619Y-110513714D01*
X95766000Y-110561333D01*
X95718380Y-110656571D01*
X97670857Y-112974380D02*
X98004190Y-112498190D01*
X98242285Y-112974380D02*
X98242285Y-111974380D01*
X97861333Y-111974380D01*
X97766095Y-112022000D01*
X97718476Y-112069619D01*
X97670857Y-112164857D01*
X97670857Y-112307714D01*
X97718476Y-112402952D01*
X97766095Y-112450571D01*
X97861333Y-112498190D01*
X98242285Y-112498190D01*
X96718476Y-112974380D02*
X97289904Y-112974380D01*
X97004190Y-112974380D02*
X97004190Y-111974380D01*
X97099428Y-112117238D01*
X97194666Y-112212476D01*
X97289904Y-112260095D01*
X96337523Y-112069619D02*
X96289904Y-112022000D01*
X96194666Y-111974380D01*
X95956571Y-111974380D01*
X95861333Y-112022000D01*
X95813714Y-112069619D01*
X95766095Y-112164857D01*
X95766095Y-112260095D01*
X95813714Y-112402952D01*
X96385142Y-112974380D01*
X95766095Y-112974380D01*
X135580380Y-129151142D02*
X135104190Y-128817809D01*
X135580380Y-128579714D02*
X134580380Y-128579714D01*
X134580380Y-128960666D01*
X134628000Y-129055904D01*
X134675619Y-129103523D01*
X134770857Y-129151142D01*
X134913714Y-129151142D01*
X135008952Y-129103523D01*
X135056571Y-129055904D01*
X135104190Y-128960666D01*
X135104190Y-128579714D01*
X135580380Y-130103523D02*
X135580380Y-129532095D01*
X135580380Y-129817809D02*
X134580380Y-129817809D01*
X134723238Y-129722571D01*
X134818476Y-129627333D01*
X134866095Y-129532095D01*
X135580380Y-131055904D02*
X135580380Y-130484476D01*
X135580380Y-130770190D02*
X134580380Y-130770190D01*
X134723238Y-130674952D01*
X134818476Y-130579714D01*
X134866095Y-130484476D01*
X159837285Y-127960380D02*
X159837285Y-126960380D01*
X159599190Y-126960380D01*
X159456333Y-127008000D01*
X159361095Y-127103238D01*
X159313476Y-127198476D01*
X159265857Y-127388952D01*
X159265857Y-127531809D01*
X159313476Y-127722285D01*
X159361095Y-127817523D01*
X159456333Y-127912761D01*
X159599190Y-127960380D01*
X159837285Y-127960380D01*
X158313476Y-127960380D02*
X158884904Y-127960380D01*
X158599190Y-127960380D02*
X158599190Y-126960380D01*
X158694428Y-127103238D01*
X158789666Y-127198476D01*
X158884904Y-127246095D01*
X157456333Y-126960380D02*
X157646809Y-126960380D01*
X157742047Y-127008000D01*
X157789666Y-127055619D01*
X157884904Y-127198476D01*
X157932523Y-127388952D01*
X157932523Y-127769904D01*
X157884904Y-127865142D01*
X157837285Y-127912761D01*
X157742047Y-127960380D01*
X157551571Y-127960380D01*
X157456333Y-127912761D01*
X157408714Y-127865142D01*
X157361095Y-127769904D01*
X157361095Y-127531809D01*
X157408714Y-127436571D01*
X157456333Y-127388952D01*
X157551571Y-127341333D01*
X157742047Y-127341333D01*
X157837285Y-127388952D01*
X157884904Y-127436571D01*
X157932523Y-127531809D01*
X155392285Y-127960380D02*
X155392285Y-126960380D01*
X155154190Y-126960380D01*
X155011333Y-127008000D01*
X154916095Y-127103238D01*
X154868476Y-127198476D01*
X154820857Y-127388952D01*
X154820857Y-127531809D01*
X154868476Y-127722285D01*
X154916095Y-127817523D01*
X155011333Y-127912761D01*
X155154190Y-127960380D01*
X155392285Y-127960380D01*
X153868476Y-127960380D02*
X154439904Y-127960380D01*
X154154190Y-127960380D02*
X154154190Y-126960380D01*
X154249428Y-127103238D01*
X154344666Y-127198476D01*
X154439904Y-127246095D01*
X152963714Y-126960380D02*
X153439904Y-126960380D01*
X153487523Y-127436571D01*
X153439904Y-127388952D01*
X153344666Y-127341333D01*
X153106571Y-127341333D01*
X153011333Y-127388952D01*
X152963714Y-127436571D01*
X152916095Y-127531809D01*
X152916095Y-127769904D01*
X152963714Y-127865142D01*
X153011333Y-127912761D01*
X153106571Y-127960380D01*
X153344666Y-127960380D01*
X153439904Y-127912761D01*
X153487523Y-127865142D01*
X150947285Y-127960380D02*
X150947285Y-126960380D01*
X150709190Y-126960380D01*
X150566333Y-127008000D01*
X150471095Y-127103238D01*
X150423476Y-127198476D01*
X150375857Y-127388952D01*
X150375857Y-127531809D01*
X150423476Y-127722285D01*
X150471095Y-127817523D01*
X150566333Y-127912761D01*
X150709190Y-127960380D01*
X150947285Y-127960380D01*
X149423476Y-127960380D02*
X149994904Y-127960380D01*
X149709190Y-127960380D02*
X149709190Y-126960380D01*
X149804428Y-127103238D01*
X149899666Y-127198476D01*
X149994904Y-127246095D01*
X148566333Y-127293714D02*
X148566333Y-127960380D01*
X148804428Y-126912761D02*
X149042523Y-127627047D01*
X148423476Y-127627047D01*
X146502285Y-127960380D02*
X146502285Y-126960380D01*
X146264190Y-126960380D01*
X146121333Y-127008000D01*
X146026095Y-127103238D01*
X145978476Y-127198476D01*
X145930857Y-127388952D01*
X145930857Y-127531809D01*
X145978476Y-127722285D01*
X146026095Y-127817523D01*
X146121333Y-127912761D01*
X146264190Y-127960380D01*
X146502285Y-127960380D01*
X144978476Y-127960380D02*
X145549904Y-127960380D01*
X145264190Y-127960380D02*
X145264190Y-126960380D01*
X145359428Y-127103238D01*
X145454666Y-127198476D01*
X145549904Y-127246095D01*
X144645142Y-126960380D02*
X144026095Y-126960380D01*
X144359428Y-127341333D01*
X144216571Y-127341333D01*
X144121333Y-127388952D01*
X144073714Y-127436571D01*
X144026095Y-127531809D01*
X144026095Y-127769904D01*
X144073714Y-127865142D01*
X144121333Y-127912761D01*
X144216571Y-127960380D01*
X144502285Y-127960380D01*
X144597523Y-127912761D01*
X144645142Y-127865142D01*
X142057285Y-127960380D02*
X142057285Y-126960380D01*
X141819190Y-126960380D01*
X141676333Y-127008000D01*
X141581095Y-127103238D01*
X141533476Y-127198476D01*
X141485857Y-127388952D01*
X141485857Y-127531809D01*
X141533476Y-127722285D01*
X141581095Y-127817523D01*
X141676333Y-127912761D01*
X141819190Y-127960380D01*
X142057285Y-127960380D01*
X140533476Y-127960380D02*
X141104904Y-127960380D01*
X140819190Y-127960380D02*
X140819190Y-126960380D01*
X140914428Y-127103238D01*
X141009666Y-127198476D01*
X141104904Y-127246095D01*
X140152523Y-127055619D02*
X140104904Y-127008000D01*
X140009666Y-126960380D01*
X139771571Y-126960380D01*
X139676333Y-127008000D01*
X139628714Y-127055619D01*
X139581095Y-127150857D01*
X139581095Y-127246095D01*
X139628714Y-127388952D01*
X140200142Y-127960380D01*
X139581095Y-127960380D01*
X128746238Y-102020619D02*
X128841476Y-101973000D01*
X128936714Y-101877761D01*
X129079571Y-101734904D01*
X129174809Y-101687285D01*
X129270047Y-101687285D01*
X129222428Y-101925380D02*
X129317666Y-101877761D01*
X129412904Y-101782523D01*
X129460523Y-101592047D01*
X129460523Y-101258714D01*
X129412904Y-101068238D01*
X129317666Y-100973000D01*
X129222428Y-100925380D01*
X129031952Y-100925380D01*
X128936714Y-100973000D01*
X128841476Y-101068238D01*
X128793857Y-101258714D01*
X128793857Y-101592047D01*
X128841476Y-101782523D01*
X128936714Y-101877761D01*
X129031952Y-101925380D01*
X129222428Y-101925380D01*
X128222428Y-101353952D02*
X128317666Y-101306333D01*
X128365285Y-101258714D01*
X128412904Y-101163476D01*
X128412904Y-101115857D01*
X128365285Y-101020619D01*
X128317666Y-100973000D01*
X128222428Y-100925380D01*
X128031952Y-100925380D01*
X127936714Y-100973000D01*
X127889095Y-101020619D01*
X127841476Y-101115857D01*
X127841476Y-101163476D01*
X127889095Y-101258714D01*
X127936714Y-101306333D01*
X128031952Y-101353952D01*
X128222428Y-101353952D01*
X128317666Y-101401571D01*
X128365285Y-101449190D01*
X128412904Y-101544428D01*
X128412904Y-101734904D01*
X128365285Y-101830142D01*
X128317666Y-101877761D01*
X128222428Y-101925380D01*
X128031952Y-101925380D01*
X127936714Y-101877761D01*
X127889095Y-101830142D01*
X127841476Y-101734904D01*
X127841476Y-101544428D01*
X127889095Y-101449190D01*
X127936714Y-101401571D01*
X128031952Y-101353952D01*
X121634238Y-102020619D02*
X121729476Y-101973000D01*
X121824714Y-101877761D01*
X121967571Y-101734904D01*
X122062809Y-101687285D01*
X122158047Y-101687285D01*
X122110428Y-101925380D02*
X122205666Y-101877761D01*
X122300904Y-101782523D01*
X122348523Y-101592047D01*
X122348523Y-101258714D01*
X122300904Y-101068238D01*
X122205666Y-100973000D01*
X122110428Y-100925380D01*
X121919952Y-100925380D01*
X121824714Y-100973000D01*
X121729476Y-101068238D01*
X121681857Y-101258714D01*
X121681857Y-101592047D01*
X121729476Y-101782523D01*
X121824714Y-101877761D01*
X121919952Y-101925380D01*
X122110428Y-101925380D01*
X121348523Y-100925380D02*
X120681857Y-100925380D01*
X121110428Y-101925380D01*
X108680238Y-128563619D02*
X108775476Y-128516000D01*
X108870714Y-128420761D01*
X109013571Y-128277904D01*
X109108809Y-128230285D01*
X109204047Y-128230285D01*
X109156428Y-128468380D02*
X109251666Y-128420761D01*
X109346904Y-128325523D01*
X109394523Y-128135047D01*
X109394523Y-127801714D01*
X109346904Y-127611238D01*
X109251666Y-127516000D01*
X109156428Y-127468380D01*
X108965952Y-127468380D01*
X108870714Y-127516000D01*
X108775476Y-127611238D01*
X108727857Y-127801714D01*
X108727857Y-128135047D01*
X108775476Y-128325523D01*
X108870714Y-128420761D01*
X108965952Y-128468380D01*
X109156428Y-128468380D01*
X107870714Y-127468380D02*
X108061190Y-127468380D01*
X108156428Y-127516000D01*
X108204047Y-127563619D01*
X108299285Y-127706476D01*
X108346904Y-127896952D01*
X108346904Y-128277904D01*
X108299285Y-128373142D01*
X108251666Y-128420761D01*
X108156428Y-128468380D01*
X107965952Y-128468380D01*
X107870714Y-128420761D01*
X107823095Y-128373142D01*
X107775476Y-128277904D01*
X107775476Y-128039809D01*
X107823095Y-127944571D01*
X107870714Y-127896952D01*
X107965952Y-127849333D01*
X108156428Y-127849333D01*
X108251666Y-127896952D01*
X108299285Y-127944571D01*
X108346904Y-128039809D01*
X101568238Y-128690619D02*
X101663476Y-128643000D01*
X101758714Y-128547761D01*
X101901571Y-128404904D01*
X101996809Y-128357285D01*
X102092047Y-128357285D01*
X102044428Y-128595380D02*
X102139666Y-128547761D01*
X102234904Y-128452523D01*
X102282523Y-128262047D01*
X102282523Y-127928714D01*
X102234904Y-127738238D01*
X102139666Y-127643000D01*
X102044428Y-127595380D01*
X101853952Y-127595380D01*
X101758714Y-127643000D01*
X101663476Y-127738238D01*
X101615857Y-127928714D01*
X101615857Y-128262047D01*
X101663476Y-128452523D01*
X101758714Y-128547761D01*
X101853952Y-128595380D01*
X102044428Y-128595380D01*
X100711095Y-127595380D02*
X101187285Y-127595380D01*
X101234904Y-128071571D01*
X101187285Y-128023952D01*
X101092047Y-127976333D01*
X100853952Y-127976333D01*
X100758714Y-128023952D01*
X100711095Y-128071571D01*
X100663476Y-128166809D01*
X100663476Y-128404904D01*
X100711095Y-128500142D01*
X100758714Y-128547761D01*
X100853952Y-128595380D01*
X101092047Y-128595380D01*
X101187285Y-128547761D01*
X101234904Y-128500142D01*
X137890238Y-126785619D02*
X137985476Y-126738000D01*
X138080714Y-126642761D01*
X138223571Y-126499904D01*
X138318809Y-126452285D01*
X138414047Y-126452285D01*
X138366428Y-126690380D02*
X138461666Y-126642761D01*
X138556904Y-126547523D01*
X138604523Y-126357047D01*
X138604523Y-126023714D01*
X138556904Y-125833238D01*
X138461666Y-125738000D01*
X138366428Y-125690380D01*
X138175952Y-125690380D01*
X138080714Y-125738000D01*
X137985476Y-125833238D01*
X137937857Y-126023714D01*
X137937857Y-126357047D01*
X137985476Y-126547523D01*
X138080714Y-126642761D01*
X138175952Y-126690380D01*
X138366428Y-126690380D01*
X137080714Y-126023714D02*
X137080714Y-126690380D01*
X137318809Y-125642761D02*
X137556904Y-126357047D01*
X136937857Y-126357047D01*
X121761238Y-126912619D02*
X121856476Y-126865000D01*
X121951714Y-126769761D01*
X122094571Y-126626904D01*
X122189809Y-126579285D01*
X122285047Y-126579285D01*
X122237428Y-126817380D02*
X122332666Y-126769761D01*
X122427904Y-126674523D01*
X122475523Y-126484047D01*
X122475523Y-126150714D01*
X122427904Y-125960238D01*
X122332666Y-125865000D01*
X122237428Y-125817380D01*
X122046952Y-125817380D01*
X121951714Y-125865000D01*
X121856476Y-125960238D01*
X121808857Y-126150714D01*
X121808857Y-126484047D01*
X121856476Y-126674523D01*
X121951714Y-126769761D01*
X122046952Y-126817380D01*
X122237428Y-126817380D01*
X121475523Y-125817380D02*
X120856476Y-125817380D01*
X121189809Y-126198333D01*
X121046952Y-126198333D01*
X120951714Y-126245952D01*
X120904095Y-126293571D01*
X120856476Y-126388809D01*
X120856476Y-126626904D01*
X120904095Y-126722142D01*
X120951714Y-126769761D01*
X121046952Y-126817380D01*
X121332666Y-126817380D01*
X121427904Y-126769761D01*
X121475523Y-126722142D01*
X113506238Y-102020619D02*
X113601476Y-101973000D01*
X113696714Y-101877761D01*
X113839571Y-101734904D01*
X113934809Y-101687285D01*
X114030047Y-101687285D01*
X113982428Y-101925380D02*
X114077666Y-101877761D01*
X114172904Y-101782523D01*
X114220523Y-101592047D01*
X114220523Y-101258714D01*
X114172904Y-101068238D01*
X114077666Y-100973000D01*
X113982428Y-100925380D01*
X113791952Y-100925380D01*
X113696714Y-100973000D01*
X113601476Y-101068238D01*
X113553857Y-101258714D01*
X113553857Y-101592047D01*
X113601476Y-101782523D01*
X113696714Y-101877761D01*
X113791952Y-101925380D01*
X113982428Y-101925380D01*
X113172904Y-101020619D02*
X113125285Y-100973000D01*
X113030047Y-100925380D01*
X112791952Y-100925380D01*
X112696714Y-100973000D01*
X112649095Y-101020619D01*
X112601476Y-101115857D01*
X112601476Y-101211095D01*
X112649095Y-101353952D01*
X113220523Y-101925380D01*
X112601476Y-101925380D01*
X106394238Y-102020619D02*
X106489476Y-101973000D01*
X106584714Y-101877761D01*
X106727571Y-101734904D01*
X106822809Y-101687285D01*
X106918047Y-101687285D01*
X106870428Y-101925380D02*
X106965666Y-101877761D01*
X107060904Y-101782523D01*
X107108523Y-101592047D01*
X107108523Y-101258714D01*
X107060904Y-101068238D01*
X106965666Y-100973000D01*
X106870428Y-100925380D01*
X106679952Y-100925380D01*
X106584714Y-100973000D01*
X106489476Y-101068238D01*
X106441857Y-101258714D01*
X106441857Y-101592047D01*
X106489476Y-101782523D01*
X106584714Y-101877761D01*
X106679952Y-101925380D01*
X106870428Y-101925380D01*
X105489476Y-101925380D02*
X106060904Y-101925380D01*
X105775190Y-101925380D02*
X105775190Y-100925380D01*
X105870428Y-101068238D01*
X105965666Y-101163476D01*
X106060904Y-101211095D01*
%LPC*%
G36*
G01*
X100895999Y-110128000D02*
X101796001Y-110128000D01*
G75*
G02*
X102046000Y-110377999I0J-249999D01*
G01*
X102046000Y-110903001D01*
G75*
G02*
X101796001Y-111153000I-249999J0D01*
G01*
X100895999Y-111153000D01*
G75*
G02*
X100646000Y-110903001I0J249999D01*
G01*
X100646000Y-110377999D01*
G75*
G02*
X100895999Y-110128000I249999J0D01*
G01*
G37*
G36*
G01*
X100895999Y-108303000D02*
X101796001Y-108303000D01*
G75*
G02*
X102046000Y-108552999I0J-249999D01*
G01*
X102046000Y-109078001D01*
G75*
G02*
X101796001Y-109328000I-249999J0D01*
G01*
X100895999Y-109328000D01*
G75*
G02*
X100646000Y-109078001I0J249999D01*
G01*
X100646000Y-108552999D01*
G75*
G02*
X100895999Y-108303000I249999J0D01*
G01*
G37*
G36*
G01*
X130956000Y-129228001D02*
X130956000Y-128327999D01*
G75*
G02*
X131205999Y-128078000I249999J0D01*
G01*
X131731001Y-128078000D01*
G75*
G02*
X131981000Y-128327999I0J-249999D01*
G01*
X131981000Y-129228001D01*
G75*
G02*
X131731001Y-129478000I-249999J0D01*
G01*
X131205999Y-129478000D01*
G75*
G02*
X130956000Y-129228001I0J249999D01*
G01*
G37*
G36*
G01*
X129131000Y-129228001D02*
X129131000Y-128327999D01*
G75*
G02*
X129380999Y-128078000I249999J0D01*
G01*
X129906001Y-128078000D01*
G75*
G02*
X130156000Y-128327999I0J-249999D01*
G01*
X130156000Y-129228001D01*
G75*
G02*
X129906001Y-129478000I-249999J0D01*
G01*
X129380999Y-129478000D01*
G75*
G02*
X129131000Y-129228001I0J249999D01*
G01*
G37*
G36*
G01*
X130956000Y-131260001D02*
X130956000Y-130359999D01*
G75*
G02*
X131205999Y-130110000I249999J0D01*
G01*
X131731001Y-130110000D01*
G75*
G02*
X131981000Y-130359999I0J-249999D01*
G01*
X131981000Y-131260001D01*
G75*
G02*
X131731001Y-131510000I-249999J0D01*
G01*
X131205999Y-131510000D01*
G75*
G02*
X130956000Y-131260001I0J249999D01*
G01*
G37*
G36*
G01*
X129131000Y-131260001D02*
X129131000Y-130359999D01*
G75*
G02*
X129380999Y-130110000I249999J0D01*
G01*
X129906001Y-130110000D01*
G75*
G02*
X130156000Y-130359999I0J-249999D01*
G01*
X130156000Y-131260001D01*
G75*
G02*
X129906001Y-131510000I-249999J0D01*
G01*
X129380999Y-131510000D01*
G75*
G02*
X129131000Y-131260001I0J249999D01*
G01*
G37*
G36*
G01*
X98863999Y-110128000D02*
X99764001Y-110128000D01*
G75*
G02*
X100014000Y-110377999I0J-249999D01*
G01*
X100014000Y-110903001D01*
G75*
G02*
X99764001Y-111153000I-249999J0D01*
G01*
X98863999Y-111153000D01*
G75*
G02*
X98614000Y-110903001I0J249999D01*
G01*
X98614000Y-110377999D01*
G75*
G02*
X98863999Y-110128000I249999J0D01*
G01*
G37*
G36*
G01*
X98863999Y-108303000D02*
X99764001Y-108303000D01*
G75*
G02*
X100014000Y-108552999I0J-249999D01*
G01*
X100014000Y-109078001D01*
G75*
G02*
X99764001Y-109328000I-249999J0D01*
G01*
X98863999Y-109328000D01*
G75*
G02*
X98614000Y-109078001I0J249999D01*
G01*
X98614000Y-108552999D01*
G75*
G02*
X98863999Y-108303000I249999J0D01*
G01*
G37*
G36*
G01*
X100603000Y-112972001D02*
X100603000Y-112071999D01*
G75*
G02*
X100852999Y-111822000I249999J0D01*
G01*
X101378001Y-111822000D01*
G75*
G02*
X101628000Y-112071999I0J-249999D01*
G01*
X101628000Y-112972001D01*
G75*
G02*
X101378001Y-113222000I-249999J0D01*
G01*
X100852999Y-113222000D01*
G75*
G02*
X100603000Y-112972001I0J249999D01*
G01*
G37*
G36*
G01*
X98778000Y-112972001D02*
X98778000Y-112071999D01*
G75*
G02*
X99027999Y-111822000I249999J0D01*
G01*
X99553001Y-111822000D01*
G75*
G02*
X99803000Y-112071999I0J-249999D01*
G01*
X99803000Y-112972001D01*
G75*
G02*
X99553001Y-113222000I-249999J0D01*
G01*
X99027999Y-113222000D01*
G75*
G02*
X98778000Y-112972001I0J249999D01*
G01*
G37*
G36*
G01*
X132899999Y-130194000D02*
X133800001Y-130194000D01*
G75*
G02*
X134050000Y-130443999I0J-249999D01*
G01*
X134050000Y-130969001D01*
G75*
G02*
X133800001Y-131219000I-249999J0D01*
G01*
X132899999Y-131219000D01*
G75*
G02*
X132650000Y-130969001I0J249999D01*
G01*
X132650000Y-130443999D01*
G75*
G02*
X132899999Y-130194000I249999J0D01*
G01*
G37*
G36*
G01*
X132899999Y-128369000D02*
X133800001Y-128369000D01*
G75*
G02*
X134050000Y-128618999I0J-249999D01*
G01*
X134050000Y-129144001D01*
G75*
G02*
X133800001Y-129394000I-249999J0D01*
G01*
X132899999Y-129394000D01*
G75*
G02*
X132650000Y-129144001I0J249999D01*
G01*
X132650000Y-128618999D01*
G75*
G02*
X132899999Y-128369000I249999J0D01*
G01*
G37*
D13*
X158623000Y-121190000D03*
X158623000Y-125190000D03*
X154178000Y-121190000D03*
X154178000Y-125190000D03*
X149733000Y-121190000D03*
X149733000Y-125190000D03*
X145288000Y-121190000D03*
X145288000Y-125190000D03*
X140843000Y-121190000D03*
X140843000Y-125190000D03*
D14*
X170053000Y-70485000D03*
X167513000Y-70485000D03*
X164973000Y-70485000D03*
X170053000Y-73025000D03*
X167513000Y-73025000D03*
G36*
G01*
X165573000Y-73875000D02*
X164373000Y-73875000D01*
G75*
G02*
X164123000Y-73625000I0J250000D01*
G01*
X164123000Y-72425000D01*
G75*
G02*
X164373000Y-72175000I250000J0D01*
G01*
X165573000Y-72175000D01*
G75*
G02*
X165823000Y-72425000I0J-250000D01*
G01*
X165823000Y-73625000D01*
G75*
G02*
X165573000Y-73875000I-250000J0D01*
G01*
G37*
D15*
X130937000Y-135890000D03*
D16*
X162160000Y-130810000D03*
X157160000Y-130810000D03*
X152160000Y-130810000D03*
X147160000Y-130810000D03*
X142160000Y-130810000D03*
G36*
G01*
X136160000Y-132360000D02*
X136160000Y-129260000D01*
G75*
G02*
X136410000Y-129010000I250000J0D01*
G01*
X137910000Y-129010000D01*
G75*
G02*
X138160000Y-129260000I0J-250000D01*
G01*
X138160000Y-132360000D01*
G75*
G02*
X137910000Y-132610000I-250000J0D01*
G01*
X136410000Y-132610000D01*
G75*
G02*
X136160000Y-132360000I0J250000D01*
G01*
G37*
X124728000Y-130810000D03*
X119728000Y-130810000D03*
X114728000Y-130810000D03*
G36*
G01*
X108728000Y-132360000D02*
X108728000Y-129260000D01*
G75*
G02*
X108978000Y-129010000I250000J0D01*
G01*
X110478000Y-129010000D01*
G75*
G02*
X110728000Y-129260000I0J-250000D01*
G01*
X110728000Y-132360000D01*
G75*
G02*
X110478000Y-132610000I-250000J0D01*
G01*
X108978000Y-132610000D01*
G75*
G02*
X108728000Y-132360000I0J250000D01*
G01*
G37*
X93646000Y-130810000D03*
G36*
G01*
X87646000Y-132360000D02*
X87646000Y-129260000D01*
G75*
G02*
X87896000Y-129010000I250000J0D01*
G01*
X89396000Y-129010000D01*
G75*
G02*
X89646000Y-129260000I0J-250000D01*
G01*
X89646000Y-132360000D01*
G75*
G02*
X89396000Y-132610000I-250000J0D01*
G01*
X87896000Y-132610000D01*
G75*
G02*
X87646000Y-132360000I0J250000D01*
G01*
G37*
D17*
X180340000Y-68326000D03*
X88392000Y-68580000D03*
X142748000Y-95631000D03*
X180848000Y-127762000D03*
X101600000Y-135890000D03*
D18*
X128652000Y-110339000D03*
D19*
X130932000Y-104039000D03*
X126372000Y-104039000D03*
D18*
X121540000Y-110339000D03*
D19*
X123820000Y-104039000D03*
X119260000Y-104039000D03*
D18*
X108585000Y-123512000D03*
D19*
X110865000Y-117212000D03*
X106305000Y-117212000D03*
D18*
X101474000Y-123512000D03*
D19*
X103754000Y-117212000D03*
X99194000Y-117212000D03*
D18*
X133478000Y-123547000D03*
D19*
X135758000Y-117247000D03*
X131198000Y-117247000D03*
D18*
X126364000Y-123547000D03*
D19*
X128644000Y-117247000D03*
X124084000Y-117247000D03*
D18*
X113412000Y-110339000D03*
D19*
X115692000Y-104039000D03*
X111132000Y-104039000D03*
D18*
X106300000Y-110339000D03*
D19*
X108580000Y-104039000D03*
X104020000Y-104039000D03*
D20*
X176825000Y-135001000D03*
X172425000Y-135001000D03*
D21*
X123190000Y-89535000D02*
X119888000Y-89535000D01*
X119888000Y-86233000D01*
X123190000Y-86233000D01*
X123190000Y-89535000D01*
D22*
G36*
X123190000Y-89535000D02*
G01*
X119888000Y-89535000D01*
X119888000Y-86233000D01*
X123190000Y-86233000D01*
X123190000Y-89535000D01*
G37*
D21*
X99060000Y-78867000D02*
X96012000Y-78867000D01*
X96012000Y-75819000D01*
X99060000Y-75819000D01*
X99060000Y-78867000D01*
D22*
G36*
X99060000Y-78867000D02*
G01*
X96012000Y-78867000D01*
X96012000Y-75819000D01*
X99060000Y-75819000D01*
X99060000Y-78867000D01*
G37*
M02*
